<?xml version="1.0" encoding="UTF-8" standalone="no"?>
<!-- Created with Inkscape (http://www.inkscape.org/) -->

<svg
   xmlns:dc="http://purl.org/dc/elements/1.1/"
   xmlns:cc="http://creativecommons.org/ns#"
   xmlns:rdf="http://www.w3.org/1999/02/22-rdf-syntax-ns#"
   xmlns:svg="http://www.w3.org/2000/svg"
   xmlns="http://www.w3.org/2000/svg"
   xmlns:sodipodi="http://sodipodi.sourceforge.net/DTD/sodipodi-0.dtd"
   xmlns:inkscape="http://www.inkscape.org/namespaces/inkscape"
   width="48"
   height="48"
   viewBox="0 0 12.7 12.7"
   version="1.1"
   id="svg8"
   inkscape:version="0.92.2 (5c3e80d, 2017-08-06)"
   sodipodi:docname="application-users.svg">
  <defs
     id="defs2" />
  <sodipodi:namedview
     id="base"
     pagecolor="#ffffff"
     bordercolor="#666666"
     borderopacity="1.0"
     inkscape:pageopacity="0.0"
     inkscape:pageshadow="2"
     inkscape:zoom="3.959798"
     inkscape:cx="20.633312"
     inkscape:cy="17.805093"
     inkscape:document-units="mm"
     inkscape:current-layer="layer1"
     showgrid="true"
     inkscape:window-width="1360"
     inkscape:window-height="718"
     inkscape:window-x="0"
     inkscape:window-y="24"
     inkscape:window-maximized="1"
     units="px">
    <inkscape:grid
       type="xygrid"
       id="grid815" />
  </sodipodi:namedview>
  <metadata
     id="metadata5">
    <rdf:RDF>
      <cc:Work
         rdf:about="">
        <dc:format>image/svg+xml</dc:format>
        <dc:type
           rdf:resource="http://purl.org/dc/dcmitype/StillImage" />
        <dc:title></dc:title>
      </cc:Work>
    </rdf:RDF>
  </metadata>
  <g
     inkscape:label="Capa 1"
     inkscape:groupmode="layer"
     id="layer1"
     transform="translate(0,-284.3)">
    <rect
       style="opacity:1;fill:#414d60;fill-opacity:1;fill-rule:nonzero;stroke:none;stroke-width:0.29205534;stroke-linecap:round;stroke-linejoin:miter;stroke-miterlimit:4;stroke-dasharray:none;stroke-dashoffset:0;stroke-opacity:0.8802817"
       id="rect817"
       width="8.7312498"
       height="11.377084"
       x="1.8520833"
       y="285.09375"
       ry="0.36506954" />
    <path
       style="fill:#ffffff;fill-opacity:0.23529412;fill-rule:evenodd;stroke:none;stroke-width:0.07301383px;stroke-linecap:butt;stroke-linejoin:miter;stroke-opacity:1"
       d="M 2.38125,285.62292 H 5.0270833 L 2.38125,288.26875 Z"
       id="path819"
       inkscape:connector-curvature="0"
       sodipodi:nodetypes="cccc" />
    <path
       style="fill:#ffffff;fill-opacity:1;stroke:none;stroke-width:0.14252628;stroke-linecap:round;stroke-linejoin:round;stroke-miterlimit:4;stroke-dasharray:none;stroke-dashoffset:0;stroke-opacity:1"
       d="m 7.2812095,288.49664 a 1.0580114,1.0370976 0 0 0 -1.0283611,0.99116 1.0580114,1.0370976 0 0 0 1.0082072,1.08158 1.0580114,1.0370976 0 0 0 1.1053588,-0.9865 l 5.167e-4,-0.008 a 1.0580114,1.0370976 0 0 0 -1.0123413,-1.07797 1.0580114,1.0370976 0 0 0 -0.07338,-5.2e-4 z m -1.8520833,0.79375 a 1.0580113,1.0370976 0 0 0 -1.0283611,0.99116 1.0580113,1.0370976 0 0 0 1.0082072,1.08158 1.0580113,1.0370976 0 0 0 0.1173054,-0.002 c 0.2069979,-0.24404 0.4829083,-0.43474 0.8588624,-0.53691 a 1.0580113,1.0370976 0 0 0 0.1116211,-0.31058 C 6.16742,290.27295 5.972837,289.83144 5.9882651,289.4878 c 8.123e-4,-0.0181 0.00601,-0.0349 0.00775,-0.0527 a 1.0580113,1.0370976 0 0 0 -0.4935101,-0.14418 1.0580113,1.0370976 0 0 0 -0.07338,-5.2e-4 z m 1.8789549,1.61541 c -1.8520833,0 -2.1166666,1.58749 -2.1166666,2.91042 h 4.2333332 c 0,-1.32293 0,-2.91042 -2.1166666,-2.91042 z m -2.0164144,0.80253 c -1.6995841,0.0942 -1.9523356,1.61999 -1.9523356,2.90164 h 4.2333333 c 0,-0.17328 -9.281e-4,-0.35098 -0.00568,-0.52917 h -2.640149 c 0,-0.73126 0.00171,-1.67437 0.3648356,-2.37247 z"
       id="path817"
       inkscape:connector-curvature="0" />
  </g>
</svg>
