<?xml version="1.0" encoding="UTF-8" standalone="no"?>
<svg
   height="48"
   width="48"
   version="1.1"
   id="svg18"
   sodipodi:docname="applications-all.svg"
   inkscape:version="1.1.2 (0a00cf5339, 2022-02-04)"
   xmlns:inkscape="http://www.inkscape.org/namespaces/inkscape"
   xmlns:sodipodi="http://sodipodi.sourceforge.net/DTD/sodipodi-0.dtd"
   xmlns="http://www.w3.org/2000/svg"
   xmlns:svg="http://www.w3.org/2000/svg"
   xmlns:rdf="http://www.w3.org/1999/02/22-rdf-syntax-ns#"
   xmlns:cc="http://creativecommons.org/ns#"
   xmlns:dc="http://purl.org/dc/elements/1.1/">
  <metadata
     id="metadata24">
    <rdf:RDF>
      <cc:Work
         rdf:about="">
        <dc:format>image/svg+xml</dc:format>
        <dc:type
           rdf:resource="http://purl.org/dc/dcmitype/StillImage" />
      </cc:Work>
    </rdf:RDF>
  </metadata>
  <defs
     id="defs22" />
  <sodipodi:namedview
     pagecolor="#ffffff"
     bordercolor="#666666"
     borderopacity="1"
     objecttolerance="10"
     gridtolerance="10"
     guidetolerance="10"
     inkscape:pageopacity="0"
     inkscape:pageshadow="2"
     inkscape:window-width="1920"
     inkscape:window-height="1028"
     id="namedview20"
     showgrid="true"
     inkscape:zoom="4.9166667"
     inkscape:cx="-3.1525423"
     inkscape:cy="28.169491"
     inkscape:window-x="0"
     inkscape:window-y="24"
     inkscape:window-maximized="1"
     inkscape:current-layer="svg18"
     inkscape:pagecheckerboard="0">
    <inkscape:grid
       type="xygrid"
       id="grid834" />
  </sodipodi:namedview>
  <path
     id="circle2"
     style="opacity:0.99;fill:#b7c4c8"
     transform="matrix(1.72140702696 0 0 1.72140725788 -17.2289093957 -30.06939350282)"
     d="M 37.173613,31.534513 A 13.232998,13.232998 0 0 1 23.940615,44.767511 13.232998,13.232998 0 0 1 10.707617,31.534513 13.232998,13.232998 0 0 1 23.940615,18.301516 13.232998,13.232998 0 0 1 37.173613,31.534513 Z" />
  <path
     id="path4490"
     style="opacity:1;fill:#fcfcfd;stroke-width:18.3369;stroke-linecap:round;stroke-linejoin:bevel;fill-opacity:1"
     d="M 43.541956,24.214346 A 19.559322,19.559322 0 0 1 23.982634,43.773668 19.559322,19.559322 0 0 1 4.4233112,24.214346 19.559322,19.559322 0 0 1 23.982634,4.6550236 19.559322,19.559322 0 0 1 43.541956,24.214346 Z" />
  <g
     id="g839"
     transform="translate(0,-0.5593211)">
    <g
       id="g4500"
       transform="translate(-0.23770428,-7.4466717)">
      <path
         id="path4494"
         style="opacity:1;fill:#7acfde;stroke-width:15;stroke-linecap:round;stroke-linejoin:bevel;fill-opacity:1"
         d="m 21.237288,24.542374 a 5,5 0 0 1 -5,5 5,5 0 0 1 -5,-5 5,5 0 0 1 5,-5 5,5 0 0 1 5,5 z" />
      <path
         id="circle4496"
         style="opacity:1;fill:#b48ead;stroke-width:15;stroke-linecap:round;stroke-linejoin:bevel"
         d="m 37.203388,24.542374 a 5,5 0 0 1 -5,5 5,5 0 0 1 -5,-5 5,5 0 0 1 5,-5 5,5 0 0 1 5,5 z" />
    </g>
    <g
       id="g831"
       transform="translate(-0.23770428,7.9092604)">
      <path
         id="circle827"
         style="opacity:1;fill:#f5e1a4;stroke-width:15;stroke-linecap:round;stroke-linejoin:bevel;fill-opacity:1"
         d="m 21.237288,24.542374 a 5,5 0 0 1 -5,5 5,5 0 0 1 -5,-5 5,5 0 0 1 5,-5 5,5 0 0 1 5,5 z" />
      <path
         id="circle829"
         style="opacity:1;fill:#d88e81;stroke-width:15;stroke-linecap:round;stroke-linejoin:bevel;fill-opacity:1"
         d="m 37.203388,24.542374 a 5,5 0 0 1 -5,5 5,5 0 0 1 -5,-5 5,5 0 0 1 5,-5 5,5 0 0 1 5,5 z" />
    </g>
  </g>
</svg>
