<?xml version="1.0" encoding="UTF-8" standalone="no"?>
<svg
   sodipodi:docname="archipelago.svg"
   inkscape:version="1.1.2 (0a00cf5339, 2022-02-04)"
   id="svg5184"
   version="1.1"
   viewBox="0 0 12.7 12.7"
   height="48"
   width="48"
   xmlns:inkscape="http://www.inkscape.org/namespaces/inkscape"
   xmlns:sodipodi="http://sodipodi.sourceforge.net/DTD/sodipodi-0.dtd"
   xmlns="http://www.w3.org/2000/svg"
   xmlns:svg="http://www.w3.org/2000/svg"
   xmlns:rdf="http://www.w3.org/1999/02/22-rdf-syntax-ns#"
   xmlns:cc="http://creativecommons.org/ns#"
   xmlns:dc="http://purl.org/dc/elements/1.1/">
  <defs
     id="defs5178" />
  <sodipodi:namedview
     inkscape:window-maximized="1"
     inkscape:window-y="24"
     inkscape:window-x="0"
     inkscape:window-height="1030"
     inkscape:window-width="1920"
     inkscape:measure-end="30,1"
     inkscape:measure-start="45,1"
     units="px"
     showgrid="true"
     inkscape:current-layer="layer1"
     inkscape:document-units="mm"
     inkscape:cy="41.205357"
     inkscape:cx="8.3928572"
     inkscape:zoom="11.2"
     inkscape:pageshadow="2"
     inkscape:pageopacity="0.0"
     borderopacity="1.0"
     bordercolor="#666666"
     pagecolor="#ffffff"
     id="base"
     inkscape:pagecheckerboard="0">
    <inkscape:grid
       id="grid5729"
       type="xygrid" />
  </sodipodi:namedview>
  <metadata
     id="metadata5181">
    <rdf:RDF>
      <cc:Work
         rdf:about="">
        <dc:format>image/svg+xml</dc:format>
        <dc:type
           rdf:resource="http://purl.org/dc/dcmitype/StillImage" />
      </cc:Work>
    </rdf:RDF>
  </metadata>
  <g
     transform="translate(0,-284.29998)"
     id="layer1"
     inkscape:groupmode="layer"
     inkscape:label="Capa 1">
    <rect
       ry="0.52916902"
       rx="0.52916902"
       y="285.09372"
       x="0.52916664"
       height="11.641677"
       width="11.377084"
       id="rect5731"
       style="opacity:1;fill:#a084d2;fill-opacity:1;stroke:none;stroke-width:1;stroke-miterlimit:4;stroke-dasharray:none;stroke-opacity:1" />
    <path
       style="fill:#ffffff;fill-opacity:0.987073;stroke-width:0.194778"
       d="m 5.0642113,288.22829 c -0.098027,0.003 -0.1876132,0.0565 -0.2385111,0.14037 l -3.2136183,5.25884 c -0.1181355,0.19437 0.021335,0.44324 0.2487814,0.44394 h 8.7644147 c 0.211187,4.3e-4 0.353123,-0.21634 0.268181,-0.4097 l -2.0450301,-4.67453 c -0.048483,-0.11068 -0.1600597,-0.18003 -0.2807344,-0.17461 -0.112108,0.006 -0.2114582,0.0738 -0.255629,0.1769 l -1.154894,2.67735 -1.827061,-3.28792 c -0.05321,-0.0963 -0.1559775,-0.15448 -0.2658992,-0.15064 z m 0.011137,0.87647 0.800256,1.46079 H 5.0744812 L 4.490187,291.14986 4.0679436,290.7276 Z m 3.5051714,0.48689 0.6810243,1.8013 -0.6812967,0.34123 -0.6721667,-0.33553 z m -4.7716279,1.55821 h 0.097001 l 0.5842941,0.58432 0.5842942,-0.58432 h 1.126364 l 0.7189566,1.29302 c 0.00791,0.0193 0.017853,0.0376 0.029668,0.0548 l 0.5500596,0.98946 H 2.38125 Z m 5.6626332,0.72241 0.706403,1.61485 H 8.1682738 l -0.6539075,-1.17547 0.1871574,-0.43253 0.8787231,0.43939 z"
       id="path10" />
  </g>
</svg>
