<?xml version="1.0" encoding="UTF-8" standalone="no"?>
<svg
   viewBox="0 0 48 48"
   version="1.1"
   id="svg49"
   sodipodi:docname="dia.svg"
   inkscape:version="1.1.2 (0a00cf5339, 2022-02-04)"
   xmlns:inkscape="http://www.inkscape.org/namespaces/inkscape"
   xmlns:sodipodi="http://sodipodi.sourceforge.net/DTD/sodipodi-0.dtd"
   xmlns="http://www.w3.org/2000/svg"
   xmlns:svg="http://www.w3.org/2000/svg">
  <sodipodi:namedview
     id="namedview51"
     pagecolor="#505050"
     bordercolor="#eeeeee"
     borderopacity="1"
     inkscape:pageshadow="0"
     inkscape:pageopacity="0"
     inkscape:pagecheckerboard="0"
     showgrid="false"
     inkscape:zoom="14.729167"
     inkscape:cx="24.033946"
     inkscape:cy="23.966053"
     inkscape:window-width="1280"
     inkscape:window-height="1365"
     inkscape:window-x="1280"
     inkscape:window-y="0"
     inkscape:window-maximized="0"
     inkscape:current-layer="svg49" />
  <defs
     id="defs7">
    <linearGradient
       id="linearGradient3764"
       x1="1"
       x2="47"
       gradientUnits="userSpaceOnUse"
       gradientTransform="matrix(0,-1,1,0,-1.5e-6,47.999998)">
      <stop
         style="stop-color:#333;stop-opacity:1"
         id="stop2" />
      <stop
         offset="1"
         style="stop-color:#3d3d3d;stop-opacity:1"
         id="stop4" />
    </linearGradient>
  </defs>
  <g
     id="g19"
     style="fill:#434c5e">
    <path
       d="M 24,1 C 36.703,1 47,11.297 47,24 47,36.703 36.703,47 24,47 11.297,47 1,36.703 1,24 1,11.297 11.297,1 24,1 Z"
       style="fill:#434c5e;fill-opacity:1"
       id="path17" />
  </g>
  <g
     transform="translate(1)"
     id="g41"
     style="fill:#d08770">
    <g
       id="g39"
       style="fill:#d08770">
      <!-- color: #3d3d3d -->
      <g
         id="g37"
         style="fill:#d08770">
        <path
           d="m 24,19 -5,9 H 29 M 25.8,26 H 22.2 L 24,22.6"
           style="fill:#d08770;fill-opacity:1;fill-rule:nonzero;stroke:none"
           id="path35" />
      </g>
    </g>
  </g>
  <path
     d="m 15 10 0 3 1 0 0 1 -2 0 0 3 2 0 0 14 -2 0 0 3 2 0 0 0.877 -1 0 l 2 3.123 l 2 -3.123 -1 0 l 0 -0.877 9 0 c 5.54 0 10 -4.46 10 -10 0 -5.54 -4.46 -10 -10 -10 l -9 0 0 -1 1 0 0 -3 z m 3 7 9 0 c 3.878 0 7 3.122 7 7 0 3.878 -3.122 7 -7 7 l -9 0 z"
     style="fill:#e5e9f0;opacity:1;fill-opacity:1;stroke:none"
     id="path47" />
</svg>
