<?xml version="1.0" encoding="UTF-8" standalone="no"?>
<svg
   height="48"
   width="48"
   version="1.1"
   id="svg6"
   sodipodi:docname="jasp.svg"
   inkscape:version="1.1.2 (0a00cf5339, 2022-02-04)"
   xmlns:inkscape="http://www.inkscape.org/namespaces/inkscape"
   xmlns:sodipodi="http://sodipodi.sourceforge.net/DTD/sodipodi-0.dtd"
   xmlns="http://www.w3.org/2000/svg"
   xmlns:svg="http://www.w3.org/2000/svg">
  <defs
     id="defs10" />
  <sodipodi:namedview
     id="namedview8"
     pagecolor="#ffffff"
     bordercolor="#666666"
     borderopacity="1.0"
     inkscape:pageshadow="2"
     inkscape:pageopacity="0.0"
     inkscape:pagecheckerboard="0"
     showgrid="false"
     inkscape:zoom="8.1875"
     inkscape:cx="11.175573"
     inkscape:cy="16.916031"
     inkscape:window-width="1920"
     inkscape:window-height="1030"
     inkscape:window-x="0"
     inkscape:window-y="24"
     inkscape:window-maximized="1"
     inkscape:current-layer="svg6" />
  <path
     d="m44.322082 27.405077a19.729762 19.729765 0 0 1 -19.729762 19.729765 19.729762 19.729765 0 0 1 -19.7297621-19.729765 19.729762 19.729765 0 0 1 19.7297621-19.7297632 19.729762 19.729765 0 0 1 19.729762 19.7297632z"
     opacity=".99"
     transform="matrix(1.1503549 0 0 1.1503549 -4.486125 -7.525565)"
     id="path2"
     style="fill:#98cc75;fill-opacity:1" />
  <path
     style="fill:#ffffff;stroke-width:0.911058"
     d="m 35.239392,7.8182892 c -0.916784,0 -1.697767,0.656222 -1.85648,1.560056 -0.01164,0.06598 -0.01963,0.133543 -0.02376,0.201306 l -5.041578,1.6709118 c -0.324493,-0.418424 -0.790327,-0.703689 -1.30701,-0.794886 -0.122272,-0.02187 -0.247821,-0.03292 -0.37338,-0.03292 -1.037754,0 -1.921237,0.742811 -2.100693,1.765968 -0.153986,0.869864 0.256016,1.743022 1.007764,2.195087 l -4.805105,25.60754 c -0.637846,0.03634 -1.223573,0.358346 -1.598202,0.871583 l -5.960291,-3.408841 c 0.0089,-0.03488 0.01558,-0.06887 0.021,-0.102298 0.08051,-0.454746 -0.02066,-0.911357 -0.284285,-1.284802 -0.140003,-0.19906 -0.321335,-0.365789 -0.531732,-0.489691 l 0.472241,-4.203554 c 0.25333,-0.04738 0.492392,-0.150614 0.698395,-0.302671 l 7.563435,3.671831 0.220273,-1.252781 -3.293773,-1.847272 0.494446,-2.773911 c 0.688757,-0.08564 1.223457,-0.675392 1.223457,-1.387539 0,-0.771108 -0.626634,-1.398591 -1.396785,-1.398591 -0.679965,0 -1.257615,0.487938 -1.375161,1.172401 0,0 -0.01164,0.09189 -0.01626,0.155714 -0.0038,0.02318 -0.0051,0.04633 -0.0051,0.07041 l 0.0026,0.04933 c 2.34e-4,0.0065 8.28e-4,0.013 0.0012,0.01915 l -2.983522,1.21746 c -0.01335,-0.02187 -0.0279,-0.04268 -0.04215,-0.06286 -0.262902,-0.376902 -0.656993,-0.628107 -1.107672,-0.706886 -0.09518,-0.01732 -0.196305,-0.02576 -0.30064,-0.02576 -0.835214,0 -1.545732,0.597054 -1.689352,1.418164 -0.126543,0.706019 0.214143,1.420817 0.823375,1.779335 l -0.470412,4.197334 c -0.704624,0.124924 -1.2585347,0.669966 -1.3820484,1.387295 -0.081677,0.451754 0.018938,0.908062 0.2826664,1.28434 0.263211,0.376126 0.657412,0.627252 1.109505,0.707123 0.434498,0.07769 0.917417,-0.0272 1.289518,-0.292754 l 6.230307,3.554646 c -0.02754,0.478641 0.103923,0.948591 0.378657,1.341702 0.327809,0.468099 0.817384,0.78037 1.377917,0.878491 0.125883,0.02239 0.247888,0.03305 0.373141,0.03305 1.037446,0 1.920848,-0.742473 2.100463,-1.763443 0.01164,-0.0656 0.01929,-0.130161 0.02376,-0.190695 l 5.402956,-2.312461 c 0.279258,0.308526 0.650674,0.515452 1.066464,0.589208 0.107843,0.01825 0.218412,0.02824 0.328257,0.02824 0.916765,0 1.697756,-0.656303 1.856464,-1.560292 0.08729,-0.495942 -0.02376,-0.996462 -0.313519,-1.4108 -0.108322,-0.153918 -0.235663,-0.288485 -0.379582,-0.401693 l 4.744833,-25.704241 c 0.720808,-0.175616 1.273121,-0.756789 1.403229,-1.500393 0.181194,-1.0247328 -0.504812,-2.0059408 -1.52938,-2.1872418 l -0.0013,-4.98e-4 c -0.106268,-0.01821 -0.21948,-0.02785 -0.326638,-0.02785 z m -2.48e-4,1.200266 c 0.04073,0 0.0813,0.0038 0.120833,0.01041 0.112362,0.01966 0.217414,0.07015 0.323643,0.157082 0.187318,0.162424 0.274539,0.401114 0.232737,0.638703 -0.04243,0.2394798 -0.209013,0.4409018 -0.434822,0.5247048 -0.111454,0.04216 -0.237765,0.05428 -0.360473,0.03254 -0.357514,-0.06261 -0.602474,-0.3943378 -0.56397,-0.7515888 l 0.0089,-0.04881 c 0.05972,-0.326277 0.342994,-0.563164 0.673303,-0.563164 z m -1.353278,1.9921568 c 0.09222,0.09579 0.194722,0.181283 0.306597,0.256139 l -4.727376,25.601027 c -0.781635,0.130812 -1.400245,0.732737 -1.54089,1.530108 -0.0079,0.04921 -0.01438,0.09906 -0.01859,0.148577 l -5.347477,2.293106 C 22.454207,40.700351 22.335345,40.57601 22.203183,40.467671 l 4.840292,-25.817842 c 0.860839,-0.165094 1.544286,-0.845984 1.697197,-1.718515 0.01301,-0.07327 0.02239,-0.147152 0.0279,-0.220892 z m -7.248949,0.61229 c 0.05633,0 0.110188,0.0053 0.164598,0.01549 0.221098,0.03865 0.422244,0.160548 0.566489,0.343886 0.163759,0.207408 0.232668,0.461294 0.195446,0.716338 l -0.0065,0.04517 c -0.07113,0.35379 -0.341478,0.634864 -0.696779,0.720711 -0.152394,0.03826 -0.265793,0.0371 -0.382576,0.01622 -0.126824,-0.02266 -0.246821,-0.07119 -0.355865,-0.144656 -0.308181,-0.207085 -0.466314,-0.576296 -0.40284,-0.93999 0.07986,-0.44798 0.466115,-0.773006 0.918692,-0.773006 z m -8.269682,15.482526 c 0.207602,0 0.376355,0.168825 0.376355,0.375903 0,0.208032 -0.168757,0.377295 -0.376355,0.377295 -0.207428,0 -0.376352,-0.16927 -0.376352,-0.377295 0,-0.207085 0.168927,-0.375903 0.376352,-0.375903 z m -1.051039,1.290566 c 0.04659,0.05193 0.101442,0.105293 0.171272,0.164683 0.05373,0.04385 0.107844,0.08265 0.162493,0.116367 l -0.446803,2.493133 -2.985426,-1.105476 c 0.0051,-0.02617 0.01164,-0.0523 0.01626,-0.07899 0.01895,-0.110496 0.02617,-0.226229 0.021,-0.345727 z m -4.776059,0.775677 c 0.03065,0 0.06271,0.0026 0.09028,0.0079 0.137949,0.02448 0.253708,0.09877 0.334008,0.213054 0.07582,0.108289 0.107569,0.23853 0.09093,0.364162 l -0.01722,0.05155 c -0.03271,0.140413 -0.122922,0.256084 -0.254811,0.326843 l -0.118763,0.04673 c -0.09896,0.02754 -0.160934,0.02617 -0.211527,0.01756 -0.06945,-0.01164 -0.138907,-0.04101 -0.200024,-0.08253 -0.169544,-0.114809 -0.256188,-0.31803 -0.220515,-0.5171 l 4.71e-4,-0.0013 c 0.04281,-0.247057 0.255988,-0.426378 0.507106,-0.426378 z m -1.029319,7.363268 c 0.02892,0 0.05995,0.0038 0.09053,0.0089 0.06945,0.013 0.138907,0.04176 0.202573,0.08446 0.05568,0.0388 0.09872,0.08072 0.132112,0.128331 0.07555,0.107364 0.10668,0.23687 0.08818,0.366932 -0.01027,0.02341 -0.02032,0.04761 -0.02617,0.06884 -0.04435,0.151401 -0.143836,0.267997 -0.28246,0.329152 -0.114176,0.0509 -0.211666,0.05413 -0.295546,0.04101 -0.13529,-0.02307 -0.253019,-0.09851 -0.332871,-0.213764 -0.0791,-0.112328 -0.109395,-0.24875 -0.08495,-0.386512 0.0334,-0.196237 0.181259,-0.350276 0.409279,-0.408139 0.04018,-0.01027 0.07503,-0.01929 0.09924,-0.01929 z m 18.282516,1.491871 c 0.386407,0 0.699767,0.313416 0.699767,0.700228 0,0.386652 -0.313346,0.700212 -0.699767,0.700212 -0.386581,0 -0.700007,-0.313553 -0.700007,-0.700212 0,-0.386822 0.313416,-0.700228 0.700007,-0.700228 z m -0.01027,0.01027 c 0.04308,-5.88e-4 0.08219,0.0038 0.119277,0.0089 0.0783,0.01403 0.152343,0.04166 0.219619,0.08082 -0.06725,-0.03928 -0.141354,-0.0669 -0.219619,-0.08109 -0.03695,-0.0065 -0.0762,-0.0089 -0.119277,-0.0089 z m -0.142723,0.0166 c -0.06439,0.01335 -0.12513,0.03605 -0.18095,0.06584 0.05592,-0.02995 0.116555,-0.05234 0.18095,-0.06584 z m -0.07089,1.322581 c 0.031,0.01027 0.06256,0.01859 0.09484,0.02444 0.03474,0.0065 0.07334,0.0089 0.111591,0.0089 -0.03836,-5.88e-4 -0.07671,-0.0038 -0.111591,-0.0089 -0.03237,-0.0051 -0.06387,-0.01369 -0.09484,-0.0241 z m -8.708937,1.811463 c 0.05438,0 0.110188,0.0051 0.163878,0.01489 0.207429,0.03632 0.393788,0.144076 0.537738,0.3098 l 0.04421,0.05114 c 0.04931,0.06625 0.08912,0.136939 0.119276,0.212592 0.05891,0.143905 0.0814,0.291518 0.06749,0.439949 l -0.01489,0.01722 v 0.07183 c -0.09821,0.491528 -0.569897,0.831093 -1.079822,0.740521 -0.245309,-0.04308 -0.45908,-0.17988 -0.602859,-0.386041 -0.09845,-0.139764 -0.155577,-0.306047 -0.164837,-0.478398 -0.0038,-0.0884 -0.0011,-0.158573 0.0089,-0.219756 0.01756,-0.09893 0.05282,-0.197166 0.105635,-0.291826 0.163913,-0.295922 0.47513,-0.48057 0.814873,-0.481637 z"
     id="path8" />
</svg>
