<?xml version="1.0" encoding="UTF-8" standalone="no"?>
<svg
   height="48"
   width="48"
   version="1.1"
   id="svg6"
   sodipodi:docname="linuxmint-logo-filled-leaf.svg"
   inkscape:version="1.1.2 (0a00cf5339, 2022-02-04)"
   xmlns:inkscape="http://www.inkscape.org/namespaces/inkscape"
   xmlns:sodipodi="http://sodipodi.sourceforge.net/DTD/sodipodi-0.dtd"
   xmlns="http://www.w3.org/2000/svg"
   xmlns:svg="http://www.w3.org/2000/svg">
  <defs
     id="defs10" />
  <sodipodi:namedview
     id="namedview8"
     pagecolor="#ffffff"
     bordercolor="#666666"
     borderopacity="1.0"
     inkscape:pageshadow="2"
     inkscape:pageopacity="0.0"
     inkscape:pagecheckerboard="0"
     showgrid="false"
     inkscape:zoom="8.1875"
     inkscape:cx="12.641221"
     inkscape:cy="32.122137"
     inkscape:window-width="1920"
     inkscape:window-height="1033"
     inkscape:window-x="0"
     inkscape:window-y="24"
     inkscape:window-maximized="1"
     inkscape:current-layer="svg6" />
  <path
     id="path2"
     style="stroke-width:1.15035;fill:#a3be8c;fill-opacity:1"
     d="M 23.804688 1.3046875 A 22.696228 22.696232 0 0 0 1.1074219 24 A 22.696228 22.696232 0 0 0 23.804688 46.695312 A 22.696228 22.696232 0 0 0 46.5 24 A 22.696228 22.696232 0 0 0 23.804688 1.3046875 z " />
  <g
     transform="matrix(0.16615418,0,0,0.16615418,-73.66796,-72.623091)"
     id="g30">
    <g
       fill-rule="evenodd"
       id="g28">
      <path
         d="m 671.91,642.97 v -84.674 c 0,-28.289 -24.808,-51.22 -55.417,-51.22 h -31.769 v -0.0683 L 498.8,506.63227 v 30.895 h 13.19 c 9.2068,0 10.833,6.3556 10.833,15.153 l 0.0683,54.618 c 0,28.289 24.808,51.22 55.383,51.22 h 75.49 c 9.6778,0 18.146,-6.1289 18.146,-15.548 z"
         fill="url(#linearGradient854)"
         stroke-width="1.1271"
         id="path22"
         style="fill:#a3be8c;fill-opacity:1" />
      <path
         d="m 577.77,670.25 c -36.459,0 -68.098,-27.639 -68.098,-64.065 l -0.0327,-44.229 v -11.278 h -23.115 v -56.197 l 97.475,0.45904 30.492,0.0656 c 36.492,0 68.098,27.606 68.098,64.065 v 111.18 h -104.82 z m 89.967,-29.824 V 559.07 c 0,-27.18 -23.836,-49.213 -53.246,-49.213 h -30.524 v -0.0656 l -82.557,-0.36075 v 26.393 h 9.248 c 6.2786,0 13.834,5.9003 13.834,14.559 l 0.0656,55.769 c 0,27.18 23.836,49.213 53.213,49.213 h 72.531 c 9.2986,0 17.435,-5.8887 17.435,-14.939 z"
         fill="url(#linearGradient938-2)"
         id="path26"
         style="fill:#ffffff;fill-opacity:1" />
    </g>
  </g>
  <g
     transform="matrix(0.08364848,0,0,0.08364848,9.4606889,6.7408268)"
     fill="url(#linearGradient847-7)"
     id="g38"
     style="fill:#e5e9f0;fill-opacity:1">
    <path
       d="m 80,104 v 144 c 0,35.157 28.843,64 64,64 h 96 c 35.157,0 64,-28.843 64,-64 v -80 c 0,-26.32 -21.68,-48 -48,-48 -12.296,0 -23.467,4.8602 -32,12.586 C 215.4668,124.8603 204.296,120 192,120 c -26.32,0 -48,21.68 -48,48 v 80 h 32 v -80 c 0,-9.0261 6.9739,-16 16,-16 9.0261,0 16,6.9739 16,16 v 80 h 32 v -80 c 0,-9.0261 6.9739,-16 16,-16 9.0261,0 16,6.9739 16,16 v 80 c 0,17.863 -14.137,32 -32,32 h -96 c -17.863,0 -32,-14.137 -32,-32 V 104 Z"
       color="#000000"
       color-rendering="auto"
       dominant-baseline="auto"
       fill="url(#linearGradient847-7)"
       image-rendering="auto"
       shape-rendering="auto"
       solid-color="#000000"
       style="font-variant-ligatures:normal;font-variant-position:normal;font-variant-caps:normal;font-variant-numeric:normal;font-variant-alternates:normal;font-feature-settings:normal;text-indent:0;text-decoration-line:none;text-decoration-style:solid;text-decoration-color:#000000;text-transform:none;text-orientation:mixed;white-space:normal;shape-padding:0;isolation:auto;mix-blend-mode:normal;fill:#ffffff;fill-opacity:1"
       id="path36" />
  </g>
</svg>
