<?xml version="1.0" encoding="UTF-8" standalone="no"?>
<svg
   height="48"
   width="48"
   version="1.1"
   id="svg18"
   sodipodi:docname="linuxmint-logo-neon.svg"
   inkscape:version="1.1.2 (0a00cf5339, 2022-02-04)"
   xmlns:inkscape="http://www.inkscape.org/namespaces/inkscape"
   xmlns:sodipodi="http://sodipodi.sourceforge.net/DTD/sodipodi-0.dtd"
   xmlns="http://www.w3.org/2000/svg"
   xmlns:svg="http://www.w3.org/2000/svg"
   xmlns:rdf="http://www.w3.org/1999/02/22-rdf-syntax-ns#"
   xmlns:cc="http://creativecommons.org/ns#"
   xmlns:dc="http://purl.org/dc/elements/1.1/">
  <metadata
     id="metadata24">
    <rdf:RDF>
      <cc:Work
         rdf:about="">
        <dc:format>image/svg+xml</dc:format>
        <dc:type
           rdf:resource="http://purl.org/dc/dcmitype/StillImage" />
      </cc:Work>
    </rdf:RDF>
  </metadata>
  <defs
     id="defs22">
    <linearGradient
       id="linearGradient1024"
       x1="192.43761"
       x2="192.53743"
       y1="103.23778"
       y2="311.3898"
       gradientUnits="userSpaceOnUse">
      <stop
         id="stop1224"
         style="stop-color:#8fbcbb"
         offset="0" />
      <stop
         id="stop1226"
         style="stop-color:#97b67c"
         offset="1" />
    </linearGradient>
    <linearGradient
       id="linearGradient1267"
       x1="194.13"
       x2="194.01"
       y1="99.575"
       y2="316.11"
       gradientTransform="matrix(.072904 0 0 .072904 -5.531 -6.6974)"
       gradientUnits="userSpaceOnUse">
      <stop
         stop-color="#8fbcbb"
         offset="0"
         id="stop2" />
      <stop
         stop-color="#97b67c"
         offset="1"
         id="stop4" />
    </linearGradient>
  </defs>
  <sodipodi:namedview
     pagecolor="#ffffff"
     bordercolor="#666666"
     borderopacity="1"
     objecttolerance="10"
     gridtolerance="10"
     guidetolerance="10"
     inkscape:pageopacity="0"
     inkscape:pageshadow="2"
     inkscape:window-width="1920"
     inkscape:window-height="1033"
     id="namedview20"
     showgrid="true"
     inkscape:zoom="9.8333331"
     inkscape:cx="-7.4745765"
     inkscape:cy="18.61017"
     inkscape:window-x="0"
     inkscape:window-y="24"
     inkscape:window-maximized="1"
     inkscape:current-layer="svg18"
     inkscape:pagecheckerboard="0">
    <inkscape:grid
       type="xygrid"
       id="grid834" />
  </sodipodi:namedview>
  <path
     id="circle2"
     style="opacity:0.99;fill:#b7c4c8"
     transform="matrix(1.72140702696 0 0 1.72140725788 -17.2289093957 -30.06939350282)"
     d="M 37.173613,31.534513 A 13.232998,13.232998 0 0 1 23.940615,44.767511 13.232998,13.232998 0 0 1 10.707617,31.534513 13.232998,13.232998 0 0 1 23.940615,18.301516 13.232998,13.232998 0 0 1 37.173613,31.534513 Z" />
  <path
     id="path4490"
     style="opacity:1;fill:#fcfcfd;stroke-width:18.3369;stroke-linecap:round;stroke-linejoin:bevel;fill-opacity:1"
     d="M 43.541956,24.214346 A 19.559322,19.559322 0 0 1 23.982634,43.773668 19.559322,19.559322 0 0 1 4.4233112,24.214346 19.559322,19.559322 0 0 1 23.982634,4.6550236 19.559322,19.559322 0 0 1 43.541956,24.214346 Z" />
  <path
     d="M 10.04745,12.053467 V 30 c 0,4.381497 3.594777,7.976274 7.976275,7.976274 h 11.964412 c 4.381498,0 7.976275,-3.594777 7.976275,-7.976274 v -9.97043 c 0,-3.280225 -2.701896,-5.982291 -5.982291,-5.982291 -1.532448,0 -2.924646,0.605734 -3.988138,1.568586 -1.063491,-0.962852 -2.455725,-1.568586 -3.988137,-1.568586 -3.280226,0 -5.982292,2.701895 -5.982292,5.982291 V 30 h 3.988137 v -9.97043 c 0,-1.124915 0.869153,-1.994154 1.994155,-1.994154 C 25.13076,18.035416 26,18.90457 26,20.02957 V 30 h 3.988137 v -9.97043 c 0,-1.124915 0.869154,-1.994154 1.994155,-1.994154 1.124999,0 1.994153,0.869154 1.994153,1.994154 V 30 c 0,2.226136 -1.762001,3.988137 -3.988137,3.988137 H 18.023896 C 15.79776,33.988137 14.035758,32.226136 14.035758,30 V 12.053467 Z"
     color="#000000"
     color-rendering="auto"
     dominant-baseline="auto"
     fill="none"
     image-rendering="auto"
     shape-rendering="auto"
     solid-color="#000000"
     stroke="url(#linearGradient1267)"
     stroke-linecap="butt"
     stroke-linejoin="miter"
     stroke-width="1.03018"
     style="font-variant-ligatures:normal;font-variant-position:normal;font-variant-caps:normal;font-variant-numeric:normal;font-variant-alternates:normal;font-feature-settings:normal;text-indent:0;text-decoration-line:none;text-decoration-style:solid;text-decoration-color:#000000;text-transform:none;text-orientation:mixed;white-space:normal;shape-padding:0;isolation:auto;mix-blend-mode:normal;stroke:#a3be8c;stroke-opacity:1"
     id="path9" />
</svg>
