<?xml version="1.0" encoding="UTF-8" standalone="no"?>
<svg
   width="64"
   height="64"
   version="1.1"
   viewBox="0 0 16.933 16.933"
   id="svg45"
   sodipodi:docname="linuxmint-logo-filled-ring.svg"
   inkscape:version="1.1.2 (0a00cf5339, 2022-02-04)"
   xmlns:inkscape="http://www.inkscape.org/namespaces/inkscape"
   xmlns:sodipodi="http://sodipodi.sourceforge.net/DTD/sodipodi-0.dtd"
   xmlns:xlink="http://www.w3.org/1999/xlink"
   xmlns="http://www.w3.org/2000/svg"
   xmlns:svg="http://www.w3.org/2000/svg">
  <sodipodi:namedview
     id="namedview47"
     pagecolor="#505050"
     bordercolor="#eeeeee"
     borderopacity="1"
     inkscape:pageshadow="0"
     inkscape:pageopacity="0"
     inkscape:pagecheckerboard="0"
     showgrid="false"
     inkscape:zoom="11.046875"
     inkscape:cx="31.954738"
     inkscape:cy="31.954738"
     inkscape:window-width="2560"
     inkscape:window-height="1365"
     inkscape:window-x="0"
     inkscape:window-y="0"
     inkscape:window-maximized="1"
     inkscape:current-layer="g41" />
  <defs
     id="defs21">
    <linearGradient
       id="linearGradient834"
       x1="177.35"
       x2="177.16"
       y1="243.33"
       y2="265.99"
       gradientTransform="matrix(.74695 0 0 .74695 -123.9 -181.8)"
       gradientUnits="userSpaceOnUse">
      <stop
         stop-color="#8fbcbb"
         offset="0"
         id="stop2" />
      <stop
         stop-color="#a3be8c"
         offset="1"
         id="stop4" />
    </linearGradient>
    <linearGradient
       id="linearGradient841">
      <stop
         stop-color="#d8dee9"
         offset="0"
         id="stop7" />
      <stop
         stop-color="#eceff4"
         offset="1"
         id="stop9" />
    </linearGradient>
    <linearGradient
       id="linearGradient877"
       x1="55.033"
       x2="55.675"
       y1="186.93"
       y2="296.96"
       gradientTransform="translate(3e-6)"
       gradientUnits="userSpaceOnUse"
       xlink:href="#linearGradient841" />
    <filter
       id="filter918"
       x="-0.075000277"
       y="-0.075000277"
       width="1.1500006"
       height="1.1500006"
       color-interpolation-filters="sRGB">
      <feGaussianBlur
         stdDeviation="3.4395753"
         id="feGaussianBlur13" />
    </filter>
    <linearGradient
       id="linearGradient1132-6-0"
       x1="192"
       x2="191.78"
       y1=".0010205"
       y2="416.03"
       gradientUnits="userSpaceOnUse"
       xlink:href="#linearGradient841" />
    <linearGradient
       id="linearGradient1052"
       x1="192"
       x2="195.47"
       y1=".00049134"
       y2="415.17"
       gradientUnits="userSpaceOnUse"
       xlink:href="#linearGradient841" />
    <filter
       id="filter1076"
       x="-0.072321429"
       y="-0.077884615"
       width="1.1446429"
       height="1.1557692"
       color-interpolation-filters="sRGB">
      <feGaussianBlur
         stdDeviation="6.75"
         id="feGaussianBlur18" />
    </filter>
  </defs>
  <g
     stroke-linecap="round"
     stroke-linejoin="round"
     id="g43">
    <rect
       x="0.01215"
       y="0.0060174"
       width="16.924"
       height="16.927"
       fill="none"
       opacity="0.15"
       stroke-width="1.052"
       id="rect25" />
    <ellipse
       cx="8.4665003"
       cy="8.4665003"
       rx="7.3018999"
       ry="7.4464998"
       fill="url(#linearGradient834)"
       id="ellipse27"
       style="fill:#a3be8c;fill-opacity:1" />
    <g
       transform="matrix(0.15384,0,0,0.15384,2.2725e-7,-28.759)"
       id="g41">
      <path
         d="M 55.033,186.93 C 24.693,186.93 0,211.623 0,241.963 c 0,30.34 24.693,55.033 55.033,55.033 30.34,0 55.033,-24.693 55.033,-55.033 0,-30.34 -24.693,-55.033 -55.033,-55.033 z m 0,9.1719 c 25.383,0 45.861,20.479 45.861,45.861 0,25.383 -20.479,45.861 -45.861,45.861 -25.383,0 -45.861,-20.479 -45.861,-45.861 0,-25.383 20.479,-45.861 45.861,-45.861 z"
         color="#000000"
         color-rendering="auto"
         dominant-baseline="auto"
         fill="url(#linearGradient877)"
         image-rendering="auto"
         shape-rendering="auto"
         solid-color="#000000"
         style="font-variant-ligatures:normal;font-variant-position:normal;font-variant-caps:normal;font-variant-numeric:normal;font-variant-alternates:normal;font-feature-settings:normal;text-indent:0;text-decoration-line:none;text-decoration-style:solid;text-decoration-color:#000000;text-transform:none;text-orientation:mixed;white-space:normal;shape-padding:0;isolation:auto;mix-blend-mode:normal;fill:#e5e9f0;fill-opacity:1"
         id="path31" />
      <g
         transform="matrix(0.26458,0,0,0.26458,4.2332,186.93)"
         fill="url(#linearGradient1052)"
         id="g39"
         style="fill:#e5e9f0;fill-opacity:1">
        <path
           d="m 80,104 v 144 c 0,35.157 28.843,64 64,64 h 96 c 35.157,0 64,-28.843 64,-64 v -80 c 0,-26.32 -21.68,-48 -48,-48 -12.296,0 -23.467,4.8602 -32,12.586 C 215.4668,124.8603 204.296,120 192,120 c -26.32,0 -48,21.68 -48,48 v 80 h 32 v -80 c 0,-9.0261 6.9739,-16 16,-16 9.0261,0 16,6.9739 16,16 v 80 h 32 v -80 c 0,-9.0261 6.9739,-16 16,-16 9.0261,0 16,6.9739 16,16 v 80 c 0,17.863 -14.137,32 -32,32 h -96 c -17.863,0 -32,-14.137 -32,-32 V 104 Z"
           color="#000000"
           color-rendering="auto"
           dominant-baseline="auto"
           fill="url(#linearGradient1132-6-0)"
           image-rendering="auto"
           shape-rendering="auto"
           solid-color="#000000"
           style="font-variant-ligatures:normal;font-variant-position:normal;font-variant-caps:normal;font-variant-numeric:normal;font-variant-alternates:normal;font-feature-settings:normal;text-indent:0;text-decoration-line:none;text-decoration-style:solid;text-decoration-color:#000000;text-transform:none;text-orientation:mixed;white-space:normal;shape-padding:0;isolation:auto;mix-blend-mode:normal;fill:#e5e9f0;fill-opacity:1"
           id="path37" />
      </g>
    </g>
  </g>
</svg>
