<?xml version="1.0" encoding="UTF-8" standalone="no"?>
<svg
   height="48"
   width="48"
   version="1.1"
   id="svg10"
   sodipodi:docname="mikutter.svg"
   inkscape:version="1.1.2 (0a00cf5339, 2022-02-04)"
   xmlns:inkscape="http://www.inkscape.org/namespaces/inkscape"
   xmlns:sodipodi="http://sodipodi.sourceforge.net/DTD/sodipodi-0.dtd"
   xmlns:xlink="http://www.w3.org/1999/xlink"
   xmlns="http://www.w3.org/2000/svg"
   xmlns:svg="http://www.w3.org/2000/svg"
   xmlns:rdf="http://www.w3.org/1999/02/22-rdf-syntax-ns#"
   xmlns:cc="http://creativecommons.org/ns#"
   xmlns:dc="http://purl.org/dc/elements/1.1/">
  <metadata
     id="metadata16">
    <rdf:RDF>
      <cc:Work
         rdf:about="">
        <dc:format>image/svg+xml</dc:format>
        <dc:type
           rdf:resource="http://purl.org/dc/dcmitype/StillImage" />
      </cc:Work>
    </rdf:RDF>
  </metadata>
  <defs
     id="defs14">
    <linearGradient
       id="SVGID_2_"
       gradientUnits="userSpaceOnUse"
       x1="64"
       y1="40.25"
       x2="64"
       y2="104.4549">
      <stop
         offset="0"
         style="stop-color:#F2F6FD"
         id="stop151364" />
      <stop
         offset="0.5"
         style="stop-color:#E7EFFB"
         id="stop151366" />
      <stop
         offset="1"
         style="stop-color:#DBE7F9"
         id="stop151368" />
    </linearGradient>
    <linearGradient
       id="b"
       x2="1"
       gradientTransform="matrix(0.38317637,-65.531026,65.531026,0.38317637,19.756735,60.148997)"
       gradientUnits="userSpaceOnUse"
       x1="-1.2255912"
       y1="0.013013591"
       y2="1.110223e-16">
      <stop
         stop-color="#c9cfe5"
         offset="0"
         id="stop7"
         style="stop-color:#c22aff;stop-opacity:1" />
      <stop
         stop-color="#fff"
         offset="1"
         id="stop9" />
    </linearGradient>
    <linearGradient
       id="linearGradient891"
       x1="27.827999"
       x2="19.208"
       y1="20.905001"
       y2="23.493"
       gradientTransform="matrix(1.4870608,0,0,1.4870608,-24.180086,1.3582666)"
       gradientUnits="userSpaceOnUse"
       xlink:href="#linearGradient867" />
    <linearGradient
       id="linearGradient867">
      <stop
         style="stop-color:#00e6ff"
         offset="0"
         id="stop2" />
      <stop
         style="stop-color:#00e6ff;stop-opacity:0"
         offset="1"
         id="stop4" />
    </linearGradient>
    <linearGradient
       id="linearGradient861"
       x1="21.589001"
       x2="24.059999"
       y1="36.700001"
       y2="26.864"
       gradientTransform="matrix(1.4572164,0,0,1.4572164,-23.702142,2.0374972)"
       gradientUnits="userSpaceOnUse"
       xlink:href="#linearGradient859" />
    <linearGradient
       id="linearGradient859">
      <stop
         style="stop-color:#0c8df2"
         offset="0"
         id="stop7-7" />
      <stop
         style="stop-color:#0c8df2;stop-opacity:0"
         offset="1"
         id="stop9-5" />
    </linearGradient>
    <linearGradient
       id="linearGradient869"
       x1="38.323002"
       x2="30.099001"
       y1="27.66"
       y2="22.787001"
       gradientTransform="matrix(1.4870608,0,0,1.4870608,-23.373147,0.7522526)"
       gradientUnits="userSpaceOnUse"
       xlink:href="#linearGradient867" />
  </defs>
  <sodipodi:namedview
     pagecolor="#ffffff"
     bordercolor="#666666"
     borderopacity="1"
     objecttolerance="10"
     gridtolerance="10"
     guidetolerance="10"
     inkscape:pageopacity="0"
     inkscape:pageshadow="2"
     inkscape:window-width="1920"
     inkscape:window-height="1050"
     id="namedview12"
     showgrid="false"
     inkscape:zoom="6.6880515"
     inkscape:cx="10.840227"
     inkscape:cy="27.66127"
     inkscape:window-x="0"
     inkscape:window-y="0"
     inkscape:window-maximized="1"
     inkscape:current-layer="svg10"
     inkscape:document-rotation="0"
     inkscape:pagecheckerboard="0" />
  <path
     d="M 46.499999,24 A 22.696228,22.696232 0 0 1 23.803771,46.696231 22.696228,22.696232 0 0 1 1.1075423,24 22.696228,22.696232 0 0 1 23.803771,1.3037698 22.696228,22.696232 0 0 1 46.499999,24 Z"
     id="path2"
     style="opacity:0.99;fill:#85a7bf;fill-opacity:1;stroke-width:1.15035" />
  <path
     d="M 46.499999,24 A 22.696228,22.696232 0 0 1 23.803771,46.696231 22.696228,22.696232 0 0 1 1.1075423,24 22.696228,22.696232 0 0 1 23.803771,1.3037698 22.696228,22.696232 0 0 1 46.499999,24 Z"
     id="path4"
     style="opacity:0.99;fill:#d9a4a7;fill-opacity:1;stroke-width:1.15035" />
  <path
     d="M 43.769278,24 A 19.965508,19.965511 0 0 1 23.803772,43.96551 19.965508,19.965511 0 0 1 3.8382628,24 19.965508,19.965511 0 0 1 23.803772,4.0344904 19.965508,19.965511 0 0 1 43.769278,24 Z"
     id="path1131"
     style="opacity:0.99;fill:#ffffff;fill-opacity:0.39733127;stroke-width:1.01194" />
  <path
     id="path8"
     style="color:#000000;fill:#ffffff;fill-opacity:1;stroke-width:2.59218;stroke-linecap:round;stroke-linejoin:round;-inkscape-stroke:none"
     d="m 18.302944,14.39825 c -3.264957,0.01816 -5.637889,1.916116 -6.768701,3.624796 -0.758559,1.151831 -1.448043,2.448599 -1.448043,3.888687 v 8.945456 c -3.7e-4,1.515656 1.227725,2.74509 2.743381,2.74472 1.515653,3.7e-4 2.745091,-1.229064 2.744719,-2.74472 v -8.575742 c 0,-1.687609 1.617908,-2.3737 2.759454,-2.395098 1.613863,0.111536 2.728645,0.706644 2.728645,2.287936 v 8.682904 c -3.7e-4,1.515656 1.227726,2.74509 2.74338,2.74472 0.04737,1.1e-5 0.09524,-0.0017 0.141994,-0.004 1.45003,-0.07318 2.603086,-1.272403 2.602728,-2.740695 v -8.575772 c 0,-1.687609 1.613208,-2.373713 2.754097,-2.395099 1.612988,0.112134 2.728643,0.706643 2.728643,2.287937 v 8.682904 c -3.7e-4,1.515654 1.229065,2.745089 2.744719,2.744719 1.515659,3.7e-4 2.743752,-1.229065 2.743381,-2.744719 V 21.79519 c 0,-1.388352 -0.804838,-2.877852 -1.457419,-3.872614 -1.140602,-1.690815 -3.535903,-3.542408 -6.790134,-3.524353 -2.29336,0.01275 -4.145309,0.953731 -5.437198,2.104419 -1.302852,-1.164654 -3.194665,-2.117398 -5.533645,-2.104419 z" />
</svg>
