<?xml version="1.0" encoding="UTF-8" standalone="no"?>
<svg
   height="48"
   width="48"
   version="1.1"
   id="svg18"
   sodipodi:docname="molotov.svg"
   inkscape:version="1.1.2 (0a00cf5339, 2022-02-04)"
   xmlns:inkscape="http://www.inkscape.org/namespaces/inkscape"
   xmlns:sodipodi="http://sodipodi.sourceforge.net/DTD/sodipodi-0.dtd"
   xmlns="http://www.w3.org/2000/svg"
   xmlns:svg="http://www.w3.org/2000/svg"
   xmlns:rdf="http://www.w3.org/1999/02/22-rdf-syntax-ns#"
   xmlns:cc="http://creativecommons.org/ns#"
   xmlns:dc="http://purl.org/dc/elements/1.1/">
  <metadata
     id="metadata24">
    <rdf:RDF>
      <cc:Work
         rdf:about="">
        <dc:format>image/svg+xml</dc:format>
        <dc:type
           rdf:resource="http://purl.org/dc/dcmitype/StillImage" />
      </cc:Work>
    </rdf:RDF>
  </metadata>
  <defs
     id="defs22" />
  <sodipodi:namedview
     pagecolor="#ffffff"
     bordercolor="#666666"
     borderopacity="1"
     objecttolerance="10"
     gridtolerance="10"
     guidetolerance="10"
     inkscape:pageopacity="0"
     inkscape:pageshadow="2"
     inkscape:window-width="1920"
     inkscape:window-height="1050"
     id="namedview20"
     showgrid="true"
     inkscape:zoom="9.8333334"
     inkscape:cx="22.728813"
     inkscape:cy="34.372881"
     inkscape:window-x="0"
     inkscape:window-y="0"
     inkscape:window-maximized="1"
     inkscape:current-layer="svg18"
     inkscape:pagecheckerboard="0">
    <inkscape:grid
       type="xygrid"
       id="grid834" />
  </sodipodi:namedview>
  <path
     id="circle2"
     style="opacity:0.99;fill:#b7c4c8"
     transform="matrix(1.72140702696 0 0 1.72140725788 -17.2289093957 -30.06939350282)"
     d="M 37.173613,31.534513 A 13.232998,13.232998 0 0 1 23.940615,44.767511 13.232998,13.232998 0 0 1 10.707617,31.534513 13.232998,13.232998 0 0 1 23.940615,18.301516 13.232998,13.232998 0 0 1 37.173613,31.534513 Z" />
  <path
     id="path4490"
     style="opacity:1;fill:#fcfcfd;stroke-width:18.3369;stroke-linecap:round;stroke-linejoin:bevel;fill-opacity:1"
     d="M 43.541956,24.214346 A 19.559322,19.559322 0 0 1 23.982634,43.773668 19.559322,19.559322 0 0 1 4.4233112,24.214346 19.559322,19.559322 0 0 1 23.982634,4.6550236 19.559322,19.559322 0 0 1 43.541956,24.214346 Z" />
  <path
     style="fill:#383838;stroke-width:0.917814"
     d="m 15.561179,8.144671 c -0.196498,0 -0.372576,0.03122 -0.505517,0.06813 -0.784749,0.217883 -1.840288,1.869882 -3.176508,4.087157 -0.970893,1.611045 -1.9933869,3.724378 -1.9933869,3.940162 0,0.520983 0.4410949,1.224855 0.7027049,1.122177 0.08243,-0.03225 0.51445,-0.602531 0.960841,-1.269172 0.446403,-0.666626 1.125975,-1.813904 1.512964,-2.319642 0.26034,-0.340231 0.428131,-0.59041 0.534199,-0.77082 -0.03588,0.267348 -0.44584,3.900804 -0.910646,7.403489 -0.464978,3.503946 -1.462788,7.49408 -1.61694,8.600959 -0.498024,3.576192 -0.353435,4.897417 0.544956,4.897417 0.298768,0 1.896172,-0.822775 2.151135,-1.107835 0.148158,-0.165648 0.346912,-0.681509 0.516273,-1.348042 1.537058,-6.048873 4.632413,-11.971131 6.74381,-14.738869 0.379439,-0.497388 0.704849,-1.271057 0.724219,-1.251243 0.01943,0.01976 -0.0593,0.973207 -0.172089,1.649202 -0.956143,5.73197 -1.388365,9.3052 -1.405408,11.02457 -0.01064,1.120777 0.01736,1.425905 0.175673,1.72808 0.180619,0.345158 0.218426,0.364711 0.64534,0.315498 0.448849,-0.05178 1.648611,-0.607304 1.993387,-0.921402 0.09824,-0.08947 0.448214,-1.010062 0.774408,-2.047167 1.01343,-3.222087 2.655835,-6.523206 4.126596,-8.780216 0.65723,-1.00855 1.924144,-2.630759 1.996971,-2.556266 0.02462,0.02533 -0.200054,1.33816 -0.498346,2.918373 -1.327301,7.031334 -1.2751,10.575086 -1.354178,12.831524 -0.06261,1.785445 0.03157,2.446871 0.498348,3.456157 0.427804,0.925238 1.055908,1.584135 1.946778,2.039993 0.803298,0.411043 1.655141,0.497389 2.316053,0.26173 0.184241,-0.06567 0.337006,-0.190479 0.337006,-0.276057 0,-0.08568 -0.148438,-0.45345 -0.329824,-0.821017 -0.181385,-0.367582 -0.447675,-1.140676 -0.591563,-1.713734 -0.358845,-1.429168 -0.35526,-3.897899 0.01419,-7.249328 0.465521,-4.22259 0.07452,-5.652257 1.422295,-12.275816 0.120064,-0.589938 0.215107,-1.218779 0.215107,-1.394653 0,-0.529085 -0.277929,-0.91878 -0.957254,-1.340876 -0.851315,-0.528946 -1.641211,-0.624245 -2.39493,-0.283236 -1.602302,0.724958 -3.376795,2.787393 -4.872326,5.940715 -0.511492,1.078473 -1.347432,3.105792 -1.6492,4.011872 -0.03778,0.11325 -0.08532,0.18843 -0.107538,0.16492 -0.0415,-0.04392 0.301172,-2.076689 0.942914,-4.961956 0.665405,-2.9916 0.827074,-3.942663 0.702703,-4.180371 -0.289796,-0.553832 -1.497685,-1.197394 -2.251525,-1.201049 -1.551034,-0.008 -3.401883,1.88756 -4.969123,5.083851 -0.527834,1.076499 -1.643152,4.245623 -2.097359,5.653899 -0.192973,0.598313 -0.354826,0.987289 -0.358523,0.867625 -0.0065,-0.209349 -0.06754,-2.771775 1.269172,-10.80587 C 17.780737,8.608691 17.782731,8.627413 17.228198,8.34905 16.918275,8.193494 16.150596,8.144686 15.561099,8.144686 Z M 34,32 c -0.26964,0.0037 -0.273524,0.04915 -0.233042,0.164921 0.141401,0.404066 0.297563,1.495036 0.297563,1.904521 v 0.426644 l 0.878384,0.129081 c 1.062247,0.157808 2.307537,0.519531 3.180092,0.92499 0.355137,0.165051 0.671343,0.302039 0.706291,0.304743 0.035,0.0027 0.160758,-0.277374 0.276057,-0.623825 0.180078,-0.541093 0.190444,-0.69623 0.0717,-1.097085 -0.203519,-0.687231 -0.480119,-1.049339 -0.982349,-1.297849 -0.578467,-0.28622 -1.963161,-0.722729 -3.377284,-0.800269 -0.400052,-0.02186 -0.65565,-0.03819 -0.817433,-0.03584 z m -8.371504,1.836403 c -0.415838,0 -2.686631,0.405296 -4.001114,0.71346 -0.617178,0.144686 -1.54946,0.359478 -2.072259,0.480422 -0.522799,0.120923 -1.783508,0.435939 -2.80006,0.695532 -1.016559,0.259613 -2.227796,0.551082 -2.692506,0.648926 -0.908127,0.191207 -1.425928,0.3608 -1.423337,0.469665 0.0037,0.183027 0.567527,0.663267 0.777994,0.663267 0.05361,0 1.076164,-0.146254 2.273033,-0.322678 3.364904,-0.496028 9.504035,-1.179281 10.698315,-1.190294 0.04097,-4.35e-4 0.0097,-0.19138 -0.0717,-0.426643 -0.0812,-0.235262 -0.20706,-0.720613 -0.276056,-1.079152 -0.116965,-0.607717 -0.142091,-0.65251 -0.412304,-0.65251 z"
     id="path8" />
</svg>
