<?xml version="1.0" encoding="UTF-8" standalone="no"?>
<svg
   height="48"
   width="48"
   version="1.1"
   id="svg10"
   sodipodi:docname="olive.svg"
   inkscape:version="1.1.2 (0a00cf5339, 2022-02-04)"
   xmlns:inkscape="http://www.inkscape.org/namespaces/inkscape"
   xmlns:sodipodi="http://sodipodi.sourceforge.net/DTD/sodipodi-0.dtd"
   xmlns="http://www.w3.org/2000/svg"
   xmlns:svg="http://www.w3.org/2000/svg"
   xmlns:rdf="http://www.w3.org/1999/02/22-rdf-syntax-ns#"
   xmlns:cc="http://creativecommons.org/ns#"
   xmlns:dc="http://purl.org/dc/elements/1.1/">
  <metadata
     id="metadata16">
    <rdf:RDF>
      <cc:Work
         rdf:about="">
        <dc:format>image/svg+xml</dc:format>
        <dc:type
           rdf:resource="http://purl.org/dc/dcmitype/StillImage" />
      </cc:Work>
    </rdf:RDF>
  </metadata>
  <defs
     id="defs14">
    <linearGradient
       id="SVGID_2_"
       gradientUnits="userSpaceOnUse"
       x1="64"
       y1="40.25"
       x2="64"
       y2="104.4549">
      <stop
         offset="0"
         style="stop-color:#F2F6FD"
         id="stop151364" />
      <stop
         offset="0.5"
         style="stop-color:#E7EFFB"
         id="stop151366" />
      <stop
         offset="1"
         style="stop-color:#DBE7F9"
         id="stop151368" />
    </linearGradient>
    <linearGradient
       id="b"
       x2="1"
       gradientTransform="matrix(0.38317637,-65.531026,65.531026,0.38317637,19.756735,60.148997)"
       gradientUnits="userSpaceOnUse"
       x1="-1.2255912"
       y1="0.013013591"
       y2="1.110223e-16">
      <stop
         stop-color="#c9cfe5"
         offset="0"
         id="stop7"
         style="stop-color:#c22aff;stop-opacity:1" />
      <stop
         stop-color="#fff"
         offset="1"
         id="stop9" />
    </linearGradient>
  </defs>
  <sodipodi:namedview
     pagecolor="#ffffff"
     bordercolor="#666666"
     borderopacity="1"
     objecttolerance="10"
     gridtolerance="10"
     guidetolerance="10"
     inkscape:pageopacity="0"
     inkscape:pageshadow="2"
     inkscape:window-width="1920"
     inkscape:window-height="1028"
     id="namedview12"
     showgrid="false"
     inkscape:zoom="9.4583332"
     inkscape:cx="10.202643"
     inkscape:cy="27.013216"
     inkscape:window-x="0"
     inkscape:window-y="24"
     inkscape:window-maximized="1"
     inkscape:current-layer="svg10"
     inkscape:document-rotation="0"
     inkscape:pagecheckerboard="0" />
  <path
     d="M 46.499999,24 A 22.696228,22.696232 0 0 1 23.803771,46.696231 22.696228,22.696232 0 0 1 1.1075423,24 22.696228,22.696232 0 0 1 23.803771,1.3037698 22.696228,22.696232 0 0 1 46.499999,24 Z"
     id="path2"
     style="opacity:0.99;fill:#85a7bf;fill-opacity:1;stroke-width:1.15035" />
  <path
     id="path4"
     style="opacity:0.99;fill:#b893c1;fill-opacity:1;stroke-width:1.15035"
     d="M 23.804688 1.3046875 A 22.696228 22.696232 0 0 0 1.1074219 24 A 22.696228 22.696232 0 0 0 23.804688 46.695312 A 22.696228 22.696232 0 0 0 46.5 24 A 22.696228 22.696232 0 0 0 23.804688 1.3046875 z " />
  <path
     inkscape:connector-curvature="0"
     style="fill:#ffffff;fill-opacity:1;stroke:none;stroke-width:2.55979;stroke-opacity:1"
     d="m 10.271299,10.347941 0.976388,0.73297 c -3.0970062,1.427776 4.856682,7.946561 4.856682,7.946561 0,0 1.547917,-1.393346 3.815801,-1.540022 2.249497,-2.305193 11.61164,-0.550712 11.260876,1.341149 -3.147068,0.04915 -4.143769,-0.35294 -4.143769,-0.35294 0,0 0.155347,0.179185 0.2195,0.794097 -0.229995,0.189425 -3.484306,-0.539758 -4.164652,-0.487818 -1.935862,0.147956 -3.242399,0.196847 -4.631222,0.350537 0.955451,0.315084 8.569048,1.67098 11.003485,4.024348 -0.649388,0.250349 -0.93339,0.147442 -1.150222,0.227309 -0.190679,0.07015 -0.383582,0.458766 -0.802012,0.460635 -0.299811,10e-4 -0.197335,-0.26545 -0.816507,-0.558162 -3.852528,0.153076 -5.101578,-2.197376 -5.481755,-2.485608 -1.700724,-0.405904 -4.565878,-1.323744 -4.565878,-1.323744 0,0 2.425916,1.935841 3.755992,3.010288 0.110605,0.08934 1.934084,0.42828 4.252174,1.558939 1.246039,-1.020027 4.605227,0.710828 3.981047,2.295798 -0.555985,1.4118 -4.286254,-0.043 -4.149114,-1.963513 -0.851577,-0.265194 -2.424681,-1.025709 -3.431124,-1.388531 0.9649,0.7525 4.755771,3.91105 5.517478,4.804443 3.336965,-0.409821 8.374634,0.42298 11.49955,2.425761 -0.71266,0.188143 -4.10369,0.832185 -4.782926,0.650927 -1.262129,-0.477348 -3.143213,-2.023717 -3.343645,-2.197017 -0.724993,-0.122357 -2.352195,-0.356067 -2.977251,-0.427152 0.633977,0.643302 2.727696,3.062253 3.385098,4.079795 0.27233,-0.05759 1.6611,0.276251 2.045978,0.537812 1.425835,-1.454832 3.737777,1.097944 5.158958,2.330842 -0.373351,0.758004 -6.237314,-0.408618 -5.453607,-2.10722 -0.419054,-0.0558 -1.257739,-0.516336 -1.567,-0.54078 0.31613,0.41402 1.005567,0.97597 1.914199,1.929058 0.873994,-0.248557 4.16833,3.316617 4.256726,4.096815 -2.465239,-0.600628 -3.682793,-1.123234 -4.064464,-1.569022 -0.753334,-0.879928 -0.468123,-2.14339 -0.39635,-2.373054 -0.969432,-0.866336 -1.150049,-1.123952 -1.467122,-1.295893 -0.0082,0.01014 0.001,0.266882 0.01594,0.392209 1.592494,1.174024 0.823018,4.423394 -0.09254,4.538612 -0.398468,0.05016 -1.31692,-4.584354 -0.170047,-4.757037 0.02639,-0.0919 0.04153,-0.365514 0.04297,-0.376315 -0.60524,-0.658891 -3.961807,-4.22765 -4.18008,-4.377958 0.108722,0.281627 0.286957,0.744744 0.450548,1.316448 1.982084,1.295382 2.310028,3.368095 2.160642,5.802583 -0.47531,-0.832034 -5.131889,-4.622826 -3.095301,-6.303278 0.01433,-0.259153 -0.06287,-0.847367 0.108625,-1.178014 -0.645849,-0.645452 -2.656863,-2.630646 -2.837315,-2.629033 0.224596,0.460403 0.364067,0.723242 0.475461,1.221096 1.532884,0.765045 1.087595,2.741228 0.389389,2.783183 -0.735568,0.04429 -2.36574,-2.223741 -0.832457,-2.7047 -0.123871,-0.571013 -0.349151,-1.34709 -0.439981,-1.684243 -0.663422,-0.507373 -2.860571,-2.263465 -3.367596,-2.672827 0.623433,1.037381 1.232413,2.652095 1.536946,3.577921 1.836717,2.080802 1.328637,5.299457 1.142921,8.619402 -2.154934,-1.599844 -3.492829,-7.059875 -2.122091,-8.418996 -0.45759,-1.578777 -1.14923,-4.250198 -1.14923,-4.250198 -2.962849,-2.299665 -4.60205,-4.023275 -4.60205,-4.023275 0,0 1.9741,2.559817 2.198945,3.932017 1.728917,0.335205 3.173285,3.346978 1.798561,3.860957 -2.009389,0.751248 -4.166306,-2.436612 -2.45212,-3.623945 0,0 -1.517843,-2.795858 -2.692746,-5.248005 -4.634364,-5.086867 -4.1888949,-6.614088 -2.798861,-6.784135 z"
     id="path8" />
</svg>
