<?xml version="1.0" encoding="UTF-8" standalone="no"?>
<svg
   height="48"
   width="48"
   version="1.1"
   id="svg10"
   sodipodi:docname="org.flycast.Flycast.svg"
   inkscape:version="1.1.2 (0a00cf5339, 2022-02-04)"
   xmlns:inkscape="http://www.inkscape.org/namespaces/inkscape"
   xmlns:sodipodi="http://sodipodi.sourceforge.net/DTD/sodipodi-0.dtd"
   xmlns="http://www.w3.org/2000/svg"
   xmlns:svg="http://www.w3.org/2000/svg"
   xmlns:rdf="http://www.w3.org/1999/02/22-rdf-syntax-ns#"
   xmlns:cc="http://creativecommons.org/ns#"
   xmlns:dc="http://purl.org/dc/elements/1.1/">
  <metadata
     id="metadata16">
    <rdf:RDF>
      <cc:Work
         rdf:about="">
        <dc:format>image/svg+xml</dc:format>
        <dc:type
           rdf:resource="http://purl.org/dc/dcmitype/StillImage" />
      </cc:Work>
    </rdf:RDF>
  </metadata>
  <defs
     id="defs14" />
  <sodipodi:namedview
     pagecolor="#ffffff"
     bordercolor="#666666"
     borderopacity="1"
     objecttolerance="10"
     gridtolerance="10"
     guidetolerance="10"
     inkscape:pageopacity="0"
     inkscape:pageshadow="2"
     inkscape:window-width="1920"
     inkscape:window-height="1030"
     id="namedview12"
     showgrid="false"
     inkscape:zoom="4.7291666"
     inkscape:cx="-35.84141"
     inkscape:cy="51.911895"
     inkscape:window-x="0"
     inkscape:window-y="24"
     inkscape:window-maximized="1"
     inkscape:current-layer="svg10"
     inkscape:document-rotation="0"
     inkscape:pagecheckerboard="0" />
  <g
     fill="#be514c"
     opacity=".99"
     transform="matrix(1.1503549 0 0 1.1503549 -4.486125 -7.525565)"
     id="g6"
     style="fill:#a37bb9;fill-opacity:1">
    <path
       d="m44.322082 27.405077a19.729762 19.729765 0 0 1 -19.729762 19.729765 19.729762 19.729765 0 0 1 -19.7297621-19.729765 19.729762 19.729765 0 0 1 19.7297621-19.7297632 19.729762 19.729765 0 0 1 19.729762 19.7297632z"
       id="path2"
       style="fill:#a37bb9;fill-opacity:1" />
    <path
       d="m44.322082 27.405077a19.729762 19.729765 0 0 1 -19.729762 19.729765 19.729762 19.729765 0 0 1 -19.7297621-19.729765 19.729762 19.729765 0 0 1 19.7297621-19.7297632 19.729762 19.729765 0 0 1 19.729762 19.7297632z"
       id="path4"
       style="fill:#a37bb9;fill-opacity:1" />
  </g>
  <path
     d="m 23.99797,11.61624 c -6.872592,0 -13.570069,5.849594 -13.570069,13.871922 0,6.178127 5.495301,11.760431 12.43923,11.760431 2.523944,0 5.335523,-0.870343 7.619912,-2.488434 2.284391,-1.618094 4.065425,-4.091282 4.065425,-7.161983 0,-5.86959 -4.555665,-11.458579 -10.554498,-11.458579 -4.833261,0 -8.89909,3.820926 -9.046713,8.254537 -0.06452,1.937378 0.364607,3.995647 1.650614,5.624744 1.286003,1.629098 3.438794,2.706358 6.340355,2.706358 3.05888,0 6.332992,-2.368757 6.332992,-6.181331 0,-2.85114 -2.335227,-5.127061 -5.171231,-5.127061 -0.655174,0 -1.482698,0.03576 -2.304379,0.437317 -0.82168,0.40155 -1.571103,1.390244 -1.571103,2.578257 0,1.945757 1.191759,3.19668 2.283767,3.575098 1.092007,0.378421 2.086458,0.17817 2.086458,0.17817 a 1.1313352,1.1313352 0 1 0 -0.387255,-2.229284 c 0,0 -0.527706,0.0639 -0.958564,-0.08539 -0.430857,-0.149305 -0.762727,-0.218004 -0.762727,-1.438579 0,-0.466721 0.0417,-0.419143 0.301853,-0.546278 0.260147,-0.12713 0.806126,-0.207603 1.31195,-0.207603 1.669447,0 2.909554,1.211069 2.909554,2.86538 0,2.520125 -2.154757,3.919652 -4.071315,3.919652 -2.375689,0 -3.710715,-0.763303 -4.564587,-1.844975 -0.853866,-1.081671 -1.216097,-2.604383 -1.164702,-4.147883 0.101293,-3.041969 3.174697,-6.069424 6.785033,-6.069424 4.555665,0 8.292818,4.511997 8.292818,9.196903 0,2.206549 -1.243309,3.993444 -3.109806,5.315533 -1.866498,1.322083 -4.332343,2.073199 -6.313851,2.073199 -5.721468,0 -10.177551,-4.685778 -10.177551,-9.498753 0,-6.753971 5.732439,-11.610244 11.30839,-11.610244 6.539398,0 9.327227,2.630208 10.747389,5.250747 1.420161,2.620538 1.316367,5.252217 1.316367,5.252217 a 1.1309522,1.1309522 0 1 0 2.258733,0.103062 c 0,0 0.160361,-3.210989 -1.585825,-6.433119 -1.746187,-3.222131 -5.555215,-6.434593 -12.736664,-6.434593 z"
     style="fill:#fcfcfc;fill-opacity:1;stroke-width:0.75389"
     id="path10" />
</svg>
