<?xml version="1.0" encoding="UTF-8" standalone="no"?>
<svg
   height="48"
   width="48"
   version="1.1"
   id="svg6"
   sodipodi:docname="parley.svg"
   inkscape:version="1.1.2 (0a00cf5339, 2022-02-04)"
   xmlns:inkscape="http://www.inkscape.org/namespaces/inkscape"
   xmlns:sodipodi="http://sodipodi.sourceforge.net/DTD/sodipodi-0.dtd"
   xmlns="http://www.w3.org/2000/svg"
   xmlns:svg="http://www.w3.org/2000/svg">
  <defs
     id="defs10" />
  <sodipodi:namedview
     id="namedview8"
     pagecolor="#ffffff"
     bordercolor="#666666"
     borderopacity="1.0"
     inkscape:pageshadow="2"
     inkscape:pageopacity="0.0"
     inkscape:pagecheckerboard="0"
     showgrid="false"
     inkscape:zoom="8.1875"
     inkscape:cx="11.419847"
     inkscape:cy="32.122137"
     inkscape:window-width="1920"
     inkscape:window-height="1033"
     inkscape:window-x="0"
     inkscape:window-y="24"
     inkscape:window-maximized="1"
     inkscape:current-layer="svg6" />
  <path
     id="path2"
     style="stroke-width:1.15035;fill:#8fbcbb;fill-opacity:1"
     d="M 23.804688 1.3046875 A 22.696228 22.696232 0 0 0 1.1074219 24 A 22.696228 22.696232 0 0 0 23.804688 46.695312 A 22.696228 22.696232 0 0 0 46.5 24 A 22.696228 22.696232 0 0 0 23.804688 1.3046875 z " />
  <path
     id="path4531"
     d="m 14.289935,11.336709 v 3.167583 H 7.95492 v 3.167461 h 9.37879 c -0.374473,0.672815 -0.824129,1.40799 -1.441462,2.18388 -0.03233,0.03597 -0.07303,0.07194 -0.10534,0.119621 -0.686575,-0.592592 -1.163049,-1.039129 -1.163049,-1.039129 l -2.251895,2.227207 c 0,0 0.412904,0.408242 1.082599,0.996048 -1.456787,1.066671 -3.224284,1.849857 -5.4998365,1.849857 v 3.167462 c 3.3857335,0 6.0304215,-1.342257 8.0548665,-3.012797 2.085814,1.458284 4.80051,3.012797 7.782665,3.012797 v -3.167462 c -1.629499,0 -3.720651,-0.978083 -5.475089,-2.121989 0.01677,-0.02405 0.0395,-0.03596 0.05507,-0.05981 1.393922,-1.751933 2.087859,-3.188173 2.499362,-4.151182 h 2.920048 v -3.167451 h -6.33507 v -3.167582 z"
     style="line-height:normal;text-indent:0;text-align:start;text-decoration:none;text-decoration-line:none;text-decoration-style:solid;text-decoration-color:#000000;text-transform:none;isolation:auto;mix-blend-mode:normal;fill:#ffffff;fill-opacity:1;stroke-width:3.16751"
     inkscape:connector-curvature="0"
     sodipodi:nodetypes="ccccccccccccccccccccccc" />
  <path
     sodipodi:nodetypes="ccccccccccccccccc"
     inkscape:connector-curvature="0"
     style="line-height:normal;text-indent:0;text-align:start;text-decoration:none;text-decoration-line:none;text-decoration-style:solid;text-decoration-color:#000000;text-transform:none;isolation:auto;mix-blend-mode:normal;fill:#ffffff;fill-opacity:1;stroke-width:3.16751"
     d="m 30.368732,20.839215 -6.576279,12.274088 v 3.5635 h 3.167499 v -2.771564 l 0.210344,-0.396261 h 9.081832 l 0.210342,0.396261 v 2.771564 h 3.167513 v -3.5635 L 33.053692,20.839215 Z m 1.342479,4.194527 2.845811,5.307999 h -5.691611 z"
     id="path843" />
</svg>
