<?xml version="1.0" encoding="UTF-8" standalone="no"?>
<svg
   height="48"
   width="48"
   version="1.1"
   id="svg6"
   sodipodi:docname="pyrit.svg"
   inkscape:version="1.1.2 (0a00cf5339, 2022-02-04)"
   xmlns:inkscape="http://www.inkscape.org/namespaces/inkscape"
   xmlns:sodipodi="http://sodipodi.sourceforge.net/DTD/sodipodi-0.dtd"
   xmlns="http://www.w3.org/2000/svg"
   xmlns:svg="http://www.w3.org/2000/svg">
  <defs
     id="defs10" />
  <sodipodi:namedview
     id="namedview8"
     pagecolor="#ffffff"
     bordercolor="#666666"
     borderopacity="1.0"
     inkscape:pageshadow="2"
     inkscape:pageopacity="0.0"
     inkscape:pagecheckerboard="0"
     showgrid="false"
     inkscape:zoom="8.1875"
     inkscape:cx="25.587786"
     inkscape:cy="39.267176"
     inkscape:window-width="1920"
     inkscape:window-height="1028"
     inkscape:window-x="0"
     inkscape:window-y="24"
     inkscape:window-maximized="1"
     inkscape:current-layer="svg6" />
  <path
     d="m44.322082 27.405077a19.729762 19.729765 0 0 1 -19.729762 19.729765 19.729762 19.729765 0 0 1 -19.7297621-19.729765 19.729762 19.729765 0 0 1 19.7297621-19.7297632 19.729762 19.729765 0 0 1 19.729762 19.7297632z"
     fill="#d9935b"
     opacity=".99"
     transform="matrix(1.1503549 0 0 1.1503549 -4.486125 -7.525565)"
     id="path2"
     style="fill:#deb19a;fill-opacity:1" />
  <path
     id="path6810"
     style="color:#000000;fill:#ffffff;fill-opacity:1;stroke:none;stroke-width:1.24668;stroke-opacity:1;-inkscape-stroke:none"
     d="m 10.190136,13.462331 c -1.247916,0 -2.2741698,1.026253 -2.2741698,2.27417 0,1.247917 1.0262538,2.272237 2.2741698,2.272237 1.020504,0 1.890869,-0.685039 2.174312,-1.617044 h 0.421978 l 0.400073,1.494638 -0.349179,1.303299 H 10.090922 C 9.7108143,18.459836 8.9459618,17.957199 8.0718723,17.957199 c -1.2479158,0 -2.2722366,1.023675 -2.2722366,2.271592 0,1.247917 1.0243208,2.274814 2.2722366,2.274814 1.1780206,0 2.1577177,-0.915164 2.2638617,-2.067368 h 3.458928 l 0.516037,-1.92628 h 1.324559 l 0.736366,1.275597 c -1.832349,0.661657 -3.188307,2.302801 -3.442177,4.29773 h -0.708665 c -0.360919,-0.782848 -1.15489,-1.331646 -2.067368,-1.331646 -1.2479159,0 -2.2715927,1.026253 -2.2715927,2.27417 0,1.247917 1.0236768,2.271592 2.2715927,2.271592 1.144659,0 2.102818,-0.861243 2.253554,-1.966867 h 0.50895 c 0.259291,2.457624 2.18737,4.403102 4.6366,4.689428 l -1.707882,2.958353 h -3.455707 c -0.310602,-0.886554 -1.15784,-1.528783 -2.145321,-1.528783 -1.2479175,0 -2.27417,1.026252 -2.27417,2.274169 0,1.247917 1.0262525,2.271593 2.27417,2.271593 1.075815,0 1.984555,-0.760949 2.214899,-1.770373 h 4.104457 l 2.406239,-4.168237 h 9.271912 c 0.262146,0 0.519428,-0.01959 0.771156,-0.05605 l 1.265289,2.19364 h 2.04482 l 0.56822,2.118262 h 1.360636 c 0.262407,0.964934 1.148709,1.682757 2.192351,1.682757 1.247917,0 2.274169,-1.026252 2.274169,-2.274169 0,-1.247917 -1.026252,-2.272237 -2.274169,-2.272237 -1.020504,0 -1.89087,0.685039 -2.174312,1.617044 h -0.421978 l -0.400073,-1.494639 0.349178,-1.303299 H 36.5428 c 0.380107,0.729795 1.144959,1.232432 2.019049,1.232432 1.247916,0 2.27224,-1.023675 2.27224,-2.271593 0,-1.247917 -1.024324,-2.274813 -2.27224,-2.274813 -1.178021,0 -2.157719,0.915163 -2.263861,2.067368 H 32.83906 l -0.516036,1.926282 H 30.998465 L 30.2563,29.661763 c 1.747353,-0.716035 3.020368,-2.337577 3.242463,-4.287421 h 0.914178 c 0.360919,0.782846 1.154891,1.331645 2.067369,1.331645 1.247916,0 2.271592,-1.026253 2.271592,-2.27417 0,-1.247917 -1.023676,-2.271592 -2.271592,-2.271592 -1.14466,0 -2.102819,0.861242 -2.253555,1.966867 H 33.496186 C 33.214419,21.7568 31.377849,19.876966 29.029021,19.529146 l 1.760066,-3.049836 h 3.455707 c 0.310602,0.886554 1.157839,1.528784 2.145321,1.528784 1.247916,0 2.274169,-1.026253 2.274169,-2.27417 0,-1.247916 -1.026253,-2.271593 -2.274169,-2.271593 -1.075816,0 -1.984554,0.76095 -2.214899,1.770374 h -4.104458 l -2.446826,4.238459 h -9.445213 c -0.180174,0 -0.357987,0.009 -0.533431,0.02641 l -1.289125,-2.234225 h -2.04482 l -0.56822,-2.118263 H 12.382487 C 12.12008,14.180152 11.233778,13.462329 10.190136,13.462329 Z m 0.01804,0.914178 a 1.3301876,1.3301876 0 0 1 1.329712,1.330357 1.3301876,1.3301876 0 0 1 -1.329713,1.330357 1.3301876,1.3301876 0 0 1 -1.3303566,-1.330357 1.3301876,1.3301876 0 0 1 1.3303576,-1.330357 z m 26.149082,0.09148 a 1.3301876,1.3301876 0 0 1 1.330357,1.330357 1.3301876,1.3301876 0 0 1 -1.330357,1.330357 1.3301876,1.3301876 0 0 1 -1.330355,-1.330357 1.3301876,1.3301876 0 0 1 1.330355,-1.330357 z M 8.0718735,18.807596 A 1.3301876,1.3301876 0 0 1 9.4022303,20.137953 1.3301876,1.3301876 0 0 1 8.0718735,21.467666 1.3301876,1.3301876 0 0 1 6.741516,20.137953 1.3301876,1.3301876 0 0 1 8.0718735,18.807596 Z m 28.4284055,4.353135 a 1.3301876,1.3301876 0 0 1 1.330359,1.330357 1.3301876,1.3301876 0 0 1 -1.330359,1.330356 1.3301876,1.3301876 0 0 1 -1.330356,-1.330356 1.3301876,1.3301876 0 0 1 1.330356,-1.330357 z m -21.236748,0.102434 h 0.861994 a 0.1606242,0.1606242 0 0 1 0.155263,0.124339 l 0.443237,1.865076 0.440661,-1.865076 a 0.1606242,0.1606242 0 0 1 0.158482,-0.124339 h 0.864572 a 0.1606242,0.1606242 0 0 1 0.155906,0.124339 l 0.440661,1.867653 0.443238,-1.867653 a 0.1606242,0.1606242 0 0 1 0.157839,-0.124339 h 0.85233 a 0.1606242,0.1606242 0 0 1 0.155906,0.197138 l -0.820763,3.479543 a 0.1606242,0.1606242 0 0 1 -0.155906,0.124339 H 18.3823 a 0.1606242,0.1606242 0 0 1 -0.155906,-0.124339 l -0.474806,-1.989415 -0.469651,1.989415 a 0.1606242,0.1606242 0 0 1 -0.155906,0.124339 H 16.09138 a 0.1606242,0.1606242 0 0 1 -0.155906,-0.124339 l -0.827849,-3.479543 a 0.1606242,0.1606242 0 0 1 0.155906,-0.197138 z m 6.162807,0 h 0.898072 a 0.1606242,0.1606242 0 0 1 0.16106,0.16106 v 3.479544 a 0.1606242,0.1606242 0 0 1 -0.16106,0.160416 h -0.898072 a 0.1606242,0.1606242 0 0 1 -0.161061,-0.160416 v -3.479544 a 0.1606242,0.1606242 0 0 1 0.161061,-0.16106 z m 4.584417,0 h 2.420412 a 0.1606242,0.1606242 0 0 1 0.16106,0.16106 v 0.676453 a 0.1606242,0.1606242 0 0 1 -0.16106,0.16106 H 27.067954 V 24.5903 h 1.273019 a 0.1606242,0.1606242 0 0 1 0.16106,0.161061 v 0.676452 a 0.1606242,0.1606242 0 0 1 -0.16106,0.161061 h -1.273019 v 1.314895 a 0.1606242,0.1606242 0 0 1 -0.161061,0.160416 h -0.896139 a 0.1606242,0.1606242 0 0 1 -0.160416,-0.160416 v -3.479544 a 0.1606242,0.1606242 0 0 1 0.160416,-0.16106 z m 3.725643,0 h 0.896139 a 0.1606242,0.1606242 0 0 1 0.160416,0.16106 v 3.479544 a 0.1606242,0.1606242 0 0 1 -0.160416,0.160416 h -0.896139 a 0.1606242,0.1606242 0 0 1 -0.160416,-0.160416 v -3.479544 a 0.1606242,0.1606242 0 0 1 0.160416,-0.16106 z M 10.133443,23.63618 A 1.3301876,1.3301876 0 0 1 11.4638,24.966537 1.3301876,1.3301876 0 0 1 10.133443,26.296894 1.3301876,1.3301876 0 0 1 8.8030863,24.966537 1.3301876,1.3301876 0 0 1 10.133443,23.63618 Z m 13.267493,1.392204 h 1.46307 a 0.1606242,0.1606242 0 0 1 0.16106,0.16106 v 0.67903 a 0.1606242,0.1606242 0 0 1 -0.16106,0.16106 h -1.46307 a 0.1606242,0.1606242 0 0 1 -0.161061,-0.16106 v -0.67903 a 0.1606242,0.1606242 0 0 1 0.161061,-0.16106 z m 15.160913,2.961575 a 1.3301876,1.3301876 0 0 1 1.330359,1.329712 1.3301876,1.3301876 0 0 1 -1.330359,1.330357 1.3301876,1.3301876 0 0 1 -1.330356,-1.330357 1.3301876,1.3301876 0 0 1 1.330356,-1.329712 z M 10.276464,32.32892 a 1.3301876,1.3301876 0 0 1 1.330357,1.330356 1.3301876,1.3301876 0 0 1 -1.330357,1.330357 1.3301876,1.3301876 0 0 1 -1.3303569,-1.330357 1.3301876,1.3301876 0 0 1 1.3303569,-1.330356 z m 26.149084,0.09148 a 1.3301876,1.3301876 0 0 1 1.330359,1.330357 1.3301876,1.3301876 0 0 1 -1.330359,1.330356 1.3301876,1.3301876 0 0 1 -1.329713,-1.330356 1.3301876,1.3301876 0 0 1 1.329713,-1.330357 z" />
</svg>
