<?xml version="1.0" encoding="UTF-8" standalone="no"?>
<svg
   height="48"
   width="48"
   version="1.1"
   id="svg10"
   sodipodi:docname="rpcs3.svg"
   inkscape:version="1.1.2 (0a00cf5339, 2022-02-04)"
   xmlns:inkscape="http://www.inkscape.org/namespaces/inkscape"
   xmlns:sodipodi="http://sodipodi.sourceforge.net/DTD/sodipodi-0.dtd"
   xmlns="http://www.w3.org/2000/svg"
   xmlns:svg="http://www.w3.org/2000/svg"
   xmlns:rdf="http://www.w3.org/1999/02/22-rdf-syntax-ns#"
   xmlns:cc="http://creativecommons.org/ns#"
   xmlns:dc="http://purl.org/dc/elements/1.1/">
  <metadata
     id="metadata16">
    <rdf:RDF>
      <cc:Work
         rdf:about="">
        <dc:format>image/svg+xml</dc:format>
        <dc:type
           rdf:resource="http://purl.org/dc/dcmitype/StillImage" />
      </cc:Work>
    </rdf:RDF>
  </metadata>
  <defs
     id="defs14">
    <linearGradient
       id="SVGID_2_"
       gradientUnits="userSpaceOnUse"
       x1="64"
       y1="40.25"
       x2="64"
       y2="104.4549">
      <stop
         offset="0"
         style="stop-color:#F2F6FD"
         id="stop151364" />
      <stop
         offset="0.5"
         style="stop-color:#E7EFFB"
         id="stop151366" />
      <stop
         offset="1"
         style="stop-color:#DBE7F9"
         id="stop151368" />
    </linearGradient>
  </defs>
  <sodipodi:namedview
     pagecolor="#ffffff"
     bordercolor="#666666"
     borderopacity="1"
     objecttolerance="10"
     gridtolerance="10"
     guidetolerance="10"
     inkscape:pageopacity="0"
     inkscape:pageshadow="2"
     inkscape:window-width="1920"
     inkscape:window-height="1028"
     id="namedview12"
     showgrid="false"
     inkscape:zoom="9.4583332"
     inkscape:cx="12.211454"
     inkscape:cy="27.013216"
     inkscape:window-x="0"
     inkscape:window-y="24"
     inkscape:window-maximized="1"
     inkscape:current-layer="svg10"
     inkscape:document-rotation="0"
     inkscape:pagecheckerboard="0" />
  <path
     d="M 46.499999,24 A 22.696228,22.696232 0 0 1 23.803771,46.696231 22.696228,22.696232 0 0 1 1.1075423,24 22.696228,22.696232 0 0 1 23.803771,1.3037698 22.696228,22.696232 0 0 1 46.499999,24 Z"
     id="path2"
     style="opacity:0.99;fill:#85a7bf;fill-opacity:1;stroke-width:1.15035" />
  <path
     d="M 46.499999,24 A 22.696228,22.696232 0 0 1 23.803771,46.696231 22.696228,22.696232 0 0 1 1.1075423,24 22.696228,22.696232 0 0 1 23.803771,1.3037698 22.696228,22.696232 0 0 1 46.499999,24 Z"
     id="path4"
     style="opacity:0.99;fill:#d4a4f7;fill-opacity:1;stroke-width:1.15035" />
  <path
     d="M 43.769278,24 A 19.965508,19.965511 0 0 1 23.803772,43.96551 19.965508,19.965511 0 0 1 3.8382628,24 19.965508,19.965511 0 0 1 23.803772,4.0344904 19.965508,19.965511 0 0 1 43.769278,24 Z"
     id="path1131"
     style="opacity:0.99;fill:#ffffff;fill-opacity:0.39733127;stroke-width:1.01194" />
  <path
     id="rect854"
     style="fill:#ffffff;fill-opacity:1;stroke-width:5.48693;stroke-linecap:round;stroke-linejoin:round"
     d="m 12.821316,12.052966 c -1.880496,0 -3.3949869,1.514494 -3.3949869,3.394986 0,1.880498 1.5144909,3.393097 3.3949869,3.393097 h 12.922123 c 1.151194,0 1.151194,2.079336 0,2.079336 H 12.821316 c -1.880496,0 -3.3949869,1.514493 -3.3949869,3.394987 0,1.880494 1.5144909,3.394986 3.3949869,3.394986 h 12.922123 c 1.151194,0 1.151194,2.079335 0,2.079335 H 12.821316 c -1.880496,0 -3.3949869,1.5126 -3.3949869,3.393096 0,1.880497 1.5144909,3.394989 3.3949869,3.394989 h 12.922123 1.805241 4.334465 c 3.396463,0 6.13026,-2.735689 6.13026,-6.132149 0,-3.396463 -2.733797,-6.130257 -6.13026,-6.130257 3.396463,0 6.13026,-2.733794 6.13026,-6.130258 0,-3.396461 -2.733797,-6.132148 -6.13026,-6.132148 H 27.54868 Z"
     sodipodi:nodetypes="sssccsssscsssccsscsscs" />
</svg>
