<?xml version="1.0" encoding="UTF-8" standalone="no"?>
<svg
   height="48"
   width="48"
   version="1.1"
   id="svg10"
   sodipodi:docname="sengi.svg"
   inkscape:version="1.1.2 (0a00cf5339, 2022-02-04)"
   xmlns:inkscape="http://www.inkscape.org/namespaces/inkscape"
   xmlns:sodipodi="http://sodipodi.sourceforge.net/DTD/sodipodi-0.dtd"
   xmlns:xlink="http://www.w3.org/1999/xlink"
   xmlns="http://www.w3.org/2000/svg"
   xmlns:svg="http://www.w3.org/2000/svg"
   xmlns:rdf="http://www.w3.org/1999/02/22-rdf-syntax-ns#"
   xmlns:cc="http://creativecommons.org/ns#"
   xmlns:dc="http://purl.org/dc/elements/1.1/">
  <metadata
     id="metadata16">
    <rdf:RDF>
      <cc:Work
         rdf:about="">
        <dc:format>image/svg+xml</dc:format>
        <dc:type
           rdf:resource="http://purl.org/dc/dcmitype/StillImage" />
      </cc:Work>
    </rdf:RDF>
  </metadata>
  <defs
     id="defs14">
    <linearGradient
       id="SVGID_2_"
       gradientUnits="userSpaceOnUse"
       x1="64"
       y1="40.25"
       x2="64"
       y2="104.4549">
      <stop
         offset="0"
         style="stop-color:#F2F6FD"
         id="stop151364" />
      <stop
         offset="0.5"
         style="stop-color:#E7EFFB"
         id="stop151366" />
      <stop
         offset="1"
         style="stop-color:#DBE7F9"
         id="stop151368" />
    </linearGradient>
    <linearGradient
       id="b"
       x2="1"
       gradientTransform="matrix(0.38317637,-65.531026,65.531026,0.38317637,19.756735,60.148997)"
       gradientUnits="userSpaceOnUse"
       x1="-1.2255912"
       y1="0.013013591"
       y2="1.110223e-16">
      <stop
         stop-color="#c9cfe5"
         offset="0"
         id="stop7"
         style="stop-color:#c22aff;stop-opacity:1" />
      <stop
         stop-color="#fff"
         offset="1"
         id="stop9" />
    </linearGradient>
    <linearGradient
       id="linearGradient891"
       x1="27.827999"
       x2="19.208"
       y1="20.905001"
       y2="23.493"
       gradientTransform="matrix(1.4870608,0,0,1.4870608,-24.180086,1.3582666)"
       gradientUnits="userSpaceOnUse"
       xlink:href="#linearGradient867" />
    <linearGradient
       id="linearGradient867">
      <stop
         style="stop-color:#00e6ff"
         offset="0"
         id="stop2" />
      <stop
         style="stop-color:#00e6ff;stop-opacity:0"
         offset="1"
         id="stop4" />
    </linearGradient>
    <linearGradient
       id="linearGradient861"
       x1="21.589001"
       x2="24.059999"
       y1="36.700001"
       y2="26.864"
       gradientTransform="matrix(1.4572164,0,0,1.4572164,-23.702142,2.0374972)"
       gradientUnits="userSpaceOnUse"
       xlink:href="#linearGradient859" />
    <linearGradient
       id="linearGradient859">
      <stop
         style="stop-color:#0c8df2"
         offset="0"
         id="stop7-7" />
      <stop
         style="stop-color:#0c8df2;stop-opacity:0"
         offset="1"
         id="stop9-5" />
    </linearGradient>
    <linearGradient
       id="linearGradient869"
       x1="38.323002"
       x2="30.099001"
       y1="27.66"
       y2="22.787001"
       gradientTransform="matrix(1.4870608,0,0,1.4870608,-23.373147,0.7522526)"
       gradientUnits="userSpaceOnUse"
       xlink:href="#linearGradient867" />
  </defs>
  <sodipodi:namedview
     pagecolor="#ffffff"
     bordercolor="#666666"
     borderopacity="1"
     objecttolerance="10"
     gridtolerance="10"
     guidetolerance="10"
     inkscape:pageopacity="0"
     inkscape:pageshadow="2"
     inkscape:window-width="1920"
     inkscape:window-height="1033"
     id="namedview12"
     showgrid="false"
     inkscape:zoom="4.7291666"
     inkscape:cx="-52.75771"
     inkscape:cy="-24.740088"
     inkscape:window-x="0"
     inkscape:window-y="24"
     inkscape:window-maximized="1"
     inkscape:current-layer="svg10"
     inkscape:document-rotation="0"
     inkscape:pagecheckerboard="0" />
  <path
     d="M 46.499999,24 A 22.696228,22.696232 0 0 1 23.803771,46.696231 22.696228,22.696232 0 0 1 1.1075423,24 22.696228,22.696232 0 0 1 23.803771,1.3037698 22.696228,22.696232 0 0 1 46.499999,24 Z"
     id="path2"
     style="opacity:0.99;fill:#85a7bf;fill-opacity:1;stroke-width:1.15035" />
  <path
     d="M 46.499999,24 A 22.696228,22.696232 0 0 1 23.803771,46.696231 22.696228,22.696232 0 0 1 1.1075423,24 22.696228,22.696232 0 0 1 23.803771,1.3037698 22.696228,22.696232 0 0 1 46.499999,24 Z"
     id="path4"
     style="opacity:0.99;fill:#88b8e4;fill-opacity:1;stroke-width:1.15035" />
  <path
     d="M 43.769278,24 A 19.965508,19.965511 0 0 1 23.803772,43.96551 19.965508,19.965511 0 0 1 3.8382628,24 19.965508,19.965511 0 0 1 23.803772,4.0344904 19.965508,19.965511 0 0 1 43.769278,24 Z"
     id="path1131"
     style="opacity:0.99;fill:#ffffff;fill-opacity:0.39733127;stroke-width:1.01194" />
  <path
     id="path21"
     style="fill:#ffffff;fill-opacity:0.847008;stroke-width:0.536293"
     d="m 32.683962,33.870931 c -0.601179,0.741976 -1.269225,1.419251 -1.985169,2.039159 h 6.178735 c 0,0 -0.927638,-1.386832 -4.193566,-2.039159 z" />
  <path
     id="path23"
     style="fill:#f2f2f2;fill-opacity:1;stroke-width:0.536293"
     d="m 34.785417,20.457542 c 0.270213,0.737879 0.590984,1.804583 0.780778,3.093001 1.089635,0.174282 2.247179,0.767765 3.872741,2.24889 -1.014064,-2.561106 -2.586176,-4.058701 -4.653519,-5.341891 z" />
  <path
     style="fill:#ffffff;fill-opacity:0.522509;stroke-width:0.536293"
     d="M 20.45486,39.067483 C 18.901612,38.939157 17.164436,38.45539 15.654684,37.730722 12.585396,36.257486 10.117141,33.646295 8.8421089,30.523643 8.0013168,28.464478 7.6810584,26.187096 7.9216847,23.978427 c 0.3325972,-3.052805 1.6518494,-5.825982 3.8409763,-8.074079 1.03373,-1.061575 2.467774,-2.097301 3.77115,-2.723681 0.268015,-0.128811 0.306143,-0.140446 0.208266,-0.06365 -0.06589,0.05171 -0.270812,0.212585 -0.455366,0.357503 -2.11462,1.660379 -3.676236,4.033446 -4.364991,6.633121 -0.287866,1.086557 -0.406121,2.015231 -0.406519,3.192531 -3e-4,0.900834 0.0335,1.325689 0.169959,2.136518 0.457085,2.715746 1.836743,5.23122 3.847826,7.096553 0.474476,0.440087 0.984099,0.843985 1.525047,1.205787 0.197161,0.131877 0.214974,0.13331 0.184391,0.0148 -0.184391,-0.0148 -0.372534,-0.277231 -0.419705,-0.584994 -0.107238,-0.699746 -0.532071,-0.90701 -0.470762,-1.549021 0,-3.812626 2.458478,-6.473863 5.051088,-8.259205 0.989849,-0.667395 2.00399,-1.115533 3.28095,-1.449808 0.970848,-0.254149 1.483636,-0.655753 2.089355,-1.160382 0.127815,-0.10649 0.216145,-0.203908 0.199613,-0.220157 -0.04915,-0.04826 -0.930004,-0.322055 -1.391344,-0.432461 -1.034424,-0.247562 -1.758959,-0.277642 -2.969891,-0.276446 -1.296142,0.0013 -2.304242,0.07528 -2.743784,0.286469 -0.205011,0.09851 -1.140319,0.20613 -1.530441,0.6799 -1.277511,1.551394 -1.791338,3.037207 -2.195232,4.990872 -0.09737,0.47106 -0.06756,0.881044 -0.181835,0.985084 -0.218364,0.198802 -0.0041,-0.162438 -0.123725,-0.430379 -0.124779,-0.279552 -0.101068,-1.14072 -0.170992,-1.967701 -0.04409,-0.521413 -0.151514,-1.402251 -0.09078,-1.904185 0.283549,-2.343549 1.495995,-3.996594 2.978036,-5.839361 0.399733,-0.497022 1.079045,-1.295831 1.574523,-1.684651 1.072295,-0.841469 2.310608,-1.176796 3.543953,-1.637723 l -0.0755,-1.028792 0.0037,-0.343858 c 0.0031,-0.278653 0.02146,-0.395299 0.09755,-0.615159 0.146488,-0.423208 0.383194,-0.765675 0.689761,-0.997932 l 0.181898,-0.137812 0.186984,0.05396 c 0.555704,0.160391 1.081207,0.587256 1.331915,1.081932 0.07567,0.149304 0.147216,0.617827 0.158973,0.662 0.01945,0.07311 0.117962,0.996695 0.237797,0.972926 0.0724,-0.01439 1.134075,0.180762 1.633872,0.17841 l 0.866336,-0.338342 -0.101322,-0.847008 c 0.44083,-0.807657 0.683364,-1.206542 1.583971,-1.483953 v 0 l 0.441075,0.205353 c 0.301031,0.200403 0.503477,0.175553 0.712152,0.506597 0.205333,0.325724 0.08974,0.513109 0.17752,0.89595 0.08692,0.379066 0.121475,0.822915 0.02649,1.201331 -0.107758,0.429285 -0.184086,0.847694 -0.394137,1.161201 -0.737037,-0.01601 0.36726,0.450491 0.36726,0.461494 0,0.01096 0.196431,0.195032 0.436529,0.408937 1.233472,1.099015 2.326269,2.534281 3.085399,4.052334 0,0 1.39876,2.684927 1.409723,6.324779 0.02645,1.278309 -0.242582,2.64184 -0.584116,3.768413 -1.05082,3.085626 -3.058868,5.511416 -5.500486,7.319438 l -0.272343,0.179587 0.375947,0.09425 c 1.383907,0.466535 2.46615,1.189967 3.399838,2.091178 h -9.861566 c 0,0 -1.951667,0.01363 -2.831758,-0.05949 z"
     id="path25" />
  <path
     style="fill:#ffffff;fill-opacity:1;stroke-width:0.536293"
     d="m 18.056993,21.060685 c -1.256656,1.619024 -2.095713,3.474676 -2.493014,5.513508 -0.0958,0.491595 -0.108151,0.527227 -0.220568,0.635804 -0.214799,0.207472 -0.5462,0.135544 -0.663836,-0.144075 -0.122726,-0.291739 -0.307923,-1.40835 -0.376708,-2.271382 -0.04336,-0.544144 -0.02394,-1.812025 0.0358,-2.335842 0.278919,-2.445712 1.13796,-4.606624 2.595805,-6.529723 0.39321,-0.518691 1.353346,-1.526646 1.840738,-1.932417 2.303404,-2.035159 4.854065,-2.67622 7.651879,-2.716098 l 0.893896,-0.0045 0.108827,-0.320344 c 0.433649,-0.842867 1.172654,-1.4770411 2.058558,-1.7665451 l 0.286424,-0.0936 0.189152,0.133595 c 0.296115,0.209142 0.745469,0.706177 0.950737,1.0516461 0.201986,0.339924 0.380184,0.796959 0.466529,1.196491 0.08549,0.395591 0.07777,1.163851 -0.01561,1.558763 -0.105988,0.448002 -0.264494,0.84107 -0.471106,1.168243 -0.09948,0.157534 -0.180865,0.295807 -0.180865,0.307292 0,0 -0.519349,1.34823 -2.472111,2.181686 -1.828627,0.780474 -3.368718,0.256784 -5.011841,0.782787 -2.148528,0.545628 -3.946774,1.952339 -5.172669,3.584675 z"
     id="path31" />
  <circle
     style="fill:#ffffff;stroke-width:0.536293"
     cx="22.323793"
     cy="32.156143"
     r="6.9718189"
     id="circle33" />
  <path
     style="fill:#ffffff;fill-opacity:0.569851;stroke-width:0.536293"
     d="m 29.672661,21.796491 c 4.445515,2.25818 7.453237,5.543355 9.130328,9.778983 -4.232487,-3.856415 -6.862,-5.57383 -11.799975,-5.626199 0.06989,-4.220268 2.669647,-4.152784 2.669647,-4.152784 z"
     id="path35" />
  <path
     style="fill:#ffffff;fill-opacity:0.674379;stroke-width:0.536293"
     d="m 25.866261,20.477095 c 2.24e-4,4.08e-4 -0.0042,0.0037 -0.0042,0.0042 0.0012,8.51e-4 0.01601,0.0055 0.01683,0.0063 7.45e-4,7.44e-4 -0.0087,0.0096 -0.0083,0.01054 0.01012,0.0049 0.08165,0.02392 0.08589,0.02724 -0.03241,-0.0154 -0.05606,-0.03323 -0.09008,-0.04818 z m 0.104751,0.05446 c 0.01439,0.01764 -0.07037,0.112439 -0.196917,0.21787 -0.605718,0.504632 -1.11986,0.906424 -2.090709,1.160574 -1.27696,0.334277 -2.290762,0.782275 -3.28061,1.449671 -0.718715,0.484585 -1.37516,1.125461 -1.965014,1.8477 1.132848,-0.391881 2.230109,-0.778104 3.607412,-0.956775 1.613679,-0.20933 2.568513,-0.04534 3.278518,-0.21336 0.622346,-0.08498 1.786175,-1.10883 1.82675,-2.058388 0.02201,-0.515005 -0.326339,-1.039857 -1.179426,-1.44729 z"
     id="path37" />
</svg>
