<?xml version="1.0" encoding="UTF-8" standalone="no"?>
<!-- Created with Inkscape (http://www.inkscape.org/) -->

<svg
   width="48"
   height="48"
   viewBox="0 0 12.7 12.7"
   version="1.1"
   id="svg8"
   inkscape:version="1.1.2 (0a00cf5339, 2022-02-04)"
   sodipodi:docname="application-dicom.svg"
   xmlns:inkscape="http://www.inkscape.org/namespaces/inkscape"
   xmlns:sodipodi="http://sodipodi.sourceforge.net/DTD/sodipodi-0.dtd"
   xmlns="http://www.w3.org/2000/svg"
   xmlns:svg="http://www.w3.org/2000/svg"
   xmlns:rdf="http://www.w3.org/1999/02/22-rdf-syntax-ns#"
   xmlns:cc="http://creativecommons.org/ns#"
   xmlns:dc="http://purl.org/dc/elements/1.1/">
  <defs
     id="defs2" />
  <sodipodi:namedview
     id="base"
     pagecolor="#ffffff"
     bordercolor="#666666"
     borderopacity="1.0"
     inkscape:pageopacity="0.0"
     inkscape:pageshadow="2"
     inkscape:zoom="15.839192"
     inkscape:cx="2.7463522"
     inkscape:cy="17.204161"
     inkscape:document-units="mm"
     inkscape:current-layer="layer1"
     showgrid="true"
     inkscape:window-width="1920"
     inkscape:window-height="1031"
     inkscape:window-x="0"
     inkscape:window-y="0"
     inkscape:window-maximized="1"
     units="px"
     inkscape:pagecheckerboard="0">
    <inkscape:grid
       type="xygrid"
       id="grid815" />
  </sodipodi:namedview>
  <metadata
     id="metadata5">
    <rdf:RDF>
      <cc:Work
         rdf:about="">
        <dc:format>image/svg+xml</dc:format>
        <dc:type
           rdf:resource="http://purl.org/dc/dcmitype/StillImage" />
      </cc:Work>
    </rdf:RDF>
  </metadata>
  <g
     inkscape:label="Capa 1"
     inkscape:groupmode="layer"
     id="layer1"
     transform="translate(0,-284.3)">
    <path
       id="rect817"
       style="opacity:1;fill:#434c5e;stroke-width:0.292055;stroke-linecap:round;stroke-opacity:0.880282;fill-opacity:1"
       d="m 2.2171529,285.09375 h 8.0011111 c 0.202248,0 0.365069,0.16282 0.365069,0.36507 v 10.64694 c 0,0.20225 -0.162821,0.36507 -0.365069,0.36507 H 2.2171529 c -0.2022486,0 -0.3650696,-0.16282 -0.3650696,-0.36507 v -10.64694 c 0,-0.20225 0.162821,-0.36507 0.3650696,-0.36507 z" />
    <path
       style="fill:#ffffff;fill-opacity:0.23529412;fill-rule:evenodd;stroke:none;stroke-width:0.07301383px;stroke-linecap:butt;stroke-linejoin:miter;stroke-opacity:1"
       d="M 2.38125,285.62292 H 5.0270833 L 2.38125,288.26875 Z"
       id="path819"
       inkscape:connector-curvature="0"
       sodipodi:nodetypes="cccc" />
    <path
       opacity="0.75"
       fill="#fbfbfb"
       d="m 5.8326723,288.60496 c -0.2846912,0 -0.6558795,0.15732 -0.995284,0.42158 -0.2036428,0.0856 -0.3466695,0.28356 -0.3466695,0.51376 0,0.0722 0.013849,0.14258 0.040637,0.20818 -0.3518911,0.0668 -0.6184202,0.36983 -0.6184202,0.7333 0,0.0756 0.011579,0.15007 0.034508,0.22203 -0.1450698,0.14008 -0.2270264,0.3301 -0.2270264,0.53102 0,0.1571 0.049946,0.30285 0.1350808,0.4234 -0.088313,0.12487 -0.1350808,0.27085 -0.1350808,0.42409 0,0.27175 0.1514267,0.52057 0.3913937,0.65179 -0.00408,0.0336 -0.00613,0.0675 -0.00613,0.10125 0,0.36643 0.2447345,0.69039 0.5993499,0.80073 0.154378,0.25813 0.4349827,0.41727 0.7423766,0.41727 0.3369072,0 0.6290903,-0.19047 0.7703007,-0.467 0.1412106,0.27653 0.4333936,0.467 0.7703009,0.467 0.3073938,0 0.5884526,-0.15914 0.7428306,-0.41727 0.3548424,-0.11034 0.5988958,-0.4343 0.5988958,-0.80073 0,-0.0338 -0.00204,-0.0676 -0.00613,-0.10125 0.239967,-0.13122 0.3913937,-0.38027 0.3913937,-0.65179 0,-0.15347 -0.046313,-0.29922 -0.1346268,-0.42409 0.084908,-0.12032 0.1346268,-0.2663 0.1346268,-0.4234 0,-0.20092 -0.081957,-0.39117 -0.2270265,-0.53102 0.02293,-0.072 0.034508,-0.14643 0.034508,-0.22203 0,-0.36324 -0.2665291,-0.66655 -0.6184202,-0.7333 0.026789,-0.0656 0.040637,-0.13598 0.040637,-0.20818 0,-0.2302 -0.1430267,-0.42817 -0.3466694,-0.51376 -0.3394046,-0.26426 -0.7103658,-0.42158 -0.995284,-0.42158 -0.1582375,0 -0.2987669,0.0763 -0.385264,0.19296 -0.086497,-0.11668 -0.2267994,-0.19296 -0.3852639,-0.19296 m 0,0.17662 c 0.162551,0 0.2949074,0.1294 0.2949074,0.28832 v 1.14195 c -0.081048,-0.0629 -0.1834374,-0.10081 -0.2949074,-0.10081 -0.049946,0 -0.090357,0.0395 -0.090357,0.0883 0,0.0488 0.040411,0.0883 0.090357,0.0883 0.162551,0 0.2949074,0.1294 0.2949074,0.28832 v 2.12134 c -0.1121511,-0.14167 -0.2703886,-0.24838 -0.4563232,-0.29741 -0.04813,-0.0127 -0.097848,0.0152 -0.110789,0.0625 -0.01294,0.047 0.015665,0.0956 0.063795,0.1083 0.2964966,0.0779 0.5033177,0.34167 0.5033177,0.64157 0,0.36665 -0.3051236,0.66497 -0.6799443,0.66497 -0.2531345,0 -0.4835664,-0.13667 -0.6016201,-0.35621 -0.011805,-0.0218 -0.032464,-0.0377 -0.056757,-0.044 -0.2962695,-0.0779 -0.5028636,-0.34145 -0.5028636,-0.64112 0,-0.0447 0.00454,-0.0899 0.013622,-0.13372 0.0084,-0.0407 -0.013168,-0.0815 -0.051762,-0.0983 -0.2109076,-0.0917 -0.3471235,-0.29605 -0.3471235,-0.52126 0,-0.10238 0.027016,-0.20023 0.078778,-0.28696 0.1348538,0.11624 0.3112533,0.18708 0.5046798,0.18708 0.049946,0 0.090357,-0.0395 0.090357,-0.0883 0,-0.0488 -0.040411,-0.0883 -0.090357,-0.0883 -0.3219234,0 -0.5834579,-0.25631 -0.5834579,-0.57098 0,-0.16935 0.076508,-0.32918 0.2097724,-0.43793 0.030195,-0.0245 0.040411,-0.0654 0.025654,-0.1008 -0.028606,-0.0686 -0.042908,-0.14075 -0.042908,-0.21431 0,-0.31466 0.2615345,-0.57052 0.5834581,-0.57052 0.3219235,0 0.583912,0.25586 0.583912,0.57052 0,0.0488 0.040411,0.0883 0.090357,0.0883 0.049946,0 0.090357,-0.0395 0.090357,-0.0883 0,-0.39593 -0.3167019,-0.72059 -0.7153604,-0.74533 -0.036097,-0.059 -0.05494,-0.12645 -0.05494,-0.19615 0,-0.15733 0.097621,-0.29241 0.2367886,-0.35098 0.00545,-0.002 0.010443,-0.004 0.015438,-0.007 0.043135,-0.0161 0.089675,-0.0247 0.1384861,-0.0247 0.1511996,0 0.2862804,0.0826 0.352345,0.21545 0.021795,0.0439 0.0756,0.062 0.1203241,0.0407 0.044952,-0.0214 0.063341,-0.0738 0.041546,-0.11783 -0.075373,-0.15188 -0.2181725,-0.26085 -0.3825397,-0.29945 0.2304319,-0.13735 0.4563232,-0.21545 0.6383985,-0.21545 m 0.7703008,0 c 0.1811671,0 0.4079665,0.0781 0.6383984,0.21545 -0.1643671,0.0386 -0.3071668,0.1478 -0.3825396,0.29945 -0.021794,0.0439 -0.00317,0.0965 0.041546,0.11783 0.044952,0.0214 0.098984,0.003 0.120778,-0.0407 0.066065,-0.13304 0.2009184,-0.21545 0.3518911,-0.21545 0.04881,0 0.095578,0.009 0.1384861,0.0247 0.00499,0.003 0.01067,0.005 0.015892,0.007 0.1391672,0.0586 0.2367886,0.19365 0.2367886,0.35098 0,0.0697 -0.019297,0.13712 -0.055394,0.19615 -0.3986584,0.0247 -0.7149063,0.3494 -0.7149063,0.74533 0,0.0488 0.040411,0.0883 0.090356,0.0883 0.049946,0 0.090357,-0.0395 0.090357,-0.0883 0,-0.31466 0.2615345,-0.57052 0.5834581,-0.57052 0.3219235,0 0.5839121,0.25586 0.5839121,0.57052 0,0.0735 -0.01453,0.14552 -0.042908,0.21431 -0.014757,0.0356 -0.00432,0.0763 0.025654,0.1008 0.1332646,0.10897 0.2097725,0.26858 0.2097725,0.43793 0,0.31467 -0.2619886,0.57098 -0.5839121,0.57098 -0.049945,0 -0.090356,0.0395 -0.090356,0.0883 0,0.0488 0.040411,0.0883 0.090356,0.0883 0.1934265,0 0.3698261,-0.0708 0.5046798,-0.18708 0.051762,0.0867 0.079233,0.18458 0.079233,0.28696 0,0.22499 -0.1362158,0.42954 -0.3471234,0.52126 -0.038594,0.0168 -0.060162,0.0577 -0.051762,0.0983 0.00908,0.0438 0.013622,0.089 0.013622,0.13372 0,0.29967 -0.2070481,0.56303 -0.5033177,0.64112 -0.024291,0.006 -0.044497,0.0225 -0.056303,0.044 -0.1180538,0.21954 -0.3489397,0.35621 -0.6020742,0.35621 -0.3750478,0 -0.6799443,-0.29832 -0.6799443,-0.66497 0,-0.0247 -0.00136,-0.0497 -0.00363,-0.074 0.00227,-0.008 0.00363,-0.0152 0.00363,-0.0234 v -2.91525 c 0,-0.15892 0.1323564,-0.28832 0.2949073,-0.28832 0.049946,0 0.090357,-0.0395 0.090357,-0.0883 0,-0.0488 -0.040411,-0.0883 -0.090357,-0.0883 -0.1112429,0 -0.2136319,0.0379 -0.2949073,0.10081 v -0.76577 c 0,-0.15892 0.1323564,-0.28832 0.2949073,-0.28832 m 1.3480833,1.5179 c -0.049945,0 -0.090356,0.0395 -0.090356,0.0883 0,0.31466 -0.2615345,0.57052 -0.5834581,0.57052 -0.1582375,0 -0.3062587,-0.0604 -0.4170476,-0.17095 -0.034962,-0.0347 -0.0924,-0.0354 -0.1280429,-0.002 -0.035643,0.0341 -0.036324,0.0899 -0.00136,0.12464 0.1250916,0.12487 0.2869614,0.20138 0.4622258,0.21999 0.041546,0.26857 0.2792426,0.47516 0.565296,0.47516 0.049945,0 0.090356,-0.0395 0.090356,-0.0883 0,-0.0488 -0.040411,-0.0883 -0.090356,-0.0883 -0.1870699,0 -0.3437182,-0.12918 -0.3820856,-0.30081 0.3745937,-0.0479 0.6649605,-0.36142 0.6649605,-0.74056 0,-0.0488 -0.040411,-0.0883 -0.090356,-0.0883 m -3.2737218,0.0944 c -0.049946,0 -0.090357,0.039 -0.090357,0.0879 0,0.37914 0.2903669,0.69334 0.6649606,0.74101 -0.038368,0.17164 -0.1950158,0.30036 -0.3820856,0.30036 -0.049945,0 -0.090357,0.0395 -0.090357,0.0883 0,0.0488 0.040411,0.0883 0.090357,0.0883 0.2860534,0 0.5239771,-0.20659 0.5652959,-0.47516 0.1752644,-0.0186 0.3369073,-0.0944 0.462226,-0.21953 0.034962,-0.0348 0.034281,-0.091 -0.00136,-0.1251 -0.035644,-0.0341 -0.092627,-0.0336 -0.127589,0.002 -0.1107888,0.11056 -0.2588102,0.1714 -0.4170475,0.1714 -0.3219236,0 -0.5839122,-0.25631 -0.5839122,-0.57097 0,-0.0488 -0.040411,-0.0879 -0.090356,-0.0879 m 1.9258656,1.31766 c -0.049945,0 -0.090357,0.0395 -0.090357,0.0883 0,0.0488 0.040411,0.0883 0.090357,0.0883 0.3219235,0 0.5839121,0.25631 0.5839121,0.57097 0,0.0202 -0.00136,0.0402 -0.00363,0.0601 -0.2801506,0.11101 -0.4781177,0.37982 -0.4781177,0.69288 0,0.0488 0.040411,0.0883 0.090357,0.0883 0.049946,0 0.090357,-0.0395 0.090357,-0.0883 0,-0.31466 0.2619885,-0.57097 0.5839121,-0.57097 0.049945,0 0.090357,-0.0395 0.090357,-0.0883 0,-0.0488 -0.040411,-0.0883 -0.090357,-0.0883 -0.034735,0 -0.069243,0.003 -0.102616,0.007 0,-0.004 4.54e-4,-0.009 4.54e-4,-0.0125 0,-0.41206 -0.343037,-0.7476 -0.7646251,-0.7476 m -1.0588515,0.18821 c -0.4213612,0 -0.7646252,0.33554 -0.7646252,0.74759 0,0.004 4.541e-4,0.009 4.541e-4,0.0124 -0.0336,-0.004 -0.067881,-0.007 -0.102616,-0.007 -0.049945,0 -0.090357,0.0395 -0.090357,0.0883 0,0.0488 0.040411,0.0883 0.090357,0.0883 0.3219236,0 0.5839121,0.25631 0.5839121,0.57097 0,0.0488 0.040411,0.0883 0.090357,0.0883 0.049946,0 0.090357,-0.0395 0.090357,-0.0883 0,-0.31306 -0.1979671,-0.5821 -0.4781178,-0.69288 -0.00204,-0.02 -0.00363,-0.04 -0.00363,-0.0602 0,-0.31466 0.2619885,-0.57097 0.583912,-0.57097 0.049946,0 0.090357,-0.0395 0.090357,-0.0883 0,-0.0488 -0.040411,-0.0883 -0.090357,-0.0883"
       id="path33"
       style="stroke-width:0.227026;fill:#fbfbfb;fill-opacity:0.94387758;opacity:1" />
  </g>
</svg>
