<?xml version="1.0" encoding="UTF-8" standalone="no"?>
<!-- Created with Inkscape (http://www.inkscape.org/) -->

<svg
   xmlns:dc="http://purl.org/dc/elements/1.1/"
   xmlns:cc="http://creativecommons.org/ns#"
   xmlns:rdf="http://www.w3.org/1999/02/22-rdf-syntax-ns#"
   xmlns:svg="http://www.w3.org/2000/svg"
   xmlns="http://www.w3.org/2000/svg"
   xmlns:sodipodi="http://sodipodi.sourceforge.net/DTD/sodipodi-0.dtd"
   xmlns:inkscape="http://www.inkscape.org/namespaces/inkscape"
   width="24"
   height="24"
   viewBox="0 0 6.3499999 6.3500002"
   version="1.1"
   id="svg8"
   inkscape:version="0.92.4 5da689c313, 2019-01-14"
   sodipodi:docname=".2.svg">
  <defs
     id="defs2" />
  <sodipodi:namedview
     id="base"
     pagecolor="#ffffff"
     bordercolor="#666666"
     borderopacity="1.0"
     inkscape:pageopacity="0.0"
     inkscape:pageshadow="2"
     inkscape:zoom="22.4"
     inkscape:cx="3.3628283"
     inkscape:cy="15.573648"
     inkscape:document-units="mm"
     inkscape:current-layer="layer1"
     showgrid="true"
     units="px"
     inkscape:window-width="1920"
     inkscape:window-height="1027"
     inkscape:window-x="0"
     inkscape:window-y="30"
     inkscape:window-maximized="1">
    <inkscape:grid
       type="xygrid"
       id="grid815" />
  </sodipodi:namedview>
  <metadata
     id="metadata5">
    <rdf:RDF>
      <cc:Work
         rdf:about="">
        <dc:format>image/svg+xml</dc:format>
        <dc:type
           rdf:resource="http://purl.org/dc/dcmitype/StillImage" />
        <dc:title></dc:title>
      </cc:Work>
    </rdf:RDF>
  </metadata>
  <g
     inkscape:label="Capa 1"
     inkscape:groupmode="layer"
     id="layer1"
     transform="translate(0,-290.64998)">
    <g
       id="g836">
      <rect
         y="290.64999"
         x="0"
         height="6.3499999"
         width="6.3499999"
         id="rect817"
         style="opacity:0;fill:#51afff;fill-opacity:1;stroke:none;stroke-width:0.02645833;stroke-linecap:square;stroke-linejoin:miter;stroke-miterlimit:4;stroke-dasharray:none;stroke-dashoffset:0;stroke-opacity:1;paint-order:fill markers stroke" />
      <path
         inkscape:connector-curvature="0"
         id="rect819"
         d="m 2.9104167,291.17915 c -0.1465839,0 -0.2645834,0.118 -0.2645834,0.26458 v 0.52452 a 1.9313119,1.9313119 0 0 0 -0.4082438,0.17104 l -0.3720703,-0.37207 c -0.1036504,-0.10365 -0.2704869,-0.10365 -0.3741373,0 l -0.3741374,0.37414 c -0.1036504,0.10365 -0.1036504,0.27049 0,0.37414 l 0.37052,0.37052 a 1.9313119,1.9313119 0 0 0 -0.1684652,0.40979 H 0.79375003 c -0.14658388,0 -0.26458333,0.118 -0.26458333,0.26459 v 0.52916 c 0,0.14659 0.11799945,0.26459 0.26458333,0.26459 H 1.3182658 a 1.9313119,1.9313119 0 0 0 0.171049,0.40824 l -0.3720703,0.37207 c -0.1036504,0.10365 -0.1036504,0.27049 0,0.37414 l 0.3741374,0.37414 c 0.1036504,0.10365 0.2704869,0.10365 0.3741373,0 l 0.37052,-0.37052 a 1.9313119,1.9313119 0 0 0 0.4097941,0.16846 v 0.52555 c 0,0.14658 0.1179995,0.26458 0.2645834,0.26458 h 0.5291666 c 0.146584,0 0.2645834,-0.118 0.2645834,-0.26458 v -0.52452 a 1.9313119,1.9313119 0 0 0 0.4082438,-0.17104 l 0.3720703,0.37207 c 0.1036503,0.10365 0.270487,0.10365 0.3741373,0 l 0.3741375,-0.37414 c 0.1036502,-0.10365 0.1036502,-0.27049 0,-0.37414 l -0.3705201,-0.37052 a 1.9313119,1.9313119 0 0 0 0.1684652,-0.40979 H 5.55625 c 0.1465839,0 0.2645833,-0.118 0.2645833,-0.26459 v -0.52916 c 0,-0.14659 -0.1179994,-0.26459 -0.2645833,-0.26459 H 5.0317342 a 1.9313119,1.9313119 0 0 0 -0.1710489,-0.40824 l 0.3720703,-0.37207 c 0.1036502,-0.10365 0.1036502,-0.27049 0,-0.37414 l -0.3741375,-0.37414 c -0.1036503,-0.10365 -0.270487,-0.10365 -0.3741373,0 l -0.3705201,0.37052 a 1.9313119,1.9313119 0 0 0 -0.409794,-0.16846 v -0.52555 c 0,-0.14658 -0.1179994,-0.26458 -0.2645834,-0.26458 z M 3.175,292.71342 A 1.1114862,1.1114862 0 0 1 4.2865601,293.82498 1.1114862,1.1114862 0 0 1 3.175,294.93654 1.1114862,1.1114862 0 0 1 2.0634399,293.82498 1.1114862,1.1114862 0 0 1 3.175,292.71342 Z"
         style="opacity:0.87999998;fill:#09090a;fill-opacity:0.91623038;stroke:none;stroke-width:0.02645833;stroke-linecap:square;stroke-linejoin:miter;stroke-miterlimit:4;stroke-dasharray:none;stroke-dashoffset:0;stroke-opacity:1;paint-order:fill markers stroke" />
    </g>
  </g>
</svg>
