<svg height="48" width="48" xmlns="http://www.w3.org/2000/svg"><path d="m44.322082 27.405077a19.729762 19.729765 0 0 1 -19.729762 19.729765 19.729762 19.729765 0 0 1 -19.7297621-19.729765 19.729762 19.729765 0 0 1 19.7297621-19.7297632 19.729762 19.729765 0 0 1 19.729762 19.7297632z" fill="#d26f5b" opacity=".99" transform="matrix(1.1503549 0 0 1.1503549 -4.486125 -7.525565)"/><path d="m10.5 13.5h22.5v18h-22.5z" fill="none" stroke="#fff" stroke-width="2"/><path d="m13.5 28.5 4.5-6 3 1.5 3-3 3 1.5 3-3v9z" fill="#fff"/><circle cx="16.057142" cy="19.042856" fill="#fff" r="2.55"/><path d="m34.5 18h1.5v16.5h-22.5v-1.5" fill="none" stroke="#fff" stroke-width="2"/></svg>