<svg height="48" width="48" xmlns="http://www.w3.org/2000/svg" xmlns:xlink="http://www.w3.org/1999/xlink"><clipPath id="a"><path d="m19.420078 36.292868 3.079922-9.292868s1.703808-.313507 2.5489-.175754c.968923.157938 1.749217.4674 2.726535.560164.965974.09169 2.742984-.172 2.742984-.172s.849334 1.971057 3.026816 2.814409c.796832.843356 1.309809 1.701485 2.177191 2.070984.669454.285183 1.805468-.0531 1.805468-.0531 1.962265-.185688 2.133648-.684634 3.133026-2.124085.542305-1.529715-.902798-4.168483-1.168246-4.035759-1.903972-2.532317-.801678-3.182827-7.912216-8.974254l-1.087784-1.525746-.983198-5.802345-3.929557 2.973718s-3.662793.536919-5.403398 1.134799c-2.371745.81467-4.682686 1.897665-6.758797 3.3043-1.112071.753465-2.539726 2.003627-3.8307581 3.209769-3.7793495 3.182664 5.9246021 19.042613 9.8331121 16.087768z"/></clipPath><path d="m44.322082 27.405077a19.729762 19.729765 0 0 1 -19.729762 19.729765 19.729762 19.729765 0 0 1 -19.7297621-19.729765 19.729762 19.729765 0 0 1 19.7297621-19.7297632 19.729762 19.729765 0 0 1 19.729762 19.7297632z" fill="#876bca" opacity=".99" transform="matrix(1.1503549 0 0 1.1503549 -4.486125 -7.525565)"/><g fill="#fff" fill-rule="evenodd"><path d="m29.509766 9.5820312-3.929688 2.9746098s-.810982.133231-1.580078.265625v.677734c-9.240721 6.102631-7.596231 12.958729-10.5 19.5l-.09375.09375c2.12909 2.661083 4.502977 4.341309 6.013672 3.199219l3.080078-9.292969s1.703736-.313534 2.548828-.175781c.968923.157938 1.749245.467783 2.726563.560547.965974.09169 2.742187-.171875 2.742187-.171875s.849862 1.971101 3.027344 2.814453c.796832.843356 1.310352 1.700813 2.177734 2.070312.669454.285183 1.804688-.052734 1.804688-.052734 1.962265-.185688 2.133434-.685549 3.132812-2.125.542305-1.529715-.902521-4.16788-1.167968-4.035156-1.903974-2.532317-.801572-3.183183-7.91211-8.97461l-1.08789-1.52539zm.339843 9.0175778a1.65.75 0 0 1 1.650391.75 1.65.75 0 0 1 -1.650391.75 1.65.75 0 0 1 -1.65039-.75 1.65.75 0 0 1 1.65039-.75z"/><path d="m34.992674 30.384859c-3.099216-1.766952-6.69416-.95828-9-4.5l1.5-12 4.5-3-1.992674 7.115141h3z" fill-opacity=".454902"/><path clip-path="url(#a)" d="m24 13.5-10.5 19.5-1.5 1.5-9-12 12-10.5 9-1.5z" fill-opacity=".727451"/></g></svg>