<?xml version="1.0" encoding="UTF-8" standalone="no"?>
<!-- Created with Inkscape (http://www.inkscape.org/) -->

<svg
   xmlns:dc="http://purl.org/dc/elements/1.1/"
   xmlns:cc="http://creativecommons.org/ns#"
   xmlns:rdf="http://www.w3.org/1999/02/22-rdf-syntax-ns#"
   xmlns:svg="http://www.w3.org/2000/svg"
   xmlns="http://www.w3.org/2000/svg"
   xmlns:xlink="http://www.w3.org/1999/xlink"
   xmlns:sodipodi="http://sodipodi.sourceforge.net/DTD/sodipodi-0.dtd"
   xmlns:inkscape="http://www.inkscape.org/namespaces/inkscape"
   version="1.1"
   id="svg2"
   width="170.66667"
   height="170.66667"
   viewBox="0 0 170.66667 170.66667"
   sodipodi:docname="com.github.calo001.luna.svg"
   inkscape:version="0.92.4 (5da689c313, 2019-01-14)">
  <metadata
     id="metadata8">
    <rdf:RDF>
      <cc:Work
         rdf:about="">
        <dc:format>image/svg+xml</dc:format>
        <dc:type
           rdf:resource="http://purl.org/dc/dcmitype/StillImage" />
        <dc:title></dc:title>
      </cc:Work>
    </rdf:RDF>
  </metadata>
  <defs
     id="defs6">
    <linearGradient
       inkscape:collect="always"
       id="linearGradient1399">
      <stop
         style="stop-color:#69777e;stop-opacity:1"
         offset="0"
         id="stop1395" />
      <stop
         style="stop-color:#7c8a8e;stop-opacity:1"
         offset="1"
         id="stop1397" />
    </linearGradient>
    <linearGradient
       inkscape:collect="always"
       id="linearGradient1248">
      <stop
         style="stop-color:#a6a7a7;stop-opacity:1"
         offset="0"
         id="stop1268" />
      <stop
         style="stop-color:#686760;stop-opacity:0"
         offset="1"
         id="stop1270" />
    </linearGradient>
    <linearGradient
       id="linearGradient1248-7"
       inkscape:collect="always">
      <stop
         id="stop1261"
         offset="0"
         style="stop-color:#acafac;stop-opacity:1;" />
      <stop
         id="stop1263"
         offset="1"
         style="stop-color:#686760;stop-opacity:1" />
    </linearGradient>
    <linearGradient
       inkscape:collect="always"
       xlink:href="#linearGradient1248-7"
       id="linearGradient1250"
       x1="97.103302"
       y1="147.87509"
       x2="98.018387"
       y2="154.38356"
       gradientUnits="userSpaceOnUse" />
    <linearGradient
       inkscape:collect="always"
       xlink:href="#linearGradient1248"
       id="linearGradient1273"
       gradientUnits="userSpaceOnUse"
       x1="45.035503"
       y1="158.36098"
       x2="96.93364"
       y2="153.6604" />
    <linearGradient
       inkscape:collect="always"
       xlink:href="#linearGradient1248"
       id="linearGradient1281"
       gradientUnits="userSpaceOnUse"
       x1="137.23889"
       y1="132.68866"
       x2="96.93364"
       y2="153.6604" />
    <filter
       inkscape:collect="always"
       style="color-interpolation-filters:sRGB"
       id="filter1342"
       x="-0.022498218"
       width="1.0449964"
       y="-0.020770749"
       height="1.0415415">
      <feGaussianBlur
         inkscape:collect="always"
         stdDeviation="1.2103751"
         id="feGaussianBlur1344" />
    </filter>
    <linearGradient
       inkscape:collect="always"
       xlink:href="#linearGradient1399"
       id="linearGradient1401"
       x1="140.71425"
       y1="213.09308"
       x2="157.68481"
       y2="213.44662"
       gradientUnits="userSpaceOnUse"
       gradientTransform="matrix(1.0732035,0,0,1.0732035,-149.6394,13.608154)" />
    <filter
       inkscape:collect="always"
       style="color-interpolation-filters:sRGB"
       id="filter1409"
       x="-0.0094774002"
       width="1.0189548"
       y="-0.0097258133"
       height="1.0194516">
      <feGaussianBlur
         inkscape:collect="always"
         stdDeviation="0.57345633"
         id="feGaussianBlur1411" />
    </filter>
  </defs>
  <sodipodi:namedview
     pagecolor="#ffffff"
     bordercolor="#666666"
     borderopacity="1"
     objecttolerance="10"
     gridtolerance="10"
     guidetolerance="10"
     inkscape:pageopacity="0"
     inkscape:pageshadow="2"
     inkscape:window-width="1920"
     inkscape:window-height="1022"
     id="namedview4"
     showgrid="false"
     inkscape:zoom="2.8284271"
     inkscape:cx="30.461581"
     inkscape:cy="129.18429"
     inkscape:window-x="0"
     inkscape:window-y="30"
     inkscape:window-maximized="1"
     inkscape:current-layer="svg2" />
  <path
     sodipodi:nodetypes="ccccccc"
     inkscape:connector-curvature="0"
     id="path1351"
     d="M 16.183571,38.653596 135.86906,20.276837 c 2.80624,-0.439258 2.83191,-0.53471 3.61582,3.615819 L 158.93503,142.13315 33.079271,161.58204 14.014081,43.715743 c -0.55115,-3.787698 -0.59393,-4.487634 2.16949,-5.062147 z"
     style="fill:#000000;fill-opacity:0.475;stroke:none;stroke-width:1px;stroke-linecap:butt;stroke-linejoin:miter;stroke-opacity:1;filter:url(#filter1409)"
     transform="matrix(1.0732035,0,0,1.0732035,-6.9033379,-8.929119)" />
  <path
     style="fill:url(#linearGradient1401);fill-opacity:1;stroke:none;stroke-width:1.07320344px;stroke-linecap:butt;stroke-linejoin:miter;stroke-opacity:1"
     d="m 11.01371,32.622654 127.28072,-19.7906 c 3.01167,-0.471414 3.03922,-0.573853 3.88051,3.880509 L 162.35359,140.50083 28.087948,160.67948 8.685405,38.055367 C 8.093909,33.990397 8.047998,33.239223 11.01371,32.622654 Z"
     id="path1288"
     inkscape:connector-curvature="0"
     sodipodi:nodetypes="ccccccc" />
  <path
     sodipodi:nodetypes="ccccc"
     inkscape:connector-curvature="0"
     id="path1324"
     d="M 19.383881,38.0043 131.6261,20.106907 149.01781,132.63887 38.031281,152.54761 Z"
     style="opacity:1;fill:#000000;fill-opacity:0.7125;stroke:none;stroke-width:1px;stroke-linecap:butt;stroke-linejoin:miter;stroke-opacity:1;filter:url(#filter1342)"
     transform="matrix(1.0732035,0,0,1.0732035,-6.9033379,-8.929119)" />
  <path
     style="opacity:1;fill:#000000;fill-opacity:0.22083333;stroke:none;stroke-width:1px;stroke-linecap:butt;stroke-linejoin:miter;stroke-opacity:1;filter:url(#filter1342)"
     d="M 27.883881,38.7543 125.6261,20.856907 147.76781,138.63887 39.781281,156.04761 Z"
     id="path1403"
     inkscape:connector-curvature="0"
     sodipodi:nodetypes="ccccc"
     transform="matrix(1.0732035,0,0,1.0732035,-6.9033379,-8.929119)" />
  <path
     style="opacity:1;fill:#fafafa;fill-opacity:1;stroke:none;stroke-width:1.07320344px;stroke-linecap:butt;stroke-linejoin:miter;stroke-opacity:1"
     d="M 14.72269,23.899818 131.88871,4.692273 151.64504,125.42541 32.009487,145.18173 Z"
     id="path1235"
     inkscape:connector-curvature="0"
     sodipodi:nodetypes="ccccc" />
  <path
     style="fill:#178fff;fill-opacity:1;stroke:none;stroke-width:1.07320344px;stroke-linecap:butt;stroke-linejoin:miter;stroke-opacity:1"
     d="M 131.88842,4.6932464 14.72269,23.899818 19.960846,60.652844 138.03838,42.274234 Z"
     id="path1237"
     inkscape:connector-curvature="0" />
  <g
     id="g1286"
     transform="matrix(1.0732035,0,0,1.0732035,-12.442258,-22.886699)">
    <path
       sodipodi:nodetypes="ccccc"
       inkscape:connector-curvature="0"
       id="path1242"
       d="m 41.41968,156.60444 1.789739,6.39193 109.301941,-19.43146 0.3835,-5.36921 c -36.6499,4.98241 -74.488967,12.7972 -111.47518,18.40874 z"
       style="fill:url(#linearGradient1250);fill-opacity:1;stroke:none;stroke-width:1px;stroke-linecap:butt;stroke-linejoin:miter;stroke-opacity:1" />
    <path
       style="fill:url(#linearGradient1273);fill-opacity:1;stroke:none;stroke-width:1px;stroke-linecap:butt;stroke-linejoin:miter;stroke-opacity:1"
       d="m 41.41968,156.60444 1.789739,6.39193 109.301941,-19.43146 0.3835,-5.36921 c -36.6499,7.22133 -74.488967,13.87793 -111.47518,18.40874 z"
       id="path1266"
       inkscape:connector-curvature="0"
       sodipodi:nodetypes="ccccc" />
    <path
       sodipodi:nodetypes="ccccc"
       inkscape:connector-curvature="0"
       id="path1279"
       d="m 41.41968,156.60444 1.789739,6.39193 109.301941,-19.43146 0.3835,-5.36921 c -36.6499,7.22133 -74.488967,13.87793 -111.47518,18.40874 z"
       style="fill:url(#linearGradient1281);fill-opacity:1;stroke:none;stroke-width:1px;stroke-linecap:butt;stroke-linejoin:miter;stroke-opacity:1" />
  </g>
  <path
     style="fill:#ffffff;fill-opacity:0.25;stroke:none;stroke-width:1.07320344px;stroke-linecap:butt;stroke-linejoin:miter;stroke-opacity:1"
     d="m 140.05218,12.612507 c -0.35854,0.0051 -0.83155,0.07812 -1.39181,0.165591 l 21.74285,128.015152 1.94937,-0.29345 -20.17706,-123.787321 c -0.63098,-3.340771 -0.80562,-4.118862 -2.12335,-4.099972 z"
     id="path1346"
     inkscape:connector-curvature="0" />
  <path
     style="fill:#1f2427;fill-opacity:1;stroke:none;stroke-width:1.07320344px;stroke-linecap:butt;stroke-linejoin:miter;stroke-opacity:1"
     d="m 28.087948,160.67948 1.314406,1.78955 132.708316,-20.5019 0.24192,-1.46733 z"
     id="path1385"
     inkscape:connector-curvature="0"
     sodipodi:nodetypes="ccccc" />
  <path
     style="fill:#525252;fill-opacity:1;stroke:none;stroke-width:1.07320344px;stroke-linecap:butt;stroke-linejoin:miter;stroke-opacity:1"
     d="m 56.201071,82.013075 0.134151,2.414708 13.280893,-1.207354 6.841672,38.903621 3.756212,-0.67075 -7.914875,-52.184516 -3.756213,0.670752 c 0.891693,10.666559 -6.067828,10.578354 -12.34184,12.073539 z"
     id="path1413"
     inkscape:connector-curvature="0"
     sodipodi:nodetypes="cccccccc" />
  <path
     style="fill:#525252;fill-opacity:1;stroke:none;stroke-width:1.07320344px;stroke-linecap:butt;stroke-linejoin:miter;stroke-opacity:1"
     d="M 85.848318,67.658978 V 71.28104 L 114.01991,67.524828 C 98.032,92.982543 100.73083,108.86282 101.14147,117.96539 l 4.69526,-0.5366 c -2.99241,-21.959869 4.53462,-36.271663 12.74429,-50.038112 l -0.5366,-5.366018 z"
     id="path1415"
     inkscape:connector-curvature="0"
     sodipodi:nodetypes="cccccccc" />
  <g
     id="g1426"
     transform="matrix(1.0732035,0,0,1.0732035,-3.8443961,-7.195655)">
    <path
       sodipodi:nodetypes="ccscc"
       inkscape:connector-curvature="0"
       id="path1417"
       d="m 61.625,30.791672 c 0.584554,3.274198 1.043988,5.941921 1.358507,8.127374 0.797331,6.81769 0.556975,9.870714 -2.778932,10.510941 -1.517594,0.291257 -3.585182,0.548597 -4.635994,-1.739074 C 55.137847,46.839191 54.800577,45.659372 54.625,44.041672"
       style="fill:none;stroke:#f6f6f6;stroke-width:2.5;stroke-linecap:butt;stroke-linejoin:miter;stroke-miterlimit:4;stroke-dasharray:none;stroke-opacity:1" />
    <path
       sodipodi:nodetypes="cccc"
       inkscape:connector-curvature="0"
       id="path1419"
       d="m 68.942911,29.775646 c 0.11867,3.894905 0.429661,6.921711 0.885731,9.265615 1.479619,11.338566 13.508513,8.37818 12.966845,-0.960067 0.01814,-3.492823 -0.350175,-7.153135 -0.682712,-10.250092"
       style="fill:none;stroke:#f6f6f6;stroke-width:2.5;stroke-linecap:butt;stroke-linejoin:miter;stroke-miterlimit:4;stroke-dasharray:none;stroke-opacity:1" />
    <path
       inkscape:connector-curvature="0"
       id="path1421"
       d="m 88.830289,26.593665 2.386486,17.058951 11.490485,-1.06066"
       style="fill:none;stroke:#f6f6f6;stroke-width:2.5;stroke-linecap:butt;stroke-linejoin:miter;stroke-miterlimit:4;stroke-dasharray:none;stroke-opacity:1" />
  </g>
</svg>
