<svg height="48" width="48" xmlns="http://www.w3.org/2000/svg"><rect fill="#c8beb7" height="42" ry="1.452703" width="44" x="2" y="4"/><path d="m46 23.857144v20.690153c0 .804798-.647905 1.452703-1.452703 1.452703h-41.0945941c-.8047974 0-1.4527029-.647905-1.4527029-1.452703v-20.404439z" fill="#afa096"/><path d="m19 2h10v28l-1-1-1 1-1-1h-1l-1-1-1 2-1-1-.928572 1-1.071428-1-1 1z" fill="#fff" fill-opacity=".495455"/><circle cx="35.38607" cy="35.256638" fill="#fff" r="9.5"/><path d="m33 30v6h5v-6zm-2 7 4.5 5 4.5-5z" fill="#afa096"/></svg>