<?xml version="1.0" encoding="UTF-8" standalone="no"?>
<svg
   xmlns:dc="http://purl.org/dc/elements/1.1/"
   xmlns:cc="http://creativecommons.org/ns#"
   xmlns:rdf="http://www.w3.org/1999/02/22-rdf-syntax-ns#"
   xmlns:svg="http://www.w3.org/2000/svg"
   xmlns="http://www.w3.org/2000/svg"
   xmlns:sodipodi="http://sodipodi.sourceforge.net/DTD/sodipodi-0.dtd"
   xmlns:inkscape="http://www.inkscape.org/namespaces/inkscape"
   version="1.0"
   width="630.000000pt"
   height="630.000000pt"
   viewBox="0 0 630.000000 630.000000"
   preserveAspectRatio="xMidYMid meet"
   id="svg12"
   sodipodi:docname="dynalist.svg"
   inkscape:version="0.92.3 (2405546, 2018-03-11)">
  <defs
     id="defs16" />
  <sodipodi:namedview
     pagecolor="#ffffff"
     bordercolor="#666666"
     borderopacity="1"
     objecttolerance="10"
     gridtolerance="10"
     guidetolerance="10"
     inkscape:pageopacity="0"
     inkscape:pageshadow="2"
     inkscape:window-width="3200"
     inkscape:window-height="1752"
     id="namedview14"
     showgrid="false"
     inkscape:zoom="1.5893066"
     inkscape:cx="343.67952"
     inkscape:cy="372.9694"
     inkscape:window-x="0"
     inkscape:window-y="0"
     inkscape:window-maximized="1"
     inkscape:current-layer="svg12" />
  <metadata
     id="metadata2">
Created by potrace 1.15, written by Peter Selinger 2001-2017
<rdf:RDF>
  <cc:Work
     rdf:about="">
    <dc:format>image/svg+xml</dc:format>
    <dc:type
       rdf:resource="http://purl.org/dc/dcmitype/StillImage" />
  </cc:Work>
</rdf:RDF>
</metadata>
  <ellipse
     style="fill:#ffffff;fill-opacity:1;stroke-width:0.75"
     id="path815"
     ry="211.22351"
     rx="301.48572"
     cy="316.00104"
     cx="314.49948" />
  <g
     transform="translate(0.000000,630.000000) scale(0.100000,-0.100000)"
     fill="#000000"
     stroke="none"
     id="g10"
     style="fill:#4aa1ec;fill-opacity:1">
    <path
       d="M2790 6284 c-667 -80 -1288 -365 -1779 -817 -523 -483 -869 -1137 -983 -1858 -20 -128 -22 -180 -22 -464 0 -284 2 -336 22 -464 161 -1022 784 -1888 1687 -2348 326 -165 627 -262 980 -314 189 -28 721 -28 910 0 630 93 1215 373 1684 804 523 483 869 1137 983 1858 20 128 22 180 22 464 0 284 -2 336 -22 464 -163 1032 -792 1900 -1711 2359 -347 174 -677 272 -1061 316 -167 20 -547 20 -710 0z m-830 -1839 c219 -39 434 -140 610 -286 31 -26 173 -171 315 -323 142 -152 261 -275 264 -274 4 2 109 113 235 248 323 346 403 415 614 520 192 96 348 129 604 130 267 0 423 -36 639 -147 351 -181 595 -505 681 -906 28 -132 30 -359 5 -489 -82 -415 -329 -748 -694 -936 -203 -104 -368 -142 -621 -142 -246 0 -413 35 -600 125 -209 100 -278 159 -604 507 -137 148 -253 268 -258 268 -5 0 -13 -6 -17 -14 -10 -17 -463 -496 -516 -545 -68 -63 -208 -158 -304 -205 -204 -101 -363 -136 -612 -136 -195 0 -298 15 -448 65 -450 150 -774 516 -875 988 -31 145 -30 370 1 517 112 527 511 923 1036 1030 118 24 420 27 545 5z"
       id="path4"
       style="fill:#4aa1ec;fill-opacity:1" />
    <path
       d="M1589 3900 c-200 -20 -401 -132 -517 -286 -224 -299 -212 -680 32 -967 87 -103 243 -195 391 -232 95 -24 313 -24 410 -1 127 32 255 102 350 193 63 61 500 534 500 542 0 5 -22 33 -50 63 -515 555 -513 552 -638 612 -50 24 -121 51 -157 59 -83 20 -224 27 -321 17z"
       id="path6"
       style="fill:#4aa1ec;fill-opacity:1" />
    <path
       d="M4484 3900 c-134 -14 -265 -65 -369 -142 -52 -39 -123 -111 -384 -393 -31 -33 -89 -94 -129 -136 l-73 -77 262 -278 c271 -288 334 -346 429 -394 236 -119 569 -114 784 12 198 116 333 307 372 528 51 288 -72 585 -312 748 -117 79 -216 115 -359 132 -99 11 -116 11 -221 0z"
       id="path8"
       style="fill:#4aa1ec;fill-opacity:1" />
  </g>
</svg>
