<svg height="48" width="48" xmlns="http://www.w3.org/2000/svg"><circle cx="23.940615" cy="31.534513" fill="#f96565" opacity=".99" r="13.232998" transform="matrix(1.72140702696 0 0 1.72140725788 -17.2289093957 -30.06939350282)"/><path d="m20.90829 25.52022c-.56289 1.06012-1.11309 2.04303-1.62104 2.94553 2.8098-1.17723 5.83399-1.93058 8.71275-2.46575-.38689-.26715-.76247-.55005-1.11586-.84908-1.58527-1.34214-2.79387-3.01659-3.66996-4.77861-.5556 1.49684-1.21627 3.08745-2.30587 5.14792m-1.06806-.54684c.81639-1.60017 1.74421-3.40305 2.48683-5.21308l.29363-.71453c-.97-3.69114-1.55164-6.65403-1.03202-8.56987.13989-.49948.7184-.80253 1.33689-.80253l.37689.0056h.06916c.84675-.01306 1.24546 1.06413 1.2907 1.48291.07473.69742-.24795 1.87779-.24795 1.87779 0-.47664.01867-1.24685-.28218-1.91146-.35018-.76904-.68468-1.22846-.98459-1.30129-.15141.10114-.29859.31056-.34902.71343-.10441.56486-.13573 1.27786-.13573 1.64541 0 1.29858.25569 3.01259.75816 4.77949.09479-.27357.17819-.53641.24452-.78268.10303-.38813.75809-2.961.75809-2.961s-.16506 3.42487-.39565 4.46112c-.0494.21898-.10391.43556-.16068.65724.82858 2.31514 2.16372 4.38144 3.75645 5.86858.62799.5869 1.4211 1.06011 2.17175 1.49144 1.63928-.23423 3.1486-.34486 4.40778-.33092 1.67059.02204 2.89686.26911 3.39342.75824.24314.23774.34179.52488.37244.84675.0073.12521-.05371.41943-.07159.49328.01788-.08939.01788-.52896-1.32317-.95701-1.05617-.33764-3.03287-.32713-5.40478-.07466 2.74347 1.34222 5.41624 2.0091 6.26328 1.60929.20709-.10093.45826-.44505.45826-.44505s-.1493.67834-.25649.84792c-.13681.18425-.40521.38383-.65965.4511-1.3377.3569-4.81978-.46898-7.85535-2.20349-3.39152.49948-7.11615 1.42219-10.10174 2.40146-2.93392 5.14172-5.13968 7.50319-6.93409 6.60485l-.65973-.33172c-.26815-.15341-.30909-.5268-.24707-.83086.20921-1.02356 1.49269-2.5652 4.07081-4.10466.27751-.16791 1.51363-.8215 1.51363-.8215s-.91512.88572-1.12951 1.05953c-2.05777 1.68627-3.5765 3.80775-3.53863 4.6302l.0075.07174c1.74801-.24912 4.3694-3.80701 7.73947-10.40107" fill="#fff"/></svg>