<?xml version="1.0" encoding="UTF-8" standalone="no"?>
<svg
   xmlns:dc="http://purl.org/dc/elements/1.1/"
   xmlns:cc="http://creativecommons.org/ns#"
   xmlns:rdf="http://www.w3.org/1999/02/22-rdf-syntax-ns#"
   xmlns:svg="http://www.w3.org/2000/svg"
   xmlns="http://www.w3.org/2000/svg"
   xmlns:xlink="http://www.w3.org/1999/xlink"
   xmlns:sodipodi="http://sodipodi.sourceforge.net/DTD/sodipodi-0.dtd"
   xmlns:inkscape="http://www.inkscape.org/namespaces/inkscape"
   width="48"
   version="1.0"
   height="48"
   id="svg31"
   sodipodi:docname="feathernotes.svg"
   inkscape:version="0.92.5 (2060ec1f9f, 2020-04-08)">
  <metadata
     id="metadata35">
    <rdf:RDF>
      <cc:Work
         rdf:about="">
        <dc:format>image/svg+xml</dc:format>
        <dc:type
           rdf:resource="http://purl.org/dc/dcmitype/StillImage" />
      </cc:Work>
    </rdf:RDF>
  </metadata>
  <sodipodi:namedview
     pagecolor="#ffffff"
     bordercolor="#666666"
     borderopacity="1"
     objecttolerance="10"
     gridtolerance="10"
     guidetolerance="10"
     inkscape:pageopacity="0"
     inkscape:pageshadow="2"
     inkscape:window-width="1850"
     inkscape:window-height="1048"
     id="namedview33"
     showgrid="false"
     inkscape:zoom="4.9166667"
     inkscape:cx="-5.9995131"
     inkscape:cy="-8.2803445"
     inkscape:window-x="70"
     inkscape:window-y="32"
     inkscape:window-maximized="1"
     inkscape:current-layer="svg31" />
  <defs
     id="defs5">
    <linearGradient
       id="linearGradient6377">
      <stop
         offset="0"
         style="stop-color:#fff27e"
         id="stop6379" />
      <stop
         offset="1"
         style="stop-color:#edcb00"
         id="stop6381" />
    </linearGradient>
    <linearGradient
       id="linearGradient3786">
      <stop
         offset="0"
         style="stop-color:#ba5e00"
         id="stop3788" />
      <stop
         offset="1"
         style="stop-color:#ba6c00;stop-opacity:.314"
         id="stop3790" />
    </linearGradient>
    <linearGradient
       xlink:href="#linearGradient3786"
       id="linearGradient3792"
       y1="36.910137"
       x1="6.483892"
       y2="43.388893"
       x2="6.6"
       gradientUnits="userSpaceOnUse" />
    <linearGradient
       id="linearGradient6417">
      <stop
         offset="0"
         id="stop6419" />
      <stop
         offset="1"
         style="stop-opacity:0"
         id="stop6421" />
    </linearGradient>
    <linearGradient
       id="linearGradient2772">
      <stop
         offset="0"
         style="stop-color:#fff"
         id="stop2774" />
      <stop
         offset="1"
         style="stop-color:#9cf"
         id="stop2776" />
    </linearGradient>
    <radialGradient
       fx="19.812624"
       fy="13.953795"
       cx="19.812624"
       cy="13.953795"
       gradientTransform="matrix(0.81397743,-0.69057134,0.31101164,0.36658989,-0.65419757,22.625284)"
       spreadMethod="reflect"
       xlink:href="#linearGradient2772"
       id="radialGradient4038"
       r="17.303488"
       gradientUnits="userSpaceOnUse" />
    <radialGradient
       fx="39.907337"
       fy="31.780704"
       cx="39.907337"
       cy="31.780704"
       gradientTransform="matrix(1.0586628,0,0,0.38254218,-2.1066214,22.515669)"
       xlink:href="#linearGradient6417"
       id="radialGradient3056"
       r="5.2591066"
       gradientUnits="userSpaceOnUse" />
    <radialGradient
       fx="45.150326"
       fy="35.915409"
       cx="45.150326"
       cy="35.915409"
       gradientTransform="matrix(1.7676617,0,0,1.2920778,-34.118124,-13.580785)"
       xlink:href="#linearGradient6377"
       id="radialGradient3053"
       r="21.626934"
       gradientUnits="userSpaceOnUse" />
  </defs>
  <rect
     style="opacity:1;fill:#dfc46b;fill-opacity:1;stroke:none;stroke-width:2.87284303;stroke-linecap:square;stroke-miterlimit:4;stroke-dasharray:none;stroke-dashoffset:0;stroke-opacity:1;paint-order:stroke markers fill"
     id="rect842"
     width="43.728813"
     height="45.35593"
     x="2.0338981"
     y="1.6271187"
     ry="6.7597785" />
  <rect
     style="opacity:1;fill:#a58200;fill-opacity:1;stroke:none;stroke-width:1.56386518;stroke-linecap:square;stroke-miterlimit:4;stroke-dasharray:none;stroke-dashoffset:0;stroke-opacity:1;paint-order:stroke markers fill"
     id="rect842-3"
     width="43.728813"
     height="13.440298"
     x="2.0338981"
     y="33.542751"
     ry="4.6914253"
     inkscape:transform-center-x="6.9152542"
     inkscape:transform-center-y="-4.0381189" />
  <rect
     style="opacity:1;fill:#dfc46b;fill-opacity:1;stroke:none;stroke-width:1.40054595;stroke-linecap:square;stroke-miterlimit:4;stroke-dasharray:none;stroke-dashoffset:0;stroke-opacity:1;paint-order:stroke markers fill"
     id="rect842-3-6"
     width="43.728813"
     height="10.779659"
     x="2.0338979"
     y="27.559324"
     ry="0"
     inkscape:transform-center-x="6.9152542"
     inkscape:transform-center-y="-3.2387322" />
  <path
     inkscape:connector-curvature="0"
     d="m 33.749663,16.837893 -0.583666,0.106069 0.470267,-0.361468 c 0.06424,-0.04944 1.614027,-1.210304 5.03079,-1.210304 0.165427,0 0.334447,0.0049 0.503755,0.01049 1.500628,-3.789729 1.885953,-6.772013 1.885953,-6.772013 0,0 -6.025795,0.777981 -11.831404,4.433184 0.130502,3.757965 -1.13873,5.4657 -1.201825,5.547911 l -0.361611,0.47041 0.106213,-0.583809 c 0.398404,-2.190075 0.346663,-3.682941 0.211418,-4.600623 -1.067011,0.758147 -2.111026,1.61992 -3.091802,2.600696 -0.04225,0.04225 -0.0835,0.08523 -0.125328,0.127915 0.272358,4.11742 -1.109697,5.976929 -1.175666,6.062732 l -0.361611,0.470411 0.106068,-0.583666 c 0.399411,-2.196111 0.346376,-3.69099 0.210269,-4.607809 -4.027305,4.784303 -5.661597,10.505402 -6.241669,13.18026 l -6.227154,6.227153 3.717292,-1.238906 3.748911,-3.748911 c 2.734791,-0.593295 8.65538,-2.288525 13.502346,-6.517476 -0.379433,-0.05418 -0.853149,-0.09385 -1.429341,-0.09385 -0.942976,0 -1.996621,0.104775 -3.13147,0.311163 l -0.583665,0.106213 0.470123,-0.361611 c 0.06424,-0.04944 1.614026,-1.210592 5.03079,-1.210592 0.304696,0 0.618015,0.01265 0.935215,0.03162 2.434407,-2.479105 4.128488,-5.343535 5.294956,-7.959609 -0.420538,-0.07934 -0.99558,-0.146743 -1.74654,-0.146743 -0.942977,1.44e-4 -1.996622,0.104775 -3.131614,0.311163 z M 19.202008,31.239092 17.590281,31.324322 28.831984,20.46392 Z"
     id="path2"
     style="fill:#a58200;fill-opacity:1;stroke-width:0.14372455" />
</svg>
