<svg height="48" width="48" xmlns="http://www.w3.org/2000/svg"><path d="m44.322082 27.405077a19.729762 19.729765 0 0 1 -19.729762 19.729765 19.729762 19.729765 0 0 1 -19.7297621-19.729765 19.729762 19.729765 0 0 1 19.7297621-19.7297632 19.729762 19.729765 0 0 1 19.729762 19.7297632z" fill="#59a477" opacity=".99" transform="matrix(1.1503549 0 0 1.1503549 -4.486125 -7.525565)"/><g fill="#fff"><path d="m24 9c-3.324 0-6 2.676-6 6v9c0 3.324 2.676 6 6 6s6-2.676 6-6v-9c0-3.324-2.676-6-6-6zm-.087891 2.701172a3.3 3.3 0 0 1 .226563.001953 3.3 3.3 0 0 1 3.158203 3.429687v.025391a3.3 3.3 0 0 1 -3.449219 3.138672 3.3 3.3 0 0 1 -3.144531-3.443359 3.3 3.3 0 0 1 3.208984-3.152344zm0 8.841797a3.3 3.3 0 0 1 .226563.001953 3.3 3.3 0 0 1 3.158203 3.43164v.023438a3.3 3.3 0 0 1 -3.449219 3.138672 3.3 3.3 0 0 1 -3.144531-3.441406 3.3 3.3 0 0 1 3.208984-3.154297z"/><rect height="12" ry="3" width="6" x="21" y="4.5"/></g></svg>