<svg height="128" viewBox="0 0 128 128" width="128" xmlns="http://www.w3.org/2000/svg" xmlns:xlink="http://www.w3.org/1999/xlink"><linearGradient id="a" gradientUnits="userSpaceOnUse" x1="65.74801314374" x2="63.89039439825" y1="22.24717790909" y2="117.19711481587"><stop offset="0" stop-color="#ff4b83"/><stop offset="1" stop-color="#ee3a3a"/></linearGradient><circle cx="64.614243" cy="64.171577" fill="url(#a)" r="59.876759" stroke="#eee" stroke-width="5.611559"/><path d="m64.551743 29.171577c-7.756 0-14 6.244-14 14v5h12v3h-12v2h12v3h-12v2h12v3h-12v7c0 7.756 6.244 14 14 14s14-6.244 14-14v-7h-12v-3h12v-2h-12v-3h12v-2h-12v-3h12v-5c0-7.756-6.244-14-14-14zm0 8a3 3 0 0 1 3 3 3 3 0 0 1 -3 3 3 3 0 0 1 -3-3 3 3 0 0 1 3-3zm-21.9375 24v7.990234c0 12.510614 9.618197 20.806387 19.9375 21.791016v4.21875h-12v4h28v-4h-12v-4.195312c10.366364-.77383 20.0625-7.795318 20.0625-21.814454v-7.990234h-4v7.990234c0 11.890053-8.938182 17.890626-18 17.890626s-18-7.991712-18-17.890626v-7.990234z" fill="#fff"/></svg>