<?xml version="1.0" encoding="UTF-8" standalone="no"?>
<svg
   xmlns:dc="http://purl.org/dc/elements/1.1/"
   xmlns:cc="http://creativecommons.org/ns#"
   xmlns:rdf="http://www.w3.org/1999/02/22-rdf-syntax-ns#"
   xmlns:svg="http://www.w3.org/2000/svg"
   xmlns="http://www.w3.org/2000/svg"
   xmlns:sodipodi="http://sodipodi.sourceforge.net/DTD/sodipodi-0.dtd"
   xmlns:inkscape="http://www.inkscape.org/namespaces/inkscape"
   height="48"
   width="48"
   version="1.1"
   id="svg8"
   sodipodi:docname="github-desktop.svg"
   inkscape:version="0.92.1 r15371">
  <metadata
     id="metadata14">
    <rdf:RDF>
      <cc:Work
         rdf:about="">
        <dc:format>image/svg+xml</dc:format>
        <dc:type
           rdf:resource="http://purl.org/dc/dcmitype/StillImage" />
        <dc:title></dc:title>
      </cc:Work>
    </rdf:RDF>
  </metadata>
  <defs
     id="defs12" />
  <sodipodi:namedview
     pagecolor="#ffffff"
     bordercolor="#666666"
     borderopacity="1"
     objecttolerance="10"
     gridtolerance="10"
     guidetolerance="10"
     inkscape:pageopacity="0"
     inkscape:pageshadow="2"
     inkscape:window-width="1920"
     inkscape:window-height="1025"
     id="namedview10"
     showgrid="true"
     inkscape:zoom="6.9532167"
     inkscape:cx="-1.6157459"
     inkscape:cy="20.84271"
     inkscape:window-x="0"
     inkscape:window-y="29"
     inkscape:window-maximized="1"
     inkscape:current-layer="svg8">
    <inkscape:grid
       type="xygrid"
       id="grid4510" />
  </sodipodi:namedview>
  <path
     d="m44.322082 27.405077a19.729762 19.729765 0 0 1 -19.729762 19.729765 19.729762 19.729765 0 0 1 -19.7297621-19.729765 19.729762 19.729765 0 0 1 19.7297621-19.7297632 19.729762 19.729765 0 0 1 19.729762 19.7297632z"
     fill="#5b90db"
     opacity=".99"
     transform="matrix(1.1503549 0 0 1.1503549 -4.486125 -7.525565)"
     id="path2"
     style="fill:#8193b2;fill-opacity:1" />
  <path
     style="fill:#ffffff;fill-opacity:1"
     d="M 23.803771,3.9999881 A 20,20 0 0 0 3.8037708,23.999988 20,20 0 0 0 19.801818,43.593738 c -0.0022,-1.770571 -0.0034,-3.450737 -0.0059,-3.884766 -5.265101,1.1781 -6.160156,-2.615234 -6.160156,-2.615234 -0.861,-2.25316 -2.101562,-2.853516 -2.101562,-2.853516 -1.7185902,-1.209186 0.128906,-1.185548 0.128906,-1.185547 1.89988,0.137599 2.90039,2.011719 2.90039,2.011719 1.68844,2.9798 4.191272,2.120334 5.269572,1.621094 0.172,-1.2595 0.500675,-2.122105 1.041015,-2.609375 -4.202999,-0.4921 -8.070312,-2.165672 -8.070312,-9.638672 0,-2.1286 0.185684,-3.870026 1.396484,-5.232422 -0.19522,-0.4933 -0.847106,-2.475956 0.183594,-5.160156 1.809727,-0.08446 3.408472,1.896593 5.019531,2.654297 1.731763,-0.504565 3.772672,-0.715512 5.341797,-0.701172 1.586136,0.01449 3.698727,0.259383 5.158203,0.701172 1.218856,-0.855632 3.081133,-2.766506 5.060547,-2.697266 0.205158,0.0096 0.304688,0.04297 0.304688,0.04297 1.03302,2.6842 0.38156,4.666906 0.1875,5.160156 1.21313,1.3624 1.347656,3.103822 1.347656,5.232422 0,7.4922 -4.125997,9.14252 -8.341797,9.625 0.67864,0.6022 1.351562,1.792728 1.351562,3.611328 1e-6,0.908145 -0.0045,3.097416 -0.0078,5.378906 a 20,20 0 0 0 13.998035,-19.054688 20,20 0 0 0 -20,-19.9999999 z m 6.001953,39.0546869 a 20,20 0 0 1 -1.867188,0.490235 20,20 0 0 0 1.867188,-0.490235 z m -10.003906,0.539063 a 20,20 0 0 0 1.710937,0.261719 20,20 0 0 1 -1.710937,-0.261719 z m 7.892578,0.0059 a 20,20 0 0 1 -1.488281,0.230469 20,20 0 0 0 1.488281,-0.230469 z m -5.910156,0.296875 a 20,20 0 0 0 1.24414,0.06445 20,20 0 0 1 -1.24414,-0.06445 z m 3.810546,0.0078 a 20,20 0 0 1 -1.791015,0.0957 20,20 0 0 0 1.791015,-0.0957 z"
     id="path4573"
     inkscape:connector-curvature="0" />
</svg>
