<svg height="48" width="48" xmlns="http://www.w3.org/2000/svg"><path d="m44.322082 27.405077a19.729762 19.729765 0 0 1 -19.729762 19.729765 19.729762 19.729765 0 0 1 -19.7297621-19.729765 19.729762 19.729765 0 0 1 19.7297621-19.7297632 19.729762 19.729765 0 0 1 19.729762 19.7297632z" fill="#5fad55" opacity=".99" transform="matrix(1.1503549 0 0 1.1503549 -4.486125 -7.525565)"/><path d="m24.456522 6c-4.896241-.054402-10.5 10.5-10.5 10.5 2.282609 2.282609 4.565217 6.847826 4.565217 11.413044 3.236373 3.821251 8.148445 3.603455 11.413044 0 0-4.565218 2.282609-9.130435 4.565217-11.413044 0 0-5.147237-10.4456039-10.043478-10.5z" fill="#fff" fill-rule="evenodd"/><g stroke="#fff" stroke-linecap="round"><circle cx="19.728315" cy="25.899443" fill="#5fad55" r="2.282609" stroke-width="1.217391"/><circle cx="28.672831" cy="25.899443" fill="#5fad55" r="2.282609" stroke-width="1.217391"/><path d="m19.5 28.5c.764396 5.845478-4.5 7.5-4.5 12" fill="none" stroke-opacity=".563218" stroke-width="2"/><path d="m22.5 30c-1.5 4.5 1.5 9 0 13.5" fill="none" stroke-opacity=".563218" stroke-width="2"/><path d="m25.5 30c3.145746 4.363745.449747 8.98052 0 13.5" fill="none" stroke-opacity=".563218" stroke-width="2"/><path d="m28.5 28.5c.703503 6.811651 4.5 4.5 4.5 13.5" fill="none" stroke-opacity=".563218" stroke-width="2"/></g></svg>