<svg height="48" width="48" xmlns="http://www.w3.org/2000/svg"><rect fill="#ac9d93" height="44" ry="2" width="44" x="2" y="2"/><circle cx="16.059767" cy="22.704504" fill="#fff" fill-opacity=".321839" r="7.5"/><g transform="translate(-.219261 .116116)"><circle cx="16.279028" cy="22.588388" fill="#fff" r="5.5"/><path d="m15.279028 18.588388v.859375a3.3 3.3 0 0 0 -1.220703.705078l-.744141-.429687-1 1.730468.744141.429688a3.3 3.3 0 0 0 -.08008.705078 3.3 3.3 0 0 0 .08203.705078l-.746094.429688 1 1.730468.744141-.429687a3.3 3.3 0 0 0 1.220706.707031v.857422h2v-.859375a3.3 3.3 0 0 0 1.220703-.705078l.744141.429687 1-1.730468-.744141-.429688a3.3 3.3 0 0 0 .08008-.705078 3.3 3.3 0 0 0 -.08203-.705078l.746094-.429688-1-1.730468-.744141.429687a3.3 3.3 0 0 0 -1.220706-.707031v-.857422z" fill="#ac9d93"/></g><circle cx="32" cy="22.704504" fill="#fff" fill-opacity=".321839" r="7.5"/><g transform="translate(15.720972 .116116)"><circle cx="16.279028" cy="22.588388" fill="#fff" r="5.5"/><path d="m15.279028 18.588388v.859375a3.3 3.3 0 0 0 -1.220703.705078l-.744141-.429687-1 1.730468.744141.429688a3.3 3.3 0 0 0 -.08008.705078 3.3 3.3 0 0 0 .08203.705078l-.746094.429688 1 1.730468.744141-.429687a3.3 3.3 0 0 0 1.220706.707031v.857422h2v-.859375a3.3 3.3 0 0 0 1.220703-.705078l.744141.429687 1-1.730468-.744141-.429688a3.3 3.3 0 0 0 .08008-.705078 3.3 3.3 0 0 0 -.08203-.705078l.746094-.429688-1-1.730468-.744141.429687a3.3 3.3 0 0 0 -1.220706-.707031v-.857422z" fill="#ac9d93"/></g><g fill="#fff"><path d="m8 12c-1.108 0-2 .892-2 2v20c0 1.108.892 2 2 2h4l2-6h20l2 6h4c1.108 0 2-.892 2-2v-20c0-1.108-.892-2-2-2zm1.4121094 2c.8284266 0 1.4999996.671573 1.4999996 1.5s-.671573 1.5-1.4999996 1.5c-.8284271 0-1.5-.671573-1.5-1.5s.6715729-1.5 1.5-1.5zm28.9374996 0c.828427 0 1.5.671573 1.5 1.5s-.671573 1.5-1.5 1.5-1.5-.671573-1.5-1.5.671573-1.5 1.5-1.5zm-27.349609 3h26v11h-26z"/><path d="m14 30-2 6h24l-2-6zm3.740234.90625a1 1 0 0 1 1 1 1 1 0 0 1 -1 1 1 1 0 0 1 -1-1 1 1 0 0 1 1-1zm12.259766 0a1 1 0 0 1 1 1 1 1 0 0 1 -1 1 1 1 0 0 1 -1-1 1 1 0 0 1 1-1zm-14.912109 2.121094a1 1 0 0 1 1 1 1 1 0 0 1 -1 1 1 1 0 0 1 -1-1 1 1 0 0 1 1-1zm17.564453 0a1 1 0 0 1 1 1 1 1 0 0 1 -1 1 1 1 0 0 1 -1-1 1 1 0 0 1 1-1z" fill-opacity=".41954"/></g></svg>