<?xml version="1.0" encoding="UTF-8" standalone="no"?>
<!-- Created with Inkscape (http://www.inkscape.org/) -->

<svg
   xmlns:dc="http://purl.org/dc/elements/1.1/"
   xmlns:cc="http://creativecommons.org/ns#"
   xmlns:rdf="http://www.w3.org/1999/02/22-rdf-syntax-ns#"
   xmlns:svg="http://www.w3.org/2000/svg"
   xmlns="http://www.w3.org/2000/svg"
   xmlns:sodipodi="http://sodipodi.sourceforge.net/DTD/sodipodi-0.dtd"
   xmlns:inkscape="http://www.inkscape.org/namespaces/inkscape"
   width="48"
   height="48"
   id="svg2"
   version="1.1"
   inkscape:version="0.92.2 (5c3e80d, 2017-08-06)"
   sodipodi:docname="inkscape.svg">
  <sodipodi:namedview
     id="base"
     pagecolor="#ffffff"
     bordercolor="#666666"
     borderopacity="1.0"
     inkscape:pageopacity="0.0"
     inkscape:pageshadow="2"
     inkscape:zoom="7.9195959"
     inkscape:cx="13.866818"
     inkscape:cy="22.265593"
     inkscape:document-units="px"
     inkscape:current-layer="layer1"
     showgrid="false"
     inkscape:window-width="1360"
     inkscape:window-height="723"
     inkscape:window-x="0"
     inkscape:window-y="24"
     inkscape:window-maximized="1" />
  <defs
     id="defs4">
    <clipPath
       id="clipPath3839"
       clipPathUnits="userSpaceOnUse">
      <path
         sodipodi:nodetypes="sccsccsccsccs"
         inkscape:connector-curvature="0"
         id="path3841"
         d="m 302.72322,31.5 c -5.15761,0.03227 -10.28618,2.157894 -14.25019,5.90625 l -219.227391,207.375 c -4.724367,4.47496 -7.711236,11.23676 -8.045611,18.214 -0.334375,6.97724 1.988658,14.0674 6.257459,19.0985 l 219.227393,258.4375 c 4.17751,4.92309 10.1564,7.80968 16.17589,7.80968 6.01949,0 11.99839,-2.88659 16.1759,-7.80968 l 219.22739,-258.4375 c 4.26557,-5.03521 6.5837,-12.128 6.24418,-19.10533 -0.33952,-6.97734 -3.33171,-13.73669 -8.05985,-18.20717 L 317.221,37.40625 C 313.19355,33.597915 307.96337,31.467188 302.72322,31.5 Z"
         style="color:#000000;font-style:normal;font-variant:normal;font-weight:normal;font-stretch:normal;font-size:medium;line-height:normal;font-family:Sans;-inkscape-font-specification:Sans;text-indent:0;text-align:start;text-decoration:none;text-decoration-line:none;letter-spacing:normal;word-spacing:normal;text-transform:none;writing-mode:lr-tb;direction:ltr;baseline-shift:baseline;text-anchor:start;display:inline;overflow:visible;visibility:visible;fill:#2d2d35;fill-opacity:1;fill-rule:evenodd;stroke:none;stroke-width:51.03818512;marker:none;enable-background:accumulate" />
    </clipPath>
    <clipPath
       clipPathUnits="userSpaceOnUse"
       id="clipPath3924">
      <path
         sodipodi:nodetypes="sccsccsccsccs"
         inkscape:connector-curvature="0"
         id="path3926"
         d="m 302.72322,31.5 c -5.15761,0.03227 -10.28618,2.157894 -14.25019,5.90625 l -219.227391,207.375 c -4.724367,4.47496 -7.711236,11.23676 -8.045611,18.214 -0.334375,6.97724 1.988658,14.0674 6.257459,19.0985 l 219.227393,258.4375 c 4.17751,4.92309 10.1564,7.80968 16.17589,7.80968 6.01949,0 11.99839,-2.88659 16.1759,-7.80968 l 219.22739,-258.4375 c 4.26557,-5.03521 6.5837,-12.128 6.24418,-19.10533 -0.33952,-6.97734 -3.33171,-13.73669 -8.05985,-18.20717 L 317.221,37.40625 C 313.19355,33.597915 307.96337,31.467188 302.72322,31.5 Z"
         style="color:#000000;font-style:normal;font-variant:normal;font-weight:normal;font-stretch:normal;font-size:medium;line-height:normal;font-family:Sans;-inkscape-font-specification:Sans;text-indent:0;text-align:start;text-decoration:none;text-decoration-line:none;letter-spacing:normal;word-spacing:normal;text-transform:none;writing-mode:lr-tb;direction:ltr;baseline-shift:baseline;text-anchor:start;display:inline;overflow:visible;visibility:visible;fill:#2d2d35;fill-opacity:1;fill-rule:evenodd;stroke:none;stroke-width:51.03818512;marker:none;enable-background:accumulate" />
    </clipPath>
  </defs>
  <metadata
     id="metadata7">
    <rdf:RDF>
      <cc:Work
         rdf:about="">
        <dc:format>image/svg+xml</dc:format>
        <dc:type
           rdf:resource="http://purl.org/dc/dcmitype/StillImage" />
        <dc:title></dc:title>
      </cc:Work>
    </rdf:RDF>
  </metadata>
  <g
     inkscape:label="Capa 1"
     inkscape:groupmode="layer"
     id="layer1"
     transform="translate(0,-1004.3622)">
    <path
       style="color:#000000;font-style:normal;font-variant:normal;font-weight:normal;font-stretch:normal;font-size:medium;line-height:normal;font-family:Sans;-inkscape-font-specification:Sans;text-indent:0;text-align:start;text-decoration:none;text-decoration-line:none;letter-spacing:normal;word-spacing:normal;text-transform:none;writing-mode:lr-tb;direction:ltr;baseline-shift:baseline;text-anchor:start;display:inline;overflow:visible;visibility:visible;fill:#525260;fill-opacity:1;fill-rule:evenodd;stroke:none;stroke-width:5.2105937;marker:none;enable-background:accumulate"
       d="m 23.402166,1006.6324 c -0.451853,0 -0.901164,0.1889 -1.24845,0.5173 l -19.2063453,18.1679 c -0.4138984,0.3921 -0.6755758,0.9845 -0.7048704,1.5958 -0.029294,0.6112 0.1742254,1.2324 0.5482114,1.6731 l 19.2063483,22.6416 c 0.365988,0.4313 0.889792,0.6842 1.417156,0.6842 0.527364,0 1.051172,-0.2529 1.417161,-0.6842 l 19.206344,-22.6416 c 0.373707,-0.441 0.576796,-1.0624 0.54705,-1.6737 -0.02975,-0.6113 -0.291891,-1.2034 -0.706116,-1.5952 l -19.206349,-18.1679 c -0.352843,-0.3336 -0.811053,-0.5202 -1.27014,-0.5173 z"
       id="path2987"
       inkscape:connector-curvature="0"
       sodipodi:nodetypes="sccsccsccsccs" />
    <path
       sodipodi:nodetypes="sccsccasaacccs"
       inkscape:connector-curvature="0"
       id="path3762"
       d="m 23.380088,1010.387 c -0.404393,0 -0.806512,0.1691 -1.117317,0.463 l -8.594518,8.1299 c -1.00733,0.9522 -2.307763,2.1176 -3.2803,3.0444 -0.09708,0.092 -0.190892,0.1827 -0.280819,0.27 -2.0168399,1.4673 3.787312,2.0493 4.551331,1.8896 1.901894,-0.4918 0.84765,-3.6125 2.30986,-3.753 1.902504,-0.1828 1.70831,4.102 3.880104,4.2215 2.399171,0.1321 5.35078,-4.3432 8.520845,-4.2358 2.317633,0.079 3.709368,3.8341 6.00575,3.5112 0.673042,-0.095 2.549837,-0.3946 1.408187,-1.4746 l -3.671872,-3.4733 -8.594519,-8.1299 c -0.315781,-0.2985 -0.725866,-0.4656 -1.136732,-0.463 z"
       style="color:#000000;font-style:normal;font-variant:normal;font-weight:normal;font-stretch:normal;font-size:medium;line-height:normal;font-family:Sans;-inkscape-font-specification:Sans;text-indent:0;text-align:start;text-decoration:none;text-decoration-line:none;letter-spacing:normal;word-spacing:normal;text-transform:none;writing-mode:lr-tb;direction:ltr;baseline-shift:baseline;text-anchor:start;display:inline;overflow:visible;visibility:visible;fill:#ffffff;fill-opacity:1;fill-rule:evenodd;stroke:none;stroke-width:5.2105937;marker:none;enable-background:accumulate" />
  </g>
</svg>
