<svg height="48" width="48" xmlns="http://www.w3.org/2000/svg"><path d="m12.071428 3h31.475869c.804798 0 1.452703.6479055 1.452703 1.4527029v40.0945941c0 .804798-.647905 1.452703-1.452703 1.452703h-40.0945941c-.8047974 0-1.4527029-.647905-1.4527029-1.452703v-31.475868z" fill="#e6e7e7"/><path d="m45 25v19.547297c0 .804798-.647905 1.452703-1.452703 1.452703h-40.0945941c-.8047974 0-1.4527029-.647905-1.4527029-1.452703v-19.547297z" fill="#64b46c"/><path d="m10.618725 13.071428h-8.618725l10.071427-10.071428v8.618726c0 .804797-.647905 1.452702-1.452702 1.452702z" fill="#c2c4c4"/><path d="m16.285715 35.339411c0 4.58573 3.266251 8.025028 8.111551 8.025028 4.04496 0 6.229671-2.595697 6.229671-2.595697l-1.946772-2.768742s-1.773726 1.90351-4.109853 1.90351c-2.855266 0-4.369422-2.357757-4.369422-4.650622 0-2.227973 1.406002-4.412684 4.369422-4.412684 2.14145 0 3.871914 1.579049 3.871914 1.579049l1.752095-2.855266s-1.968403-2.184711-5.797055-2.184711c-4.650623 0-8.111551 3.460928-8.111551 7.960135z" fill="#fff"/><g fill="#999" fill-rule="evenodd" stroke="#777"><path d="m14 10h20"/><path d="m14 14h20"/><path d="m14 18h20"/><path d="m14 22h20"/><path d="m14 10v12" stroke-linecap="square"/><path d="m20 10v12"/><path d="m26 10v12"/><path d="m32 10v12"/></g></svg>