<svg height="128" width="128" xmlns="http://www.w3.org/2000/svg" xmlns:xlink="http://www.w3.org/1999/xlink"><linearGradient id="a" gradientUnits="userSpaceOnUse" x1="362.81501786269" x2="362.81501786269" y1="245.10665013731" y2="525.38367865098"><stop offset="0" stop-color="#f4f4f4"/><stop offset="1" stop-color="#dce3ec"/></linearGradient><linearGradient id="b" gradientUnits="userSpaceOnUse" x1="64.43821741" x2="63.83862638457" y1="8.41838090179" y2="106.97153687812"><stop offset="0" stop-color="#55c3f8"/><stop offset="1" stop-color="#1484f4"/></linearGradient><filter id="c" color-interpolation-filters="sRGB" height="1.074297" width="1.069841" x="-.034921" y="-.037148"><feGaussianBlur stdDeviation="1.6936817"/></filter><path d="m64.4375 11.648438v.001953c.030822 1.006439-1.975251.061087-2.984375.091797-32.290107.981702-58.0157384 16.535135-57.1855469 43.841796.4330383 14.243502 6.7803589 28.986711 17.9804689 38.513672 1.111083.9451 2.271007 1.838947 3.476562 2.675782l8.560547 5.937502c-.569819 4.07895-7.160086 11.30315-9.054687 13.56836 7.572549-.32031 21.268434-7.05381 23.341797-10.58789 2.997055.47618 7.320163 1.14619 11.216796 1.46484 6.325689 6.18923 15.787082 10.12109 26.371094 10.12109 2.695378 0 5.306699-.27234 7.824219-.74023 2.794014-.59121 9.979035 4.42164 13.617185 4.5332.40963-1.58526-5.73902-6.78945-3.37695-7.97265 9.86761-5.01415 16.42578-14.014938 16.42578-24.292972 0-5.056804-1.59999-9.802058-4.39258-13.919922 2.99286-6.456197 4.55847-13.469272 4.33985-20.660157-.80411-26.44901-25.227684-42.177009-56.16016-42.576171z" fill="#304050" fill-opacity=".228137" filter="url(#c)"/><path d="m64.43822 11.64919c30.932476.399162 55.35506 16.125952 56.15917 42.574962.83015 27.305296-23.849384 52.125708-56.1395 53.107408-4.567392.13886-11.595189-.95797-15.885867-1.63969-2.073363 3.53408-15.768064 10.26751-23.340613 10.58782 1.894601-2.26521 8.483278-9.49059 9.053097-13.56954l-8.560677-5.936429c-1.205555-.836835-2.364391-1.730597-3.475474-2.675697-11.20011-9.526961-17.5476652-24.270764-17.9807035-38.514266-.8301915-27.306661 24.8957345-42.860769 57.1858415-43.842471 1.009124-.03071 3.01559.915699 2.984768-.09074z" fill="url(#b)"/><path d="m84.398649 60.292903c-18.230327.771722-32.729074 13.259398-32.729074 28.510568 0 15.744919 15.434957 28.472939 34.490489 28.472939 2.695378 0 5.306361-.27091 7.823881-.7388 2.794014-.59121 9.978905 4.42058 13.617055 4.53214.40963-1.58526-5.73851-6.78932-3.37644-7.97252 9.86761-5.01415 16.42598-14.01468 16.42598-24.292715 0-15.745711-15.43496-28.510832-34.490476-28.510832-.595519 0-1.173293-.08101-1.761415 0z" fill="url(#a)"/><g fill="#084e93"><circle cx="70.553322" cy="89.150284" r="5.617727"/><circle cx="87.46492" cy="89.150284" r="5.617727"/><circle cx="104.72781" cy="89.150284" r="5.617727"/></g></svg>