<svg height="48" width="48" xmlns="http://www.w3.org/2000/svg"><rect fill="#5f636c" height="43" ry="1.452703" width="43" x="2" y="3"/><path d="m5 6h37v33h-37z" fill="#f4efd7" fill-rule="evenodd"/><path d="m3.453125 3c-.8047974 0-1.453125.6483276-1.453125 1.453125v40.09375c0 .804797.6483276 1.453125 1.453125 1.453125h40.09375c.804797 0 1.453125-.648328 1.453125-1.453125v-40.09375c0-.8047974-.648328-1.453125-1.453125-1.453125zm1.546875 3h37v33h-37z" fill="#555962"/><path d="m5 31h37v8h-37z" fill="#7ee4df"/><circle cx="22.611168" cy="23.368526" fill="#f4ac87" r="9.5"/><path d="m7 33c4.542421-5.009983 5.580057-12.887081 32 0z" fill="#e9d280"/><path d="m26 31-1-14h3v14z" fill="#887850"/><path d="m18 20c4-12 14-10 18 0l-6-4 2 4-6-2-2 2-2-2z" fill="#57c52b"/></svg>