<?xml version="1.0" encoding="UTF-8" standalone="no"?>
<svg
   xmlns:dc="http://purl.org/dc/elements/1.1/"
   xmlns:cc="http://creativecommons.org/ns#"
   xmlns:rdf="http://www.w3.org/1999/02/22-rdf-syntax-ns#"
   xmlns:svg="http://www.w3.org/2000/svg"
   xmlns="http://www.w3.org/2000/svg"
   xmlns:sodipodi="http://sodipodi.sourceforge.net/DTD/sodipodi-0.dtd"
   xmlns:inkscape="http://www.inkscape.org/namespaces/inkscape"
   height="48"
   width="48"
   version="1.1"
   id="svg28"
   sodipodi:docname="ms-excel.svg"
   inkscape:version="0.92.1 r15371">
  <metadata
     id="metadata34">
    <rdf:RDF>
      <cc:Work
         rdf:about="">
        <dc:format>image/svg+xml</dc:format>
        <dc:type
           rdf:resource="http://purl.org/dc/dcmitype/StillImage" />
      </cc:Work>
    </rdf:RDF>
  </metadata>
  <defs
     id="defs32" />
  <sodipodi:namedview
     pagecolor="#ffffff"
     bordercolor="#666666"
     borderopacity="1"
     objecttolerance="10"
     gridtolerance="10"
     guidetolerance="10"
     inkscape:pageopacity="0"
     inkscape:pageshadow="2"
     inkscape:window-width="1920"
     inkscape:window-height="1040"
     id="namedview30"
     showgrid="false"
     inkscape:zoom="4.9166667"
     inkscape:cx="24"
     inkscape:cy="24"
     inkscape:window-x="0"
     inkscape:window-y="0"
     inkscape:window-maximized="1"
     inkscape:current-layer="svg28" />
  <path
     d="m12.071428 3h31.475869c.804798 0 1.452703.6479055 1.452703 1.4527029v40.0945941c0 .804798-.647905 1.452703-1.452703 1.452703h-40.0945941c-.8047974 0-1.4527029-.647905-1.4527029-1.452703v-31.475868z"
     fill="#e6e7e7"
     id="path2" />
  <path
     d="m45 25v19.547297c0 .804798-.647905 1.452703-1.452703 1.452703h-40.0945941c-.8047974 0-1.4527029-.647905-1.4527029-1.452703v-19.547297z"
     fill="#64b46c"
     id="path4" />
  <path
     d="m10.618725 13.071428h-8.618725l10.071427-10.071428v8.618726c0 .804797-.647905 1.452702-1.452702 1.452702z"
     fill="#c2c4c4"
     id="path6" />
  <g
     fill="#999"
     fill-rule="evenodd"
     stroke="#777"
     id="g26"
     style="stroke:#9c9c9c;stroke-opacity:1">
    <path
       d="m14 10h20"
       id="path10"
       style="stroke:#9c9c9c;stroke-opacity:1" />
    <path
       d="m14 14h20"
       id="path12"
       style="stroke:#9c9c9c;stroke-opacity:1" />
    <path
       d="m14 18h20"
       id="path14"
       style="stroke:#9c9c9c;stroke-opacity:1" />
    <path
       d="m14 22h20"
       id="path16"
       style="stroke:#9c9c9c;stroke-opacity:1" />
    <path
       d="m14 10v12"
       stroke-linecap="square"
       id="path18"
       style="stroke:#9c9c9c;stroke-opacity:1" />
    <path
       d="m20 10v12"
       id="path20"
       style="stroke:#9c9c9c;stroke-opacity:1" />
    <path
       d="m26 10v12"
       id="path22"
       style="stroke:#9c9c9c;stroke-opacity:1" />
    <path
       d="m32 10v12"
       id="path24"
       style="stroke:#9c9c9c;stroke-opacity:1" />
  </g>
  <g
     aria-label="X"
     style="font-style:normal;font-variant:normal;font-weight:bold;font-stretch:normal;font-size:19.91222382px;line-height:1.25;font-family:'DejaVu Sans';-inkscape-font-specification:'DejaVu Sans Bold';letter-spacing:0px;word-spacing:0px;fill:#ffffff;fill-opacity:1;stroke:none;stroke-width:0.49780557"
     id="text4513">
    <path
       d="m 25.75082,35.349298 5.036392,7.408747 h -3.898828 l -3.393246,-4.95861 -3.364077,4.95861 h -3.918274 l 5.036392,-7.408747 -4.841937,-7.107342 h 3.908552 l 3.179344,4.67665 3.169622,-4.67665 h 3.927997 z"
       style="fill:#ffffff;stroke-width:0.49780557"
       id="path4515" />
  </g>
</svg>
