<?xml version="1.0" encoding="UTF-8" standalone="no"?>
<svg
   xmlns:dc="http://purl.org/dc/elements/1.1/"
   xmlns:cc="http://creativecommons.org/ns#"
   xmlns:rdf="http://www.w3.org/1999/02/22-rdf-syntax-ns#"
   xmlns:svg="http://www.w3.org/2000/svg"
   xmlns="http://www.w3.org/2000/svg"
   xmlns:sodipodi="http://sodipodi.sourceforge.net/DTD/sodipodi-0.dtd"
   xmlns:inkscape="http://www.inkscape.org/namespaces/inkscape"
   height="48"
   width="48"
   version="1.1"
   id="svg6"
   sodipodi:docname="ms-office.svg"
   inkscape:version="0.91 r13725">
  <metadata
     id="metadata12">
    <rdf:RDF>
      <cc:Work
         rdf:about="">
        <dc:format>image/svg+xml</dc:format>
        <dc:type
           rdf:resource="http://purl.org/dc/dcmitype/StillImage" />
        <dc:title></dc:title>
      </cc:Work>
    </rdf:RDF>
  </metadata>
  <defs
     id="defs10" />
  <sodipodi:namedview
     pagecolor="#ffffff"
     bordercolor="#666666"
     borderopacity="1"
     objecttolerance="10"
     gridtolerance="10"
     guidetolerance="10"
     inkscape:pageopacity="0"
     inkscape:pageshadow="2"
     inkscape:window-width="1920"
     inkscape:window-height="1025"
     id="namedview8"
     showgrid="true"
     inkscape:zoom="2.8284272"
     inkscape:cx="-51.823742"
     inkscape:cy="2.9797421"
     inkscape:window-x="0"
     inkscape:window-y="26"
     inkscape:window-maximized="1"
     inkscape:current-layer="svg6"
     showguides="true">
    <inkscape:grid
       type="xygrid"
       id="grid816" />
  </sodipodi:namedview>
  <rect
     style="opacity:1;fill:#b48db3;fill-opacity:1;stroke:none;stroke-width:6;stroke-linecap:round;stroke-linejoin:round;stroke-miterlimit:4;stroke-dasharray:none;stroke-dashoffset:0;stroke-opacity:1;paint-order:fill markers stroke"
     id="rect4164"
     width="40"
     height="43"
     x="4.0409989"
     y="2.9966362"
     ry="1.71676" />
  <path
     style="opacity:1;fill:#4e5459;fill-opacity:0.49809885;stroke:none;stroke-width:6;stroke-linecap:round;stroke-linejoin:round;stroke-miterlimit:4;stroke-dasharray:none;stroke-dashoffset:0;stroke-opacity:1;paint-order:fill markers stroke"
     d="m 44.040999,32.875 0,11.404876 c 0,0.951085 -0.765675,1.71676 -1.71676,1.71676 l -12.511739,0 z"
     id="rect4184"
     inkscape:connector-curvature="0"
     sodipodi:nodetypes="csscc" />
  <path
     inkscape:connector-curvature="0"
     style="fill:#ffffff"
     d="m 19.963082,35.871145 c -4.136173,-1.44276 -7.533705,-2.63616 -7.550058,-2.65202 -0.0164,-0.0159 -0.02032,-0.038 -0.0093,-0.0491 0.01156,-0.0112 3.418672,0.37612 7.571497,0.8606 5.725265,0.66793 7.039726,0.86801 7.066201,0.82763 0.04622,-0.0705 0.0454,-19.63504 -8.46e-4,-19.70555 -0.05025,-0.0767 -9.859127,2.16977 -9.942522,2.27665 -0.04509,0.0577 -0.05706,1.47043 -0.05706,6.71717 0,5.26299 -0.01187,6.65292 -0.05705,6.68672 -0.08646,0.0647 -4.828487,2.22526 -4.894137,2.22477 -0.0456,-3.6e-4 -0.05478,-1.71478 -0.0456,-8.49971 l 0.01155,-8.49928 5.91073,-2.11754 c 3.250901,-1.16464 6.745788,-2.41618 7.766424,-2.78119 l 1.855693,-0.66366 4.169147,1.29413 c 2.293026,0.71178 4.194807,1.31 4.226192,1.32939 0.0454,0.0281 0.05705,2.36984 0.05705,11.46678 0,10.8427 -0.0041,11.43366 -0.07986,11.47297 -0.139646,0.0724 -8.279961,2.43914 -8.381174,2.43673 -0.05334,-10e-4 -3.481082,-1.18274 -7.617265,-2.62549 z"
     id="path4493-3-5" />
</svg>
