<?xml version="1.0" encoding="UTF-8" standalone="no"?>
<svg
   xmlns:dc="http://purl.org/dc/elements/1.1/"
   xmlns:cc="http://creativecommons.org/ns#"
   xmlns:rdf="http://www.w3.org/1999/02/22-rdf-syntax-ns#"
   xmlns:svg="http://www.w3.org/2000/svg"
   xmlns="http://www.w3.org/2000/svg"
   xmlns:sodipodi="http://sodipodi.sourceforge.net/DTD/sodipodi-0.dtd"
   xmlns:inkscape="http://www.inkscape.org/namespaces/inkscape"
   height="48"
   width="48"
   version="1.1"
   id="svg6"
   sodipodi:docname="ms-office.svg"
   inkscape:version="0.92.1 r15371">
  <metadata
     id="metadata12">
    <rdf:RDF>
      <cc:Work
         rdf:about="">
        <dc:format>image/svg+xml</dc:format>
        <dc:type
           rdf:resource="http://purl.org/dc/dcmitype/StillImage" />
        <dc:title></dc:title>
      </cc:Work>
    </rdf:RDF>
  </metadata>
  <defs
     id="defs10" />
  <sodipodi:namedview
     pagecolor="#ffffff"
     bordercolor="#666666"
     borderopacity="1"
     objecttolerance="10"
     gridtolerance="10"
     guidetolerance="10"
     inkscape:pageopacity="0"
     inkscape:pageshadow="2"
     inkscape:window-width="1920"
     inkscape:window-height="1025"
     id="namedview8"
     showgrid="true"
     inkscape:zoom="8"
     inkscape:cx="19.837532"
     inkscape:cy="17.505841"
     inkscape:window-x="0"
     inkscape:window-y="29"
     inkscape:window-maximized="1"
     inkscape:current-layer="svg6"
     showguides="false">
    <inkscape:grid
       type="xygrid"
       id="grid816" />
  </sodipodi:namedview>
  <rect
     fill="#ecc676"
     height="42.224369"
     ry="1.71676"
     width="39.485497"
     x="4.242641"
     y="4.563441"
     id="rect2"
     style="fill:#906d8f;fill-opacity:1" />
  <path
     style="fill:#b48db3;fill-opacity:1"
     d="m 5.959401,4.5634408 h 36.051976 c 0.951086,0 1.71676,0.765675 1.71676,1.71676 V 33.0625 L 29.875,46.78781 H 5.959401 c -0.9510851,0 -1.71676,-0.765675 -1.71676,-1.71676 V 6.2802008 c 0,-0.951085 0.7656749,-1.71676 1.71676,-1.71676 z"
     id="rect828"
     inkscape:connector-curvature="0"
     sodipodi:nodetypes="sssccssss" />
  <path
     id="path4493-3"
     d="m 20.047083,36.749509 c -4.136173,-1.44276 -7.533705,-2.63616 -7.550058,-2.65202 -0.0164,-0.0159 -0.02032,-0.038 -0.0093,-0.0491 0.01156,-0.0112 3.418672,0.37612 7.571497,0.8606 5.725265,0.66793 7.039726,0.86801 7.066201,0.82763 0.04622,-0.0705 0.0454,-19.63504 -8.46e-4,-19.70555 -0.05025,-0.0767 -9.859127,2.16977 -9.942522,2.27665 -0.04509,0.0577 -0.05706,1.47043 -0.05706,6.71717 0,5.26299 -0.01187,6.65292 -0.05705,6.68672 -0.08646,0.0647 -4.828487,2.22526 -4.894137,2.22477 -0.0456,-3.6e-4 -0.05478,-1.71478 -0.0456,-8.49971 l 0.01155,-8.49928 5.91073,-2.11754 c 3.250901,-1.16464 6.745788,-2.41618 7.766424,-2.78119 l 1.855693,-0.66366 4.169147,1.29413 c 2.293026,0.71178 4.194807,1.31 4.226192,1.32939 0.0454,0.0281 0.05705,2.36984 0.05705,11.46678 0,10.8427 -0.0041,11.43366 -0.07986,11.47297 -0.139646,0.0724 -8.279961,2.43914 -8.381174,2.43673 -0.05334,-0.001 -3.481082,-1.18274 -7.617265,-2.62549 z"
     style="fill:#ffffff"
     inkscape:connector-curvature="0" />
</svg>
