<?xml version="1.0" encoding="UTF-8" standalone="no"?>
<svg
   xmlns:dc="http://purl.org/dc/elements/1.1/"
   xmlns:cc="http://creativecommons.org/ns#"
   xmlns:rdf="http://www.w3.org/1999/02/22-rdf-syntax-ns#"
   xmlns:svg="http://www.w3.org/2000/svg"
   xmlns="http://www.w3.org/2000/svg"
   xmlns:sodipodi="http://sodipodi.sourceforge.net/DTD/sodipodi-0.dtd"
   xmlns:inkscape="http://www.inkscape.org/namespaces/inkscape"
   height="48"
   width="48"
   version="1.1"
   id="svg16"
   sodipodi:docname="mx-usb-unmounter.svg"
   inkscape:version="0.92.1 r15371">
  <metadata
     id="metadata22">
    <rdf:RDF>
      <cc:Work
         rdf:about="">
        <dc:format>image/svg+xml</dc:format>
        <dc:type
           rdf:resource="http://purl.org/dc/dcmitype/StillImage" />
        <dc:title></dc:title>
      </cc:Work>
    </rdf:RDF>
  </metadata>
  <defs
     id="defs20" />
  <sodipodi:namedview
     pagecolor="#ffffff"
     bordercolor="#666666"
     borderopacity="1"
     objecttolerance="10"
     gridtolerance="10"
     guidetolerance="10"
     inkscape:pageopacity="0"
     inkscape:pageshadow="2"
     inkscape:window-width="1920"
     inkscape:window-height="1025"
     id="namedview18"
     showgrid="false"
     inkscape:zoom="3.4766083"
     inkscape:cx="19.20569"
     inkscape:cy="30.347333"
     inkscape:window-x="0"
     inkscape:window-y="29"
     inkscape:window-maximized="1"
     inkscape:current-layer="svg16" />
  <path
     d="m44.322082 27.405077a19.729762 19.729765 0 0 1 -19.729762 19.729765 19.729762 19.729765 0 0 1 -19.7297621-19.729765 19.729762 19.729765 0 0 1 19.7297621-19.7297632 19.729762 19.729765 0 0 1 19.729762 19.7297632z"
     fill="#527f66"
     opacity=".99"
     transform="matrix(1.1503549 0 0 1.1503549 -4.486125 -7.525565)"
     id="path2"
     style="fill:#a86d96;fill-opacity:1" />
  <g
     fill="#fff"
     id="g10">
    <path
       d="m12 6c-.831001 0-1.5.669-1.5 1.5v24c0 .831.669 1.5 1.5 1.5h1.5v9h19.5v-9h1.5c.831 0 1.5-.669 1.5-1.5v-24c0-.831-.669-1.5-1.5-1.5zm4.5 30h3v3h-3zm10.5 0h3v3h-3z"
       fill-opacity=".507772"
       id="path4" />
    <path
       d="m12 6c-.831001 0-1.5.669-1.5 1.5v24c0 .831.669 1.5 1.5 1.5h1.5 19.5 1.5c.831 0 1.5-.669 1.5-1.5v-24c0-.831-.669-1.5-1.5-1.5z"
       id="path6" />
    <circle
       cx="15.892858"
       cy="13.107143"
       r="8.392858"
       stroke="#527f66"
       stroke-linecap="round"
       stroke-linejoin="bevel"
       id="circle8"
       style="stroke:#a86d96;stroke-opacity:1" />
  </g>
  <path
     style="opacity:1;fill:#a86d96;fill-opacity:1;stroke:none;stroke-width:0.2;stroke-linecap:round;stroke-linejoin:round;stroke-miterlimit:4;stroke-dasharray:none;stroke-dashoffset:0;stroke-opacity:1;paint-order:fill markers stroke"
     d="m 13.524927,9.051046 v 4.119141 h -2.083984 l 4.398437,4.167969 4.398438,-4.167969 H 17.847193 V 9.051046 Z"
     id="rect4499"
     inkscape:connector-curvature="0" />
</svg>
