<?xml version="1.0" encoding="UTF-8" standalone="no"?>
<svg
   xmlns:dc="http://purl.org/dc/elements/1.1/"
   xmlns:cc="http://creativecommons.org/ns#"
   xmlns:rdf="http://www.w3.org/1999/02/22-rdf-syntax-ns#"
   xmlns:svg="http://www.w3.org/2000/svg"
   xmlns="http://www.w3.org/2000/svg"
   xmlns:xlink="http://www.w3.org/1999/xlink"
   xmlns:sodipodi="http://sodipodi.sourceforge.net/DTD/sodipodi-0.dtd"
   xmlns:inkscape="http://www.inkscape.org/namespaces/inkscape"
   viewBox="0 0 48 48"
   id="svg2"
   version="1.1"
   inkscape:version="0.91 r13725"
   width="100%"
   height="100%"
   sodipodi:docname="penguin-pegged.svg">
  <metadata
     id="metadata56">
    <rdf:RDF>
      <cc:Work
         rdf:about="">
        <dc:format>image/svg+xml</dc:format>
        <dc:type
           rdf:resource="http://purl.org/dc/dcmitype/StillImage" />
        <dc:title />
      </cc:Work>
    </rdf:RDF>
  </metadata>
  <sodipodi:namedview
     pagecolor="#ffffff"
     bordercolor="#666666"
     borderopacity="1"
     objecttolerance="10"
     gridtolerance="10"
     guidetolerance="10"
     inkscape:pageopacity="0"
     inkscape:pageshadow="2"
     inkscape:window-width="1280"
     inkscape:window-height="976"
     id="namedview54"
     showgrid="true"
     inkscape:zoom="11.313709"
     inkscape:cx="38.036917"
     inkscape:cy="24.115367"
     inkscape:window-x="0"
     inkscape:window-y="24"
     inkscape:window-maximized="1"
     inkscape:current-layer="svg2"
     showguides="true"
     inkscape:guide-bbox="true">
    <inkscape:grid
       type="xygrid"
       id="grid3047"
       empspacing="5"
       visible="true"
       enabled="true"
       snapvisiblegridlinesonly="true" />
  </sodipodi:namedview>
  <defs
     id="defs4">
    <linearGradient
       id="linearGradient3807">
      <stop
         style="stop-color:#5a5a5a;stop-opacity:1;"
         offset="0"
         id="stop3809" />
      <stop
         style="stop-color:#a0a0a0;stop-opacity:1;"
         offset="1"
         id="stop3811" />
    </linearGradient>
    <linearGradient
       id="linearGradient3536">
      <stop
         style="stop-color:#000000;stop-opacity:1;"
         offset="0"
         id="stop3538" />
      <stop
         style="stop-color:#363636;stop-opacity:1;"
         offset="1"
         id="stop3540" />
    </linearGradient>
    <linearGradient
       id="linearGradient3604">
      <stop
         style="stop-color:#000000;stop-opacity:1;"
         offset="0"
         id="stop3606" />
      <stop
         style="stop-color:#363636;stop-opacity:1;"
         offset="1"
         id="stop3608" />
    </linearGradient>
    <linearGradient
       gradientUnits="userSpaceOnUse"
       id="linearGradient3157-5"
       x1="-42.69615"
       x2="-5.84311"
       gradientTransform="matrix(0,-1.1044442,-1.1675587,0,-1.0213499,-4.5066618)">
      <stop
         offset="0"
         stop-color="#fff"
         id="stop19" />
      <stop
         offset="1"
         stop-color="#cdcdcd"
         id="stop21" />
    </linearGradient>
    <linearGradient
       gradientUnits="userSpaceOnUse"
       id="linearGradient998"
       x1="6.40561"
       x2="41.36901"
       gradientTransform="matrix(0,1.1044442,-1.1675587,0,-1.0213499,-4.5066618)">
      <stop
         offset="0"
         stop-color="#fff"
         id="stop24"
         style="stop-color:white;stop-opacity:0.50370371;" />
      <stop
         offset="1"
         stop-color="#fff"
         stop-opacity="0"
         id="stop26" />
    </linearGradient>
    <filter
       id="filter3174-2"
       color-interpolation-filters="sRGB">
      <feGaussianBlur
         stdDeviation="1.71"
         id="feGaussianBlur3176-1" />
    </filter>
    <linearGradient
       gradientTransform="scale(1.0058652,0.994169)"
       gradientUnits="userSpaceOnUse"
       id="ButtonShadow-9"
       y2="7.0165396"
       x2="45.447727"
       y1="92.539597"
       x1="45.447727">
      <stop
         offset="0"
         style="stop-color:#000000;stop-opacity:1"
         id="stop3750-3" />
      <stop
         offset="1"
         style="stop-color:#000000;stop-opacity:0.58823532"
         id="stop3752-0" />
    </linearGradient>
    <linearGradient
       x1="45.447727"
       y1="92.539597"
       x2="45.447727"
       y2="7.0165396"
       id="ButtonShadow"
       gradientUnits="userSpaceOnUse"
       gradientTransform="scale(1.0058652,0.994169)">
      <stop
         id="stop3750"
         style="stop-color:#000000;stop-opacity:1"
         offset="0" />
      <stop
         id="stop3752"
         style="stop-color:#000000;stop-opacity:0.58823532"
         offset="1" />
    </linearGradient>
    <filter
       color-interpolation-filters="sRGB"
       id="filter3174">
      <feGaussianBlur
         id="feGaussianBlur3176"
         stdDeviation="1.71" />
    </filter>
    <linearGradient
       inkscape:collect="always"
       xlink:href="#linearGradient998"
       id="linearGradient3462"
       gradientUnits="userSpaceOnUse"
       gradientTransform="matrix(0,1.1142857,-1.060606,0,-1.4545457,-2.7428571)"
       x1="6.40561"
       x2="41.36901" />
    <linearGradient
       inkscape:collect="always"
       xlink:href="#linearGradient3157-5"
       id="linearGradient3471"
       gradientUnits="userSpaceOnUse"
       gradientTransform="matrix(0,-1.1081081,-1.0571459,0,-1.3714481,-2.5945946)"
       x1="-42.69615"
       x2="-5.84311" />
    <linearGradient
       inkscape:collect="always"
       xlink:href="#linearGradient3604"
       id="linearGradient3929"
       gradientUnits="userSpaceOnUse"
       gradientTransform="matrix(2.1792447,0,0,2.1894078,-1.1407733,-2.4093414)"
       x1="14.289709"
       y1="7.4948769"
       x2="14.289709"
       y2="14.802789" />
    <linearGradient
       inkscape:collect="always"
       xlink:href="#linearGradient3536"
       id="linearGradient3036"
       gradientUnits="userSpaceOnUse"
       gradientTransform="matrix(0.91246487,0,0,0.91246487,-21.008982,1.4047472)"
       x1="9.7227182"
       y1="5.838758"
       x2="9.6343298"
       y2="14.058874" />
    <linearGradient
       inkscape:collect="always"
       xlink:href="#linearGradient3807"
       id="linearGradient3813"
       x1="40"
       y1="45"
       x2="40"
       y2="3"
       gradientUnits="userSpaceOnUse" />
    <linearGradient
       id="linearGradient5048">
      <stop
         offset="0"
         style="stop-color:#000000;stop-opacity:0"
         id="stop5050" />
      <stop
         offset="0.5"
         style="stop-color:#000000;stop-opacity:1"
         id="stop5056" />
      <stop
         offset="1"
         style="stop-color:#000000;stop-opacity:0"
         id="stop5052" />
    </linearGradient>
    <linearGradient
       id="linearGradient5060">
      <stop
         offset="0"
         style="stop-color:#000000;stop-opacity:1"
         id="stop5062" />
      <stop
         offset="1"
         style="stop-color:#000000;stop-opacity:0"
         id="stop5064" />
    </linearGradient>
    <radialGradient
       inkscape:collect="always"
       xlink:href="#linearGradient5060"
       id="radialGradient3912"
       gradientUnits="userSpaceOnUse"
       gradientTransform="matrix(0.06214224,0,0,0.02900085,1.6365015,28.953157)"
       cx="605.71429"
       cy="486.64789"
       fx="605.71429"
       fy="486.64789"
       r="117.14286" />
    <linearGradient
       inkscape:collect="always"
       xlink:href="#linearGradient5048"
       id="linearGradient3914"
       gradientUnits="userSpaceOnUse"
       gradientTransform="matrix(0.06214224,0,0,0.02900085,1.6242719,28.953157)"
       x1="302.85715"
       y1="366.64789"
       x2="302.85715"
       y2="609.50507" />
    <radialGradient
       inkscape:collect="always"
       xlink:href="#linearGradient5060"
       id="radialGradient3916"
       gradientUnits="userSpaceOnUse"
       gradientTransform="matrix(-0.06214224,0,0,0.02900085,46.53201,28.953157)"
       cx="605.71429"
       cy="486.64789"
       fx="605.71429"
       fy="486.64789"
       r="117.14286" />
    <linearGradient
       inkscape:collect="always"
       xlink:href="#linearGradient3536"
       id="linearGradient3922"
       gradientUnits="userSpaceOnUse"
       gradientTransform="matrix(0.91246487,0,0,0.91246487,-47.420934,-45.072112)"
       x1="9.7227182"
       y1="5.838758"
       x2="9.7227182"
       y2="10.934493" />
    <linearGradient
       inkscape:collect="always"
       xlink:href="#linearGradient3536"
       id="linearGradient3924"
       gradientUnits="userSpaceOnUse"
       gradientTransform="matrix(0.91246487,0,0,0.91246487,-21.008982,1.4047472)"
       x1="9.7227182"
       y1="5.838758"
       x2="9.7227182"
       y2="9.8949928" />
  </defs>
  <g
     id="g1017"
     transform="matrix(0.83555536,0,0,0.99388573,3.8762751,1.6557907)">
    <path
       inkscape:connector-curvature="0"
       style="opacity:0.5;fill:url(#radialGradient3912);fill-opacity:1;fill-rule:nonzero;stroke:none;stroke-width:104.96237946;marker:none;visibility:visible;display:inline;overflow:visible"
       id="path5058"
       d="m 39.087163,39.586499 c 0,0 0,7.042675 0,7.042675 3.200171,0.01326 7.736457,-1.577906 7.736455,-3.52179 0,-1.943885 -3.57115,-3.520884 -7.736455,-3.520885 z" />
    <rect
       style="opacity:0.5;fill:url(#linearGradient3914);fill-opacity:1;fill-rule:nonzero;stroke:none;stroke-width:104.96237946;marker:none;visibility:visible;display:inline;overflow:visible"
       id="rect4173"
       y="39.58625"
       x="9.0813398"
       height="7.0430632"
       width="30.005821" />
    <path
       inkscape:connector-curvature="0"
       style="opacity:0.5;fill:url(#radialGradient3916);fill-opacity:1;fill-rule:nonzero;stroke:none;stroke-width:104.96237946;marker:none;visibility:visible;display:inline;overflow:visible"
       id="path5018"
       d="m 9.0813406,39.586499 c 0,0 0,7.042675 0,7.042675 -3.2001721,0.01326 -7.7364568,-1.577906 -7.7364568,-3.52179 0,-1.943885 3.57115,-3.520884 7.7364568,-3.520885 z" />
  </g>
  <path
     d="m 42.5,42.283784 0,-36.5675677 A 2.1142918,2.2162163 0 0 0 40.385708,3.5000001 l -32.7714164,0 A 2.1142918,2.2162163 0 0 0 5.5,5.7162163 l 0,36.5675677 a 2.1142918,2.2162163 0 0 0 2.1142916,2.216218 l 32.7714164,0 A 2.1142918,2.2162163 0 0 0 42.5,42.283784"
     id="path38"
     style="fill:url(#linearGradient3471);stroke:url(#linearGradient3813);stroke-width:0.99999994000000003;stroke-linecap:round;stroke-linejoin:round;stroke-miterlimit:4;stroke-dasharray:none"
     inkscape:connector-curvature="0" />
  <path
     d="m 41.5,5.6142859 0,36.7714281 a 1.060606,1.1142857 0 0 1 -1.060606,1.114288 l -32.878788,0 A 1.060606,1.1142857 0 0 1 6.5,42.385714 L 6.5,5.6142859 A 1.060606,1.1142857 0 0 1 7.560606,4.5000002 l 32.878788,0 A 1.060606,1.1142857 0 0 1 41.5,5.6142859"
     id="path52"
     style="fill:none;stroke:url(#linearGradient3462);stroke-width:1;stroke-linecap:round;stroke-linejoin:round;stroke-miterlimit:4;stroke-dasharray:none"
     inkscape:connector-curvature="0" />
  <g
     id="layer2"
     style="display:none"
     transform="translate(63.829733,-184.99688)">
    <rect
       width="86"
       height="85"
       rx="6"
       ry="6"
       x="5"
       y="7"
       id="rect3745"
       style="opacity:0.9;fill:url(#ButtonShadow);fill-opacity:1;fill-rule:nonzero;stroke:none;filter:url(#filter3174)" />
  </g>
  <g
     id="layer4"
     transform="translate(63.829733,-184.99688)" />
  <g
     id="layer2-1"
     style="display:none"
     transform="translate(119.95473,-182.06165)">
    <rect
       width="86"
       height="85"
       rx="6"
       ry="6"
       x="5"
       y="7"
       id="rect3745-1"
       style="opacity:0.9;fill:url(#ButtonShadow-9);fill-opacity:1;fill-rule:nonzero;stroke:none;filter:url(#filter3174-2)" />
  </g>
  <g
     id="layer4-8"
     transform="translate(119.95473,-182.06165)" />
  <path
     style="fill:url(#linearGradient3929);fill-opacity:1;fill-rule:evenodd;stroke:none"
     d="m 24,9 c -1,6 -9.084155,11.336622 -10,15 -1,4 1,6 4,6 3,0 4,-2 4,-2 l 1,1 c 0,7 -3,8 -3,8 l 4,0 4,0 c 0,0 -3,-1 -3,-8 l 1,-1 c 0,0 1,2 4,2 3,0 5,-2 4,-6 C 33.044248,20.176993 25,15 24,9 z"
     id="path3073-1"
     inkscape:connector-curvature="0"
     sodipodi:nodetypes="csscccccccssc" />
  <flowRoot
     xml:space="preserve"
     id="flowRoot3319"
     style="font-size:40px;font-style:normal;font-weight:normal;line-height:125%;letter-spacing:0px;word-spacing:0px;fill:#000000;fill-opacity:1;stroke:none;font-family:Sans"><flowRegion
       id="flowRegion3321"><rect
         id="rect3323"
         width="176"
         height="44"
         x="-244"
         y="-112" /></flowRegion><flowPara
       id="flowPara3325">Bigddd</flowPara></flowRoot>  <g
     transform="scale(-0.94850733,-1.0542881)"
     style="font-size:36.49859619000000066px;font-style:normal;font-weight:normal;line-height:125%;letter-spacing:0px;word-spacing:0px;fill:url(#linearGradient3922);fill-opacity:1;stroke:none;font-family:Sans"
     id="text3864">
    <path
       d="m -36.280651,-32.249249 c -0.102201,-0.299288 -0.208047,-0.594926 -0.317537,-0.886916 -0.109502,-0.291987 -0.215348,-0.591275 -0.317538,-0.897865 l -3.197278,0 c -0.102198,0.30659 -0.208044,0.609528 -0.317537,0.908815 -0.102198,0.291989 -0.204394,0.583978 -0.306589,0.875966 l -1.434395,0 c 0.284689,-0.810268 0.554778,-1.558488 0.810269,-2.244663 0.255489,-0.686171 0.50368,-1.335846 0.744572,-1.949026 0.248188,-0.613171 0.492729,-1.197148 0.733622,-1.751933 0.240888,-0.554772 0.489078,-1.10225 0.744571,-1.642437 l 1.303,0 c 0.255486,0.540187 0.503676,1.087665 0.744572,1.642437 0.240885,0.554785 0.481775,1.138762 0.722672,1.751933 0.248184,0.61318 0.500024,1.262855 0.755521,1.949026 0.262783,0.686175 0.536522,1.434395 0.821218,2.244663 l -1.489143,0 m -2.233714,-6.120815 c -0.167897,0.386891 -0.361339,0.857723 -0.580328,1.412496 -0.211694,0.554783 -0.434336,1.157009 -0.667924,1.806681 l 2.496504,0 c -0.233596,-0.649672 -0.459887,-1.255548 -0.678874,-1.817631 -0.218995,-0.562073 -0.408788,-1.029254 -0.569378,-1.401546"
       style="font-size:10.94958019px;font-variant:normal;font-weight:500;font-stretch:normal;font-family:Ubuntu;-inkscape-font-specification:Ubuntu Medium"
       id="path3798" />
  </g>
  <g
     transform="scale(-0.94850733,1.0542881)"
     style="font-size:36.49859619px;font-style:normal;font-weight:normal;line-height:125%;letter-spacing:0px;word-spacing:0px;fill:url(#linearGradient3036);fill-opacity:1;stroke:none;font-family:Sans"
     id="text3032">
    <path
       d="m -9.8686995,14.22761 c -0.1022019,-0.299289 -0.2080475,-0.594927 -0.3175375,-0.886916 -0.109502,-0.291988 -0.215347,-0.591276 -0.317538,-0.897866 l -3.197278,0 c -0.102198,0.30659 -0.208043,0.609528 -0.317537,0.908815 -0.102198,0.29199 -0.204394,0.583978 -0.306589,0.875967 l -1.434395,0 c 0.284689,-0.810268 0.554779,-1.558489 0.810269,-2.244664 0.255489,-0.686171 0.50368,-1.335846 0.744572,-1.949026 0.248188,-0.6131713 0.492729,-1.1971483 0.733622,-1.7519324 0.240888,-0.5547722 0.489078,-1.1022507 0.744571,-1.642437 l 1.303,0 c 0.255486,0.5401863 0.503676,1.0876648 0.744572,1.642437 0.240885,0.5547841 0.481776,1.1387611 0.7226719,1.7519324 0.2481844,0.61318 0.5000245,1.262855 0.755521,1.949026 0.2627831,0.686175 0.5365223,1.434396 0.8212185,2.244664 l -1.4891429,0 M -12.102414,8.1067943 c -0.167897,0.3868909 -0.361339,0.8577224 -0.580328,1.4124959 -0.211694,0.5547828 -0.434336,1.1570088 -0.667924,1.8066808 l 2.496504,0 c -0.233595,-0.649672 -0.459887,-1.255548 -0.678874,-1.8176304 -0.218995,-0.5620732 -0.408788,-1.0292548 -0.569378,-1.4015463"
       style="font-size:10.94958019000000071px;font-variant:normal;font-weight:500;font-stretch:normal;font-family:Ubuntu;-inkscape-font-specification:Ubuntu Medium;fill:url(#linearGradient3924)"
       id="path3801" />
  </g>
</svg>
