<?xml version="1.0" encoding="UTF-8" standalone="no"?>
<svg
   xmlns:dc="http://purl.org/dc/elements/1.1/"
   xmlns:cc="http://creativecommons.org/ns#"
   xmlns:rdf="http://www.w3.org/1999/02/22-rdf-syntax-ns#"
   xmlns:svg="http://www.w3.org/2000/svg"
   xmlns="http://www.w3.org/2000/svg"
   xmlns:sodipodi="http://sodipodi.sourceforge.net/DTD/sodipodi-0.dtd"
   xmlns:inkscape="http://www.inkscape.org/namespaces/inkscape"
   height="48"
   width="48"
   version="1.1"
   id="svg27"
   sodipodi:docname="pidgin.svg"
   inkscape:version="0.92.3 (2405546, 2018-03-11)">
  <metadata
     id="metadata33">
    <rdf:RDF>
      <cc:Work
         rdf:about="">
        <dc:format>image/svg+xml</dc:format>
        <dc:type
           rdf:resource="http://purl.org/dc/dcmitype/StillImage" />
        <dc:title />
      </cc:Work>
    </rdf:RDF>
  </metadata>
  <defs
     id="defs31" />
  <sodipodi:namedview
     pagecolor="#ffffff"
     bordercolor="#666666"
     borderopacity="1"
     objecttolerance="10"
     gridtolerance="10"
     guidetolerance="10"
     inkscape:pageopacity="0"
     inkscape:pageshadow="2"
     inkscape:window-width="1920"
     inkscape:window-height="1026"
     id="namedview29"
     showgrid="true"
     inkscape:zoom="4.9166667"
     inkscape:cx="-18.101695"
     inkscape:cy="24"
     inkscape:window-x="0"
     inkscape:window-y="28"
     inkscape:window-maximized="1"
     inkscape:current-layer="svg27">
    <inkscape:grid
       type="xygrid"
       id="grid843" />
  </sodipodi:namedview>
  <clipPath
     id="a">
    <rect
       height="37"
       ry="1"
       width="40"
       x="4"
       y="10"
       id="rect2" />
  </clipPath>
  <g
     fill="#fff"
     id="g13">
    <path
       d="m13 36v-2l2-1 1-1h5l1 1 2 1v2z"
       fill-opacity=".96831"
       fill-rule="evenodd"
       id="path5" />
    <path
       d="m23 26.000001a4.5002861 4.5002861 0 0 1 -4.701972 4.280497 4.5002861 4.5002861 0 0 1 -4.289075-4.694149 4.5002861 4.5002861 0 0 1 4.686312-4.297638 4.5002861 4.5002861 0 0 1 4.306185 4.678458"
       id="path7" />
    <path
       d="m28.000001 18a3 3 0 0 1 -3.134449 2.853483 3 3 0 0 1 -2.859201-3.129234 3 3 0 0 1 3.124009-2.864909 3 3 0 0 1 2.870608 3.118773"
       fill-opacity=".947183"
       id="path9" />
    <path
       d="m34.000001 21a2 2 0 0 1 -2.089633 1.902323 2 2 0 0 1 -1.906134-2.086156 2 2 0 0 1 2.082673-1.90994 2 2 0 0 1 1.913738 2.079182"
       fill-opacity=".950704"
       id="path11" />
  </g>
  <path
     d="m18 26 7-8 7 3"
     fill="none"
     stroke="#fafafa"
     stroke-width="3"
     id="path15" />
  <path
     d="m30 24v2l-3 2 1 4h1v-4h2l1 3h1l1-3h2v4h1l1-4-3-2v-2z"
     fill="#fff"
     fill-rule="evenodd"
     id="path17"
     style="fill:#ffffff;fill-opacity:1" />
  <path
     style="fill:#685770;fill-opacity:1"
     d="m 5,10 h 38 c 0.554,0 1,0.446 1,1 v 26 c 0,0.554 -0.446,1 -1,1 H 5 C 4.446,38 4,37.554 4,37 V 11 c 0,-0.554 0.446,-1 1,-1 z"
     id="rect19" />
  <path
     clip-path="url(#a)"
     d="m4 10v35l40-35z"
     fill="#7e5e8e"
     fill-rule="evenodd"
     id="path21"
     style="fill:#89669a;fill-opacity:1" />
  <circle
     cx="35"
     cy="25"
     fill="#e9e3ec"
     r="3"
     id="circle23"
     style="fill:#ffffff;fill-opacity:1" />
  <circle
     cx="13.142858"
     cy="25"
     fill="#e9e3ec"
     r="3"
     id="circle25"
     style="fill:#ffffff;fill-opacity:1" />
</svg>
