<?xml version="1.0" encoding="UTF-8" standalone="no"?>
<!-- Created with Inkscape (http://www.inkscape.org/) -->

<svg
   xmlns:dc="http://purl.org/dc/elements/1.1/"
   xmlns:cc="http://creativecommons.org/ns#"
   xmlns:rdf="http://www.w3.org/1999/02/22-rdf-syntax-ns#"
   xmlns:svg="http://www.w3.org/2000/svg"
   xmlns="http://www.w3.org/2000/svg"
   xmlns:sodipodi="http://sodipodi.sourceforge.net/DTD/sodipodi-0.dtd"
   xmlns:inkscape="http://www.inkscape.org/namespaces/inkscape"
   width="48"
   height="48"
   viewBox="0 0 12.7 12.7"
   version="1.1"
   id="svg8"
   inkscape:version="0.92.2 (5c3e80d, 2017-08-06)"
   sodipodi:docname="pidgin.svg">
  <defs
     id="defs2">
    <clipPath
       clipPathUnits="userSpaceOnUse"
       id="clipPath4534">
      <path
         style="fill:#181818;fill-opacity:1;stroke:none;stroke-width:1.66100001;stroke-linejoin:round;stroke-miterlimit:4;stroke-dasharray:none;stroke-opacity:1"
         d="M 3.1992187,8.0000127 H 44.088549 c 0.841871,0 1.51962,0.6777449 1.51962,1.5195968 V 44.256757 c 0,0.84189 -0.677749,1.519635 -1.51962,1.519635 H 3.1992187 c -0.8418696,0 -1.51962,-0.677745 -1.51962,-1.519635 V 9.5196095 c 0,-0.8418519 0.6777504,-1.5195968 1.51962,-1.5195968 z"
         id="path4536"
         inkscape:connector-curvature="0"
         sodipodi:nodetypes="sssssssss" />
    </clipPath>
  </defs>
  <sodipodi:namedview
     id="base"
     pagecolor="#ffffff"
     bordercolor="#666666"
     borderopacity="1.0"
     inkscape:pageopacity="0.0"
     inkscape:pageshadow="2"
     inkscape:zoom="7.9195959"
     inkscape:cx="2.5450926"
     inkscape:cy="17.370193"
     inkscape:document-units="mm"
     inkscape:current-layer="layer1"
     showgrid="false"
     units="px"
     showguides="false"
     gridtolerance="10000"
     inkscape:snap-path-mask="true"
     objecttolerance="20"
     inkscape:window-width="1360"
     inkscape:window-height="723"
     inkscape:window-x="0"
     inkscape:window-y="24"
     inkscape:window-maximized="1" />
  <metadata
     id="metadata5">
    <rdf:RDF>
      <cc:Work
         rdf:about="">
        <dc:format>image/svg+xml</dc:format>
        <dc:type
           rdf:resource="http://purl.org/dc/dcmitype/StillImage" />
        <dc:title />
      </cc:Work>
    </rdf:RDF>
  </metadata>
  <g
     inkscape:label="Capa 1"
     inkscape:groupmode="layer"
     id="layer1"
     transform="translate(0,-284.3)">
    <path
       style="fill:#593f66;fill-opacity:1;stroke:none;stroke-width:0.43947291;stroke-linejoin:round;stroke-miterlimit:4;stroke-dasharray:none;stroke-opacity:1"
       d="M 1.0162767,287.18506 H 11.834912 c 0.222745,0 0.402066,0.17932 0.402066,0.40206 v 7.08612 c 0,0.22275 -0.179321,0.40207 -0.402066,0.40207 H 2.0519461 c -0.2227446,0 -0.3698524,-0.18166 -0.4020661,-0.40207 l -1.03566945,-7.08612 c -0.0322123,-0.2204 0.17932148,-0.40206 0.40206615,-0.40206 z"
       id="rect10"
       inkscape:connector-curvature="0"
       sodipodi:nodetypes="sssssssss" />
    <path
       style="color:#000000;font-style:normal;font-variant:normal;font-weight:normal;font-stretch:normal;font-size:medium;line-height:normal;font-family:sans-serif;font-variant-ligatures:normal;font-variant-position:normal;font-variant-caps:normal;font-variant-numeric:normal;font-variant-alternates:normal;font-feature-settings:normal;text-indent:0;text-align:start;text-decoration:none;text-decoration-line:none;text-decoration-style:solid;text-decoration-color:#000000;letter-spacing:normal;word-spacing:normal;text-transform:none;writing-mode:lr-tb;direction:ltr;text-orientation:mixed;dominant-baseline:auto;baseline-shift:baseline;text-anchor:start;white-space:normal;shape-padding:0;clip-rule:nonzero;display:inline;overflow:visible;visibility:visible;opacity:1;isolation:auto;mix-blend-mode:normal;color-interpolation:sRGB;color-interpolation-filters:linearRGB;solid-color:#000000;solid-opacity:1;vector-effect:none;fill:#6e4e7e;fill-opacity:1;fill-rule:evenodd;stroke:none;stroke-width:1.75748038;stroke-linecap:round;stroke-linejoin:round;stroke-miterlimit:4;stroke-dasharray:none;stroke-dashoffset:0;stroke-opacity:1;paint-order:stroke fill markers;color-rendering:auto;image-rendering:auto;shape-rendering:auto;text-rendering:auto;enable-background:accumulate"
       d="M 3.1992188,8 C 2.7083311,8.0001512 2.3142288,8.4017687 2.3222656,8.8925781 L 2.4746094,43.654297 c 0.010356,0.738142 0.8710363,1.135067 1.4394531,0.664062 L 46.166016,9.7773438 46.144531,8.0429688 C 46.060933,8.0171675 45.971995,7.9996938 45.875,8 Z"
       transform="matrix(0.26458333,0,0,0.26458333,0,285.0684)"
       id="path12"
       clip-path="url(#clipPath4534)"
       inkscape:connector-curvature="0" />
    <path
       style="fill:#ffffff;fill-opacity:1;stroke:none;stroke-width:0.46499997;stroke-linecap:round;stroke-linejoin:round;stroke-miterlimit:4;stroke-dasharray:none;stroke-opacity:1;paint-order:stroke fill markers"
       d="m 3.2149135,290.42883 a 0.70158249,0.70158249 0 0 0 -0.6821289,0.67025 0.70158249,0.70158249 0 0 0 0.6681763,0.73174 0.70158249,0.70158249 0 0 0 0.7332885,-0.66715 v -0.005 a 0.70158249,0.70158249 0 0 0 -0.6712767,-0.72916 0.70158249,0.70158249 0 0 0 -0.048059,-5.2e-4 z m 6.3810059,0 a 0.70158249,0.70158249 0 0 0 -0.6821289,0.67025 0.70158249,0.70158249 0 0 0 0.6686931,0.73174 0.70158249,0.70158249 0 0 0 0.7327714,-0.66715 v -0.005 a 0.70158249,0.70158249 0 0 0 -0.6712764,-0.72916 0.70158249,0.70158249 0 0 0 -0.048059,-5.2e-4 z"
       id="path4538"
       inkscape:connector-curvature="0" />
  </g>
</svg>
