<svg height="48" width="48" xmlns="http://www.w3.org/2000/svg"><path d="m3.1425781 5.1425781c-1.0288571 0-1.8574219.8285648-1.8574219 1.8574219v30.714844c0 1.028857.8285648 1.857422 1.8574219 1.857422h14.7031249l5.369141 7.570312 5.367187-7.570312h16.417969c1.028857 0 1.857422-.828565 1.857422-1.857422v-30.714844c0-1.0288571-.828565-1.8574219-1.857422-1.8574219z" fill="#939dac"/><g fill="#fff" transform="matrix(1.2946429 0 0 1.2946429 -7.553903 -2.79201)"><path d="m24.501953 12.142578a1.4270508 1.5 0 0 0 -1.427734 1.5 1.4270508 1.5 0 0 0 1.427734 1.5 1.4270508 1.5 0 0 0 1.425781-1.5 1.4270508 1.5 0 0 0 -1.425781-1.5zm0 13a1.4270515 1.5000008 0 0 0 -1.427734 1.5 1.4270515 1.5000008 0 0 0 1.427734 1.5 1.4270515 1.5000008 0 0 0 1.425781-1.5 1.4270515 1.5000008 0 0 0 -1.425781-1.5z" fill-opacity=".565543"/><path d="m24.427734 14.142578a4.5 4 0 0 0 -4.5 4s-1 6-2 6c0 0-1 0-1 1s1 1 1 1h13s1 0 1-1-1-1-1-1c-1 0-2-6-2-6a4.5 4 0 0 0 -4.5-4z"/></g></svg>