<svg height="48" width="48" xmlns="http://www.w3.org/2000/svg"><path d="m44.322082 27.405077a19.729762 19.729765 0 0 1 -19.729762 19.729765 19.729762 19.729765 0 0 1 -19.7297621-19.729765 19.729762 19.729765 0 0 1 19.7297621-19.7297632 19.729762 19.729765 0 0 1 19.729762 19.7297632z" fill="#5989b6" opacity=".99" transform="matrix(1.1503549 0 0 1.1503549 -4.486125 -7.525565)"/><path d="m44.322082 27.405077c0 10.896448-8.833315 19.729765-19.729762 19.729765v-39.4595282c10.896446 0 19.729761 8.8333152 19.729762 19.7297632z" fill="#59b6a4" opacity=".99" transform="matrix(1.1503549 0 0 1.1503549 -4.486125 -7.525565)"/><path d="m19.5 24 4.5-16.5 4.5 16.5z" fill="#fff" fill-opacity=".463504" fill-rule="evenodd"/><circle cx="24" cy="23.59594" fill="#fbfbfb" r="5.510152"/></svg>