<?xml version="1.0" encoding="UTF-8" standalone="no"?>
<svg
   xmlns:dc="http://purl.org/dc/elements/1.1/"
   xmlns:cc="http://creativecommons.org/ns#"
   xmlns:rdf="http://www.w3.org/1999/02/22-rdf-syntax-ns#"
   xmlns:svg="http://www.w3.org/2000/svg"
   xmlns="http://www.w3.org/2000/svg"
   xmlns:sodipodi="http://sodipodi.sourceforge.net/DTD/sodipodi-0.dtd"
   xmlns:inkscape="http://www.inkscape.org/namespaces/inkscape"
   height="48"
   width="48"
   version="1.1"
   id="svg18"
   sodipodi:docname="preferences-system-privacy.svg"
   inkscape:version="0.92.3 (2405546, 2018-03-11)">
  <metadata
     id="metadata24">
    <rdf:RDF>
      <cc:Work
         rdf:about="">
        <dc:format>image/svg+xml</dc:format>
        <dc:type
           rdf:resource="http://purl.org/dc/dcmitype/StillImage" />
        <dc:title></dc:title>
      </cc:Work>
    </rdf:RDF>
  </metadata>
  <defs
     id="defs22" />
  <sodipodi:namedview
     pagecolor="#ffffff"
     bordercolor="#666666"
     borderopacity="1"
     objecttolerance="10"
     gridtolerance="10"
     guidetolerance="10"
     inkscape:pageopacity="0"
     inkscape:pageshadow="2"
     inkscape:window-width="1360"
     inkscape:window-height="717"
     id="namedview20"
     showgrid="true"
     inkscape:zoom="4.9166667"
     inkscape:cx="19.852197"
     inkscape:cy="24.139163"
     inkscape:window-x="0"
     inkscape:window-y="25"
     inkscape:window-maximized="1"
     inkscape:current-layer="svg18">
    <inkscape:grid
       type="xygrid"
       id="grid834" />
  </sodipodi:namedview>
  <g
     fill="#cd884b"
     opacity=".99"
     transform="matrix(1.1503549 0 0 1.1503549 -4.486125 -7.525565)"
     id="g6"
     style="fill:#e9b588;fill-opacity:1">
    <path
       d="m44.322082 27.405077a19.729762 19.729765 0 0 1 -19.729762 19.729765 19.729762 19.729765 0 0 1 -19.7297621-19.729765 19.729762 19.729765 0 0 1 19.7297621-19.7297632 19.729762 19.729765 0 0 1 19.729762 19.7297632z"
       id="path2"
       style="fill:#e9b588;fill-opacity:1" />
    <path
       d="m44.322082 27.405077a19.729762 19.729765 0 0 1 -19.729762 19.729765 19.729762 19.729765 0 0 1 -19.7297621-19.729765 19.729762 19.729765 0 0 1 19.7297621-19.7297632 19.729762 19.729765 0 0 1 19.729762 19.7297632z"
       id="path4"
       style="fill:#d77a56;fill-opacity:1" />
  </g>
  <path
     style="color:#000000;font-style:normal;font-variant:normal;font-weight:normal;font-stretch:normal;font-size:medium;line-height:normal;font-family:sans-serif;font-variant-ligatures:normal;font-variant-position:normal;font-variant-caps:normal;font-variant-numeric:normal;font-variant-alternates:normal;font-feature-settings:normal;text-indent:0;text-align:start;text-decoration:none;text-decoration-line:none;text-decoration-style:solid;text-decoration-color:#000000;letter-spacing:normal;word-spacing:normal;text-transform:none;writing-mode:lr-tb;direction:ltr;text-orientation:mixed;dominant-baseline:auto;baseline-shift:baseline;text-anchor:start;white-space:normal;shape-padding:0;clip-rule:nonzero;display:inline;overflow:visible;visibility:visible;opacity:1;isolation:auto;mix-blend-mode:normal;color-interpolation:sRGB;color-interpolation-filters:linearRGB;solid-color:#000000;solid-opacity:1;vector-effect:none;fill:#ffffff;fill-opacity:1;fill-rule:nonzero;stroke:none;stroke-width:2.5;stroke-linecap:round;stroke-linejoin:round;stroke-miterlimit:4;stroke-dasharray:none;stroke-dashoffset:0;stroke-opacity:1;paint-order:fill markers stroke;color-rendering:auto;image-rendering:auto;shape-rendering:auto;text-rendering:auto;enable-background:accumulate"
     d="M 23.804688 11.75 C 17.054004 11.75 11.554686 17.249318 11.554688 24 C 11.554688 30.750682 17.054004 36.25 23.804688 36.25 C 30.55537 36.25 36.054688 30.750682 36.054688 24 C 36.054688 17.249318 30.55537 11.75 23.804688 11.75 z M 23.804688 14.25 C 24.430636 14.25 25.040206 14.313996 25.632812 14.425781 L 25.546875 14.992188 L 25.501953 15.169922 L 25.519531 15.173828 L 25.519531 15.175781 L 25.535156 15.177734 L 26.388672 15.398438 L 26.650391 15.494141 L 26.917969 14.763672 C 27.766803 15.048337 28.565524 15.440218 29.291016 15.933594 L 28.806641 16.582031 L 29.425781 17.046875 L 29.4375 17.054688 L 29.773438 17.363281 L 30.326172 16.755859 C 30.986226 17.350113 31.563732 18.031105 32.041016 18.785156 L 31.316406 19.226562 L 31.587891 19.673828 L 31.900391 20.322266 L 32.671875 19.951172 C 33.036362 20.751069 33.292169 21.608267 33.429688 22.507812 L 32.560547 22.640625 L 32.617188 23.003906 L 32.660156 23.876953 L 33.546875 23.832031 C 33.547485 23.868107 33.550561 23.903281 33.550781 23.939453 L 32.666016 23.894531 L 32.617188 24.855469 L 32.574219 25.130859 L 33.462891 25.267578 C 33.345523 26.176321 33.112104 27.04601 32.763672 27.857422 L 31.935547 27.457031 L 31.585938 28.181641 L 31.359375 28.558594 L 32.148438 29.037109 C 31.682713 29.808916 31.115528 30.509215 30.460938 31.121094 L 29.835938 30.435547 L 29.416016 30.820312 L 28.875 31.222656 L 29.429688 31.962891 C 28.702444 32.476617 27.901502 32.890792 27.044922 33.191406 L 26.730469 32.333984 L 26.373047 32.462891 L 25.537109 32.677734 L 25.763672 33.554688 C 25.130955 33.682911 24.476209 33.75 23.804688 33.75 C 23.562775 33.75 23.325294 33.730058 23.087891 33.712891 L 23.132812 32.830078 L 22.824219 32.814453 L 21.902344 32.673828 L 21.771484 33.535156 C 20.882878 33.347731 20.04005 33.039352 19.259766 32.628906 L 19.632812 31.857422 L 19.470703 31.779297 L 18.742188 31.337891 L 18.623047 31.248047 L 18.121094 31.919922 C 17.397826 31.400867 16.747007 30.789602 16.191406 30.095703 L 16.839844 29.611328 L 16.324219 28.919922 L 16.126953 28.59375 L 15.443359 29.009766 C 14.993787 28.259057 14.643871 27.443476 14.408203 26.578125 L 15.150391 26.386719 L 14.982422 25.734375 L 14.896484 25.173828 L 14.148438 25.287109 C 14.09308 24.86517 14.054688 24.437468 14.054688 24 C 14.054688 23.542073 14.097637 23.095118 14.158203 22.654297 L 14.884766 22.765625 L 14.982422 22.119141 L 15.128906 21.550781 L 14.421875 21.369141 C 14.660733 20.511076 15.013347 19.703222 15.462891 18.958984 L 16.082031 19.333984 L 16.330078 18.929688 L 16.791016 18.3125 L 16.210938 17.878906 C 16.762077 17.195189 17.406505 16.592904 18.121094 16.080078 L 18.554688 16.658203 L 18.742188 16.519531 L 19.46875 16.076172 L 19.556641 16.035156 L 19.240234 15.380859 C 20.005713 14.976007 20.832534 14.670695 21.703125 14.480469 L 21.884766 15.189453 L 21.923828 15.179688 L 22.806641 15.042969 L 23.048828 15.03125 L 23.011719 14.291016 C 23.273781 14.270044 23.537068 14.25 23.804688 14.25 z M 23.808594 19 L 22.396484 21.353516 A 3 3 0 0 0 20.804688 24 A 3 3 0 0 0 23.804688 27 A 3 3 0 0 0 26.804688 24 L 26.808594 24 L 26.804688 23.992188 A 3 3 0 0 0 25.222656 21.357422 L 23.808594 19 z "
     id="path836" />
</svg>
