<svg height="48" width="48" xmlns="http://www.w3.org/2000/svg"><rect fill="#ef815c" height="43.276085" ry="1.46203" width="43.276085" x="2.310822" y="4.497496"/><g fill="#fff" transform="translate(1.309834 2.142857)"><path d="m27.711595 21.514051-10.790972 12.610949h.887537 20.692557z" fill-opacity=".786765" fill-rule="evenodd"/><path d="m17.568314 17.997713-10.7909702 16.127287h.887537 20.6925562z" fill-rule="evenodd"/><path d="m36.602186 15.253482a3.7868245 3.7868245 0 0 1 -3.956536 3.60188 3.7868245 3.7868245 0 0 1 -3.609098-3.949953 3.7868245 3.7868245 0 0 1 3.943358-3.616303 3.7868245 3.7868245 0 0 1 3.623496 3.936749" fill-opacity=".911765"/></g><path d="m3.7728523 4.4974957h40.3520247c.404982 0 .77049.1630164 1.034752.4272783l-42.4215285 42.421528c-.2642619-.264262-.4272783-.62977-.4272783-1.034752v-40.3520243c0-.8099646.6520655-1.46203 1.4620301-1.46203z" fill="#170078" fill-opacity=".338235"/></svg>