<?xml version="1.0" encoding="UTF-8" standalone="no"?>
<svg
   xmlns:dc="http://purl.org/dc/elements/1.1/"
   xmlns:cc="http://creativecommons.org/ns#"
   xmlns:rdf="http://www.w3.org/1999/02/22-rdf-syntax-ns#"
   xmlns:svg="http://www.w3.org/2000/svg"
   xmlns="http://www.w3.org/2000/svg"
   xmlns:xlink="http://www.w3.org/1999/xlink"
   xmlns:sodipodi="http://sodipodi.sourceforge.net/DTD/sodipodi-0.dtd"
   xmlns:inkscape="http://www.inkscape.org/namespaces/inkscape"
   height="48"
   width="48"
   version="1.1"
   id="svg12"
   sodipodi:docname="preferences-system-parental-controls.svg"
   inkscape:version="0.92.3 (2405546, 2018-03-11)">
  <metadata
     id="metadata18">
    <rdf:RDF>
      <cc:Work
         rdf:about="">
        <dc:format>image/svg+xml</dc:format>
        <dc:type
           rdf:resource="http://purl.org/dc/dcmitype/StillImage" />
        <dc:title></dc:title>
      </cc:Work>
    </rdf:RDF>
  </metadata>
  <defs
     id="defs16">
    <linearGradient
       id="linearGradient3866">
      <stop
         id="stop3868"
         offset="0"
         style="stop-color:#000000;stop-opacity:0.52083331" />
      <stop
         id="stop3870"
         offset="1"
         style="stop-color:#2883c3;stop-opacity:0;" />
    </linearGradient>
    <linearGradient
       id="linearGradient3874">
      <stop
         id="stop3876"
         offset="0"
         style="stop-color:#000d0e;stop-opacity:0.84105963;" />
      <stop
         id="stop3878"
         offset="1"
         style="stop-color:#000000;stop-opacity:0;" />
    </linearGradient>
    <clipPath
       clipPathUnits="userSpaceOnUse"
       id="clipPath892">
      <path
         style="fill:#ffffff;fill-opacity:0.25520833;stroke:none;stroke-width:1.52630627;stroke-linecap:round;stroke-linejoin:round;stroke-miterlimit:4;stroke-dasharray:none;stroke-opacity:1"
         d="M 38.524123,20.232391 V 51.2388 h 3.597154 V 20.232391 Z M 14.125746,21.0025 V 52.010565 H 17.7229 V 21.0025 Z M 5.9924018,21.259203 V 52.267267 H 9.591212 V 21.259203 Z m 24.3983772,1.37129 v 31.006409 h 3.597153 V 22.630493 Z m -20.330877,1.626338 v 31.008065 h 3.597154 V 24.256831 Z m 24.396721,0.08612 v 31.008065 h 3.598809 V 24.342951 Z M 1.9265577,25.798705 V 56.80677 H 5.5237118 V 25.798705 Z m 16.2650323,0.08612 v 31.008064 h 3.597155 V 25.884825 Z m 24.398377,0 v 31.008064 h 3.597154 V 25.884825 Z m -16.265033,2.22752 v 31.006408 h 3.597155 V 28.112345 Z M 22.25909,30.76715 v 31.008065 h 3.597155 V 30.76715 Z"
         id="path894"
         inkscape:connector-curvature="0" />
    </clipPath>
    <clipPath
       id="clipPath3881"
       clipPathUnits="userSpaceOnUse">
      <circle
         transform="translate(-412,-17)"
         id="path3883"
         style="fill:#008dff;fill-opacity:1;fill-rule:evenodd;stroke:none"
         cx="539.5"
         cy="152.5"
         r="103.5" />
    </clipPath>
    <linearGradient
       id="linearGradient4019">
      <stop
         id="stop4021"
         style="stop-color:#adcce1;stop-opacity:1;"
         offset="0" />
      <stop
         id="stop4023"
         style="stop-color:#6bbfe1;stop-opacity:1;"
         offset="0.26238" />
      <stop
         id="stop4025"
         style="stop-color:#2596d1;stop-opacity:1;"
         offset="0.74620908" />
      <stop
         id="stop4027"
         style="stop-color:#2372c0;stop-opacity:1;"
         offset="1" />
    </linearGradient>
    <linearGradient
       id="linearGradient4085">
      <stop
         id="stop4087"
         style="stop-color:#ffffff;stop-opacity:1"
         offset="0" />
      <stop
         id="stop4089"
         style="stop-color:#ffffff;stop-opacity:0.2"
         offset="0.06316455" />
      <stop
         id="stop4091"
         style="stop-color:#ffffff;stop-opacity:0.2"
         offset="0.95056331" />
      <stop
         id="stop4093"
         style="stop-color:#ffffff;stop-opacity:0.39215687"
         offset="1" />
    </linearGradient>
    <filter
       id="filter3174"
       style="color-interpolation-filters:sRGB">
      <feGaussianBlur
         id="feGaussianBlur3176"
         stdDeviation="1.71" />
    </filter>
    <linearGradient
       x1="45.447727"
       y1="92.539597"
       x2="45.447727"
       y2="7.0165396"
       id="ButtonShadow"
       gradientUnits="userSpaceOnUse"
       gradientTransform="scale(1.0058652,0.994169)">
      <stop
         id="stop3750"
         style="stop-color:#000000;stop-opacity:1"
         offset="0" />
      <stop
         id="stop3752"
         style="stop-color:#000000;stop-opacity:0.58823532"
         offset="1" />
    </linearGradient>
    <linearGradient
       id="linearGradient5048-8-7">
      <stop
         id="stop5050-4-2"
         style="stop-color:#000000;stop-opacity:0"
         offset="0" />
      <stop
         id="stop5056-7-4"
         style="stop-color:#000000;stop-opacity:1"
         offset="0.5" />
      <stop
         id="stop5052-0-1-7"
         style="stop-color:#000000;stop-opacity:0"
         offset="1" />
    </linearGradient>
    <linearGradient
       id="linearGradient5060-29-0">
      <stop
         id="stop5062-9-7"
         style="stop-color:#000000;stop-opacity:1"
         offset="0" />
      <stop
         id="stop5064-08-2"
         style="stop-color:#000000;stop-opacity:0"
         offset="1" />
    </linearGradient>
    <linearGradient
       id="linearGradient3851">
      <stop
         offset="0"
         style="stop-color:#5b8da7;stop-opacity:1;"
         id="stop3853" />
      <stop
         offset="1"
         style="stop-color:#1c3447;stop-opacity:1;"
         id="stop3855" />
    </linearGradient>
    <filter
       id="filter3174-0"
       style="color-interpolation-filters:sRGB">
      <feGaussianBlur
         id="feGaussianBlur3176-9"
         stdDeviation="1.71" />
    </filter>
    <clipPath
       clipPathUnits="userSpaceOnUse"
       id="clipPath916">
      <g
         transform="matrix(1.1503549,0,0,1.1503549,-4.4861245,-7.5255648)"
         style="display:inline;opacity:0.98999999;fill:#126136;fill-opacity:1"
         inkscape:label="circulo"
         id="g920">
        <path
           inkscape:connector-curvature="0"
           id="path918"
           d="M 44.322082,27.405077 A 19.729762,19.729765 0 0 1 24.59232,47.134842 19.729762,19.729765 0 0 1 4.8625579,27.405077 19.729762,19.729765 0 0 1 24.59232,7.6753138 19.729762,19.729765 0 0 1 44.322082,27.405077 Z"
           style="fill:#126136;fill-opacity:1;stroke:none;stroke-width:1.4909519" />
      </g>
    </clipPath>
    <clipPath
       id="clipPath3866"
       clipPathUnits="userSpaceOnUse">
      <circle
         transform="matrix(0.68724124,0,0,0.68724124,-521.35527,-47.661719)"
         style="fill:#44abb1;fill-opacity:1;fill-rule:evenodd;stroke:none"
         id="path3868"
         cx="1132"
         cy="449"
         r="312" />
    </clipPath>
    <linearGradient
       id="linearGradient4118"
       inkscape:collect="always">
      <stop
         id="stop4120"
         offset="0"
         style="stop-color:#0eb474;stop-opacity:1;" />
      <stop
         id="stop4122"
         offset="1"
         style="stop-color:#0eb474;stop-opacity:0;" />
    </linearGradient>
    <linearGradient
       inkscape:collect="always"
       id="linearGradient3837">
      <stop
         style="stop-color:#7db257;stop-opacity:1;"
         offset="0"
         id="stop3839" />
      <stop
         style="stop-color:#7db257;stop-opacity:0;"
         offset="1"
         id="stop3841" />
    </linearGradient>
    <linearGradient
       inkscape:collect="always"
       xlink:href="#linearGradient3837"
       id="linearGradient3843"
       x1="502.83536"
       y1="546.63525"
       x2="316.05505"
       y2="356.66208"
       gradientUnits="userSpaceOnUse" />
    <clipPath
       clipPathUnits="userSpaceOnUse"
       id="clipPath3847">
      <circle
         transform="matrix(0.88586957,0,0,0.88586957,-24.010886,495.98978)"
         id="path3849"
         style="fill:url(#linearGradient3843);fill-opacity:1;fill-rule:evenodd;stroke:none"
         cx="322.4407"
         cy="342.29437"
         r="260.2153" />
    </clipPath>
    <clipPath
       id="clipPath3344"
       clipPathUnits="userSpaceOnUse">
      <circle
         style="fill:#0eb474;fill-opacity:1;fill-rule:evenodd;stroke:none"
         id="path3346"
         transform="matrix(0.09964174,0,0,0.09964174,-8.1283951,-10.106867)"
         cx="322.4407"
         cy="342.29437"
         r="260.2153" />
    </clipPath>
    <linearGradient
       gradientUnits="userSpaceOnUse"
       y2="342.29437"
       x2="582.65601"
       y1="342.29437"
       x1="62.225403"
       id="linearGradient4124"
       xlink:href="#linearGradient4118"
       inkscape:collect="always" />
    <clipPath
       clipPathUnits="userSpaceOnUse"
       id="clipPath932">
      <g
         transform="matrix(1.1503549,0,0,1.1503549,-4.4861245,-7.5255648)"
         style="display:inline;opacity:0.98999999;fill:#32b6a1;fill-opacity:1"
         inkscape:label="circulo"
         id="g936">
        <path
           inkscape:connector-curvature="0"
           id="path934"
           d="M 44.322082,27.405077 A 19.729762,19.729765 0 0 1 24.59232,47.134842 19.729762,19.729765 0 0 1 4.8625579,27.405077 19.729762,19.729765 0 0 1 24.59232,7.6753138 19.729762,19.729765 0 0 1 44.322082,27.405077 Z"
           style="fill:#32b6a1;fill-opacity:1;stroke:none;stroke-width:1.4909519" />
      </g>
    </clipPath>
    <clipPath
       clipPathUnits="userSpaceOnUse"
       id="clipPath942">
      <g
         transform="matrix(1.1503549,0,0,1.1503549,-4.4861245,-7.5255648)"
         style="display:inline;opacity:0.98999999;fill:#32b6a1;fill-opacity:1"
         inkscape:label="circulo"
         id="g946">
        <path
           inkscape:connector-curvature="0"
           id="path944"
           d="M 44.322082,27.405077 A 19.729762,19.729765 0 0 1 24.59232,47.134842 19.729762,19.729765 0 0 1 4.8625579,27.405077 19.729762,19.729765 0 0 1 24.59232,7.6753138 19.729762,19.729765 0 0 1 44.322082,27.405077 Z"
           style="fill:#32b6a1;fill-opacity:1;stroke:none;stroke-width:1.4909519" />
      </g>
    </clipPath>
    <linearGradient
       id="linearGradient3822">
      <stop
         offset="0"
         style="stop-color:#e6e6e6;stop-opacity:1"
         id="stop3824" />
      <stop
         offset="1"
         style="stop-color:#f5f5f5;stop-opacity:1"
         id="stop3826" />
    </linearGradient>
    <linearGradient
       id="linearGradient3737">
      <stop
         offset="0"
         style="stop-color:#ffffff;stop-opacity:1"
         id="stop3739" />
      <stop
         offset="1"
         style="stop-color:#ffffff;stop-opacity:0"
         id="stop3741" />
    </linearGradient>
    <linearGradient
       id="linearGradient3700">
      <stop
         offset="0"
         style="stop-color:#f05517;stop-opacity:1"
         id="stop3702" />
      <stop
         offset="1"
         style="stop-color:#f37340;stop-opacity:1"
         id="stop3704" />
    </linearGradient>
    <filter
       style="color-interpolation-filters:sRGB"
       id="filter3174-7">
      <feGaussianBlur
         stdDeviation="1.71"
         id="feGaussianBlur3176-5" />
    </filter>
    <linearGradient
       gradientUnits="userSpaceOnUse"
       xlink:href="#linearGradient3737"
       id="linearGradient3188"
       y2="63.893143"
       x2="36.357143"
       y1="6"
       x1="36.357143" />
    <filter
       style="color-interpolation-filters:sRGB"
       id="filter3794"
       height="1.3839999"
       width="1.3839999"
       y="-0.192"
       x="-0.192">
      <feGaussianBlur
         stdDeviation="5.28"
         id="feGaussianBlur3796" />
    </filter>
    <linearGradient
       gradientUnits="userSpaceOnUse"
       xlink:href="#linearGradient3737"
       id="linearGradient3613"
       y2="138.66119"
       x2="48"
       y1="20.220806"
       x1="48" />
    <radialGradient
       gradientTransform="matrix(1.1573129,0,0,0.99590774,-7.5510206,0.19713193)"
       gradientUnits="userSpaceOnUse"
       xlink:href="#linearGradient3737"
       id="radialGradient3619"
       fy="90.171875"
       fx="48"
       r="42"
       cy="90.171875"
       cx="48" />
    <clipPath
       id="clipPath3613">
      <rect
         style="fill:#ffffff;fill-opacity:1;fill-rule:nonzero;stroke:none"
         id="rect3615"
         y="6"
         x="6"
         ry="6"
         rx="6"
         height="84"
         width="84" />
    </clipPath>
    <linearGradient
       gradientUnits="userSpaceOnUse"
       xlink:href="#linearGradient3822"
       id="linearGradient3617"
       y2="5.9877172"
       x2="48"
       y1="90"
       x1="48" />
    <linearGradient
       gradientTransform="matrix(1.0058652,0,0,0.994169,100,0)"
       gradientUnits="userSpaceOnUse"
       id="ButtonShadow-0"
       y2="7.0165396"
       x2="45.447727"
       y1="92.539597"
       x1="45.447727">
      <stop
         offset="0"
         style="stop-color:#000000;stop-opacity:1"
         id="stop3750-8" />
      <stop
         offset="1"
         style="stop-color:#000000;stop-opacity:0.58823532"
         id="stop3752-5" />
    </linearGradient>
    <linearGradient
       gradientTransform="matrix(1.0238095,0,0,1.0119048,-1.1428571,-98.071429)"
       gradientUnits="userSpaceOnUse"
       xlink:href="#ButtonShadow-0"
       id="linearGradient3780"
       y2="90.238609"
       x2="32.251034"
       y1="6.1317081"
       x1="32.251034" />
    <linearGradient
       gradientTransform="translate(0,-97)"
       gradientUnits="userSpaceOnUse"
       xlink:href="#ButtonShadow-0"
       id="linearGradient3721"
       y2="90.238609"
       x2="32.251034"
       y1="6.1317081"
       x1="32.251034" />
    <linearGradient
       gradientUnits="userSpaceOnUse"
       xlink:href="#linearGradient3700"
       id="linearGradient3067"
       y2="16.436062"
       x2="47.973103"
       y1="79.776169"
       x1="47.973103"
       gradientTransform="matrix(3.6907816,0,0,3.6907816,86.006062,-394.23151)" />
    <clipPath
       clipPathUnits="userSpaceOnUse"
       id="clipPath1109">
      <g
         transform="matrix(12.332308,0,0,12.332308,-47.545312,-534.58518)"
         style="display:inline;opacity:0.98999999;fill:#fa6e31;fill-opacity:1"
         inkscape:label="circulo"
         id="g1113">
        <path
           inkscape:connector-curvature="0"
           id="path1111"
           d="M 44.322082,27.405077 A 19.729762,19.729765 0 0 1 24.59232,47.134842 19.729762,19.729765 0 0 1 4.8625579,27.405077 19.729762,19.729765 0 0 1 24.59232,7.6753138 19.729762,19.729765 0 0 1 44.322082,27.405077 Z"
           style="fill:#fa6e31;fill-opacity:1;stroke:none;stroke-width:1.4909519" />
      </g>
    </clipPath>
  </defs>
  <sodipodi:namedview
     pagecolor="#ffffff"
     bordercolor="#666666"
     borderopacity="1"
     objecttolerance="10"
     gridtolerance="10"
     guidetolerance="10"
     inkscape:pageopacity="0"
     inkscape:pageshadow="2"
     inkscape:window-width="1920"
     inkscape:window-height="1017"
     id="namedview14"
     showgrid="true"
     inkscape:zoom="9.8333333"
     inkscape:cx="21.506329"
     inkscape:cy="14.718231"
     inkscape:window-x="0"
     inkscape:window-y="30"
     inkscape:window-maximized="1"
     inkscape:current-layer="svg12">
    <inkscape:grid
       type="xygrid"
       id="grid819" />
  </sodipodi:namedview>
  <path
     d="m44.322082 27.405077a19.729762 19.729765 0 0 1 -19.729762 19.729765 19.729762 19.729765 0 0 1 -19.7297621-19.729765 19.729762 19.729765 0 0 1 19.7297621-19.7297632 19.729762 19.729765 0 0 1 19.729762 19.7297632z"
     fill="#5995b6"
     opacity=".99"
     transform="matrix(1.1503549 0 0 1.1503549 -4.486125 -7.525565)"
     id="path2"
     style="fill:#b2ae5d;fill-opacity:1" />
  <path
     style="opacity:1;fill:#ffffff;fill-opacity:1;stroke:none;stroke-width:2;stroke-linecap:round;stroke-linejoin:round;stroke-miterlimit:4;stroke-dasharray:none;stroke-dashoffset:0;stroke-opacity:0.094697;paint-order:fill markers stroke"
     d="M 23.804688 4.5 A 19.5 19.5 0 0 0 4.3046875 24 A 19.5 19.5 0 0 0 23.804688 43.5 A 19.5 19.5 0 0 0 43.304688 24 A 19.5 19.5 0 0 0 23.804688 4.5 z M 19.080078 8.8320312 A 3.0500008 3.0500008 0 0 1 22.128906 11.880859 A 3.0500008 3.0500008 0 0 1 19.080078 14.931641 A 3.0500008 3.0500008 0 0 1 16.029297 11.880859 A 3.0500008 3.0500008 0 0 1 19.080078 8.8320312 z M 16.539062 15.636719 L 17.099609 15.636719 L 20.933594 15.636719 L 21.494141 15.636719 C 21.667699 15.636719 21.716931 15.802632 21.806641 15.951172 L 26.998047 24.548828 C 27.125361 24.722911 27.203175 24.935761 27.203125 25.167969 C 27.202957 25.749247 26.731663 26.220816 26.150391 26.220703 C 25.78879 26.220767 25.46884 26.037489 25.279297 25.759766 C 25.279297 25.759766 25.277344 25.757812 25.277344 25.757812 C 25.274444 25.752983 25.272431 25.747441 25.269531 25.744141 L 22.189453 20.464844 L 22.189453 38.279297 C 22.212674 39.391269 20.390476 39.533674 20.378906 38.279297 L 20.378906 27.785156 L 17.734375 27.785156 L 17.734375 38.279297 C 17.757606 39.391269 15.935398 39.533674 15.923828 38.279297 L 15.923828 20.326172 L 12.867188 25.564453 C 12.71038 25.948608 12.335053 26.218621 11.894531 26.21875 C 11.313259 26.218863 10.841976 25.74923 10.841797 25.167969 C 10.841759 24.972428 10.897354 24.791643 10.990234 24.634766 L 10.986328 24.630859 L 16.226562 15.949219 C 16.316268 15.800631 16.365506 15.636719 16.539062 15.636719 z M 32.207031 25.076172 A 2.1217396 2.1217396 0 0 1 34.330078 27.197266 A 2.1217396 2.1217396 0 0 1 32.207031 29.320312 A 2.1217396 2.1217396 0 0 1 30.085938 27.197266 A 2.1217396 2.1217396 0 0 1 32.207031 25.076172 z M 27.583984 27.542969 C 27.753016 27.542969 27.906821 27.609945 28.017578 27.720703 C 28.019578 27.724003 28.020537 27.727169 28.023438 27.730469 L 29.976562 29.96875 L 33.058594 29.943359 C 33.134717 29.937941 33.205994 29.936559 33.271484 29.9375 C 33.730255 29.944023 33.942948 30.088282 34.097656 30.257812 L 36.609375 33.175781 L 36.607422 33.175781 C 36.704846 33.284167 36.765625 33.426724 36.765625 33.583984 C 36.765625 33.922026 36.49234 34.195312 36.154297 34.195312 C 35.985273 34.195313 35.83146 34.128335 35.720703 34.017578 C 35.718703 34.014278 35.717744 34.011113 35.714844 34.007812 L 34.277344 32.472656 L 34.177734 32.496094 L 34.177734 38.552734 C 34.203534 39.226705 33.035214 39.223621 33.021484 38.552734 L 33.021484 34.976562 L 31.380859 34.976562 L 31.380859 38.552734 C 31.40667 39.226705 30.238339 39.223621 30.224609 38.552734 L 30.224609 34.976562 L 30.224609 32.333984 L 30.025391 31.853516 L 29.640625 31.365234 L 27.128906 28.5625 L 27.130859 28.560547 C 27.033434 28.452145 26.972656 28.311556 26.972656 28.154297 C 26.972656 27.816254 27.245949 27.542969 27.583984 27.542969 z "
     id="path1034" />
</svg>
