<svg height="128" viewBox="0 0 33.866666 33.866668" width="128" xmlns="http://www.w3.org/2000/svg" xmlns:xlink="http://www.w3.org/1999/xlink"><linearGradient id="a" gradientUnits="userSpaceOnUse" x1="16.536458" x2="18.653124" y1="281.6135" y2="291.07237"><stop offset="0" stop-color="#39393a"/><stop offset="1" stop-color="#1c1c1d"/></linearGradient><linearGradient id="b" gradientUnits="userSpaceOnUse" x1="16.413265" x2="32.281674" y1="288.909848" y2="288.909848"><stop offset="0" stop-color="#e7e7e7"/><stop offset="1" stop-color="#e0e0e0"/></linearGradient><filter id="c" color-interpolation-filters="sRGB" height="1.162114" width="1.095255" x="-.047627" y="-.081057"><feGaussianBlur stdDeviation=".31490495"/></filter><filter id="d" color-interpolation-filters="sRGB" height="1.038814" width="1.037995" x="-.018997" y="-.019407"><feGaussianBlur stdDeviation=".22559376"/></filter><g transform="translate(0 -263.13332)"><path d="m26.181641 266.18945-24.4765629 3.68164.035156.2461 3.5117187 23.9707 24.9531252-3.81836z" fill="#0f0f0f" filter="url(#d)"/><path d="m1.9878584 270.08178 23.9874406-3.60814 3.942226 23.58653-24.455163 3.74178z" fill="#1a1a1b" stroke="#505050" stroke-width=".5"/><path d="m4.034896 283.10936 1.124479-.0661 1.256771.52916 1.389062.33073 1.389063-.85989 1.190625-1.5875 1.521354 1.19062.79375-3.77031 2.050521 3.63802 1.389062.7276 1.042972-2.82088 1.269065-.60959.210475-3.06358c.764766.16876 1.046942-.0654 1.379778-.25725l1.052374 2.19829 1.216076-1.07576 1.894273 3.22728.53788-3.3676 1.333007-1.96442 1.011448-.87114 2.480256 14.69003-23.812499 4.29948z" fill="url(#a)"/><g stroke="#505050"><path d="m5.6223959 269.31323 3.7797617 23.71801" fill="none" stroke-width=".25"/><path d="m9.7984823 269.01255 3.7797617 23.71801" fill="none" stroke-width=".25"/><path d="m13.807526 268.47801 3.779761 23.71801" fill="none" stroke-width=".25"/><path d="m22.026064 267.10825 3.779761 23.71801" fill="none" stroke-width=".25"/></g><circle cx="19.135044" cy="275.36084" fill="#00afff" r="1.039435"/><path d="m17.953869 267.84857.94494 6.04762" fill="none" stroke="#00afff" stroke-width=".47"/><path d="m19.418527 276.77826 1.275669 8.07924" fill="none" stroke="#00afff" stroke-width=".47"/><path d="m4.0348958 283.10936 1.1244791-.0661 1.2567709.52916 1.3890624.33073 1.3890625-.85989 1.1906253-1.5875 1.521354 1.19062.79375-3.77031 2.050521 3.63802 1.389062.7276 1.042972-2.82088 1.269065-.60959.210475-3.06358" fill="none" stroke="#f6f6f6" stroke-linejoin="round" stroke-width=".5"/><path d="m20.041873 276.49039 1.052374 2.19829 1.216076-1.07576 1.894273 3.22728.53788-3.3676 1.333007-1.96442.818513-.74836.382947-.22802" fill="none" stroke="#e6e6e6" stroke-linejoin="round" stroke-width=".5"/><rect filter="url(#c)" height="9.323987" opacity=".34" rx="1.291958" ry="1.244739" transform="matrix(.99836843 0 0 1.0362411 .039725 -10.28851)" width="15.868409" x="16.413265" y="284.24783"/><path d="m1.987858 270.08178 23.987441-3.60814 3.942226 23.58653-24.455163 3.74178z" fill="none" stroke="#505050" stroke-width=".5"/><rect fill="url(#b)" height="9.323987" rx="1.28985" width="15.868409" x="16.413265" y="284.24783"/><g transform="translate(-.032334 .049042)"><path d="m21.312243 285.86328c-.253108.0134-.482326.15373-.609374.37305l-2.597657 4.49805c-.288754.50034.07271 1.12557.650391 1.125h5.191406c.57768.00057.939145-.62466.650391-1.125l-2.595703-4.49805c-.141384-.2441-.407771-.38824-.689454-.37305z" fill="#32d74b"/><path d="m27.447365 291.85829c.253108-.0134.482326-.15373.609374-.37305l2.597657-4.49805c.288754-.50034-.07271-1.12557-.650391-1.125h-5.191406c-.57768-.00057-.939145.62466-.650391 1.125l2.595703 4.49805c.141384.2441.407771.38824.689454.37305z" fill="#ff453a"/></g></g></svg>