<svg height="48" width="48" xmlns="http://www.w3.org/2000/svg" xmlns:xlink="http://www.w3.org/1999/xlink"><clipPath id="a"><path d="m3.4527029 3h40.0945941c.804798 0 1.452703.6479055 1.452703 1.4527029v8.5455121l-43 .151523v-8.6970351c0-.8047974.6479055-1.4527029 1.4527029-1.4527029z"/></clipPath><rect fill="#588f66" height="43" ry="1.452703" width="43" x="2" y="3"/><path d="m3.4527029 3h40.0945941c.804798 0 1.452703.6479055 1.452703 1.4527029v8.5455121l-43 .151523v-8.6970351c0-.8047974.6479055-1.4527029 1.4527029-1.4527029z" fill="#3c4147"/><g clip-path="url(#a)" fill="none" stroke="#fff" stroke-linecap="square" stroke-width="3"><path d="m9 3-2 5 2 5"/><path d="m16 3-2 5 2 5"/><path d="m23 3-2 5 2 5"/><path d="m30 3-2 5 2 5"/><path d="m37 3-2 5 2 5"/><path d="m44 3-2 5 2 5"/></g><path d="m2 8h43" fill="#3c4147" fill-rule="evenodd" stroke="#3c4147" stroke-width=".8"/><path d="m23.262695 18.091102c-.0052.0205-.01115.03808-.01631.05852l.03577-.0033c-.006-.01944-.01365-.03575-.01951-.05526zm-.117022.409587c-2.306563 8.663153-7.135286 10.381211-7.135286 16.11372 0 4.136399 3.353215 7.489613 7.489613 7.489613.158197 0 .305842-.03585.4616-.0455 1.642705-3.436335 2.012086-6.702178 1.76838-9.908133-.347936-4.577117-1.896255-9.039786-2.584307-13.649689zm.789921 1.540833c.758 3.994959 1.97921 7.958484 2.291743 12.069849.242025 3.183841-.121952 6.462499-1.693614 9.888629 3.642135-.508034 6.455889-3.603526 6.455889-7.385591 0-5.375668-4.248859-7.221651-7.054018-14.572887z" fill="#fff" opacity=".97"/></svg>