<svg height="48" width="48" xmlns="http://www.w3.org/2000/svg"><rect fill="#d07e7e" height="43" ry="1.452703" width="43" x="2" y="3"/><path d="m23.5 3h20.047297c.804798 0 1.452703.6479055 1.452703 1.4527029v20.0472971h-21.5z" fill="#c8b471"/><path d="m45 24.5v20.047297c0 .804798-.647905 1.452703-1.452703 1.452703h-40.0945941c-.8047974 0-1.4527029-.647905-1.4527029-1.452703v-20.047297z" fill="#5cb5ab"/><path d="m45 24.5v20.047297c0 .804798-.647905 1.452703-1.452703 1.452703h-20.047297v-21.5z" fill="#79974f"/><g fill="none" stroke="#fff" stroke-linecap="round" stroke-width="5"><path d="m18.338426 10.139424 20.246758 17.862497" stroke-opacity=".554545"/><path d="m8.1947721 29.194772 17.8624969-20.2467575"/><path d="m20.942731 40.44153 17.862497-20.246758"/><path d="m28 40-20.2467575-17.862497" stroke-opacity=".554545"/></g></svg>