<svg height="48" width="48" xmlns="http://www.w3.org/2000/svg"><rect fill="#aca793" height="42.5" ry="2.5" width="32.5" x="7.5" y="3"/><g fill="none"><path d="m35 10.5-2.5 2.5"/><path d="m10 35.5h7" stroke="#fff" stroke-linecap="round" stroke-opacity=".408759" stroke-width="1.3"/><path d="m19 35.5h2.5" stroke="#fff" stroke-linecap="round" stroke-opacity=".408759" stroke-width="1.3"/><path d="m23.5 35.5h8" stroke="#fff" stroke-linecap="round" stroke-opacity=".408759" stroke-width="1.3"/><path d="m33.5 35.5h2" stroke="#fff" stroke-linecap="round" stroke-opacity=".408759" stroke-width="1.3"/><path d="m10 38h9" stroke="#fff" stroke-linecap="round" stroke-opacity=".408759" stroke-width="1.3"/><path d="m21 38h2.5" stroke="#fff" stroke-linecap="round" stroke-opacity=".408759" stroke-width="1.3"/><path d="m25.5 38h6.5" stroke="#fff" stroke-linecap="round" stroke-opacity=".408759" stroke-width="1.3"/><path d="m10 40.5h7" stroke="#fff" stroke-linecap="round" stroke-opacity=".408759" stroke-width="1.3"/><path d="m19 40.5h8.5" stroke="#fff" stroke-linecap="round" stroke-opacity=".408759" stroke-width="1.3"/><path d="m29 40.5h4.5" stroke="#fff" stroke-linecap="round" stroke-opacity=".408759" stroke-width="1.3"/><path d="m10 43h2.5" stroke="#fff" stroke-linecap="round" stroke-opacity=".408759" stroke-width="1.3"/><path d="m14 43h9" stroke="#fff" stroke-linecap="round" stroke-opacity=".408759" stroke-width="1.3"/></g><path d="m30.158087 26.889569q.03936 2.578361-1.338387 4.408801-.905378 1.239976-2.558679 1.751711-.885697.275551-2.066625.275551-2.184719 0-3.621516-1.082519-1.200611-.885696-1.909168-2.401222-.688875-1.535207-.806968-3.503422l3.542786-.255868q.236186 2.145354 1.141565 3.109779.669193.72824 1.535208.688876 1.220293-.03937 1.948532-1.200612.373961-.570782.373961-1.633618 0-1.535207-1.397432-3.050733-1.102201-1.043154-3.306601-3.129462-1.850122-1.791075-2.617726-3.20819-.82665-1.594254-.82665-3.464058 0-3.365647 2.263447-5.0976764 1.397432-1.0431539 3.464058-1.0431539 1.987897 0 3.405012.8856967 1.1022.6888752 1.771393 1.9288506.688875 1.239975.82665 2.853912l-3.562469.64951q-.157457-1.515525-.866014-2.361857-.511736-.610147-1.476161-.610147-1.023472 0-1.55489.905379-.433007.728239-.433007 1.810757 0 1.692665 1.456479 3.444376.5511.669194 1.6533 1.574572 1.299022 1.082519 1.712347 1.515526 1.37775 1.37775 2.125672 2.716136.354279.629829.570782 1.161247.531418 1.318704.551101 2.361858z" fill="#fff"/></svg>