<?xml version="1.0" encoding="UTF-8" standalone="no"?>
<svg
   xmlns:dc="http://purl.org/dc/elements/1.1/"
   xmlns:cc="http://creativecommons.org/ns#"
   xmlns:rdf="http://www.w3.org/1999/02/22-rdf-syntax-ns#"
   xmlns:svg="http://www.w3.org/2000/svg"
   xmlns="http://www.w3.org/2000/svg"
   xmlns:sodipodi="http://sodipodi.sourceforge.net/DTD/sodipodi-0.dtd"
   xmlns:inkscape="http://www.inkscape.org/namespaces/inkscape"
   height="48"
   width="48"
   version="1.1"
   id="svg10"
   sodipodi:docname="pcmanfm.svg"
   inkscape:version="1.0.2 (e86c870879, 2021-01-15)">
  <metadata
     id="metadata16">
    <rdf:RDF>
      <cc:Work
         rdf:about="">
        <dc:format>image/svg+xml</dc:format>
        <dc:type
           rdf:resource="http://purl.org/dc/dcmitype/StillImage" />
        <dc:title />
      </cc:Work>
    </rdf:RDF>
  </metadata>
  <defs
     id="defs14" />
  <sodipodi:namedview
     pagecolor="#ffffff"
     bordercolor="#666666"
     borderopacity="1"
     objecttolerance="10"
     gridtolerance="10"
     guidetolerance="10"
     inkscape:pageopacity="0"
     inkscape:pageshadow="2"
     inkscape:window-width="1920"
     inkscape:window-height="1031"
     id="namedview12"
     showgrid="false"
     inkscape:zoom="4.0104166"
     inkscape:cx="62.542232"
     inkscape:cy="52.573225"
     inkscape:window-x="0"
     inkscape:window-y="24"
     inkscape:window-maximized="1"
     inkscape:current-layer="svg10"
     inkscape:document-rotation="0" />
  <path
     d="m44.322082 27.405077a19.729762 19.729765 0 0 1 -19.729762 19.729765 19.729762 19.729765 0 0 1 -19.7297621-19.729765 19.729762 19.729765 0 0 1 19.7297621-19.7297632 19.729762 19.729765 0 0 1 19.729762 19.7297632z"
     fill="#73517c"
     opacity=".99"
     transform="matrix(1.1503549 0 0 1.1503549 -4.486125 -7.525565)"
     id="path2"
     style="fill:#6ba3cc;fill-opacity:1" />
  <path
     inkscape:connector-curvature="0"
     d="m 34.153301,13.91847 c 0,-2.685946 -1.066982,-5.2618303 -2.966228,-7.1610768 -1.899246,-1.899247 -4.475132,-2.9662323 -7.161083,-2.9662323 -2.57e-4,0 -5.07e-4,0 -6.35e-4,0 -2.685953,0 -5.261837,1.0669853 -7.161084,2.9662323 -1.899246,1.8992465 -2.966225,4.4751308 -2.966225,7.1610768 0,8.635943 0,19.662188 0,19.662188 H 34.153301 Z M 31.226875,30.654234 V 13.91847 c 0,-1.90987 -0.758674,-3.741409 -2.109136,-5.0918753 -1.350334,-1.3504595 -3.182006,-2.1090085 -5.091749,-2.1090085 -2.57e-4,0 -5.07e-4,0 -6.35e-4,0 -1.90987,0 -3.741416,0.758549 -5.091876,2.1090085 C 17.58302,10.177061 16.824342,12.0086 16.824342,13.91847 v 16.735764 z"
     style="clip-rule:evenodd;fill:#ffffff;fill-rule:evenodd;stroke-width:0.127982;stroke-linecap:round;stroke-linejoin:round;stroke-miterlimit:1.5;fill-opacity:0.70291811"
     id="path11" />
  <path
     inkscape:connector-curvature="0"
     d="m 3.7703516,23.827825 c 0,10.778992 9.0760664,19.530116 20.2552604,19.530116 11.179186,0 20.255383,-8.751124 20.255383,-19.530116 -6.743349,-0.01358 -13.498088,-0.02445 -20.255383,-0.02445 -6.757303,0 -13.511911,0.01087 -20.2552604,0.02445 z"
     style="clip-rule:evenodd;fill:#ffffff;fill-rule:evenodd;stroke-width:0.127982;stroke-linecap:round;stroke-linejoin:round;stroke-miterlimit:1.5;fill-opacity:1"
     id="path19" />
  <rect
     style="fill:#6ba3cc;fill-opacity:0.992157;stroke-width:1.88976;stroke-linecap:round;stroke-linejoin:round;paint-order:stroke markers fill"
     id="rect885"
     width="10.228012"
     height="3.0895965"
     x="18.689764"
     y="29.659004" />
</svg>
