<svg height="48" width="48" xmlns="http://www.w3.org/2000/svg" xmlns:xlink="http://www.w3.org/1999/xlink"><clipPath id="a"><rect height="37" ry="1" width="40" x="4" y="10"/></clipPath><g fill="#fff"><path d="m12.99877 32v-2l2-1 1-1h5l1 1 2 1v2z" fill-opacity=".96831" fill-rule="evenodd"/><path d="m23 26.000001a4.5002861 4.5002861 0 0 1 -4.701972 4.280497 4.5002861 4.5002861 0 0 1 -4.289075-4.694149 4.5002861 4.5002861 0 0 1 4.686312-4.297638 4.5002861 4.5002861 0 0 1 4.306185 4.678458"/><path d="m28.000001 18a3 3 0 0 1 -3.134449 2.853483 3 3 0 0 1 -2.859201-3.129234 3 3 0 0 1 3.124009-2.864909 3 3 0 0 1 2.870608 3.118773" fill-opacity=".947183"/><path d="m34.000001 21a2 2 0 0 1 -2.089633 1.902323 2 2 0 0 1 -1.906134-2.086156 2 2 0 0 1 2.082673-1.90994 2 2 0 0 1 1.913738 2.079182" fill-opacity=".950704"/></g><path d="m18 26 7-8 7 3" fill="none" stroke="#fafafa" stroke-width="3"/><path d="m30 24v2l-3 2 1 4h1v-4h2l1 3h1l1-3h2v4h1l1-4-3-2v-2z" fill="#fff" fill-rule="evenodd"/><rect fill="#59b67e" height="28" ry="1" width="40" x="4" y="10"/><path clip-path="url(#a)" d="m4 10v35l40-35z" fill="#77c396" fill-rule="evenodd"/><path d="m15.997539 26a3 3 0 0 1 -3.134449 2.853483 3 3 0 0 1 -2.859201-3.129234 3 3 0 0 1 3.124009-2.864909 3 3 0 0 1 2.870608 3.118773" fill="#fff"/><path d="m27.998773 26a3 3 0 0 1 -3.134449 2.853483 3 3 0 0 1 -2.859202-3.129234 3 3 0 0 1 3.124009-2.864909 3 3 0 0 1 2.870608 3.118773" fill="#fff"/><path d="m39.999999 26a3 3 0 0 1 -3.134449 2.853483 3 3 0 0 1 -2.859201-3.129234 3 3 0 0 1 3.124009-2.864909 3 3 0 0 1 2.870608 3.118773" fill="#fff"/></svg>