<svg height="48" width="48" xmlns="http://www.w3.org/2000/svg" xmlns:xlink="http://www.w3.org/1999/xlink"><clipPath id="a"><rect height="30.112698" ry="1.530404" width="38" x="5" y="16.887302"/></clipPath><rect fill="#efbd9c" height="30.112698" ry="1.530404" width="38" x="5" y="16.887302"/><rect fill="#efbd9c" height="30.112698" ry="1.530404" width="38" x="5" y="16.887302"/><rect fill="#515b6a" height="30.112698" ry="1.530404" width="38" x="5" y="16.887302"/><rect fill="#c8c4b7" height="37" ry="2" width="25" x="11" y="6"/><g fill-rule="evenodd"><g clip-path="url(#a)"><path d="m43 17-38.0000001 30h38.0000001z" fill="#7b889a"/><path d="m5 17 38 30h-38z" fill="#a0a9b6"/></g><path d="m29 8c-2.115329.1145515-2.922515 1.6067547-4 4v-1c-2.897353 2.100313-2.353593 3.414148-3 5v-1c-1.766663 2.990762-1.369834 4.032876-2 6l7-10-6 10c2.253175-.598809 4.050453-1.231251 4-2h-1c1.208746-.55506 2.504026-1.063854 3-2h-1c1.661059-1.312283 2.034394-1.773621 3-4h-1c1.283445-1.268233 1.161062-3.1260062 1-5zm-8 13h-1c-1.403148 2.083519-1.422351 3.010095-2 5v1c.557412-2.059468 1.756935-4.313736 3-6z" fill="#fff"/></g></svg>