<svg height="48" width="48" xmlns="http://www.w3.org/2000/svg"><g fill="#7c6f91" opacity=".99" transform="matrix(1.1503549 0 0 1.1503549 -4.486125 -7.525565)"><path d="m44.322082 27.405077a19.729762 19.729765 0 0 1 -19.729762 19.729765 19.729762 19.729765 0 0 1 -19.7297621-19.729765 19.729762 19.729765 0 0 1 19.7297621-19.7297632 19.729762 19.729765 0 0 1 19.729762 19.7297632z"/><path d="m44.322082 27.405077a19.729762 19.729765 0 0 1 -19.729762 19.729765 19.729762 19.729765 0 0 1 -19.7297621-19.729765 19.729762 19.729765 0 0 1 19.7297621-19.7297632 19.729762 19.729765 0 0 1 19.729762 19.7297632z"/></g><g fill="#fff"><path d="m25.289062 12c2.100457-1.486096 3-4.5 3-9-3 4.5-2.88914 6.5797646-3 9z"/><path d="m25.289062 12c1.573243-2.4305132 5.676813-2.4604594 4.5-7.5-3.866089 2.573178-3.6936 5.0214516-4.5 7.5z"/><path d="m24.195312 13.455078-.40625 3.044922c-.172183.860339-1.09375 1.754687-2.59375 2.054687-13.0368661 3.308855-9.623328 21.816631 5.804688 23.375v-28.474609z" fill-opacity=".129252"/><path d="m24.195312 13.455078-.40625 3.044922c-.172183.860339-1.09375 1.754687-2.59375 2.054688-13.0368661 3.308855-9.623329 21.816631 5.804688 23.375v-7.794922a3.2446785 5.25 0 0 1 -.183594.01172 3.2446785 5.25 0 0 1 -3.244141-5.25 3.2446785 5.25 0 0 1 3.244141-5.25 3.2446785 5.25 0 0 1 .183594.01367v-10.205078z" fill-opacity=".285714"/><path d="m24.195312 13.455078-.40625 3.044922c-.172183.860339-1.09375 1.754687-2.59375 2.054688-13.0368661 3.308855-9.623329 21.816631 5.804688 23.375v-5.66211c-.000673-.000055-.0013.000056-.002 0-3.209645-.267767-5.214843-4.50465-5.214843-7.818359 0-3.313708 3.143775-6.808594 5.214843-6.808594.00067 0 .0013-.000001.002 0v-8.185547z" fill-opacity=".22449"/><path d="m24.195312 13.455078-.40625 3.044922c-.172183.860339-1.09375 1.754687-2.59375 2.054688-13.0368661 3.308855-9.62333 21.816631 5.804688 23.375v-3.47461c-.03523.000902-.06801.0098-.103516.0098-3.727922 0-7.607422-4.994281-7.607422-9.964844 0-4.953272 3.993997-8.898375 7.710938-8.925781v-6.119141z" fill-opacity=".414966"/><path d="m24.195312 13.455078-.40625 3.044922c-.172183.860339-1.09375 1.754687-2.59375 2.054688-13.0368661 3.308855-9.62333 21.816631 5.804688 23.375v-1.63086c-.04297.0017-.07881.01367-.123047.01367-3.727922 0-10.587891-6.01351-10.587891-11.8125s6.91075-10.044922 10.638672-10.044922c.02606 0 .04666.0054.07227.0059v-5.00586z"/></g></svg>