<svg height="48" width="48" xmlns="http://www.w3.org/2000/svg"><path d="m44.322082 27.405077a19.729762 19.729765 0 0 1 -19.729762 19.729765 19.729762 19.729765 0 0 1 -19.7297621-19.729765 19.729762 19.729765 0 0 1 19.7297621-19.7297632 19.729762 19.729765 0 0 1 19.729762 19.7297632z" fill="#6881ca" opacity=".99" transform="matrix(1.1503549 0 0 1.1503549 -4.486125 -7.525565)"/><path d="m26.2982 24.000831 5.2018-9.0655 2.5137 9.0655-2.5137 9.0635zm-2.536 1.999 5.203 8.537-9.061-2.343-6.546-6.194zm5.202-12.538-5.202 9.538h-10.404l6.546-7.194zm7.426 7.454-3.174-11.9160003-11.845 3.1930003-1.753 3.112-3.558-.026-8.6699996 8.723 8.6698996 8.7207h.000426l3.5564-.02656 1.7559 3.1113 11.844 3.1929 3.173-11.914-1.802-3.085 1.802-3.085" fill="#fff"/></svg>