<?xml version="1.0" encoding="UTF-8"?>
<svg xmlns="http://www.w3.org/2000/svg" xmlns:xlink="http://www.w3.org/1999/xlink" width="48px" height="48px" viewBox="0 0 48 48" version="1.1">
<defs>
<linearGradient id="linear0" gradientUnits="userSpaceOnUse" x1="254" y1="233.5" x2="254" y2="254.666672" gradientTransform="matrix(0.093759,0,0,0.093759,-1.488431,20.158177)">
<stop offset="0" style="stop-color:rgb(0%,0%,0%);stop-opacity:0.27451;"/>
<stop offset="1" style="stop-color:rgb(0%,0%,0%);stop-opacity:0;"/>
</linearGradient>
<radialGradient id="radial0" gradientUnits="userSpaceOnUse" cx="450.908936" cy="189.579361" fx="450.908936" fy="189.579361" r="21.166656" gradientTransform="matrix(0.000000261256,-0.117199,-0.210958,-0.000000152308,71.746143,95.392999)">
<stop offset="0" style="stop-color:rgb(0%,0%,0%);stop-opacity:0.313726;"/>
<stop offset="0.222222" style="stop-color:rgb(0%,0%,0%);stop-opacity:0.27451;"/>
<stop offset="1" style="stop-color:rgb(0%,0%,0%);stop-opacity:0;"/>
</radialGradient>
<radialGradient id="radial1" gradientUnits="userSpaceOnUse" cx="450.908936" cy="189.579361" fx="450.908936" fy="189.579361" r="21.166656" gradientTransform="matrix(-0.000000261256,0.117199,0.210958,0.000000152308,-28.085722,-11.291218)">
<stop offset="0" style="stop-color:rgb(0%,0%,0%);stop-opacity:0.313726;"/>
<stop offset="0.222222" style="stop-color:rgb(0%,0%,0%);stop-opacity:0.27451;"/>
<stop offset="1" style="stop-color:rgb(0%,0%,0%);stop-opacity:0;"/>
</radialGradient>
<radialGradient id="radial2" gradientUnits="userSpaceOnUse" cx="450.908936" cy="189.579361" fx="450.908936" fy="189.579361" r="21.166656" gradientTransform="matrix(-0.000000261256,-0.117199,0.210958,-0.000000152308,-28.085722,95.393005)">
<stop offset="0" style="stop-color:rgb(0%,0%,0%);stop-opacity:0.313726;"/>
<stop offset="0.222222" style="stop-color:rgb(0%,0%,0%);stop-opacity:0.27451;"/>
<stop offset="1" style="stop-color:rgb(0%,0%,0%);stop-opacity:0;"/>
</radialGradient>
<radialGradient id="radial3" gradientUnits="userSpaceOnUse" cx="450.908936" cy="189.579361" fx="450.908936" fy="189.579361" r="21.166656" gradientTransform="matrix(0.000000261256,0.117199,-0.210958,0.000000152308,71.746137,-11.291218)">
<stop offset="0" style="stop-color:rgb(0%,0%,0%);stop-opacity:0.313726;"/>
<stop offset="0.222222" style="stop-color:rgb(0%,0%,0%);stop-opacity:0.27451;"/>
<stop offset="1" style="stop-color:rgb(0%,0%,0%);stop-opacity:0;"/>
</radialGradient>
<linearGradient id="linear1" gradientUnits="userSpaceOnUse" x1="940" y1="1695.118164" x2="940" y2="175.118118" gradientTransform="matrix(0.0248071,0,0,0.0248071,-1.488424,0.00000000000000282)">
<stop offset="0" style="stop-color:rgb(74.117649%,74.117649%,74.117649%);stop-opacity:1;"/>
<stop offset="1" style="stop-color:rgb(87.843138%,87.843138%,87.843138%);stop-opacity:1;"/>
</linearGradient>
<linearGradient id="linear2" gradientUnits="userSpaceOnUse" x1="940" y1="1695.118164" x2="940" y2="175.118118" gradientTransform="matrix(0.0248071,0,0,0.0248071,-1.488424,0.00000000000000282)">
<stop offset="0" style="stop-color:rgb(25.882354%,25.882354%,25.882354%);stop-opacity:1;"/>
<stop offset="1" style="stop-color:rgb(38.039216%,38.039216%,38.039216%);stop-opacity:1;"/>
</linearGradient>
<linearGradient id="linear3" gradientUnits="userSpaceOnUse" x1="243.416672" y1="127.666656" x2="243.416672" y2="-94.583321" gradientTransform="matrix(-0.093759,0,0,0.093759,45.148839,20.158175)">
<stop offset="0" style="stop-color:rgb(25.882354%,25.882354%,25.882354%);stop-opacity:1;"/>
<stop offset="1" style="stop-color:rgb(38.039216%,38.039216%,38.039216%);stop-opacity:1;"/>
</linearGradient>
<linearGradient id="linear4" gradientUnits="userSpaceOnUse" x1="254" y1="85.333336" x2="254" y2="-136.916656" gradientTransform="matrix(-0.093759,0,0,0.093759,45.148839,24.127304)">
<stop offset="0" style="stop-color:rgb(25.882354%,25.882354%,25.882354%);stop-opacity:1;"/>
<stop offset="1" style="stop-color:rgb(38.039216%,38.039216%,38.039216%);stop-opacity:1;"/>
</linearGradient>
<linearGradient id="linear5" gradientUnits="userSpaceOnUse" x1="248.708344" y1="43" x2="248.708344" y2="-179.25" gradientTransform="matrix(0.093759,0,0,0.093759,-1.488426,28.096433)">
<stop offset="0" style="stop-color:rgb(25.882354%,25.882354%,25.882354%);stop-opacity:1;"/>
<stop offset="1" style="stop-color:rgb(38.039216%,38.039216%,38.039216%);stop-opacity:1;"/>
</linearGradient>
<linearGradient id="linear6" gradientUnits="userSpaceOnUse" x1="248.708344" y1="0.666667" x2="248.708344" y2="-221.583328" gradientTransform="matrix(0.093759,0,0,0.093759,-1.488426,32.065562)">
<stop offset="0" style="stop-color:rgb(25.882354%,25.882354%,25.882354%);stop-opacity:1;"/>
<stop offset="1" style="stop-color:rgb(38.039216%,38.039216%,38.039216%);stop-opacity:1;"/>
</linearGradient>
<radialGradient id="radial4" gradientUnits="userSpaceOnUse" cx="450.908936" cy="189.579361" fx="450.908936" fy="189.579361" r="21.166656" gradientTransform="matrix(0.000000138792,-0.117199,-0.112071,-0.000000152308,61.170214,95.392999)">
<stop offset="0" style="stop-color:rgb(0%,0%,0%);stop-opacity:0.313726;"/>
<stop offset="0.222222" style="stop-color:rgb(0%,0%,0%);stop-opacity:0.27451;"/>
<stop offset="1" style="stop-color:rgb(0%,0%,0%);stop-opacity:0;"/>
</radialGradient>
<radialGradient id="radial5" gradientUnits="userSpaceOnUse" cx="450.908936" cy="189.579361" fx="450.908936" fy="189.579361" r="21.166656" gradientTransform="matrix(-0.000000138792,0.117199,0.112071,0.000000152308,19.204644,-11.291218)">
<stop offset="0" style="stop-color:rgb(0%,0%,0%);stop-opacity:0.313726;"/>
<stop offset="0.222222" style="stop-color:rgb(0%,0%,0%);stop-opacity:0.27451;"/>
<stop offset="1" style="stop-color:rgb(0%,0%,0%);stop-opacity:0;"/>
</radialGradient>
<radialGradient id="radial6" gradientUnits="userSpaceOnUse" cx="450.908936" cy="189.579361" fx="450.908936" fy="189.579361" r="21.166656" gradientTransform="matrix(-0.000000138792,-0.117199,0.112071,-0.000000152308,19.204642,95.392999)">
<stop offset="0" style="stop-color:rgb(0%,0%,0%);stop-opacity:0.313726;"/>
<stop offset="0.222222" style="stop-color:rgb(0%,0%,0%);stop-opacity:0.27451;"/>
<stop offset="1" style="stop-color:rgb(0%,0%,0%);stop-opacity:0;"/>
</radialGradient>
<radialGradient id="radial7" gradientUnits="userSpaceOnUse" cx="450.908936" cy="189.579361" fx="450.908936" fy="189.579361" r="21.166656" gradientTransform="matrix(0.000000138792,0.117199,-0.112071,0.000000152308,61.170214,-11.291215)">
<stop offset="0" style="stop-color:rgb(0%,0%,0%);stop-opacity:0.313726;"/>
<stop offset="0.222222" style="stop-color:rgb(0%,0%,0%);stop-opacity:0.27451;"/>
<stop offset="1" style="stop-color:rgb(0%,0%,0%);stop-opacity:0;"/>
</radialGradient>
<linearGradient id="linear7" gradientUnits="userSpaceOnUse" x1="337.166656" y1="175.291687" x2="361.333313" y2="175.291687" gradientTransform="matrix(1,0,0,1,-191.393127,217.158035)">
<stop offset="0" style="stop-color:rgb(25.882354%,25.882354%,25.882354%);stop-opacity:1;"/>
<stop offset="1" style="stop-color:rgb(38.039216%,38.039216%,38.039216%);stop-opacity:1;"/>
</linearGradient>
<linearGradient id="linear8" gradientUnits="userSpaceOnUse" x1="326.583344" y1="222.916672" x2="371.916687" y2="222.916672" gradientTransform="matrix(0.0662976,-0.0662976,0.0662976,0.0662976,1.708151,47.244133)">
<stop offset="0" style="stop-color:rgb(55.29412%,43.137255%,38.82353%);stop-opacity:1;"/>
<stop offset="1" style="stop-color:rgb(63.137257%,53.333336%,49.803922%);stop-opacity:1;"/>
</linearGradient>
</defs>
<g id="surface1">
<path style=" stroke:none;fill-rule:nonzero;fill:url(#linear0);" d="M 11.410156 42.050781 L 32.25 42.050781 L 32.25 44.035156 L 11.410156 44.035156 Z M 11.410156 42.050781 "/>
<path style=" stroke:none;fill-rule:nonzero;fill:url(#radial0);" d="M 32.25 42.050781 L 36.21875 42.050781 L 36.21875 40.066406 L 32.25 40.066406 Z M 32.25 42.050781 "/>
<path style=" stroke:none;fill-rule:nonzero;fill:url(#radial1);" d="M 11.410156 42.050781 L 7.441406 42.050781 L 7.441406 44.035156 L 11.410156 44.035156 Z M 11.410156 42.050781 "/>
<path style=" stroke:none;fill-rule:nonzero;fill:url(#radial2);" d="M 11.410156 42.050781 L 7.441406 42.050781 L 7.441406 40.066406 L 11.410156 40.066406 Z M 11.410156 42.050781 "/>
<path style=" stroke:none;fill-rule:nonzero;fill:url(#radial3);" d="M 32.25 42.050781 L 36.21875 42.050781 L 36.21875 44.035156 L 32.25 44.035156 Z M 32.25 42.050781 "/>
<path style=" stroke:none;fill-rule:nonzero;fill:url(#linear1);" d="M 9.425781 4.34375 C 8.328125 4.34375 7.441406 5.230469 7.441406 6.328125 L 7.441406 40.066406 C 7.441406 41.164062 8.328125 42.050781 9.425781 42.050781 L 34.234375 42.050781 C 35.332031 42.050781 36.21875 41.164062 36.21875 40.066406 L 36.21875 13.273438 L 27.289062 4.34375 Z M 29.273438 4.34375 L 36.21875 11.289062 L 36.21875 6.328125 C 36.21875 5.230469 35.332031 4.34375 34.234375 4.34375 Z M 29.273438 4.34375 "/>
<path style=" stroke:none;fill-rule:nonzero;fill:url(#linear2);" d="M 29.273438 4.34375 L 36.21875 11.289062 L 36.21875 6.328125 C 36.21875 5.230469 35.332031 4.34375 34.234375 4.34375 Z M 29.273438 4.34375 "/>
<path style=" stroke:none;fill-rule:nonzero;fill:rgb(100%,100%,100%);fill-opacity:0.392157;" d="M 9.425781 4.34375 C 8.328125 4.34375 7.441406 5.230469 7.441406 6.328125 L 7.441406 6.824219 C 7.441406 5.726562 8.328125 4.839844 9.425781 4.839844 L 27.289062 4.839844 L 36.21875 13.769531 L 36.21875 13.273438 L 27.289062 4.34375 Z M 29.273438 4.34375 L 29.769531 4.839844 L 34.234375 4.839844 C 35.332031 4.839844 36.21875 5.726562 36.21875 6.824219 L 36.21875 6.328125 C 36.21875 5.230469 35.332031 4.34375 34.234375 4.34375 Z M 29.273438 4.34375 "/>
<path style=" stroke:none;fill-rule:nonzero;fill:rgb(0%,0%,0%);fill-opacity:0.235294;" d="M 29.273438 4.34375 L 36.21875 11.289062 L 36.21875 10.554688 L 30.007812 4.34375 Z M 7.441406 39.328125 L 7.441406 40.066406 C 7.441406 41.164062 8.328125 42.050781 9.425781 42.050781 L 34.234375 42.050781 C 35.332031 42.050781 36.21875 41.164062 36.21875 40.066406 L 36.21875 39.328125 C 36.21875 40.429688 35.332031 41.316406 34.234375 41.316406 L 9.425781 41.316406 C 8.328125 41.316406 7.441406 40.429688 7.441406 39.328125 Z M 7.441406 39.328125 "/>
<path style=" stroke:none;fill-rule:nonzero;fill:rgb(12.941177%,12.941177%,12.941177%);fill-opacity:1;" d="M 9.425781 4.203125 C 8.25 4.203125 7.300781 5.152344 7.300781 6.328125 L 7.300781 40.066406 C 7.300781 41.242188 8.25 42.191406 9.425781 42.191406 L 34.234375 42.191406 C 35.410156 42.191406 36.359375 41.242188 36.359375 40.066406 L 36.359375 13.273438 C 36.359375 13.238281 36.34375 13.203125 36.316406 13.175781 L 27.386719 4.246094 C 27.359375 4.21875 27.324219 4.203125 27.289062 4.203125 Z M 29.273438 4.203125 C 29.214844 4.203125 29.164062 4.238281 29.140625 4.289062 C 29.121094 4.34375 29.132812 4.402344 29.171875 4.445312 L 36.117188 11.390625 C 36.160156 11.429688 36.21875 11.441406 36.273438 11.421875 C 36.324219 11.398438 36.359375 11.347656 36.359375 11.289062 L 36.359375 6.328125 C 36.359375 5.152344 35.410156 4.203125 34.234375 4.203125 Z M 9.425781 4.484375 L 27.230469 4.484375 L 36.078125 13.332031 L 36.078125 40.066406 C 36.078125 41.089844 35.257812 41.910156 34.234375 41.910156 L 9.425781 41.910156 C 8.402344 41.910156 7.582031 41.089844 7.582031 40.066406 L 7.582031 6.328125 C 7.582031 5.304688 8.402344 4.484375 9.425781 4.484375 Z M 29.613281 4.484375 L 34.234375 4.484375 C 35.257812 4.484375 36.078125 5.304688 36.078125 6.328125 L 36.078125 10.949219 Z M 29.613281 4.484375 "/>
<path style=" stroke:none;fill-rule:nonzero;fill:url(#linear3);" d="M 29.273438 14.265625 L 14.386719 14.265625 C 13.839844 14.265625 13.394531 14.710938 13.394531 15.257812 C 13.394531 15.808594 13.839844 16.25 14.386719 16.25 L 29.273438 16.25 C 29.820312 16.25 30.265625 15.808594 30.265625 15.257812 C 30.265625 14.710938 29.820312 14.265625 29.273438 14.265625 Z M 29.273438 14.265625 "/>
<path style=" stroke:none;fill-rule:nonzero;fill:url(#linear4);" d="M 29.273438 19.226562 L 14.386719 19.226562 C 13.839844 19.226562 13.394531 19.671875 13.394531 20.21875 C 13.394531 20.769531 13.839844 21.214844 14.386719 21.214844 L 29.273438 21.214844 C 29.820312 21.214844 30.265625 20.769531 30.265625 20.21875 C 30.265625 19.671875 29.820312 19.226562 29.273438 19.226562 Z M 29.273438 19.226562 "/>
<path style="fill-rule:nonzero;fill:rgb(56.470591%,64.313728%,68.235296%);fill-opacity:1;stroke-width:3;stroke-linecap:round;stroke-linejoin:round;stroke:rgb(12.941177%,12.941177%,12.941177%);stroke-opacity:1;stroke-miterlimit:4;" d="M 333.38483 48.308189 C 368.464813 48.308189 396.878767 76.722142 396.878767 111.802125 C 396.878767 146.882109 368.464813 175.296062 333.38483 175.296062 C 298.304847 175.296062 269.890893 146.882109 269.890893 111.802125 C 269.890893 76.722142 298.304847 48.308189 333.38483 48.308189 Z M 333.38483 48.308189 " transform="matrix(0.093759,0,0,0.093759,0,20.158175)"/>
<path style=" stroke:none;fill-rule:nonzero;fill:url(#linear5);" d="M 14.386719 24.191406 L 22.824219 24.191406 C 23.371094 24.191406 23.816406 24.5625 23.816406 25.019531 L 23.816406 25.34375 C 23.816406 25.800781 23.371094 26.175781 22.824219 26.175781 L 14.386719 26.175781 C 13.839844 26.175781 13.394531 25.800781 13.394531 25.34375 L 13.394531 25.019531 C 13.394531 24.5625 13.839844 24.191406 14.386719 24.191406 Z M 14.386719 24.191406 "/>
<path style=" stroke:none;fill-rule:nonzero;fill:url(#linear6);" d="M 14.386719 29.152344 L 21.335938 29.152344 C 21.882812 29.152344 22.328125 29.59375 22.328125 30.144531 C 22.328125 30.691406 21.882812 31.136719 21.335938 31.136719 L 14.386719 31.136719 C 13.839844 31.136719 13.394531 30.691406 13.394531 30.144531 C 13.394531 29.59375 13.839844 29.152344 14.386719 29.152344 Z M 14.386719 29.152344 "/>
<path style=" stroke:none;fill-rule:nonzero;fill:url(#radial4);" d="M 40.1875 42.050781 L 42.296875 42.050781 L 42.296875 40.066406 L 40.1875 40.066406 Z M 40.1875 42.050781 "/>
<path style=" stroke:none;fill-rule:nonzero;fill:url(#radial5);" d="M 40.1875 42.050781 L 38.078125 42.050781 L 38.078125 44.035156 L 40.1875 44.035156 Z M 40.1875 42.050781 "/>
<path style=" stroke:none;fill-rule:nonzero;fill:url(#radial6);" d="M 40.1875 42.050781 L 38.078125 42.050781 L 38.078125 40.066406 L 40.1875 40.066406 Z M 40.1875 42.050781 "/>
<path style=" stroke:none;fill-rule:nonzero;fill:url(#radial7);" d="M 40.1875 42.050781 L 42.296875 42.050781 L 42.296875 44.035156 L 40.1875 44.035156 Z M 40.1875 42.050781 "/>
<path style="fill-rule:nonzero;fill:url(#linear7);stroke-width:3;stroke-linecap:round;stroke-linejoin:round;stroke:rgb(12.941177%,12.941177%,12.941177%);stroke-opacity:1;stroke-miterlimit:4;" d="M 147.284903 376.572271 L 168.437161 376.572271 L 168.437161 408.330117 L 147.284903 408.330117 Z M 147.284903 376.572271 " transform="matrix(0.0662976,-0.0662976,0.0662976,0.0662976,0,20.158175)"/>
<path style=" stroke:none;fill-rule:nonzero;fill:url(#linear8);" d="M 36.835938 37.464844 L 38.238281 36.0625 C 38.625 35.675781 39.253906 35.675781 39.640625 36.0625 L 42.449219 38.867188 C 42.835938 39.257812 42.835938 39.882812 42.449219 40.273438 L 41.042969 41.675781 C 40.65625 42.0625 40.027344 42.0625 39.640625 41.675781 L 36.835938 38.867188 C 36.449219 38.480469 36.449219 37.851562 36.835938 37.464844 Z M 36.835938 37.464844 "/>
<path style=" stroke:none;fill-rule:nonzero;fill:rgb(25.882354%,25.882354%,25.882354%);fill-opacity:1;" d="M 31.257812 23.699219 C 27.410156 23.699219 24.3125 26.800781 24.3125 30.648438 C 24.3125 34.496094 27.410156 37.59375 31.257812 37.59375 C 35.105469 37.59375 38.203125 34.496094 38.203125 30.648438 C 38.203125 26.800781 35.105469 23.699219 31.257812 23.699219 Z M 31.257812 25.683594 C 34.003906 25.683594 36.21875 27.898438 36.21875 30.648438 C 36.21875 33.394531 34.003906 35.609375 31.257812 35.609375 C 28.507812 35.609375 26.296875 33.394531 26.296875 30.648438 C 26.296875 27.898438 28.507812 25.683594 31.257812 25.683594 Z M 31.257812 25.683594 "/>
<path style=" stroke:none;fill-rule:nonzero;fill:rgb(92.54902%,93.725491%,94.509804%);fill-opacity:0.392157;" d="M 34.707031 28.671875 C 34.722656 28.828125 34.730469 28.988281 34.730469 29.152344 C 34.730469 31.898438 32.515625 34.113281 29.769531 34.113281 C 29.605469 34.113281 29.445312 34.105469 29.289062 34.089844 C 29.867188 34.421875 30.539062 34.609375 31.257812 34.609375 C 33.457031 34.609375 35.226562 32.839844 35.226562 30.640625 C 35.226562 29.921875 35.039062 29.25 34.707031 28.671875 Z M 34.707031 28.671875 "/>
<path style=" stroke:none;fill-rule:nonzero;fill:rgb(100%,100%,100%);fill-opacity:0.235294;" d="M 31.257812 23.699219 C 35.105469 23.699219 38.203125 26.800781 38.203125 30.648438 C 38.203125 30.730469 38.199219 30.808594 38.199219 30.890625 C 38.070312 27.15625 35.023438 24.191406 31.257812 24.191406 C 27.492188 24.191406 24.445312 27.15625 24.316406 30.890625 C 24.3125 30.808594 24.3125 30.730469 24.3125 30.648438 C 24.3125 26.800781 27.410156 23.699219 31.257812 23.699219 Z M 36.210938 30.890625 C 36.214844 30.972656 36.21875 31.054688 36.21875 31.136719 C 36.21875 33.882812 34.003906 36.097656 31.257812 36.097656 C 28.507812 36.097656 26.296875 33.882812 26.296875 31.136719 C 26.296875 31.054688 26.296875 30.972656 26.300781 30.890625 C 26.429688 33.527344 28.589844 35.609375 31.257812 35.609375 C 33.921875 35.609375 36.085938 33.527344 36.210938 30.890625 Z M 36.210938 30.890625 "/>
<path style=" stroke:none;fill-rule:nonzero;fill:rgb(0%,0%,0%);fill-opacity:0.235294;" d="M 31.257812 25.597656 C 34.003906 25.597656 36.21875 27.8125 36.21875 30.558594 C 36.21875 30.699219 36.210938 30.835938 36.203125 30.972656 C 35.992188 28.417969 33.867188 26.421875 31.257812 26.421875 C 28.648438 26.421875 26.519531 28.417969 26.3125 30.972656 C 26.300781 30.835938 26.296875 30.699219 26.296875 30.558594 C 26.296875 27.8125 28.507812 25.597656 31.257812 25.597656 Z M 24.324219 30.972656 C 24.535156 34.625 27.546875 37.503906 31.257812 37.503906 C 33.203125 37.503906 34.960938 36.710938 36.21875 35.429688 L 36.21875 36.253906 C 34.960938 37.535156 33.203125 38.328125 31.257812 38.328125 C 27.410156 38.328125 24.3125 35.230469 24.3125 31.382812 C 24.3125 31.246094 24.316406 31.109375 24.324219 30.972656 Z M 24.324219 30.972656 "/>
<path style="fill:none;stroke-width:3;stroke-linecap:round;stroke-linejoin:round;stroke:rgb(12.941177%,12.941177%,12.941177%);stroke-opacity:1;stroke-miterlimit:4;" d="M 333.38483 37.767529 C 292.347082 37.767529 259.308571 70.847703 259.308571 111.885451 C 259.308571 152.923198 292.347082 185.96171 333.38483 185.96171 C 374.422578 185.96171 407.461089 152.923198 407.461089 111.885451 C 407.461089 70.847703 374.422578 37.767529 333.38483 37.767529 Z M 333.38483 58.932174 C 362.6737 58.932174 386.296444 82.554918 386.296444 111.885451 C 386.296444 141.17432 362.6737 164.797065 333.38483 164.797065 C 304.054298 164.797065 280.473216 141.17432 280.473216 111.885451 C 280.473216 82.554918 304.054298 58.932174 333.38483 58.932174 Z M 333.38483 58.932174 " transform="matrix(0.093759,0,0,0.093759,0,20.158175)"/>
<path style=" stroke:none;fill-rule:nonzero;fill:rgb(100%,100%,100%);fill-opacity:0.392157;" d="M 38.941406 35.769531 C 39.195312 35.769531 39.445312 35.867188 39.640625 36.0625 L 42.449219 38.867188 C 42.707031 39.125 42.792969 39.488281 42.707031 39.816406 C 42.667969 39.648438 42.578125 39.488281 42.449219 39.355469 L 39.640625 36.550781 C 39.253906 36.160156 38.625 36.160156 38.238281 36.550781 L 36.835938 37.953125 C 36.703125 38.085938 36.617188 38.242188 36.574219 38.410156 C 36.492188 38.082031 36.578125 37.722656 36.835938 37.464844 L 38.238281 36.0625 C 38.433594 35.867188 38.6875 35.769531 38.941406 35.769531 Z M 38.941406 35.769531 "/>
<path style=" stroke:none;fill-rule:nonzero;fill:rgb(0%,0%,0%);fill-opacity:0.235294;" d="M 36.570312 37.941406 C 36.609375 38.117188 36.699219 38.28125 36.835938 38.417969 L 39.640625 41.226562 C 40.03125 41.613281 40.65625 41.613281 41.042969 41.226562 L 42.449219 39.820312 C 42.585938 39.683594 42.671875 39.519531 42.714844 39.34375 C 42.789062 39.667969 42.699219 40.019531 42.449219 40.273438 L 41.042969 41.675781 C 40.65625 42.0625 40.03125 42.0625 39.640625 41.675781 L 36.835938 38.867188 C 36.582031 38.617188 36.496094 38.265625 36.570312 37.941406 Z M 36.570312 37.941406 "/>
<path style="fill:none;stroke-width:3;stroke-linecap:round;stroke-linejoin:round;stroke:rgb(12.941177%,12.941177%,12.941177%);stroke-opacity:1;stroke-miterlimit:4;" d="M 147.284903 408.330117 L 168.437161 408.330117 C 174.270235 408.330117 179.01329 413.073172 179.01329 418.906246 L 179.04275 461.240222 C 179.01329 467.102756 174.299695 471.816351 168.437161 471.845811 L 147.255443 471.816351 C 141.422369 471.816351 136.679314 467.073296 136.679314 461.240222 L 136.708774 418.906246 C 136.708774 413.073172 141.451829 408.330117 147.284903 408.330117 Z M 147.284903 408.330117 " transform="matrix(0.0662976,-0.0662976,0.0662976,0.0662976,0,20.158175)"/>
<path style=" stroke:none;fill-rule:nonzero;fill:rgb(100%,100%,100%);fill-opacity:0.235294;" d="M 29.273438 14.265625 C 29.820312 14.265625 30.265625 14.710938 30.265625 15.257812 C 30.265625 15.34375 30.253906 15.429688 30.234375 15.507812 C 30.125 15.078125 29.734375 14.761719 29.273438 14.761719 L 14.386719 14.761719 C 13.925781 14.761719 13.535156 15.078125 13.425781 15.507812 C 13.40625 15.429688 13.394531 15.34375 13.394531 15.257812 C 13.394531 14.710938 13.839844 14.265625 14.386719 14.265625 Z M 29.273438 14.265625 "/>
<path style=" stroke:none;fill-rule:nonzero;fill:rgb(100%,100%,100%);fill-opacity:0.235294;" d="M 29.273438 19.226562 C 29.820312 19.226562 30.265625 19.671875 30.265625 20.21875 C 30.265625 20.304688 30.253906 20.390625 30.234375 20.46875 C 30.125 20.039062 29.734375 19.722656 29.273438 19.722656 L 14.386719 19.722656 C 13.925781 19.722656 13.535156 20.039062 13.425781 20.46875 C 13.40625 20.390625 13.394531 20.304688 13.394531 20.21875 C 13.394531 19.671875 13.839844 19.226562 14.386719 19.226562 Z M 29.273438 19.226562 "/>
<path style=" stroke:none;fill-rule:nonzero;fill:rgb(100%,100%,100%);fill-opacity:0.235294;" d="M 22.824219 24.191406 C 23.371094 24.191406 23.816406 24.5625 23.816406 25.019531 L 23.816406 25.34375 C 23.816406 25.371094 23.8125 25.402344 23.808594 25.429688 C 23.757812 25.011719 23.335938 24.6875 22.824219 24.6875 L 14.386719 24.6875 C 13.875 24.6875 13.453125 25.011719 13.402344 25.429688 C 13.398438 25.402344 13.394531 25.371094 13.394531 25.34375 L 13.394531 25.019531 C 13.394531 24.5625 13.839844 24.191406 14.386719 24.191406 Z M 22.824219 24.191406 "/>
<path style=" stroke:none;fill-rule:nonzero;fill:rgb(100%,100%,100%);fill-opacity:0.235294;" d="M 21.335938 29.152344 C 21.882812 29.152344 22.328125 29.59375 22.328125 30.144531 C 22.328125 30.230469 22.316406 30.3125 22.296875 30.390625 C 22.1875 29.960938 21.796875 29.648438 21.335938 29.648438 L 14.386719 29.648438 C 13.925781 29.648438 13.535156 29.960938 13.425781 30.390625 C 13.40625 30.3125 13.394531 30.230469 13.394531 30.144531 C 13.394531 29.59375 13.839844 29.152344 14.386719 29.152344 Z M 21.335938 29.152344 "/>
<path style=" stroke:none;fill-rule:nonzero;fill:rgb(0%,0%,0%);fill-opacity:0.235294;" d="M 29.273438 16.746094 C 29.820312 16.746094 30.265625 16.304688 30.265625 15.753906 C 30.265625 15.667969 30.253906 15.585938 30.234375 15.507812 C 30.125 15.9375 29.734375 16.25 29.273438 16.25 L 14.386719 16.25 C 13.925781 16.25 13.535156 15.9375 13.425781 15.507812 C 13.40625 15.585938 13.394531 15.667969 13.394531 15.753906 C 13.394531 16.304688 13.839844 16.746094 14.386719 16.746094 Z M 29.273438 16.746094 "/>
<path style=" stroke:none;fill-rule:nonzero;fill:rgb(0%,0%,0%);fill-opacity:0.235294;" d="M 29.273438 21.710938 C 29.820312 21.710938 30.265625 21.265625 30.265625 20.71875 C 30.265625 20.632812 30.253906 20.546875 30.234375 20.46875 C 30.125 20.898438 29.734375 21.214844 29.273438 21.214844 L 14.386719 21.214844 C 13.925781 21.214844 13.535156 20.898438 13.425781 20.46875 C 13.40625 20.546875 13.394531 20.632812 13.394531 20.71875 C 13.394531 21.265625 13.839844 21.710938 14.386719 21.710938 Z M 29.273438 21.710938 "/>
<path style=" stroke:none;fill-rule:nonzero;fill:rgb(0%,0%,0%);fill-opacity:0.235294;" d="M 22.824219 26.671875 C 23.371094 26.671875 23.816406 26.300781 23.816406 25.839844 L 23.816406 25.515625 C 23.816406 25.488281 23.8125 25.457031 23.808594 25.429688 C 23.757812 25.847656 23.335938 26.175781 22.824219 26.175781 L 14.386719 26.175781 C 13.875 26.175781 13.453125 25.847656 13.402344 25.429688 C 13.398438 25.457031 13.394531 25.488281 13.394531 25.515625 L 13.394531 25.839844 C 13.394531 26.300781 13.839844 26.671875 14.386719 26.671875 Z M 22.824219 26.671875 "/>
<path style=" stroke:none;fill-rule:nonzero;fill:rgb(0%,0%,0%);fill-opacity:0.235294;" d="M 21.335938 31.632812 C 21.882812 31.632812 22.328125 31.1875 22.328125 30.640625 C 22.328125 30.554688 22.316406 30.472656 22.296875 30.390625 C 22.1875 30.820312 21.796875 31.136719 21.335938 31.136719 L 14.386719 31.136719 C 13.925781 31.136719 13.535156 30.820312 13.425781 30.390625 C 13.40625 30.472656 13.394531 30.554688 13.394531 30.640625 C 13.394531 31.1875 13.839844 31.632812 14.386719 31.632812 Z M 21.335938 31.632812 "/>
<path style="fill:none;stroke-width:3;stroke-linecap:round;stroke-linejoin:round;stroke:rgb(12.941177%,12.941177%,12.941177%);stroke-opacity:1;stroke-miterlimit:4;" d="M -312.220184 -62.847863 L -153.44368 -62.847863 C -147.610904 -62.847863 -142.861357 -58.098317 -142.861357 -52.26554 C -142.861357 -46.391101 -147.610904 -41.683218 -153.44368 -41.683218 L -312.220184 -41.683218 C -318.052961 -41.683218 -322.802507 -46.391101 -322.802507 -52.26554 C -322.802507 -58.098317 -318.052961 -62.847863 -312.220184 -62.847863 Z M -312.220184 -62.847863 " transform="matrix(-0.093759,0,0,0.093759,0,20.158175)"/>
<path style="fill:none;stroke-width:3;stroke-linecap:round;stroke-linejoin:round;stroke:rgb(12.941177%,12.941177%,12.941177%);stroke-opacity:1;stroke-miterlimit:4;" d="M -312.220184 -9.936249 L -153.44368 -9.936249 C -147.610904 -9.936249 -142.861357 -5.186703 -142.861357 0.646073 C -142.861357 6.520513 -147.610904 11.270059 -153.44368 11.270059 L -312.220184 11.270059 C -318.052961 11.270059 -322.802507 6.520513 -322.802507 0.646073 C -322.802507 -5.186703 -318.052961 -9.936249 -312.220184 -9.936249 Z M -312.220184 -9.936249 " transform="matrix(-0.093759,0,0,0.093759,0,20.158175)"/>
<path style="fill:none;stroke-width:3;stroke-linecap:round;stroke-linejoin:round;stroke:rgb(12.941177%,12.941177%,12.941177%);stroke-opacity:1;stroke-miterlimit:4;" d="M 153.44368 43.017027 L 243.435086 43.017027 C 249.267863 43.017027 254.017409 46.974983 254.017409 51.849517 L 254.017409 55.30752 C 254.017409 60.182055 249.267863 64.181673 243.435086 64.181673 L 153.44368 64.181673 C 147.610904 64.181673 142.861357 60.182055 142.861357 55.30752 L 142.861357 51.849517 C 142.861357 46.974983 147.610904 43.017027 153.44368 43.017027 Z M 153.44368 43.017027 " transform="matrix(0.093759,0,0,0.093759,0,20.158175)"/>
<path style="fill:none;stroke-width:3;stroke-linecap:round;stroke-linejoin:round;stroke:rgb(12.941177%,12.941177%,12.941177%);stroke-opacity:1;stroke-miterlimit:4;" d="M 153.44368 95.928641 L 227.561602 95.928641 C 233.394379 95.928641 238.143925 100.636525 238.143925 106.510964 C 238.143925 112.34374 233.394379 117.093287 227.561602 117.093287 L 153.44368 117.093287 C 147.610904 117.093287 142.861357 112.34374 142.861357 106.510964 C 142.861357 100.636525 147.610904 95.928641 153.44368 95.928641 Z M 153.44368 95.928641 " transform="matrix(0.093759,0,0,0.093759,0,20.158175)"/>
</g>
</svg>
