<svg height="48" width="48" xmlns="http://www.w3.org/2000/svg"><path d="m44.322082 27.405077a19.729762 19.729765 0 0 1 -19.729762 19.729765 19.729762 19.729765 0 0 1 -19.7297621-19.729765 19.729762 19.729765 0 0 1 19.7297621-19.7297632 19.729762 19.729765 0 0 1 19.729762 19.7297632z" fill="#d1a93e" opacity=".99" transform="matrix(1.1503549 0 0 1.1503549 -4.486125 -7.525565)"/><path d="m12.434666 22.083473c-.538965-4.152572 2.324549-9.415962 6.859064-9.415962 13.216298 0 1.528834 15.96735 2.61525 17.10257 1.060954 1.060953 2.954756-.663096 4.219412-2.589788 1.082173-1.686916 1.968069-3.476744 3.954174-2.502789 2.213149 1.089599 2.225877 3.18286 3.319723 5.458606 1.093847 2.271502 2.208904 3.518121 3.319723 4.363702 3.796095 4.132413-3.145728 4.889934-5.222012 1.500188-2.15904-3.029023-1.098087-5.163661-5.200794-.460454-6.502584 8.118416-12.858756-4.708512-13.856052-13.457134m.0042 0" fill="#fff"/></svg>