<?xml version="1.0" encoding="UTF-8" standalone="no"?>
<svg
   xmlns:dc="http://purl.org/dc/elements/1.1/"
   xmlns:cc="http://creativecommons.org/ns#"
   xmlns:rdf="http://www.w3.org/1999/02/22-rdf-syntax-ns#"
   xmlns:svg="http://www.w3.org/2000/svg"
   xmlns="http://www.w3.org/2000/svg"
   xmlns:sodipodi="http://sodipodi.sourceforge.net/DTD/sodipodi-0.dtd"
   xmlns:inkscape="http://www.inkscape.org/namespaces/inkscape"
   height="48"
   width="48"
   version="1.1"
   id="svg48"
   sodipodi:docname="zeal.svg"
   inkscape:version="0.92.3 (2405546, 2018-03-11)">
  <metadata
     id="metadata54">
    <rdf:RDF>
      <cc:Work
         rdf:about="">
        <dc:format>image/svg+xml</dc:format>
        <dc:type
           rdf:resource="http://purl.org/dc/dcmitype/StillImage" />
        <dc:title></dc:title>
      </cc:Work>
    </rdf:RDF>
  </metadata>
  <defs
     id="defs52">
    <linearGradient
       gradientTransform="matrix(0.093759,0,0,0.093759,-5.72259e-6,20.158178)"
       y2="254.666672"
       x2="254"
       y1="233.5"
       x1="254"
       gradientUnits="userSpaceOnUse"
       id="linear0">
      <stop
         id="stop838"
         style="stop-color:rgb(0%,0%,0%);stop-opacity:0.27451;"
         offset="0" />
      <stop
         id="stop840"
         style="stop-color:rgb(0%,0%,0%);stop-opacity:0;"
         offset="1" />
    </linearGradient>
    <radialGradient
       gradientTransform="matrix(2.61256e-7,-0.117199,-0.210958,-1.52308e-7,75.219128,95.392999)"
       r="21.166656"
       fy="189.579361"
       fx="450.908936"
       cy="189.579361"
       cx="450.908936"
       gradientUnits="userSpaceOnUse"
       id="radial0">
      <stop
         id="stop843"
         style="stop-color:rgb(0%,0%,0%);stop-opacity:0.313726;"
         offset="0" />
      <stop
         id="stop845"
         style="stop-color:rgb(0%,0%,0%);stop-opacity:0.27451;"
         offset="0.222222" />
      <stop
         id="stop847"
         style="stop-color:rgb(0%,0%,0%);stop-opacity:0;"
         offset="1" />
    </radialGradient>
    <radialGradient
       gradientTransform="matrix(-2.61256e-7,0.117199,0.210958,1.52308e-7,-27.589573,-11.29122)"
       r="21.166656"
       fy="189.579361"
       fx="450.908936"
       cy="189.579361"
       cx="450.908936"
       gradientUnits="userSpaceOnUse"
       id="radial1">
      <stop
         id="stop850"
         style="stop-color:rgb(0%,0%,0%);stop-opacity:0.313726;"
         offset="0" />
      <stop
         id="stop852"
         style="stop-color:rgb(0%,0%,0%);stop-opacity:0.27451;"
         offset="0.222222" />
      <stop
         id="stop854"
         style="stop-color:rgb(0%,0%,0%);stop-opacity:0;"
         offset="1" />
    </radialGradient>
    <radialGradient
       gradientTransform="matrix(-2.61256e-7,-0.117199,0.210958,-1.52308e-7,-27.589573,95.392999)"
       r="21.166656"
       fy="189.579361"
       fx="450.908936"
       cy="189.579361"
       cx="450.908936"
       gradientUnits="userSpaceOnUse"
       id="radial2">
      <stop
         id="stop857"
         style="stop-color:rgb(0%,0%,0%);stop-opacity:0.313726;"
         offset="0" />
      <stop
         id="stop859"
         style="stop-color:rgb(0%,0%,0%);stop-opacity:0.27451;"
         offset="0.222222" />
      <stop
         id="stop861"
         style="stop-color:rgb(0%,0%,0%);stop-opacity:0;"
         offset="1" />
    </radialGradient>
    <radialGradient
       gradientTransform="matrix(2.61256e-7,0.117199,-0.210958,1.52308e-7,75.219126,-11.291219)"
       r="21.166656"
       fy="189.579361"
       fx="450.908936"
       cy="189.579361"
       cx="450.908936"
       gradientUnits="userSpaceOnUse"
       id="radial3">
      <stop
         id="stop864"
         style="stop-color:rgb(0%,0%,0%);stop-opacity:0.313726;"
         offset="0" />
      <stop
         id="stop866"
         style="stop-color:rgb(0%,0%,0%);stop-opacity:0.27451;"
         offset="0.222222" />
      <stop
         id="stop868"
         style="stop-color:rgb(0%,0%,0%);stop-opacity:0;"
         offset="1" />
    </radialGradient>
    <linearGradient
       gradientTransform="matrix(0.113024,0,0,0.326118,-8.78102,50.462022)"
       y2="-141.414581"
       x2="305.954559"
       y1="-25.791676"
       x1="306.916656"
       gradientUnits="userSpaceOnUse"
       id="linear1">
      <stop
         id="stop871"
         style="stop-color:rgb(100%,43.921569%,26.274511%);stop-opacity:1;"
         offset="0" />
      <stop
         id="stop873"
         style="stop-color:rgb(100%,54.11765%,39.607844%);stop-opacity:1;"
         offset="1" />
    </linearGradient>
    <linearGradient
       gradientTransform="matrix(4.556143,0,0,13.146184,-353.97266,2034.1802)"
       y2="-141.414581"
       x2="165.484848"
       y1="-25.791672"
       x1="165.484848"
       gradientUnits="userSpaceOnUse"
       id="linear2">
      <stop
         id="stop876"
         style="stop-color:rgb(25.882354%,25.882354%,25.882354%);stop-opacity:1;"
         offset="0" />
      <stop
         id="stop878"
         style="stop-color:rgb(38.039216%,38.039216%,38.039216%);stop-opacity:1;"
         offset="1" />
    </linearGradient>
    <linearGradient
       gradientTransform="matrix(0.093759,0,0,0.093759,1.62515e-7,15.692928)"
       y2="-20.499998"
       x2="105.833344"
       y1="0.666667"
       x1="105.833344"
       gradientUnits="userSpaceOnUse"
       id="linear3">
      <stop
         id="stop881"
         style="stop-color:rgb(25.882354%,25.882354%,25.882354%);stop-opacity:1;"
         offset="0" />
      <stop
         id="stop883"
         style="stop-color:rgb(38.039216%,38.039216%,38.039216%);stop-opacity:1;"
         offset="1" />
    </linearGradient>
    <linearGradient
       gradientTransform="matrix(0.093759,0,0,0.093759,1.62516e-7,32.065585)"
       y2="-20.499998"
       x2="105.833344"
       y1="0.666667"
       x1="105.833344"
       gradientUnits="userSpaceOnUse"
       id="linear4">
      <stop
         id="stop886"
         style="stop-color:rgb(25.882354%,25.882354%,25.882354%);stop-opacity:1;"
         offset="0" />
      <stop
         id="stop888"
         style="stop-color:rgb(38.039216%,38.039216%,38.039216%);stop-opacity:1;"
         offset="1" />
    </linearGradient>
    <linearGradient
       y2="175.118134"
       x2="1040"
       y1="1695.118164"
       x1="1040"
       gradientUnits="userSpaceOnUse"
       id="linear5">
      <stop
         id="stop891"
         style="stop-color:rgb(25.882354%,25.882354%,25.882354%);stop-opacity:1;"
         offset="0" />
      <stop
         id="stop893"
         style="stop-color:rgb(38.039216%,38.039216%,38.039216%);stop-opacity:1;"
         offset="1" />
    </linearGradient>
    <linearGradient
       gradientTransform="matrix(0.093759,0,0,0.093759,0,20.158175)"
       y2="-168.666656"
       x2="275.166656"
       y1="233.5"
       x1="275.166656"
       gradientUnits="userSpaceOnUse"
       id="linear6">
      <stop
         id="stop896"
         style="stop-color:rgb(74.117649%,74.117649%,74.117649%);stop-opacity:1;"
         offset="0" />
      <stop
         id="stop898"
         style="stop-color:rgb(87.843138%,87.843138%,87.843138%);stop-opacity:1;"
         offset="1" />
    </linearGradient>
    <linearGradient
       gradientTransform="matrix(0.093759,0,0,0.093759,-11.375,20.9238)"
       y2="-168.66666"
       x2="275.16666"
       y1="233.5"
       x1="275.16666"
       gradientUnits="userSpaceOnUse"
       id="linear6-3">
      <stop
         id="stop896-6"
         style="stop-color:rgb(74.117649%,74.117649%,74.117649%);stop-opacity:1;"
         offset="0" />
      <stop
         id="stop898-7"
         style="stop-color:rgb(87.843138%,87.843138%,87.843138%);stop-opacity:1;"
         offset="1" />
    </linearGradient>
  </defs>
  <sodipodi:namedview
     pagecolor="#ffffff"
     bordercolor="#666666"
     borderopacity="1"
     objecttolerance="10"
     gridtolerance="10"
     guidetolerance="10"
     inkscape:pageopacity="0"
     inkscape:pageshadow="2"
     inkscape:window-width="1920"
     inkscape:window-height="1029"
     id="namedview50"
     showgrid="true"
     showguides="false"
     inkscape:zoom="13.906433"
     inkscape:cx="4.3626034"
     inkscape:cy="27.990468"
     inkscape:window-x="0"
     inkscape:window-y="25"
     inkscape:window-maximized="1"
     inkscape:current-layer="svg48">
    <inkscape:grid
       type="xygrid"
       id="grid864"
       spacingx="1" />
  </sodipodi:namedview>
  <rect
     fill="#ac9d93"
     height="43"
     ry="1.452703"
     width="43"
     x="2"
     y="3"
     id="rect2"
     style="fill:#6c96b9;fill-opacity:1" />
  <path
     d="m 5,6 h 17.5 l 1,4 0.997437,-4 H 41.915254 V 43 H 24.5 l -1,-5 -1,5 H 5 Z"
     id="path4"
     inkscape:connector-curvature="0"
     style="fill:#ffffff"
     sodipodi:nodetypes="ccccccccccc" />
  <g
     fill="#ac9d93"
     fill-rule="evenodd"
     id="g46"
     style="fill:#6c96b9;fill-opacity:1">
    <path
       d="m27 8a1.0001 1.0001 0 1 0 0 2h7a1.0001 1.0001 0 1 0 0-2z"
       id="path22"
       style="fill:#6c96b9;fill-opacity:1" />
    <path
       d="m27 12.349609a.650391.650391 0 1 0 0 1.300782h11a.650391.650391 0 1 0 0-1.300782z"
       id="path24"
       style="fill:#6c96b9;fill-opacity:1" />
    <path
       d="m27 15.349609a.650391.650391 0 1 0 0 1.300782h3a.650391.650391 0 1 0 0-1.300782z"
       id="path26"
       style="fill:#6c96b9;fill-opacity:1" />
    <path
       d="m33 15.349609a.650391.650391 0 1 0 0 1.300782h3a.650391.650391 0 1 0 0-1.300782z"
       id="path28"
       style="fill:#6c96b9;fill-opacity:1" />
    <path
       d="m27 18.349609a.650391.650391 0 1 0 0 1.300782h7a.650391.650391 0 1 0 0-1.300782z"
       id="path30"
       style="fill:#6c96b9;fill-opacity:1" />
    <path
       d="m37 18.349609a.650391.650391 0 1 0 0 1.300782h1a.650391.650391 0 1 0 0-1.300782z"
       id="path32"
       style="fill:#6c96b9;fill-opacity:1" />
    <path
       d="m27 21.349609a.650391.650391 0 1 0 0 1.300782h3a.650391.650391 0 1 0 0-1.300782z"
       id="path34"
       style="fill:#6c96b9;fill-opacity:1" />
    <path
       d="m33 21.349609a.650391.650391 0 1 0 0 1.300782h2a.650391.650391 0 1 0 0-1.300782z"
       id="path36"
       style="fill:#6c96b9;fill-opacity:1" />
    <path
       d="m38 21.349609a.650391.650391 0 1 0 0 1.300782h1a.650391.650391 0 1 0 0-1.300782z"
       id="path38"
       style="fill:#6c96b9;fill-opacity:1" />
    <path
       d="m27 24.349609a.650391.650391 0 1 0 0 1.300782h9a.650391.650391 0 1 0 0-1.300782z"
       id="path40"
       style="fill:#6c96b9;fill-opacity:1" />
    <path
       d="m27 27.349609a.650391.650391 0 1 0 0 1.300782h4a.650391.650391 0 1 0 0-1.300782z"
       id="path42"
       style="fill:#6c96b9;fill-opacity:1" />
    <path
       d="m35 27.349609a.650391.650391 0 1 0 0 1.300782h3a.650391.650391 0 1 0 0-1.300782z"
       id="path44"
       style="fill:#6c96b9;fill-opacity:1" />
  </g>
  <rect
     style="opacity:1;fill:#ffffff;fill-opacity:1;stroke:none;stroke-width:5.48031473;stroke-linecap:butt;stroke-linejoin:round;stroke-miterlimit:4;stroke-dasharray:none;stroke-dashoffset:0;stroke-opacity:1;paint-order:fill markers stroke"
     id="rect868"
     width="3"
     height="7"
     x="41"
     y="8"
     rx="1"
     ry="1" />
  <rect
     ry="1"
     rx="1"
     y="17"
     x="41"
     height="7"
     width="3"
     id="rect870"
     style="opacity:1;fill:#ffffff;fill-opacity:0.35606059;stroke:none;stroke-width:5.48031473;stroke-linecap:butt;stroke-linejoin:round;stroke-miterlimit:4;stroke-dasharray:none;stroke-dashoffset:0;stroke-opacity:1;paint-order:fill markers stroke" />
  <rect
     style="opacity:1;fill:#ffffff;fill-opacity:0.42803031;stroke:none;stroke-width:5.48031473;stroke-linecap:butt;stroke-linejoin:round;stroke-miterlimit:4;stroke-dasharray:none;stroke-dashoffset:0;stroke-opacity:1;paint-order:fill markers stroke"
     id="rect872"
     width="3"
     height="7"
     x="41"
     y="26"
     rx="1"
     ry="1" />
  <path
     id="path941-5"
     d="m 10.45703,16.03125 c -0.261719,0 -0.511719,0.105469 -0.699219,0.289063 L 8.7656245,17.3125 c -0.253906,0.25 -0.355469,0.613281 -0.265625,0.957031 0.08984,0.34375 0.359375,0.613282 0.703125,0.703125 0.3437495,0.08984 0.7070305,-0.01172 0.9570305,-0.265625 L 10.86328,18 H 18 L 7.7734375,28.226563 c -0.316407,0.320312 -0.378907,0.816406 -0.148438,1.203124 0.230469,0.386719 0.695312,0.566407 1.128906,0.4375 2.3906245,-0.71875 3.9296875,-0.816406 4.9804685,-0.707031 1.050781,0.109375 1.625,0.40625 2.308594,0.679688 0.683593,0.273437 1.691407,0.457031 2.652344,-0.04297 0.957032,-0.5 1.90625,-1.441406 3.421876,-3.207031 0.234374,-0.269531 0.308593,-0.640625 0.191406,-0.976563 -0.117188,-0.332031 -0.402344,-0.582031 -0.753906,-0.644531 -0.347657,-0.0625 -0.703126,0.06641 -0.933594,0.339844 -1.460938,1.703125 -2.371094,2.5 -2.839844,2.742187 -0.464845,0.246094 -0.44922,0.183594 -1.007813,-0.03906 -0.554688,-0.222656 -1.46875,-0.671875 -2.835938,-0.8125 -0.679688,-0.06641 -1.464844,-0.0625 -2.398438,0.04687 l 9.535158,-9.53125 c 0.28125,-0.28125 0.367187,-0.707031 0.214843,-1.074219 -0.152343,-0.367188 -0.511718,-0.609375 -0.910156,-0.609375 z m 0,0"
     style="fill:#6c96b9;fill-rule:nonzero;stroke:none;fill-opacity:1"
     inkscape:connector-curvature="0" />
</svg>
