<svg height="48" width="48" xmlns="http://www.w3.org/2000/svg"><path d="m44.322082 27.405077a19.729762 19.729765 0 0 1 -19.729762 19.729765 19.729762 19.729765 0 0 1 -19.7297621-19.729765 19.729762 19.729765 0 0 1 19.7297621-19.7297632 19.729762 19.729765 0 0 1 19.729762 19.7297632z" fill="#8d3d3f" opacity=".99" transform="matrix(1.1503549 0 0 1.1503549 -4.486125 -7.525565)"/><path d="m33 28.5-14.343267 3.843267-10.4999995-10.5 3.8432665-14.3432668 14.343267-3.8432668 10.5 10.4999996z" fill="#fff" fill-opacity=".958549" transform="matrix(1.2179982 .31870856 -.31870856 1.2179982 2.135566 -5.094909)"/><path d="m15 16.5h18l-18 15h18" fill="none" stroke="#8d3d3f" stroke-linejoin="bevel" stroke-width="4"/></svg>