<svg height="48" width="48" xmlns="http://www.w3.org/2000/svg"><rect fill="#c8738b" height="42" ry="1.452703" width="44" x="2" y="4"/><g fill="none" stroke="#fff" transform="translate(0 -3)"><path d="m7 20v6"/><path d="m9 17v12"/><path d="m11 14v18"/><path d="m13 18v10"/><path d="m15 20v6"/><path d="m17 15v16"/><path d="m19 16v14"/><path d="m21 17v12"/><path d="m23 20v6"/><path d="m25 18v10"/><path d="m27 16v14"/><path d="m29 20v7"/><path d="m33 16v14"/><path d="m31 13v20"/><path d="m35 16v14"/><path d="m37 18v10"/><path d="m39 20v6"/><path d="m41 21v4"/></g><path d="m11.473633 34.029298a5 5 0 0 0 -5 5 5 5 0 0 0 1.1308594 3.162109l7.0312496-7.03125a5 5 0 0 0 -3.162109-1.130859zm25.552734.02539v9.945312a5 5 0 0 0 4.5-4.970703 5 5 0 0 0 -4.5-4.974609zm-1 .0039a5 5 0 0 0 -4.5 4.970703 5 5 0 0 0 4.5 4.974609zm-20.683593 1.808594-7.0312504 7.03125a5 5 0 0 0 3.1621094 1.130866 5 5 0 0 0 5-5 5 5 0 0 0 -1.130859-3.162109z" fill="#fff"/></svg>