<?xml version="1.0" encoding="UTF-8" standalone="no"?>
<!-- Created with Inkscape (http://www.inkscape.org/) -->

<svg
   xmlns:dc="http://purl.org/dc/elements/1.1/"
   xmlns:cc="http://creativecommons.org/ns#"
   xmlns:rdf="http://www.w3.org/1999/02/22-rdf-syntax-ns#"
   xmlns:svg="http://www.w3.org/2000/svg"
   xmlns="http://www.w3.org/2000/svg"
   xmlns:sodipodi="http://sodipodi.sourceforge.net/DTD/sodipodi-0.dtd"
   xmlns:inkscape="http://www.inkscape.org/namespaces/inkscape"
   width="16"
   height="16"
   viewBox="0 0 4.2333332 4.2333332"
   version="1.1"
   id="svg8"
   inkscape:version="0.92.2 (5c3e80d, 2017-08-06)"
   sodipodi:docname="folder-images.svg">
  <defs
     id="defs2" />
  <sodipodi:namedview
     id="base"
     pagecolor="#ffffff"
     bordercolor="#666666"
     borderopacity="1.0"
     inkscape:pageopacity="0.0"
     inkscape:pageshadow="2"
     inkscape:zoom="22.4"
     inkscape:cx="7.2515307"
     inkscape:cy="7.0643279"
     inkscape:document-units="mm"
     inkscape:current-layer="layer1"
     showgrid="true"
     inkscape:window-width="1360"
     inkscape:window-height="712"
     inkscape:window-x="0"
     inkscape:window-y="24"
     inkscape:window-maximized="1"
     units="px">
    <inkscape:grid
       type="xygrid"
       id="grid829" />
  </sodipodi:namedview>
  <metadata
     id="metadata5">
    <rdf:RDF>
      <cc:Work
         rdf:about="">
        <dc:format>image/svg+xml</dc:format>
        <dc:type
           rdf:resource="http://purl.org/dc/dcmitype/StillImage" />
        <dc:title />
      </cc:Work>
    </rdf:RDF>
  </metadata>
  <g
     inkscape:label="Capa 1"
     inkscape:groupmode="layer"
     id="layer1"
     transform="translate(0,-292.76667)">
    <path
       style="opacity:1;fill:#6e7684;fill-opacity:1;fill-rule:nonzero;stroke:none;stroke-width:0.25586545;stroke-linecap:round;stroke-linejoin:bevel;stroke-miterlimit:4;stroke-dasharray:none;stroke-dashoffset:0;stroke-opacity:1"
       d="m 0.12848829,292.92633 c -0.0118403,0 -0.0213201,0.01 -0.0213201,0.0213 v 2.94046 l 1.26933241,-1.69245 0.7254039,0.96704 0.5439288,-0.54393 0.8462216,1.26934 H 2.6458332 1.7996114 0.1071683 v 0.8249 c 0,0.0119 0.009483,0.0213 0.0213201,0.0213 h 3.7653562 c 0.011835,0 0.02132,-0.01 0.02132,-0.0213 v -3.76535 c 0,-0.0119 -0.00948,-0.0213 -0.02132,-0.0213 z m 2.94904891,0.42328 a 0.40381272,0.40381272 0 0 1 0.027768,1.6e-4 0.40381272,0.40381272 0 0 1 0.3864185,0.4198 l -1.648e-4,0.003 a 0.40381272,0.40381272 0 0 1 -0.4219541,0.38411 0.40381272,0.40381272 0 0 1 -0.3847659,-0.4213 0.40381272,0.40381272 0 0 1 0.3926988,-0.38576 z"
       id="rect859"
       inkscape:connector-curvature="0" />
  </g>
</svg>
