<?xml version="1.0" encoding="UTF-8" standalone="no"?>
<!-- Created with Inkscape (http://www.inkscape.org/) -->

<svg
   width="48"
   height="48"
   viewBox="0 0 12.7 12.7"
   version="1.1"
   id="svg8"
   inkscape:version="1.1.2 (0a00cf5339, 2022-02-04)"
   sodipodi:docname="application-x-godot-resource.svg"
   xmlns:inkscape="http://www.inkscape.org/namespaces/inkscape"
   xmlns:sodipodi="http://sodipodi.sourceforge.net/DTD/sodipodi-0.dtd"
   xmlns="http://www.w3.org/2000/svg"
   xmlns:svg="http://www.w3.org/2000/svg"
   xmlns:rdf="http://www.w3.org/1999/02/22-rdf-syntax-ns#"
   xmlns:cc="http://creativecommons.org/ns#"
   xmlns:dc="http://purl.org/dc/elements/1.1/">
  <defs
     id="defs2" />
  <sodipodi:namedview
     id="base"
     pagecolor="#ffffff"
     bordercolor="#666666"
     borderopacity="1.0"
     inkscape:pageopacity="0.0"
     inkscape:pageshadow="2"
     inkscape:zoom="31.678384"
     inkscape:cx="13.779112"
     inkscape:cy="22.807351"
     inkscape:document-units="mm"
     inkscape:current-layer="layer1"
     showgrid="true"
     inkscape:window-width="1920"
     inkscape:window-height="1031"
     inkscape:window-x="0"
     inkscape:window-y="0"
     inkscape:window-maximized="1"
     units="px"
     inkscape:pagecheckerboard="0">
    <inkscape:grid
       type="xygrid"
       id="grid815" />
  </sodipodi:namedview>
  <metadata
     id="metadata5">
    <rdf:RDF>
      <cc:Work
         rdf:about="">
        <dc:format>image/svg+xml</dc:format>
        <dc:type
           rdf:resource="http://purl.org/dc/dcmitype/StillImage" />
      </cc:Work>
    </rdf:RDF>
  </metadata>
  <g
     inkscape:label="Capa 1"
     inkscape:groupmode="layer"
     id="layer1"
     transform="translate(0,-284.3)">
    <path
       id="rect817"
       style="opacity:1;fill:#ebcb8b;stroke-width:0.292055;stroke-linecap:round;stroke-opacity:0.880282;fill-opacity:1"
       d="m 2.2171529,285.09375 h 8.0011111 c 0.202248,0 0.365069,0.16282 0.365069,0.36507 v 10.64694 c 0,0.20225 -0.162821,0.36507 -0.365069,0.36507 H 2.2171529 c -0.2022486,0 -0.3650696,-0.16282 -0.3650696,-0.36507 v -10.64694 c 0,-0.20225 0.162821,-0.36507 0.3650696,-0.36507 z" />
    <path
       style="fill:#ffffff;fill-opacity:0.23529412;fill-rule:evenodd;stroke:none;stroke-width:0.07301383px;stroke-linecap:butt;stroke-linejoin:miter;stroke-opacity:1"
       d="M 2.38125,285.62292 H 5.0270833 L 2.38125,288.26875 Z"
       id="path819"
       inkscape:connector-curvature="0"
       sodipodi:nodetypes="cccc" />
    <g
       id="g1990"
       transform="translate(-0.1323321,-0.57154333)">
      <path
         id="path84-6-5"
         style="opacity:1;fill:#ffffff;fill-opacity:1;fill-rule:nonzero;stroke:none;stroke-width:0.00845554"
         d="m 5.7514793,288.82696 c -0.2688367,0.0598 -0.5347731,0.14297 -0.7841017,0.26847 0.0057,0.22016 0.019936,0.43111 0.048789,0.64538 -0.096828,0.0621 -0.1986023,0.11527 -0.2890416,0.1879 -0.091891,0.0707 -0.185733,0.13832 -0.2689394,0.221 -0.1662277,-0.10995 -0.3421631,-0.21327 -0.5234113,-0.30447 -0.1953713,0.21025 -0.3780484,0.43719 -0.5272759,0.69114 0.1172768,0.18409 0.2430734,0.36912 0.3595683,0.51342 v 1.25427 0.15931 0.14499 c 0.00285,2e-5 0.0057,1.2e-4 0.00852,4e-4 l 0.9555003,0.0921 c 0.05005,0.005 0.089287,0.0451 0.092772,0.0953 l 0.029454,0.42178 0.8334848,0.0594 0.057422,-0.38929 c 0.00745,-0.0505 0.050735,-0.0879 0.1017889,-0.0879 H 6.854088 c 0.051027,0 0.09432,0.0374 0.1017641,0.0879 l 0.057421,0.38929 0.8335097,-0.0594 0.029442,-0.42178 c 0.00351,-0.0502 0.042709,-0.0904 0.092759,-0.0953 l 0.9551285,-0.0921 c 0.00282,-2.6e-4 0.00565,-3.9e-4 0.0085,-4e-4 v -0.12438 l 4.017e-4,-1.2e-4 v -1.43407 c 0.1345481,-0.16938 0.2619544,-0.35623 0.3595681,-0.51342 -0.1491748,-0.25395 -0.331954,-0.48089 -0.5273252,-0.69114 -0.1811957,0.0912 -0.3571964,0.19452 -0.5234244,0.30447 -0.083179,-0.0827 -0.1768662,-0.15031 -0.2688895,-0.221 -0.090413,-0.0726 -0.1922998,-0.12586 -0.2889428,-0.1879 0.028774,-0.21427 0.042999,-0.42522 0.048727,-0.64538 -0.2493548,-0.1255 -0.5152566,-0.2087 -0.7842253,-0.26847 -0.1073869,0.18048 -0.2055934,0.37593 -0.2911226,0.567 -0.101421,-0.0169 -0.203314,-0.0233 -0.3053421,-0.0245 v -1.6e-4 c -7.188e-4,0 -0.00137,1.6e-4 -0.00199,1.6e-4 -6.341e-4,0 -0.00129,-1.6e-4 -0.00193,-1.6e-4 v 1.6e-4 c -0.1022128,0.002 -0.204031,0.007 -0.3054782,0.0245 -0.085476,-0.19107 -0.1836147,-0.38652 -0.2911597,-0.567 z m -0.7559232,2.27998 c 0.3180424,0 0.575817,0.25759 0.575817,0.57552 0,0.31815 -0.2577746,0.57589 -0.575817,0.57589 -0.3178841,0 -0.5757426,-0.25774 -0.5757426,-0.57589 0,-0.31793 0.2578585,-0.57552 0.5757426,-0.57552 z m 2.7090364,0 c 0.3178575,0 0.5756804,0.25759 0.5756804,0.57552 0,0.31815 -0.2578229,0.57589 -0.5756804,0.57589 -0.3180953,0 -0.575879,-0.25774 -0.575879,-0.57589 0,-0.31793 0.2577837,-0.57552 0.575879,-0.57552 z M 6.35,291.44375 c 0.1023712,0 0.1855188,0.0755 0.1855188,0.16844 v 0.5301 c 0,0.093 -0.083148,0.16845 -0.1855188,0.16845 -0.1023712,0 -0.1853455,-0.0754 -0.1853455,-0.16845 v -0.5301 c 0,-0.0929 0.082974,-0.16844 0.1853455,-0.16844 z" />
      <path
         d="m 8.0754287,292.89736 -0.029592,0.42403 c -0.00356,0.0511 -0.044216,0.0918 -0.095323,0.0954 l -1.0177726,0.0726 c -0.00248,1.8e-4 -0.00496,2.4e-4 -0.00741,2.4e-4 -0.050578,0 -0.094214,-0.0371 -0.1016848,-0.0879 l -0.058366,-0.39581 H 5.93482 l -0.058366,0.39581 c -0.00784,0.0533 -0.055462,0.0916 -0.1091026,0.0876 l -1.0177729,-0.0726 c -0.051106,-0.004 -0.091759,-0.0444 -0.095323,-0.0955 l -0.029592,-0.42403 -0.8591738,-0.0828 c 4.016e-4,0.0924 0.00158,0.1935 0.00158,0.21364 0,0.9074 1.1510823,1.34355 2.5812171,1.34857 h 0.00173 0.00177 c 1.4301348,-0.005 2.5808214,-0.44117 2.5808214,-1.34857 0,-0.0205 0.00125,-0.12125 0.00167,-0.21364 z"
         style="opacity:1;fill:#ffffff;fill-opacity:1;fill-rule:nonzero;stroke:none;stroke-width:0.00845554"
         id="path88-5-2"
         inkscape:connector-curvature="0" />
    </g>
  </g>
</svg>
