<?xml version="1.0" encoding="UTF-8" standalone="no"?>
<svg
   xmlns:dc="http://purl.org/dc/elements/1.1/"
   xmlns:cc="http://creativecommons.org/ns#"
   xmlns:rdf="http://www.w3.org/1999/02/22-rdf-syntax-ns#"
   xmlns:svg="http://www.w3.org/2000/svg"
   xmlns="http://www.w3.org/2000/svg"
   xmlns:sodipodi="http://sodipodi.sourceforge.net/DTD/sodipodi-0.dtd"
   xmlns:inkscape="http://www.inkscape.org/namespaces/inkscape"
   viewBox="0 0 22 22"
   version="1.1"
   id="svg4"
   sodipodi:docname="applications-games.svg"
   inkscape:version="0.92.2 (5c3e80d, 2017-08-06)">
  <metadata
     id="metadata10">
    <rdf:RDF>
      <cc:Work
         rdf:about="">
        <dc:format>image/svg+xml</dc:format>
        <dc:type
           rdf:resource="http://purl.org/dc/dcmitype/StillImage" />
        <dc:title></dc:title>
      </cc:Work>
    </rdf:RDF>
  </metadata>
  <defs
     id="defs8" />
  <sodipodi:namedview
     pagecolor="#ffffff"
     bordercolor="#666666"
     borderopacity="1"
     objecttolerance="10"
     gridtolerance="10"
     guidetolerance="10"
     inkscape:pageopacity="0"
     inkscape:pageshadow="2"
     inkscape:window-width="1360"
     inkscape:window-height="718"
     id="namedview6"
     showgrid="true"
     inkscape:zoom="7.5853273"
     inkscape:cx="14.582521"
     inkscape:cy="11.445262"
     inkscape:window-x="0"
     inkscape:window-y="24"
     inkscape:window-maximized="1"
     inkscape:current-layer="svg4">
    <inkscape:grid
       type="xygrid"
       id="grid4506" />
  </sodipodi:namedview>
  <path
     style="fill:#5fbcd3;fill-opacity:1;stroke:none;stroke-width:3.77952766;stroke-linecap:butt;stroke-linejoin:round;stroke-miterlimit:4;stroke-dasharray:none;stroke-opacity:0.52147241"
     d="m 5,5.857422 c -1.108,0 -1.8433051,0.903136 -2,2 l -1,7 c -0.1566949,1.096864 0.892,2 2,2 h 1 c 1.6342085,0 2.6188615,-1.999479 4.5839844,-3.857422 0.8895786,-0.164783 1.7715596,-0.174121 2.6601566,-0.0293 1.901114,2.136475 2.469157,3.886722 4.755859,3.886722 h 1 c 1.108,0 2.131855,-0.899874 2,-2 l -0.839844,-7 c -0.131855,-1.1001264 -0.892,-2 -2,-2 H 16.001287 15 c -0.851979,0 -1.42313,0.6643463 -1.9972,1.0128471 C 12,7.4790403 10.404708,7.4648951 8.9950689,6.890923 8.3847231,6.6424043 7.8320022,5.857422 7,5.857422 H 5.9984228 Z"
     id="rect4508"
     inkscape:connector-curvature="0"
     sodipodi:nodetypes="sssssccssccccsssscs" />
  <path
     style="fill:#ffffff;fill-opacity:1;stroke:none;stroke-width:5.71733618;stroke-linecap:butt;stroke-linejoin:round;stroke-miterlimit:4;stroke-dasharray:none;stroke-opacity:0.52147241"
     id="path4519"
     sodipodi:type="arc"
     sodipodi:cx="14.255477"
     sodipodi:cy="9.6146021"
     sodipodi:rx="1.5127119"
     sodipodi:ry="1.5127119"
     sodipodi:start="0.047800379"
     sodipodi:end="0.040497747"
     sodipodi:open="true"
     d="m 15.766461,9.6868828 a 1.5127119,1.5127119 0 0 1 -1.580506,1.4388332 1.5127119,1.5127119 0 0 1 -1.441716,-1.577877 1.5127119,1.5127119 0 0 1 1.575242,-1.4445942 1.5127119,1.5127119 0 0 1 1.447468,1.572602" />
  <path
     style="fill:#ffffff;fill-opacity:1;stroke:none;stroke-width:1px;stroke-linecap:butt;stroke-linejoin:miter;stroke-opacity:1"
     d="M 5,8.5 V 10 H 3.5 v 2 H 5 v 1.5 H 7 V 12 H 8.5 V 10 H 7 V 8.5 Z"
     id="path4525"
     inkscape:connector-curvature="0" />
  <path
     d="m 18.675848,12.256356 a 1.5127119,1.5127119 0 0 1 -1.580506,1.438833 1.5127119,1.5127119 0 0 1 -1.441716,-1.577877 1.5127119,1.5127119 0 0 1 1.575242,-1.444594 1.5127119,1.5127119 0 0 1 1.447467,1.572602"
     sodipodi:open="true"
     sodipodi:end="0.040497747"
     sodipodi:start="0.047800379"
     sodipodi:ry="1.5127119"
     sodipodi:rx="1.5127119"
     sodipodi:cy="12.184075"
     sodipodi:cx="17.164864"
     sodipodi:type="arc"
     id="path4530"
     style="fill:#ffffff;fill-opacity:1;stroke:none;stroke-width:5.71733618;stroke-linecap:butt;stroke-linejoin:round;stroke-miterlimit:4;stroke-dasharray:none;stroke-opacity:0.52147241" />
</svg>
