<?xml version="1.0" encoding="UTF-8" standalone="no"?>
<svg
   height="48"
   width="48"
   version="1.1"
   id="svg35"
   sodipodi:docname="avimetaedit.svg"
   inkscape:version="1.1.2 (0a00cf5339, 2022-02-04)"
   xmlns:inkscape="http://www.inkscape.org/namespaces/inkscape"
   xmlns:sodipodi="http://sodipodi.sourceforge.net/DTD/sodipodi-0.dtd"
   xmlns="http://www.w3.org/2000/svg"
   xmlns:svg="http://www.w3.org/2000/svg">
  <defs
     id="defs39" />
  <sodipodi:namedview
     id="namedview37"
     pagecolor="#ffffff"
     bordercolor="#666666"
     borderopacity="1.0"
     inkscape:pageshadow="2"
     inkscape:pageopacity="0.0"
     inkscape:pagecheckerboard="0"
     showgrid="false"
     inkscape:zoom="13.6875"
     inkscape:cx="23.634703"
     inkscape:cy="24"
     inkscape:window-width="1920"
     inkscape:window-height="1028"
     inkscape:window-x="0"
     inkscape:window-y="24"
     inkscape:window-maximized="1"
     inkscape:current-layer="svg35" />
  <clipPath
     id="a">
    <path
       d="m3.4527029 3h40.0945941c.804798 0 1.452703.6479055 1.452703 1.4527029v8.5455121l-43 .151523v-8.6970351c0-.8047974.6479055-1.4527029 1.4527029-1.4527029z"
       id="path2" />
  </clipPath>
  <path
     id="rect5"
     style="fill:#a7b6ca"
     d="M 3.452703,3 H 43.547297 C 44.352094,3 45,3.6479055 45,4.452703 V 44.547297 C 45,45.352094 44.352094,46 43.547297,46 H 3.452703 C 2.6479055,46 2,45.352094 2,44.547297 V 4.452703 C 2,3.6479055 2.6479055,3 3.452703,3 Z" />
  <path
     d="m3.4527029 3h40.0945941c.804798 0 1.452703.6479055 1.452703 1.4527029v8.5455121l-43 .151523v-8.6970351c0-.8047974.6479055-1.4527029 1.4527029-1.4527029z"
     fill="#3c4147"
     id="path7" />
  <g
     clip-path="url(#a)"
     fill="none"
     stroke="#dedede"
     stroke-linecap="square"
     stroke-width="3"
     id="g21">
    <path
       d="m9 3-2 5 2 5"
       id="path9" />
    <path
       d="m16 3-2 5 2 5"
       id="path11" />
    <path
       d="m23 3-2 5 2 5"
       id="path13" />
    <path
       d="m30 3-2 5 2 5"
       id="path15" />
    <path
       d="m37 3-2 5 2 5"
       id="path17" />
    <path
       d="m44 3-2 5 2 5"
       id="path19" />
  </g>
  <path
     d="m2 8h43"
     fill="#3c4147"
     fill-rule="evenodd"
     stroke="#3c4147"
     stroke-width=".8"
     id="path23" />
  <path
     style="color:#000000;fill:#ffffff;stroke-linejoin:bevel;-inkscape-stroke:none"
     d="m 10.820313,19.492187 -6.7929693,19.658204 2.8359375,0.980468 5.3671878,-15.529297 5.029297,14.736329 2.839843,-0.970704 -6.441406,-18.86914 z"
     id="path1140" />
  <path
     style="color:#000000;fill:#ffffff;stroke-linejoin:bevel;-inkscape-stroke:none"
     d="m 19.228516,19.492187 -2.833985,0.980469 6.791016,19.658203 2.83789,-0.0059 L 32.464844,21.255859 29.625,20.285156 24.595703,35.021484 Z"
     id="path1255" />
  <path
     style="color:#000000;fill:#ffffff;-inkscape-stroke:none"
     d="m 35.828125,19.767578 v 19.175781 h 3 V 19.767578 Z"
     id="path1290" />
</svg>
