<?xml version="1.0" encoding="UTF-8" standalone="no"?>
<svg
   height="48"
   width="48"
   version="1.1"
   id="svg18"
   sodipodi:docname="barrier.svg"
   inkscape:version="1.1.2 (0a00cf5339, 2022-02-04)"
   xmlns:inkscape="http://www.inkscape.org/namespaces/inkscape"
   xmlns:sodipodi="http://sodipodi.sourceforge.net/DTD/sodipodi-0.dtd"
   xmlns="http://www.w3.org/2000/svg"
   xmlns:svg="http://www.w3.org/2000/svg"
   xmlns:rdf="http://www.w3.org/1999/02/22-rdf-syntax-ns#"
   xmlns:cc="http://creativecommons.org/ns#"
   xmlns:dc="http://purl.org/dc/elements/1.1/">
  <metadata
     id="metadata24">
    <rdf:RDF>
      <cc:Work
         rdf:about="">
        <dc:format>image/svg+xml</dc:format>
        <dc:type
           rdf:resource="http://purl.org/dc/dcmitype/StillImage" />
      </cc:Work>
    </rdf:RDF>
  </metadata>
  <defs
     id="defs22" />
  <sodipodi:namedview
     pagecolor="#ffffff"
     bordercolor="#666666"
     borderopacity="1"
     objecttolerance="10"
     gridtolerance="10"
     guidetolerance="10"
     inkscape:pageopacity="0"
     inkscape:pageshadow="2"
     inkscape:window-width="1920"
     inkscape:window-height="1028"
     id="namedview20"
     showgrid="true"
     inkscape:zoom="9.8333334"
     inkscape:cx="8.1864406"
     inkscape:cy="31.576271"
     inkscape:window-x="0"
     inkscape:window-y="24"
     inkscape:window-maximized="1"
     inkscape:current-layer="svg18"
     inkscape:pagecheckerboard="0">
    <inkscape:grid
       type="xygrid"
       id="grid834" />
  </sodipodi:namedview>
  <path
     id="circle2"
     style="opacity:0.99;fill:#b7c4c8"
     transform="matrix(1.72140702696 0 0 1.72140725788 -17.2289093957 -30.06939350282)"
     d="M 37.173613,31.534513 A 13.232998,13.232998 0 0 1 23.940615,44.767511 13.232998,13.232998 0 0 1 10.707617,31.534513 13.232998,13.232998 0 0 1 23.940615,18.301516 13.232998,13.232998 0 0 1 37.173613,31.534513 Z" />
  <path
     id="path4490"
     style="opacity:1;fill:#fcfcfd;stroke-width:18.3369;stroke-linecap:round;stroke-linejoin:bevel;fill-opacity:1"
     d="M 43.541956,24.214346 A 19.559322,19.559322 0 0 1 23.982634,43.773668 19.559322,19.559322 0 0 1 4.4233112,24.214346 19.559322,19.559322 0 0 1 23.982634,4.6550236 19.559322,19.559322 0 0 1 43.541956,24.214346 Z" />
  <path
     class="st1"
     d="M 36.971937,28.966597 C 35.603311,29.236403 34.27216,28.352847 34.007,26.9978 L 34,27 c -0.0013,-0.0039 -0.0019,-0.0062 -0.0022,-0.0086 -0.897788,-4.563569 -4.940922,-7.722629 -9.434714,-7.669332 0.732187,-0.733006 1.099726,-1.808319 0.88355,-2.904555 -0.180212,-0.917359 -0.73565,-1.665193 -1.470847,-2.121134 7.08618,-0.342821 13.558579,4.560662 14.96696,11.723407 0.02766,0.141673 0.04771,0.281533 0.07249,0.421383 0.02828,1.199007 -0.816135,2.284009 -2.043175,2.525543"
     id="path3758"
     style="fill:#7e93bf;stroke-width:0.0621977" />
  <path
     class="st3"
     d="m 9.835441,32.229878 c -0.257483,-1.313677 0.547782,-2.589406 1.811901,-2.923963 0.0718,-0.01416 0.144896,-0.02235 0.215536,-0.03656 4.560307,-0.897678 7.716478,-4.936163 7.670533,-9.425216 0.73267,0.750989 1.821289,1.131526 2.930431,0.912983 0.902355,-0.176633 1.641015,-0.716308 2.099115,-1.435165 0.303275,7.0552 -4.590157,13.48751 -11.727535,14.891764 -0.104296,0.01883 -0.206791,0.03541 -0.310503,0.05302 -1.26051,0.114378 -2.436254,-0.755117 -2.689478,-2.036859"
     id="path3762"
     style="fill:#aec582;stroke-width:0.0621977" />
  <path
     class="st0"
     d="m 21.57043,32.494991 c 1.352436,0.266225 2.673715,-0.630355 2.942849,-1.998707 0.247398,-1.256956 -0.479475,-2.481597 -1.649329,-2.877436 -0.113164,-0.01651 -0.22553,-0.03651 -0.336927,-0.05771 -4.537886,-0.893118 -7.686889,-4.896128 -7.671584,-9.358756 -0.730398,0.743393 -1.814308,1.116886 -2.916982,0.89889 -0.911222,-0.179 -1.655098,-0.727969 -2.112291,-1.457215 -0.289791,7.044318 4.601601,13.460836 11.729019,14.862046 0.0028,0.0012 0.0083,0.0012 0.01287,0.0012 z"
     id="path3756"
     style="fill:#71a8be;stroke-width:0.0621977" />
  <path
     class="st2"
     d="m 37.57661,17.961805 c 1.258173,-0.111584 2.430338,0.755813 2.681311,2.03579 0.258544,1.317393 -0.549638,2.596179 -1.817771,2.928429 -0.04008,0.0067 -0.07841,0.01083 -0.116619,0.01852 -4.54153,0.893514 -7.692906,4.902841 -7.670558,9.369937 -0.732765,-0.723166 -1.802462,-1.083869 -2.891043,-0.869824 -0.927076,0.180887 -1.682196,0.746682 -2.134646,1.493569 -0.328668,-7.073543 4.570991,-13.532944 11.72368,-14.938987 0.07483,-0.01444 0.150211,-0.02348 0.225646,-0.03744"
     id="path3760"
     style="fill:#78c2bf;stroke-width:0.0621977" />
  <path
     style="fill:#8699bf;fill-opacity:1;fill-rule:evenodd;stroke-width:0.093297"
     id="path3860"
     d="m 28.052063,34.677212 c 0.19158,0.140751 -0.09521,0.327686 -0.233936,0.318417 -0.375941,-0.02511 -0.505618,-0.481899 -0.402898,-0.786294 0.18375,-0.544493 0.852256,-0.707231 1.338653,-0.487373 0.713801,0.322648 0.913853,1.227288 0.571851,1.891005 -0.455837,0.884627 -1.603939,1.122556 -2.44336,0.656329 -1.056333,-0.586701 -1.332326,-1.981343 -0.740811,-2.995716 0.716406,-1.228544 2.359175,-1.542701 3.548072,-0.825288 1.401077,0.845451 1.753466,2.73727 0.909766,4.10043 -0.974087,1.573819 -3.11554,1.964482 -4.652783,0.994241 -1.746714,-1.102451 -2.175686,-3.493937 -1.078721,-5.205138 1.230627,-1.919713 3.872423,-2.387016 5.757493,-1.1632 2.09279,1.358669 2.598443,4.250977 1.247677,6.309852" />
  <path
     style="fill:#70afc8;fill-opacity:1;fill-rule:evenodd;stroke-width:0.0746373"
     id="path3860-3"
     d="m 22.166261,16.888947 c -0.153265,-0.112601 0.07617,-0.26215 0.187152,-0.254733 0.300751,0.02008 0.404492,0.385518 0.322315,0.629036 -0.146997,0.435592 -0.681803,0.565784 -1.070918,0.389897 -0.571044,-0.25812 -0.731086,-0.981829 -0.457482,-1.512803 0.36467,-0.707705 1.283149,-0.898046 1.954688,-0.525064 0.845062,0.469359 1.065856,1.585075 0.592646,2.396574 -0.573122,0.982833 -1.887339,1.234158 -2.838459,0.660227 -1.12086,-0.676357 -1.402769,-2.189814 -0.727809,-3.280341 0.779267,-1.259058 2.49243,-1.571587 3.722226,-0.795393 1.39737,0.881959 1.740546,2.795146 0.862975,4.16411 -0.984501,1.535767 -3.097938,1.909609 -4.605995,0.930557 -1.67423,-1.086933 -2.078754,-3.40078 -0.99814,-5.04788" />
  <path
     style="fill:#559997;fill-opacity:1;fill-rule:evenodd;stroke-width:0.0497583"
     id="path3860-3-5"
     d="m 12.232724,16.089514 c 0.102174,-0.07506 -0.05078,-0.174766 -0.124768,-0.169823 -0.200501,0.0134 -0.269662,0.257016 -0.214877,0.419358 0.098,0.290397 0.454538,0.377191 0.713948,0.259934 0.380694,-0.172081 0.487388,-0.654555 0.304986,-1.008537 -0.243114,-0.471801 -0.855433,-0.598697 -1.303125,-0.350043 -0.563376,0.312908 -0.710574,1.056718 -0.395098,1.597717 0.382082,0.655221 1.258224,0.822774 1.892305,0.440153 0.747241,-0.450906 0.935181,-1.459877 0.485206,-2.186895 -0.519511,-0.839375 -1.66162,-1.047726 -2.481484,-0.530264 -0.93158,0.587974 -1.160365,1.863433 -0.575316,2.776074 0.656335,1.023846 2.065291,1.273074 3.070665,0.620374 1.116152,-0.724623 1.385835,-2.267189 0.665425,-3.365255" />
</svg>
