<?xml version="1.0" encoding="UTF-8" standalone="no"?>
<svg
   height="48"
   width="48"
   version="1.1"
   id="svg18"
   sodipodi:docname="cyberpunk-2077.svg"
   inkscape:version="1.1.2 (0a00cf5339, 2022-02-04)"
   xmlns:inkscape="http://www.inkscape.org/namespaces/inkscape"
   xmlns:sodipodi="http://sodipodi.sourceforge.net/DTD/sodipodi-0.dtd"
   xmlns="http://www.w3.org/2000/svg"
   xmlns:svg="http://www.w3.org/2000/svg"
   xmlns:rdf="http://www.w3.org/1999/02/22-rdf-syntax-ns#"
   xmlns:cc="http://creativecommons.org/ns#"
   xmlns:dc="http://purl.org/dc/elements/1.1/">
  <metadata
     id="metadata24">
    <rdf:RDF>
      <cc:Work
         rdf:about="">
        <dc:format>image/svg+xml</dc:format>
        <dc:type
           rdf:resource="http://purl.org/dc/dcmitype/StillImage" />
      </cc:Work>
    </rdf:RDF>
  </metadata>
  <defs
     id="defs22">
    <linearGradient
       id="linearGradient1024"
       x1="192.43761"
       x2="192.53743"
       y1="103.23778"
       y2="311.3898"
       gradientUnits="userSpaceOnUse">
      <stop
         id="stop1224"
         style="stop-color:#8fbcbb"
         offset="0" />
      <stop
         id="stop1226"
         style="stop-color:#97b67c"
         offset="1" />
    </linearGradient>
  </defs>
  <sodipodi:namedview
     pagecolor="#ffffff"
     bordercolor="#666666"
     borderopacity="1"
     objecttolerance="10"
     gridtolerance="10"
     guidetolerance="10"
     inkscape:pageopacity="0"
     inkscape:pageshadow="2"
     inkscape:window-width="1920"
     inkscape:window-height="1033"
     id="namedview20"
     showgrid="true"
     inkscape:zoom="39.333332"
     inkscape:cx="1.3347458"
     inkscape:cy="26.288136"
     inkscape:window-x="0"
     inkscape:window-y="24"
     inkscape:window-maximized="1"
     inkscape:current-layer="svg18"
     inkscape:pagecheckerboard="0">
    <inkscape:grid
       type="xygrid"
       id="grid834" />
  </sodipodi:namedview>
  <path
     id="circle2"
     style="opacity:0.99;fill:#ebcb8b;fill-opacity:1"
     transform="matrix(1.72140702696 0 0 1.72140725788 -17.2289093957 -30.06939350282)"
     d="M 37.173613,31.534513 A 13.232998,13.232998 0 0 1 23.940615,44.767511 13.232998,13.232998 0 0 1 10.707617,31.534513 13.232998,13.232998 0 0 1 23.940615,18.301516 13.232998,13.232998 0 0 1 37.173613,31.534513 Z" />
  <path
     id="path4490"
     style="opacity:1;fill:#fcfcfd;stroke-width:18.3369;stroke-linecap:round;stroke-linejoin:bevel;fill-opacity:0.66087592"
     d="M 43.541956,24.214346 A 19.559322,19.559322 0 0 1 23.982634,43.773668 19.559322,19.559322 0 0 1 4.4233112,24.214346 19.559322,19.559322 0 0 1 23.982634,4.6550236 19.559322,19.559322 0 0 1 43.541956,24.214346 Z" />
  <path
     id="blue"
     style="fill:#3b4252;stroke-width:0.99583;fill-opacity:1"
     d="m 15.469773,22.727995 c 0.02344,-0.03013 0.04759,-0.05959 0.07106,-0.08972 0.01754,-0.0076 0.08004,-0.06383 0.03317,-0.06561 -0.332918,-0.01752 -0.703157,0.01095 -1.064971,0 -0.397929,0.320874 -0.810909,0.653188 -1.185364,0.977073 -0.05119,0.04459 -0.100524,0.112588 -0.175805,0.120954 -0.007,-0.45753 0.05533,-0.772988 0.06561,-1.174532 -0.03371,-0.05781 -0.03617,-0.146887 -0.109561,-0.16495 h -0.01095 a 2.5753546,2.5753546 0 0 0 -0.515931,0.318476 c -0.04033,0.04758 -0.119182,0.05659 -0.131869,0.131868 a 2.7362319,2.7362319 0 0 0 0.02522,0.830179 c 0.0052,0.07281 0.01235,0.145093 0.01872,0.215523 l 0.07345,0.181819 c 0.17218,0.113186 0.275723,0.278131 0.461747,0.377461 a 2.2200191,2.2200191 0 0 0 0.234787,-0.149296 c -0.24141,0.275121 -0.491244,0.543021 -0.725434,0.828375 -0.16254,0.198071 -0.311846,0.412381 -0.471978,0.614661 -0.163138,0.205888 -0.33051,0.404553 -0.482822,0.614656 -0.458132,0.631517 -0.941554,1.24557 -1.415937,1.84398 -0.162548,0.204684 -0.3485727,0.390104 -0.4828209,0.614654 a 0.45849577,0.45849577 0 0 0 -0.1318466,0.131868 c 0.07406,-0.03613 0.1438861,-0.07582 0.2197418,-0.109561 0.07648,-0.109562 0.1655573,-0.220941 0.2582567,-0.33111 -0.1204144,0.161944 -0.2251522,0.338325 -0.3708417,0.47499 -0.00489,0.01234 -0.013244,0.02646 0,0.01156 0.06678,-0.02828 0.1221848,-0.06803 0.1866351,-0.09873 0.2600636,-0.339536 0.5219446,-0.677868 0.8127146,-0.987907 0.103517,-0.0096 0.130048,-0.10538 0.208297,-0.142683 a 0.39121862,0.39121862 0 0 1 0.16495,-0.03314 1.9781408,1.9781408 0 0 1 0.625494,-0.296192 c 0.04758,-0.007 0.06136,0.01872 0.08788,0.03314 1.275073,-1.567651 2.586867,-3.099183 3.852915,-4.676463 -0.04274,-6.04e-4 -0.08433,-0.0012 -0.124619,-0.0012 z m -5.425375,5.691465 c 0.09749,-0.115636 0.197464,-0.22937 0.290779,-0.339538 A 1.3332857,1.3332857 0 0 1 10.044398,28.41946 Z M 34.51818,21.860488 c -0.0048,-0.0921 0.04268,-0.133063 0.05477,-0.208296 -0.01374,-6.02e-4 -0.01494,-0.01374 -0.03248,-0.01095 -0.02945,0.07704 -0.09329,0.119182 -0.120973,0.197455 0.04991,-0.01036 0.06202,0.01812 0.09873,0.02167 z m -23.269753,2.876434 c 0.147504,-0.01036 0.317869,0.01754 0.42804,-0.02223 0.102349,0.0446 0.236592,-0.02945 0.340136,-0.01095 0.07164,0.01275 0.07345,0.06627 0.142685,0.07704 0.179986,-0.142085 0.309431,-0.334721 0.471975,-0.494256 -0.01872,-0.06202 -0.02945,-0.131211 -0.04392,-0.197453 l -0.06562,-0.09873 h -0.06861 a 0.29880006,0.29880006 0 0 0 -0.04216,-0.13364 0.37129246,0.37129246 0 0 1 -0.109581,0 c -0.04934,-0.0023 -0.0963,0.01275 -0.120954,0 a 1.7224501,1.7224501 0 0 1 -0.252293,-0.208871 c -0.05533,-0.04993 -0.199272,-0.178195 -0.274521,-0.186619 -0.07277,-0.0076 -0.158318,0.04212 -0.241402,0.06627 a 2.2386184,2.2386184 0 0 1 -0.25225,0.06559 c -0.157123,0.02291 -0.341948,0.01573 -0.515927,0.02223 -1.0902512,0.03792 -2.2997023,0.116792 -3.3658758,0.130056 1.3316608,-0.709176 2.6898087,-1.498421 4.0256888,-2.224451 0.100493,-0.05481 0.228167,-0.143281 0.296187,-0.153519 0.09817,-0.01573 0.222146,0.02045 0.318472,0.03315 a 1.7937167,1.7937167 0 0 1 0.29619,0.05481 c 0.265489,-0.148101 0.563487,-0.263685 0.82356,-0.417201 a 0.38255317,0.38255317 0 0 1 -0.142683,-0.110199 0.09861575,0.09861575 0 0 0 5.99e-4,-0.02646 q 0.07045,-0.03434 0.140871,-0.06322 c -0.07947,-0.104722 -0.226963,-0.167957 -0.365429,-0.246829 -0.01275,-0.01455 -0.03733,-0.02591 -0.02219,-0.04636 -0.145093,-0.08905 -0.28415,-0.184208 -0.438873,-0.263682 -0.152921,0.05236 -0.232978,0.102946 -0.386497,0.153518 -0.02413,0.01295 -0.06505,-0.0289 -0.09873,-0.03312 a 4.7547506,4.7547506 0 0 1 -0.713393,0.351576 3.5870975,3.5870975 0 0 0 -0.52676,0.27452 c -0.05486,0.03492 -0.117416,0.06627 -0.175797,0.09873 l -0.1523,0.113189 c -1.8752796,0.937933 -3.4019945,1.602561 -5.2098501,2.430335 a 0.35572252,0.35572252 0 0 1 0.083092,0.06925 l -0.785686,0.282298 C 4.0182803,24.145712 3.6450298,24.284773 3.33378,24.18664 a 1.082103,1.082103 0 0 0 -0.263649,0.153499 c 0.090899,0.04813 0.1884277,0.09626 0.2889721,0.143878 a 0.46292542,0.46292542 0 0 0 -0.045719,0.02289 c 0.3010086,0.137265 0.6495705,0.307632 0.9662326,0.438869 a 2.6049149,2.6049149 0 0 0 0.340137,0.131869 0.8852653,0.8852653 0 0 0 0.2522447,0 c 0.3515831,-0.01573 0.6851027,-0.03553 1.0210243,-0.06561 0.1932456,-0.01754 0.392515,-0.05535 0.5815461,-0.05481 0.3106383,6.04e-4 0.6200857,0.01156 0.9331321,0.01095 0.3154583,0 0.6351219,-0.04035 0.9547995,-0.05481 0.627901,-0.02768 1.2726616,-0.05903 1.9210296,-0.09873 0.325688,-0.02045 0.650183,-0.05603 0.965028,-0.07766 z m 22.424514,-0.37385 c 0.03856,-0.06925 0.08187,-0.14087 0.120974,-0.208298 0.239003,-0.419603 0.485233,-0.829579 0.724838,-1.240755 -0.06023,-0.159532 -0.181201,-0.257664 -0.175805,-0.482816 0.0086,-0.04274 0.06805,-0.03434 0.07706,-0.07704 -0.05836,-0.138461 0.01612,-0.27452 0.03315,-0.428035 a 0.03158902,0.03158902 0 0 1 -0.03915,-0.01036 0.15126386,0.15126386 0 0 0 -0.002,-0.05714 0.07565604,0.07565604 0 0 1 -0.02526,0.02826 c -8.81e-4,0 -0.0028,0.0012 -0.0038,0.002 a 0.21730208,0.21730208 0 0 1 -0.113744,0.02466 c -0.385291,0.635733 -0.812113,1.290723 -1.207644,1.921034 a 1.8760563,1.8760563 0 0 1 -0.175865,0.274577 c -0.09273,0.09696 -0.243216,0.160747 -0.362415,0.24141 -0.372048,0.253449 -0.718809,0.504486 -1.097472,0.735663 a 0.04856106,0.04856106 0 0 0 -0.01992,0.0064 c 0.08608,-0.22154 0.196856,-0.440675 0.269705,-0.66342 0.04758,-0.145691 0.09747,-0.287765 0.07106,-0.416598 a 1.1119811,1.1119811 0 0 0 0.0096,-0.24562 c 0.369055,-0.130113 0.735076,-0.26314 1.093878,-0.402808 0.05297,-0.305824 0.09873,-0.618272 0.18662,-0.889176 0.0058,-0.01095 0.0566,-0.04879 0.01095,-0.04392 -0.02106,0.002 -0.04217,0.0033 -0.06326,0.0052 0.0038,-0.02045 0.007,-0.04089 0.01156,-0.06138 -6e-4,-0.02646 0.03915,-0.104742 0,-0.09873 h -0.05485 c -0.200467,0.01932 -0.412378,0.02712 -0.614661,0.04392 -0.09696,0.08792 -0.242607,0.06439 -0.428031,0.07704 -0.0945,0.0054 -0.196857,0.01494 -0.296191,0.02223 -0.270307,0.01932 -0.55265,0.05836 -0.713385,0 -0.977682,0.09395 -2.01255,0.13121 -3.040795,0.175785 -0.271509,0.617667 -0.586364,1.191988 -0.878341,1.789195 -0.310638,0.102946 -0.599606,0.227558 -0.910847,0.329298 0.0101,0.05781 0.07823,0.0885 0.120416,0.120415 a 0.10311281,0.10311281 0 0 1 0.0086,0.0064 c -0.04033,0.01612 -0.08181,0.03246 -0.121631,0.04993 0.09329,0.0608 0.1818,0.139079 0.27452,0.2089 a 1.3445835,1.3445835 0 0 0 0.210106,0.144476 c -0.140871,0.282949 -0.273319,0.571915 -0.393723,0.863292 -0.02714,0.06503 -0.07164,0.12219 -0.09873,0.18662 -0.01494,0.03548 -0.01812,0.07648 -0.03316,0.109561 -0.01455,0.03315 -0.0379,0.06439 -0.05477,0.09873 -0.454531,0.931919 -0.875931,1.865652 -1.328653,2.78854 0.05959,-0.0076 0.07162,-0.06258 0.120953,-0.09873 a 0.37341579,0.37341579 0 0 1 0.0536,-0.03248 c -0.03073,0.06625 -0.06077,0.132427 -0.08972,0.198072 0.05061,-0.127646 0.193252,-0.122209 0.274521,-0.219738 a 1.1773559,1.1773559 0 0 0 0.109562,-0.230568 c 0.108387,-0.237799 0.214321,-0.478604 0.351583,-0.669442 0.108944,-0.01275 0.124639,-0.122846 0.230566,-0.109561 a 2.2732219,2.2732219 0 0 1 0.494256,-0.384085 1.2682501,1.2682501 0 0 0 0.186639,-0.109562 c 0.06021,-0.05781 0.110716,-0.201071 0.164949,-0.307027 0.277524,-0.546631 0.528561,-1.070987 0.790446,-1.591732 0.108964,-0.216727 0.193251,-0.442484 0.3293,-0.625494 1.123368,-0.373253 2.270206,-0.723625 3.391163,-1.09928 -0.226361,0.503884 -0.46235,0.999344 -0.632725,1.559218 0.03371,0.0271 0.06805,0.0536 0.10172,0.0807 -0.009,0.03613 -0.01992,0.07045 -0.02772,0.10775 0.151707,0.14087 0.329907,0.25586 0.494258,0.384091 0.213722,-0.193253 0.462347,-0.345559 0.702552,-0.505095 0.18423,-0.122847 0.358204,-0.254654 0.537603,-0.373249 0.02111,-0.01374 0.04216,-0.03013 0.06377,-0.04575 -0.0692,0.137864 -0.142085,0.272108 -0.203481,0.417796 a 0.32375909,0.32375909 0 0 0 0.08375,0.03434 0.32395473,0.32395473 0 0 0 -0.03191,0.143281 c 0.02413,0.0033 0.09329,0.03133 0.142683,0.04392 0.149913,0.106534 0.311253,0.182417 0.471388,0.279337 0.03665,-0.123981 0.115617,-0.213116 0.154713,-0.323285 0.07043,-0.0885 0.353384,-0.741084 0.564692,-1.060151 z m 0.715798,-2.356292 a 0.07007774,0.07007774 0 0 0 0.0086,0.04037 c -0.01334,0.01812 -0.02772,0.03613 -0.04216,0.0536 0.01095,-0.03191 0.02289,-0.06258 0.03364,-0.09395 z m -6.19354,2.081171 a 0.52758136,0.52758136 0 0 0 0.07648,-0.196857 c 0.114402,-0.163754 0.178194,-0.378067 0.307627,-0.526764 0.823558,-0.06503 1.713346,-0.127625 2.588674,-0.184209 q -1.452961,0.487632 -2.972758,0.907841 z m -2.953492,1.746446 c 0.16013,0.04394 0.317858,0.09572 0.461141,0.120993 a 2.4526827,2.4526827 0 0 0 0.351575,-0.318469 c 0.05477,-0.05481 0.108963,-0.110179 0.164352,-0.164352 0.05533,-0.05415 0.137864,-0.101153 0.153518,-0.18662 -0.02828,-0.01156 -0.05778,-0.02225 -0.08673,-0.03314 a 0.86228029,0.86228029 0 0 0 0.08972,-0.122189 c -0.40034,-0.187217 -0.834993,-0.299799 -1.251588,-0.461139 -0.355797,-0.137862 -0.707374,-0.283552 -1.048713,-0.431046 0.452716,-0.113744 0.903619,-0.237191 1.342496,-0.368433 0.447296,-0.134259 0.920478,-0.264284 1.306368,-0.450308 a 1.0654891,1.0654891 0 0 1 0.175804,-0.07704 c -0.01911,-0.03314 -0.04087,-0.06381 -0.06202,-0.09516 a 0.33211865,0.33211865 0 0 0 0.06505,-0.07104 c -0.118623,-0.170366 -0.251048,-0.326894 -0.351581,-0.515929 -1.367177,-0.125834 -2.775898,-0.210099 -4.248433,-0.23057 -0.05417,0.03736 -0.0668,0.116792 -0.131867,0.142683 -0.995125,-0.01095 -2.018559,-0.04089 -2.985995,-0.04394 -0.06861,0.09092 -0.140274,0.178792 -0.208901,0.274519 -0.06739,0.09514 -0.119181,0.208299 -0.208298,0.285354 -0.06379,-0.13364 -0.143281,-0.252242 -0.208299,-0.384085 -0.484025,-0.01314 -0.97767,-0.01693 -1.461091,-0.02945 0.460542,-0.563489 0.952988,-1.169118 1.425571,-1.736218 0.07405,-0.0885 0.205294,-0.208899 0.219741,-0.285354 a 1.5287287,1.5287287 0 0 0 -0.01095,-0.318467 c -0.0078,-0.04995 -0.03915,-0.0867 -0.04392,-0.131867 -0.01095,-0.101153 0.03315,-0.17941 0.03315,-0.285357 0.07824,-0.06503 0.08971,-0.188432 0.153518,-0.263682 0.03316,-0.03913 0.07646,-0.04037 0.09873,-0.08792 0.07162,-0.118624 0.187237,-0.237797 0.252246,-0.350975 0.01234,-0.02109 0.03672,-0.03191 0.01095,-0.05481 -0.139057,0.12884 -0.134855,0.176382 -0.184826,0.225755 -0.03665,0.03613 -0.0038,-0.03131 -0.04572,-0.0054 a 0.41817935,0.41817935 0 0 1 -0.103528,0.124638 0.07504257,0.07504257 0 0 0 0.01872,-0.02767 c 0.06977,-0.120418 0.187835,-0.238398 0.252243,-0.35158 0.01235,-0.02111 0.03616,-0.03131 0.01095,-0.05481 -0.155907,0.160728 -0.102946,0.115637 -0.153518,0.164951 -0.01455,0.04757 -0.06861,0.0054 -0.07706,0.04392 a 2.1057411,2.1057411 0 0 0 -0.208311,0.241371 c -0.03013,0.04993 -0.03789,0.103507 -0.06561,0.153517 -0.04758,0.08604 -0.147483,0.151108 -0.219734,0.241408 -0.103508,0.130056 -0.170985,0.301014 -0.285358,0.406365 -0.0028,0.03368 -0.02413,0.04937 -0.03315,0.07704 -0.03315,-0.01275 -0.06328,0.06258 -0.06561,0.01095 0.0028,-0.01573 0.01812,-0.01872 0.02219,-0.03314 0.01693,-0.0048 0.002,-0.01335 -0.01095,0 -0.09273,0.01752 -0.126431,0.09327 -0.186619,0.142683 a 0.18661669,0.18661669 0 0 1 -0.142684,0 c -0.671848,0.805496 -1.390056,1.568254 -2.052882,2.382179 -0.665224,0.816937 -1.324432,1.638085 -1.943308,2.503188 0.02714,0.01812 0.0536,0.03613 0.08004,0.05415 -0.02171,0.03314 -0.04216,0.0668 -0.06077,0.100503 0.344354,0.237795 0.675464,0.488236 1.04269,0.702555 1.184172,-0.893395 2.42312,-1.78137 3.603673,-2.666935 q -0.493052,0.691717 -0.977076,1.392464 c 0.03374,0.02167 0.06505,0.04635 0.09696,0.07045 a 0.16938037,0.16938037 0 0 0 -0.02289,0.09572 c 0.01275,0.06136 0.158337,0.140273 0.230577,0.197453 a 1.6739857,1.6739857 0 0 0 0.241408,0.186619 c 0.05601,-0.02468 0.116174,-0.04459 0.175784,-0.06561 0.03013,-0.01613 0.05599,0.0054 0.09873,-0.01095 0.79587,-0.239601 1.668794,-0.402145 2.568807,-0.537596 0.08249,-0.177597 0.200473,-0.319072 0.252244,-0.526766 -0.01992,0.002 -0.04033,0.004 -0.06025,0.0054 a 1.5196473,1.5196473 0 0 0 0.08484,-0.204686 c -0.766965,0.120418 -1.538749,0.235392 -2.270802,0.390714 0.0807,-0.149315 0.172181,-0.30342 0.258874,-0.432851 0.645952,-0.07828 1.313594,-0.135473 1.954141,-0.219738 A 2.8714052,2.8714052 0 0 0 21.2792,23.596512 c 0.02109,-0.03434 0.06077,-0.06861 0.05477,-0.109542 -0.02714,0.002 -0.05418,0.0033 -0.08123,0.0048 0.02646,-0.03971 0.05418,-0.07882 0.08422,-0.115615 0.0028,-0.01812 0.08548,-0.03971 0.03315,-0.04394 -0.652582,0.02167 -1.204037,0.04035 -1.842173,0.07281 0.02714,-0.0536 0.05477,-0.106535 0.08249,-0.158936 0.332308,0.0096 0.64716,-0.02945 0.922284,-0.0439 0.03915,-0.03669 0.06503,-0.101153 0.131868,-0.120974 0.09395,-0.02767 0.279333,-0.004 0.45031,-0.01095 0.294984,-0.01275 0.559278,0.01335 0.80128,0.01095 a 0.55353488,0.55353488 0 0 0 0.109601,-0.131869 c 6e-4,0 8.85e-4,-5.99e-4 0.0023,-5.99e-4 -0.325689,0.717603 -0.638738,1.43099 -0.96504,2.139565 -0.120395,0.261879 -0.269092,0.517732 -0.351571,0.801284 0.01693,0.02169 0.03371,0.04272 0.05119,0.06439 -0.01095,0.03011 -0.02289,0.06018 -0.03246,0.09091 0.06437,0.103529 0.104165,0.11982 0.207094,0.253451 a 3.5711378,3.5711378 0 0 0 0.341945,0.339536 c 0.234784,-0.508098 0.438271,-1.037272 0.691718,-1.536944 l 0.208265,-0.461202 a 3.2160416,3.2160416 0 0 1 0.318461,0.120975 c 0.242013,0.107191 0.479808,0.210704 0.713397,0.307032 0.114939,0.04757 0.219732,0.105378 0.329302,0.154115 l 1.458082,0.528571 c 0.07162,0.02466 0.16736,0.06324 0.243818,0.08424 z m -6.572816,-6.006316 a 1.4926559,1.4926559 0 0 0 0.142663,-0.252844 0.44910432,0.44910432 0 0 1 0.08186,-0.06324 0.43176986,0.43176986 0 0 0 -0.08488,0.09749 c -0.03362,0.05836 -0.03915,0.130634 -0.07706,0.186618 a 0.53537327,0.53537327 0 0 1 -0.07522,0.08548 c 0.0048,-0.01753 0.007,-0.03553 0.01295,-0.0536 z m -2.349073,4.292378 c -0.317865,0.214318 -0.639942,0.431043 -0.951179,0.644162 0.366021,-0.446702 0.745894,-0.913867 1.123955,-1.344908 a 0.05466311,0.05466311 0 0 1 0.03315,-0.03315 c 0.260675,0.01455 0.524355,0.02591 0.777806,0.04813 -0.309436,0.228765 -0.650779,0.46054 -0.983696,0.685698 z m 5.80224,-1.382833 c -0.0048,0 -0.0096,-5.99e-4 -0.01374,-5.99e-4 a 0.10360344,0.10360344 0 0 1 0.01911,-0.01095 0.06681961,0.06681961 0 0 0 -0.0052,0.01156 z m 0.740475,1.008981 c -0.102349,-0.04637 -0.210102,-0.0867 -0.320874,-0.123981 a 4.768365,4.768365 0 0 1 0.208303,-0.478 c 0.72422,-0.0096 1.524294,0.01235 2.239499,0.04575 -0.695933,0.198669 -1.415949,0.373249 -2.126928,0.556261 z m 14.554959,-0.921085 c 0.02945,-0.05535 0.05959,-0.109561 0.08974,-0.164949 -0.269704,-0.01494 -0.573726,0.04813 -0.790448,0.01095 -0.323287,0.470774 -0.589376,1.037873 -0.87835,1.525507 a 1.9942085,1.9942085 0 0 1 -0.13605,0.223951 c -0.134872,-0.564127 -0.269718,-1.172165 -0.456337,-1.684479 h -0.241408 c 0.03191,-0.06738 -0.01274,-0.08792 -0.04392,-0.120954 0.01693,-0.06022 0.06628,-0.08794 0.06561,-0.164951 l -0.04392,0.03314 c -0.148698,0.246825 -0.28115,0.498468 -0.406366,0.757338 -0.123424,0.256461 -0.280536,0.497267 -0.417196,0.746502 -0.275123,0.501479 -0.556263,1.000552 -0.801288,1.526112 0.05175,-0.01872 0.05903,-0.02828 0.09873,-0.01992 -0.02646,0.05481 -0.05362,0.108965 -0.07948,0.163756 0.04818,-0.0446 0.05836,-0.01693 0.131869,-0.01095 0.216129,-0.05415 0.508104,-0.0698 0.757346,-0.120973 0.233576,-0.421412 0.47318,-0.836808 0.713386,-1.251594 0.116173,0.461747 0.222144,0.934329 0.340136,1.394271 a 5.7228495,5.7228495 0 0 0 0.63693,-0.02225 c 0.515935,-0.940949 1.039088,-1.87347 1.54779,-2.821047 -0.02889,0 -0.05778,0 -0.08674,6.04e-4 z m 7.403594,5.010579 c 0.0247,0.01274 0.04934,0.02591 0.07405,0.03858 -0.01753,-0.03013 -0.05778,-0.03735 -0.06628,-0.07704 a 0.29488335,0.29488335 0 0 1 0,-0.153519 0.7647819,0.7647819 0 0 1 -0.09873,-0.09873 c -0.01753,0.009 0,-0.08792 0,-0.08792 q -0.06326,-0.04248 -0.130056,-0.08307 a 0.10174077,0.10174077 0 0 0 0.0058,-0.04759 c -1.101686,-0.641749 -2.223247,-1.255202 -3.315304,-1.89936 -0.20649,-0.122188 -0.415392,-0.240205 -0.622485,-0.360607 -0.01455,-0.06381 -0.02888,-0.127028 -0.0446,-0.189626 -0.112589,-0.06022 -0.221537,-0.122846 -0.328697,-0.187834 a 0.0897727,0.0897727 0 0 0 0.007,-0.0081 c 0.03856,-0.01992 0.07523,-0.03013 0.120974,-0.05481 -0.04334,-0.02826 -0.0879,-0.05601 -0.132426,-0.08371 a 0.62281978,0.62281978 0 0 1 0.134856,-0.0608 c -0.08789,-0.05659 -0.186619,-0.128842 -0.285356,-0.186621 -0.205889,-0.120415 -0.409367,-0.247422 -0.60382,-0.362413 -0.05903,-0.03492 -0.120974,-0.06324 -0.178792,-0.09749 0.303409,-0.165548 0.617061,-0.323883 0.93312,-0.494256 0.172778,-0.09273 0.353392,-0.180007 0.527369,-0.27452 0.248629,-0.134855 0.524357,-0.229364 0.691721,-0.417196 0.397927,-0.19144 0.788035,-0.390104 1.185363,-0.582149 0.172179,-0.226958 0.274521,-0.523153 0.559879,-0.636933 0.02714,-0.06202 0.100503,-0.144475 0.109563,-0.186619 0,6.04e-4 -0.0101,-6.02e-4 -0.01095,0 -0.0879,0.0518 -0.17941,0.09995 -0.270905,0.147503 a 0.54664845,0.54664845 0 0 1 0.163734,-0.105359 c 0.03131,-0.0379 0.04334,-0.09512 0.0879,-0.120954 -5.93e-4,-0.03314 0.02344,-0.04274 0.03315,-0.06561 0.01156,-0.0062 0.06977,-0.04575 0.02171,-0.04392 -0.801292,0.434052 -1.644706,0.802491 -2.470077,1.207645 -0.785627,0.385892 -1.576075,0.765765 -2.356895,1.152258 0.16495,-0.311843 0.335321,-0.617665 0.499079,-0.930718 l -0.08307,0.004 c 0.02826,-0.05296 0.05718,-0.105957 0.08548,-0.158935 -0.299806,-0.01095 -0.543012,0.03492 -0.845228,0.02223 -0.05834,-0.007 -0.05601,-0.07582 -0.09873,-0.09873 -0.41299,0.761555 -0.825369,1.523707 -1.229323,2.294288 0.01455,0.03013 0.03073,0.06503 0.04693,0.100503 l -0.0052,0.01095 c -0.131211,0.248027 -0.282949,0.490038 -0.384086,0.757337 0.160131,0.191439 0.434054,0.363616 0.658605,0.526763 a 2.780228,2.780228 0 0 1 0.208459,-0.417287 c 0.223947,-0.40215 0.449707,-0.80189 0.669438,-1.207645 0.39252,0.192653 0.761554,0.409367 1.130588,0.625493 0.0343,0.03191 0.05234,0.07948 0.09873,0.09873 0.898803,0.499669 1.81929,0.978273 2.733757,1.471327 0.913856,0.492451 1.832535,0.984899 2.744589,1.449054 -0.01992,0.0033 0.05418,0.06136 0.06561,0.03315 A 0.2006521,0.2006521 0 0 1 44.8209,27.836866 Z" />
</svg>
