<?xml version="1.0" encoding="UTF-8" standalone="no"?>
<svg
   height="48"
   width="48"
   version="1.1"
   id="svg6"
   sodipodi:docname="distributor-logo-raspbian.svg"
   inkscape:version="1.1.2 (0a00cf5339, 2022-02-04)"
   xmlns:inkscape="http://www.inkscape.org/namespaces/inkscape"
   xmlns:sodipodi="http://sodipodi.sourceforge.net/DTD/sodipodi-0.dtd"
   xmlns="http://www.w3.org/2000/svg"
   xmlns:svg="http://www.w3.org/2000/svg">
  <defs
     id="defs10" />
  <sodipodi:namedview
     id="namedview8"
     pagecolor="#ffffff"
     bordercolor="#666666"
     borderopacity="1.0"
     inkscape:pageshadow="2"
     inkscape:pageopacity="0.0"
     inkscape:pagecheckerboard="0"
     showgrid="false"
     inkscape:zoom="4.09375"
     inkscape:cx="29.923664"
     inkscape:cy="48.48855"
     inkscape:window-width="1920"
     inkscape:window-height="1028"
     inkscape:window-x="0"
     inkscape:window-y="24"
     inkscape:window-maximized="1"
     inkscape:current-layer="svg6" />
  <path
     d="m44.322082 27.405077a19.729762 19.729765 0 0 1 -19.729762 19.729765 19.729762 19.729765 0 0 1 -19.7297621-19.729765 19.729762 19.729765 0 0 1 19.7297621-19.7297632 19.729762 19.729765 0 0 1 19.729762 19.7297632z"
     fill="#d9935b"
     opacity=".99"
     transform="matrix(1.1503549 0 0 1.1503549 -4.486125 -7.525565)"
     id="path2"
     style="fill:#f78e6d;fill-opacity:1" />
  <path
     id="path8"
     style="fill:#ffffff;fill-opacity:1;stroke-width:0.0430121"
     d="m 18.098013,11.401562 c 0.151558,0.190786 0.363415,0.377352 0.13874,0.596514 -0.30967,-0.199771 -0.620933,-0.399583 -1.356418,-0.541581 0.165738,0.190885 0.508471,0.381696 0.300721,0.572569 -0.388849,-0.15343 -0.819089,-0.264929 -1.295147,-0.329597 0.227866,0.193692 0.417829,0.383819 0.231,0.533834 -0.416108,-0.132249 -0.989221,-0.310534 -1.549387,-0.157051 l 0.35495,0.369036 c 0.03936,0.04933 -0.830115,0.03781 -1.403604,0.04648 0.20931,0.30034 0.423329,0.590566 0.547919,1.106403 -0.05685,0.05949 -0.341235,0.02643 -0.609191,0 0.274743,0.597564 0.752061,0.748572 0.863432,1.004286 -0.167838,0.131382 -0.401137,0.09702 -0.655673,0.0077 0.197817,0.421017 0.613104,0.709824 0.940901,1.05147 -0.08287,0.06078 -0.227646,0.09703 -0.570456,0.05494 0.302831,0.332548 0.668525,0.63653 1.102177,0.909913 -0.07679,0.09181 -0.340983,0.08767 -0.585949,0.09367 0.392796,0.397182 0.898829,0.603606 1.372616,0.863432 -0.236183,0.166676 -0.405116,0.12754 -0.58595,0.12536 0.335101,0.284405 0.904927,0.431873 1.433888,0.603557 -0.100603,0.161515 -0.201152,0.206081 -0.416222,0.251423 0.559877,0.31998 1.361251,0.173773 1.587418,0.337344 -0.0546,0.160882 -0.208415,0.265411 -0.392981,0.352838 0.901341,0.05406 3.366423,-0.03413 3.83896,-1.961384 -0.922709,-1.047228 -2.606661,-2.276712 -5.503848,-3.796704 2.253916,0.779333 4.287707,1.818522 5.989792,3.24808 2.000994,-0.96249 0.621273,-3.390022 -0.35495,-4.353779 -0.0495,0.254478 -0.105716,0.41525 -0.169729,0.462703 -0.31786,-0.351998 -0.577492,-0.712752 -0.986678,-1.051471 -0.0014,0.198938 0.09712,0.414728 -0.146488,0.572569 -0.219351,-0.304886 -0.515478,-0.576835 -0.909209,-0.807794 0.189645,0.337846 0.03224,0.440292 -0.06972,0.580316 -0.300717,-0.266408 -0.586372,-0.536113 -1.140912,-0.745115 z m 10.947832,0 c -0.554542,0.209001 -0.840194,0.478707 -1.140913,0.745114 -0.101954,-0.140024 -0.258661,-0.24247 -0.06902,-0.580316 -0.39373,0.230959 -0.690561,0.502909 -0.909913,0.807795 -0.24361,-0.157841 -0.145138,-0.373631 -0.146488,-0.572569 -0.409187,0.33872 -0.668817,0.699473 -0.986678,1.05147 -0.06404,-0.04745 -0.120234,-0.208225 -0.169728,-0.462703 -0.976226,0.963758 -2.355241,3.39129 -0.354247,4.353779 1.702079,-1.429557 3.735877,-2.468747 5.989792,-3.248079 -2.897186,1.519992 -4.581842,2.749475 -5.504551,3.796704 0.472536,1.927254 2.937616,2.01545 3.838959,1.961383 -0.184565,-0.08743 -0.338377,-0.191956 -0.392981,-0.352837 0.226168,-0.163571 1.028249,-0.01736 1.588123,-0.337345 -0.215069,-0.04534 -0.315619,-0.08991 -0.416222,-0.251423 0.528962,-0.171684 1.098788,-0.319151 1.433888,-0.603557 -0.180832,0.0022 -0.349768,0.04131 -0.58595,-0.125359 0.473786,-0.259826 0.979116,-0.46625 1.371912,-0.863432 -0.244966,-0.006 -0.509162,-0.0019 -0.58595,-0.09367 0.433653,-0.273382 0.80005,-0.577364 1.102882,-0.909913 -0.342813,0.0421 -0.487588,0.0059 -0.570456,-0.05493 0.327797,-0.341657 0.742381,-0.630453 0.940196,-1.051471 -0.254535,0.08927 -0.487132,0.123636 -0.654968,-0.0077 0.111399,-0.255713 0.588688,-0.406721 0.863432,-1.004284 -0.267956,0.02644 -0.552346,0.05949 -0.609192,0 0.124591,-0.515838 0.337907,-0.806064 0.547216,-1.106404 -0.573489,-0.0087 -1.442263,0.0028 -1.4029,-0.04648 L 32.576334,12.0763 c -0.560169,-0.153484 -1.133278,0.0248 -1.549387,0.157052 -0.186828,-0.150017 0.0039,-0.340144 0.231703,-0.533835 -0.476057,0.06467 -0.906299,0.176167 -1.295147,0.329597 -0.20775,-0.190873 0.134984,-0.381685 0.300722,-0.572569 -0.735485,0.141998 -1.047453,0.341809 -1.357123,0.54158 -0.224675,-0.219161 -0.01282,-0.405727 0.138741,-0.596514 z" />
  <path
     id="path12"
     style="fill:#ffffff;fill-opacity:0.86445284;stroke-width:0.048586"
     d="m 23.452555,19.340061 c -1.571737,-0.0023 -3.058541,1.220198 -3.062154,1.933918 -0.0046,0.880988 1.264049,1.782843 3.148075,1.805741 1.923977,0.01401 3.15173,-0.721917 3.157934,-1.631084 0.0069,-1.030061 -1.749575,-2.123786 -3.168498,-2.107871 -0.02498,-6.32e-4 -0.05041,-6.32e-4 -0.07535,-7.17e-4 z m -4.634077,0.613417 c -2.278566,-0.01267 -4.037902,1.56019 -3.957981,4.193206 0.08812,1.133384 5.805561,-3.947002 4.818595,-4.115737 -0.293036,-0.05035 -0.58079,-0.07592 -0.860614,-0.07747 z m 9.12378,0.08662 c -0.279824,0.0015 -0.567578,0.02711 -0.860614,0.07747 -0.986967,0.168736 4.730474,5.24912 4.818596,4.115737 0.07992,-2.633018 -1.679417,-4.205873 -3.957982,-4.193207 z m -0.925407,3.154413 a 3.7181652,3.128428 58.681485 0 0 -1.533189,0.45073 3.7181652,3.128428 58.681485 1 0 4.048831,6.235582 3.7181652,3.128428 58.681485 0 0 -2.515642,-6.686312 z m -6.948299,0.17325 a 3.1284279,3.7181652 31.318515 0 0 -2.515642,6.687016 3.1284279,3.7181652 31.318515 1 0 4.048831,-6.235581 3.1284279,3.7181652 31.318515 0 0 -1.533189,-0.451435 z m 12.150016,1.913494 c -1.350064,0.02277 -0.346877,6.536643 0.876813,5.983453 1.38945,-1.137357 1.837289,-4.46819 -0.738776,-5.965143 -0.04852,-0.01322 -0.09449,-0.01905 -0.138037,-0.01831 z m -17.665132,0.08662 c -0.04355,-7.16e-4 -0.08952,0.0051 -0.138036,0.01831 -2.576064,1.496952 -2.128227,4.827787 -0.738776,5.965143 1.22369,0.553192 2.226876,-5.960678 0.876812,-5.983454 z m 9.056875,4.495337 a 3.4703502,3.2564565 0 0 0 -3.470628,3.258644 3.4706285,3.2567177 0 1 0 6.941257,0 3.4703502,3.2564565 0 0 0 -3.470629,-3.258644 z m 7.670173,1.214156 c -0.813212,0.02157 -1.782703,0.805172 -2.704386,1.864196 -1.073928,1.280064 -1.671537,3.615076 -0.88808,4.36716 0.749084,0.584179 2.759949,0.502167 4.245323,-1.595165 1.078584,-1.408626 0.716799,-3.760973 0.100709,-4.38547 -0.228798,-0.18009 -0.482495,-0.257911 -0.753566,-0.250721 z M 15.593639,31.57599 c -0.250462,0.0052 -0.484879,0.06802 -0.694408,0.197899 -0.640498,0.496055 -0.758018,2.184605 0.154235,3.84389 1.352661,1.977399 3.255313,2.175559 4.038972,1.694467 0.828344,-0.630214 0.376351,-2.767851 -0.616234,-3.984744 -0.889914,-1.050774 -1.988058,-1.770201 -2.882565,-1.751512 z m 8.298378,5.825698 c -0.09029,-5.91e-4 -0.179781,10e-4 -0.266916,0.0049 -1.385454,-0.03527 -3.509794,0.564494 -3.48401,1.333177 -0.02215,0.524279 1.667993,2.037063 3.39175,1.961387 1.664465,0.0292 3.383878,-1.481002 3.360763,-2.149425 -0.0034,-0.645311 -1.647292,-1.141566 -3.001587,-1.150069 z" />
</svg>
