<?xml version="1.0" encoding="UTF-8" standalone="no"?>
<svg
   height="48"
   width="48"
   version="1.1"
   id="svg6"
   sodipodi:docname="greenfoot.svg"
   inkscape:version="1.1.2 (0a00cf5339, 2022-02-04)"
   xmlns:inkscape="http://www.inkscape.org/namespaces/inkscape"
   xmlns:sodipodi="http://sodipodi.sourceforge.net/DTD/sodipodi-0.dtd"
   xmlns="http://www.w3.org/2000/svg"
   xmlns:svg="http://www.w3.org/2000/svg">
  <defs
     id="defs10" />
  <sodipodi:namedview
     id="namedview8"
     pagecolor="#ffffff"
     bordercolor="#666666"
     borderopacity="1.0"
     inkscape:pageshadow="2"
     inkscape:pageopacity="0.0"
     inkscape:pagecheckerboard="0"
     showgrid="false"
     inkscape:zoom="8.1875"
     inkscape:cx="11.175573"
     inkscape:cy="16.916031"
     inkscape:window-width="1920"
     inkscape:window-height="1030"
     inkscape:window-x="0"
     inkscape:window-y="24"
     inkscape:window-maximized="1"
     inkscape:current-layer="svg6" />
  <path
     d="m44.322082 27.405077a19.729762 19.729765 0 0 1 -19.729762 19.729765 19.729762 19.729765 0 0 1 -19.7297621-19.729765 19.729762 19.729765 0 0 1 19.7297621-19.7297632 19.729762 19.729765 0 0 1 19.729762 19.7297632z"
     opacity=".99"
     transform="matrix(1.1503549 0 0 1.1503549 -4.486125 -7.525565)"
     id="path2"
     style="fill:#98cc75;fill-opacity:1" />
  <circle
     cx="18.204544"
     cy="11.795598"
     r="2.2799778"
     style="fill:#fcfcfc;fill-opacity:1;stroke-width:0.569994"
     id="circle12" />
  <circle
     cx="24.474483"
     cy="11.795598"
     r="2.2799778"
     style="fill:#fcfcfc;fill-opacity:1;stroke-width:0.569994"
     id="circle14" />
  <circle
     cx="30.174431"
     cy="12.935585"
     r="1.7099836"
     style="fill:#fcfcfc;fill-opacity:1;stroke-width:0.569994"
     id="circle16" />
  <circle
     cx="11.079613"
     cy="14.360574"
     r="3.1349695"
     style="fill:#fcfcfc;fill-opacity:1;stroke-width:0.569994"
     id="circle18" />
  <path
     d="m 14.214584,22.0555 c -1.748241,-4.545426 6.269939,-6.26994 6.269939,-6.26994 0,0 7.979923,-1.709983 9.689908,0 3.419967,3.419967 -1.709985,2.849974 0,7.979924 1.709983,5.12995 6.269938,2.84997 6.269938,7.979922 0,5.129949 -1.709984,9.689907 -6.269938,9.689907 -5.129952,0 -7.979925,-1.709985 -7.979925,-3.419968 0,-5.12995 1.709985,-7.409927 1.709985,-10.829894 0,-3.989964 -6.839935,2.279977 -9.689907,-5.129951 z"
     style="fill:#fcfcfc;fill-opacity:1;stroke-width:0.569994"
     id="path20" />
</svg>
