<?xml version="1.0" encoding="UTF-8" standalone="no"?>
<svg
   height="48"
   width="48"
   version="1.1"
   id="svg6"
   sodipodi:docname="half-life2.svg"
   inkscape:version="1.1.2 (0a00cf5339, 2022-02-04)"
   xmlns:inkscape="http://www.inkscape.org/namespaces/inkscape"
   xmlns:sodipodi="http://sodipodi.sourceforge.net/DTD/sodipodi-0.dtd"
   xmlns="http://www.w3.org/2000/svg"
   xmlns:svg="http://www.w3.org/2000/svg">
  <defs
     id="defs10" />
  <sodipodi:namedview
     id="namedview8"
     pagecolor="#ffffff"
     bordercolor="#666666"
     borderopacity="1.0"
     inkscape:pageshadow="2"
     inkscape:pageopacity="0.0"
     inkscape:pagecheckerboard="0"
     showgrid="false"
     inkscape:zoom="4.09375"
     inkscape:cx="31.145038"
     inkscape:cy="48.48855"
     inkscape:window-width="1920"
     inkscape:window-height="1028"
     inkscape:window-x="0"
     inkscape:window-y="24"
     inkscape:window-maximized="1"
     inkscape:current-layer="svg6" />
  <path
     d="m44.322082 27.405077a19.729762 19.729765 0 0 1 -19.729762 19.729765 19.729762 19.729765 0 0 1 -19.7297621-19.729765 19.729762 19.729765 0 0 1 19.7297621-19.7297632 19.729762 19.729765 0 0 1 19.729762 19.7297632z"
     fill="#d9935b"
     opacity=".99"
     transform="matrix(1.1503549 0 0 1.1503549 -4.486125 -7.525565)"
     id="path2"
     style="fill:#f7b56d;fill-opacity:1" />
  <path
     inkscape:connector-curvature="0"
     style="display:inline;fill:#ffffff;fill-opacity:1;stroke-width:0.162773;enable-background:new"
     d="m 32.767714,12.889858 c -1.178369,0.0038 -2.438258,0.0837 -3.525214,0.0837 -2.425795,0 -4.805677,-0.08591 -6.91091,0.06977 -3.252574,0.240493 -5.66462,1.661034 -7.331798,3.455454 -1.703039,1.833112 -3.029915,4.42875 -3.029915,7.613162 0,3.319544 1.288406,5.80029 3.029915,7.613162 1.65676,1.724545 4.109509,3.248666 7.192278,3.455453 5.685734,0.381062 9.470084,-2.802625 11.138375,-6.838821 1.083274,-2.621048 2.392904,-5.771829 3.525217,-8.529347 0.34214,-0.8331 1.014833,-1.89195 1.127789,-2.890394 0.225022,-1.989897 -0.839355,-3.137108 -2.185819,-3.667062 -0.75583,-0.297496 -1.851547,-0.368947 -3.029918,-0.365077 z m 1.006871,1.269635 c 0.797357,-0.03429 1.631075,0.509645 1.530076,1.56263 -0.114809,1.197194 -1.311047,2.034784 -1.832369,2.820636 h 1.832369 c 0.110124,0.1617 0.110124,0.684801 0,0.846422 -0.919944,-0.0905 -1.946534,-0.0752 -2.960156,-0.07207 -0.431513,-1.5825 2.242071,-2.643916 1.971886,-3.946107 -0.127463,-0.614187 -1.002967,-0.63411 -0.844099,0.281368 h -1.058029 c -0.01828,-0.981806 0.656773,-1.462624 1.360322,-1.492871 z m -10.584943,0.934785 c 2.714969,0.0091 4.675141,1.084456 6.052858,2.320689 1.728938,1.551395 3.328656,4.712014 2.748551,8.178222 -0.473624,2.829693 -2.063284,5.079079 -4.653005,6.485371 -2.818089,1.530482 -6.356993,1.301764 -8.882799,-0.211597 -2.437477,-1.460464 -4.731861,-4.291351 -4.371637,-8.743278 0.191533,-2.36716 1.220783,-4.010672 2.539269,-5.357583 1.228524,-1.255089 2.954784,-2.349841 5.357585,-2.606706 0.41926,-0.04482 0.821323,-0.06641 1.209178,-0.0651 z m -3.11363,2.390451 v 1.904452 h 1.623085 c 0.155589,0.549377 0.440847,0.967845 0.562731,1.551002 -1.390886,2.373932 -2.984525,4.961529 -4.369311,7.259709 -0.179191,0.297348 -0.445311,0.653569 -0.423212,0.988271 h 2.395102 c 1.220558,-1.740398 2.270348,-3.651491 3.525212,-5.357583 0.697009,1.981933 1.527805,3.829554 2.185822,5.850555 1.334555,-0.333733 2.682454,-0.653235 3.806577,-1.197551 -0.317062,-0.528985 -0.367272,-1.326091 -0.704575,-1.834693 -0.531892,0.220044 -1.083198,0.422785 -1.69285,0.565057 -1.139453,-3.325419 -2.525206,-6.403946 -3.664733,-9.729219 z"
     id="path7" />
</svg>
