<?xml version="1.0" encoding="UTF-8" standalone="no"?>
<svg
   height="48"
   width="48"
   version="1.1"
   id="svg18"
   sodipodi:docname="mediathekview.svg"
   inkscape:version="1.1.2 (0a00cf5339, 2022-02-04)"
   xmlns:inkscape="http://www.inkscape.org/namespaces/inkscape"
   xmlns:sodipodi="http://sodipodi.sourceforge.net/DTD/sodipodi-0.dtd"
   xmlns="http://www.w3.org/2000/svg"
   xmlns:svg="http://www.w3.org/2000/svg"
   xmlns:rdf="http://www.w3.org/1999/02/22-rdf-syntax-ns#"
   xmlns:cc="http://creativecommons.org/ns#"
   xmlns:dc="http://purl.org/dc/elements/1.1/">
  <metadata
     id="metadata24">
    <rdf:RDF>
      <cc:Work
         rdf:about="">
        <dc:format>image/svg+xml</dc:format>
        <dc:type
           rdf:resource="http://purl.org/dc/dcmitype/StillImage" />
      </cc:Work>
    </rdf:RDF>
  </metadata>
  <defs
     id="defs22" />
  <sodipodi:namedview
     pagecolor="#ffffff"
     bordercolor="#666666"
     borderopacity="1"
     objecttolerance="10"
     gridtolerance="10"
     guidetolerance="10"
     inkscape:pageopacity="0"
     inkscape:pageshadow="2"
     inkscape:window-width="1920"
     inkscape:window-height="1028"
     id="namedview20"
     showgrid="true"
     inkscape:zoom="9.8333334"
     inkscape:cx="22.728813"
     inkscape:cy="34.322034"
     inkscape:window-x="0"
     inkscape:window-y="24"
     inkscape:window-maximized="1"
     inkscape:current-layer="svg18"
     inkscape:pagecheckerboard="0">
    <inkscape:grid
       type="xygrid"
       id="grid834" />
  </sodipodi:namedview>
  <path
     id="circle2"
     style="opacity:0.99;fill:#b7c4c8"
     transform="matrix(1.72140702696 0 0 1.72140725788 -17.2289093957 -30.06939350282)"
     d="M 37.173613,31.534513 A 13.232998,13.232998 0 0 1 23.940615,44.767511 13.232998,13.232998 0 0 1 10.707617,31.534513 13.232998,13.232998 0 0 1 23.940615,18.301516 13.232998,13.232998 0 0 1 37.173613,31.534513 Z" />
  <path
     id="path4490"
     style="opacity:1;fill:#fcfcfd;stroke-width:18.3369;stroke-linecap:round;stroke-linejoin:bevel;fill-opacity:1"
     d="M 43.541956,24.214346 A 19.559322,19.559322 0 0 1 23.982634,43.773668 19.559322,19.559322 0 0 1 4.4233112,24.214346 19.559322,19.559322 0 0 1 23.982634,4.6550236 19.559322,19.559322 0 0 1 43.541956,24.214346 Z" />
  <g
     id="g932"
     transform="matrix(0.90548078,0,0,0.90548078,2.7070224,1.6062159)">
    <path
       d="m 31.740984,10.383319 -3.165878,0.673133 c 0.492044,1.810027 2.180089,2.746597 4.0724,3.533893 l 3.130013,-0.673133 c 0.83923,-1.591178 -2.037061,-2.479605 -4.036642,-3.533893 z m -6.327448,1.346266 -3.165878,0.673133 c 0.284913,1.4013 2.085635,2.487037 4.0724,3.533893 l 3.165878,-0.673133 c -0.882547,-1.331187 -1.672708,-2.6921 -4.0724,-3.533893 z m -6.327448,1.346265 -3.165878,0.673133 c 0.487844,1.799149 1.807766,3.003895 4.0724,3.533893 l 3.165878,-0.673132 c -0.552831,-1.312125 -1.997535,-2.475514 -4.0724,-3.533894 z m -6.293845,1.346266 -2.288652,0.504849 c -0.268176,0.05708 -0.499949,0.149974 -0.708889,0.30291 0.779854,1.25095 1.212285,2.582138 3.872613,3.399267 l 3.163725,-0.673133 c 0.123425,-1.459136 -1.176529,-2.646004 -4.038797,-3.533893 z m 0.976042,5.115809 -4.308049,4.30805 v 11.87837 c 0,1.166404 0.887189,2.120422 1.985795,2.120422 h 24.030302 c 1.097475,0 1.987842,-0.953964 1.987842,-2.120422 v -11.87837 l -1.077013,-4.30805 h -3.231037 l -2.156179,1.077012 -1.074912,-1.077012 h -3.231038 l -2.156179,1.077012 -1.074912,-1.077012 h -3.231037 l -2.156179,1.077012 -1.074912,-1.077012 h -3.231038 z"
       style="fill:#3b4252;stroke-width:1.07701"
       id="path23" />
    <path
       d="m 34.405513,9.846967 c -0.132472,-7.076e-4 -0.265386,0.013376 -0.399668,0.042068 l -2.27185,0.483816 v 0.0021 l 4.059798,3.538201 1.053878,-0.225074 -0.45647,-2.141424 C 36.178426,10.548533 35.332767,9.852029 34.405405,9.8470747 Z m -5.831053,1.203238 -3.159524,0.675233 4.059799,3.536047 3.159523,-0.673132 z m -6.319047,1.350466 -3.159524,0.673133 4.059798,3.538201 3.159524,-0.675233 z m -6.319048,1.34842 -3.159523,0.675233 4.059798,3.538201 3.159524,-0.675233 z m -6.144463,1.478738 c -0.6295895,0.460498 -0.9705717,1.308247 -0.7867256,2.16878 l 0.014723,0.06731 0.4438476,2.071957 4.21338,-0.898207 c 0,0 -3.883707,-3.407775 -3.885215,-3.409822 z m -0.332356,4.310204 v 4.308049 h 1.077013 l 3.231037,-4.308049 z m 7.539087,0 -3.231037,4.308049 h 3.231037 l 3.231038,-4.308049 z m 6.462075,0 -3.231037,4.308049 h 3.231037 l 3.231037,-4.308049 z m 6.462075,0 -3.231038,4.308049 h 3.231038 l 3.231037,-4.308049 z m 6.462074,0 -3.231037,4.308049 h 4.30805 v -4.308049 z"
       style="fill:#b7c4c8;fill-opacity:0.992157;stroke-width:1.07701"
       id="path25" />
    <path
       d="m 13.767801,26 h 2.154025 L 18.614357,30.308049 21.306888,26 h 2.154025 v 9.693112 h -2.154025 v -5.923569 l -2.692531,4.30805 -2.692531,-4.30805 v 5.923569 H 13.767801 V 26"
       style="fill:#73a1cf;fill-opacity:1;stroke-width:1.07701"
       id="path27" />
    <path
       d="M 26.69195,26 28.845975,32.462074 31,26 h 2.154025 l -3.231038,9.693112 H 27.768962 L 24.537925,26"
       style="fill:#db8b72;fill-opacity:1;stroke-width:1.07701"
       id="path29" />
  </g>
</svg>
