<?xml version="1.0" encoding="UTF-8" standalone="no"?>
<svg
   height="48"
   width="48"
   version="1.1"
   id="svg18"
   sodipodi:docname="plexamp.svg"
   inkscape:version="1.1.2 (0a00cf5339, 2022-02-04)"
   xmlns:inkscape="http://www.inkscape.org/namespaces/inkscape"
   xmlns:sodipodi="http://sodipodi.sourceforge.net/DTD/sodipodi-0.dtd"
   xmlns="http://www.w3.org/2000/svg"
   xmlns:svg="http://www.w3.org/2000/svg"
   xmlns:rdf="http://www.w3.org/1999/02/22-rdf-syntax-ns#"
   xmlns:cc="http://creativecommons.org/ns#"
   xmlns:dc="http://purl.org/dc/elements/1.1/">
  <metadata
     id="metadata24">
    <rdf:RDF>
      <cc:Work
         rdf:about="">
        <dc:format>image/svg+xml</dc:format>
        <dc:type
           rdf:resource="http://purl.org/dc/dcmitype/StillImage" />
      </cc:Work>
    </rdf:RDF>
  </metadata>
  <defs
     id="defs22">
    <linearGradient
       id="linearGradient1024"
       x1="192.43761"
       x2="192.53743"
       y1="103.23778"
       y2="311.3898"
       gradientUnits="userSpaceOnUse">
      <stop
         id="stop1224"
         style="stop-color:#8fbcbb"
         offset="0" />
      <stop
         id="stop1226"
         style="stop-color:#97b67c"
         offset="1" />
    </linearGradient>
  </defs>
  <sodipodi:namedview
     pagecolor="#ffffff"
     bordercolor="#666666"
     borderopacity="1"
     objecttolerance="10"
     gridtolerance="10"
     guidetolerance="10"
     inkscape:pageopacity="0"
     inkscape:pageshadow="2"
     inkscape:window-width="1920"
     inkscape:window-height="1033"
     id="namedview20"
     showgrid="true"
     inkscape:zoom="13.906433"
     inkscape:cx="17.078427"
     inkscape:cy="26.246846"
     inkscape:window-x="0"
     inkscape:window-y="24"
     inkscape:window-maximized="1"
     inkscape:current-layer="svg18"
     inkscape:pagecheckerboard="0">
    <inkscape:grid
       type="xygrid"
       id="grid834" />
  </sodipodi:namedview>
  <path
     id="circle2"
     style="opacity:0.99;fill:#b7c4c8"
     transform="matrix(1.72140702696 0 0 1.72140725788 -17.2289093957 -30.06939350282)"
     d="M 37.173613,31.534513 A 13.232998,13.232998 0 0 1 23.940615,44.767511 13.232998,13.232998 0 0 1 10.707617,31.534513 13.232998,13.232998 0 0 1 23.940615,18.301516 13.232998,13.232998 0 0 1 37.173613,31.534513 Z" />
  <path
     id="path4490"
     style="opacity:1;fill:#fcfcfd;stroke-width:18.3369;stroke-linecap:round;stroke-linejoin:bevel;fill-opacity:1"
     d="M 43.541956,24.214346 A 19.559322,19.559322 0 0 1 23.982634,43.773668 19.559322,19.559322 0 0 1 4.4233112,24.214346 19.559322,19.559322 0 0 1 23.982634,4.6550236 19.559322,19.559322 0 0 1 43.541956,24.214346 Z" />
  <path
     style="color:#000000;font-style:normal;font-variant:normal;font-weight:normal;font-stretch:normal;font-size:medium;line-height:normal;font-family:sans-serif;font-variant-ligatures:normal;font-variant-position:normal;font-variant-caps:normal;font-variant-numeric:normal;font-variant-alternates:normal;font-feature-settings:normal;text-indent:0;text-align:start;text-decoration:none;text-decoration-line:none;text-decoration-style:solid;text-decoration-color:#000000;letter-spacing:normal;word-spacing:normal;text-transform:none;writing-mode:lr-tb;direction:ltr;text-orientation:mixed;dominant-baseline:auto;baseline-shift:baseline;text-anchor:start;white-space:normal;shape-padding:0;clip-rule:nonzero;display:inline;overflow:visible;visibility:visible;isolation:auto;mix-blend-mode:normal;color-interpolation:sRGB;color-interpolation-filters:linearRGB;solid-color:#000000;solid-opacity:1;vector-effect:none;fill:#ebcb8b;fill-opacity:1;fill-rule:nonzero;stroke:none;stroke-width:1.93622;stroke-linecap:butt;stroke-linejoin:miter;stroke-miterlimit:4;stroke-dasharray:none;stroke-dashoffset:0;stroke-opacity:1;color-rendering:auto;image-rendering:auto;shape-rendering:auto;text-rendering:auto;enable-background:accumulate"
     d="M 12.590307,9.3740608 21.820579,22.575121 H 6.50758 v 1.937398 H 25.535378 L 16.305106,11.311458 h 1.364322 l 8.977189,12.933434 -10.132061,14.809739 h 5.754009 L 32.62171,24.250707 23.865609,11.311458 h 1.05015 l 9.047004,12.936344 -10.056428,14.806829 h 5.78019 L 38.812073,26.045564 H 42.00034 V 24.108167 H 37.805556 L 28.677102,37.117234 H 27.560044 L 36.313238,24.233255 25.925185,9.3740608 H 20.217716 L 30.271235,24.230346 21.259141,37.117234 H 20.185718 L 29,24.236164 18.681763,9.3740608 Z"
     id="path1399-5"
     inkscape:connector-curvature="0" />
</svg>
