<?xml version="1.0" encoding="UTF-8" standalone="no"?>
<svg
   xmlns:dc="http://purl.org/dc/elements/1.1/"
   xmlns:cc="http://creativecommons.org/ns#"
   xmlns:rdf="http://www.w3.org/1999/02/22-rdf-syntax-ns#"
   xmlns:svg="http://www.w3.org/2000/svg"
   xmlns="http://www.w3.org/2000/svg"
   xmlns:sodipodi="http://sodipodi.sourceforge.net/DTD/sodipodi-0.dtd"
   xmlns:inkscape="http://www.inkscape.org/namespaces/inkscape"
   height="48"
   width="48"
   version="1.1"
   id="svg6"
   sodipodi:docname="re.sonny.Commit.svg"
   inkscape:version="1.0.2 (e86c870879, 2021-01-15)">
  <metadata
     id="metadata12">
    <rdf:RDF>
      <cc:Work
         rdf:about="">
        <dc:format>image/svg+xml</dc:format>
        <dc:type
           rdf:resource="http://purl.org/dc/dcmitype/StillImage" />
        <dc:title></dc:title>
      </cc:Work>
    </rdf:RDF>
  </metadata>
  <defs
     id="defs10" />
  <sodipodi:namedview
     pagecolor="#ffffff"
     bordercolor="#666666"
     borderopacity="1"
     objecttolerance="10"
     gridtolerance="10"
     guidetolerance="10"
     inkscape:pageopacity="0"
     inkscape:pageshadow="2"
     inkscape:window-width="1920"
     inkscape:window-height="1028"
     id="namedview8"
     showgrid="false"
     inkscape:zoom="5.6568539"
     inkscape:cx="17.067241"
     inkscape:cy="54.338821"
     inkscape:window-x="0"
     inkscape:window-y="24"
     inkscape:window-maximized="1"
     inkscape:current-layer="svg6"
     inkscape:document-rotation="0" />
  <circle
     cx="23.940615"
     cy="31.534513"
     fill="#74a2f3"
     opacity=".99"
     id="circle2"
     style="fill:#9a9dce;fill-opacity:1"
     transform="matrix(1.75830584759 0 0 1.75830608345 -18.15909274367 -30.97874795549)"
     r="13.232998" />
  <ellipse
     cx="23.935829"
     cy="24.468578"
     fill="#74a2f3"
     opacity="0.99"
     id="circle856"
     style="fill:#535353;fill-opacity:1;stroke-width:1.54048"
     rx="20.385096"
     ry="20.385099" />
  <g
     id="g130708"
     transform="matrix(0.38711982,0,0,0.38711982,-0.93200033,-0.08826606)">
    <path
       d="m 69.65625,117.73828 48.08203,-48.08203 c 3.125,-3.125 3.125,-8.1875 0,-11.3125 L 69.65625,10.261719 c -3.125,-3.125 -8.1875,-3.125 -11.3125,0 L 10.261719,58.34375 c -3.125,3.125 -3.125,8.1875 0,11.3125 l 48.082031,48.08203 c 3.125,3.125 8.1875,3.125 11.3125,0 z m 0,0"
       fill="#f6f5f4"
       id="path130647" />
    <path
       d="m 56,38 h 4 v 71.52677 h -4 z m 0,0"
       fill="#9a9996"
       id="path130649"
       style="stroke-width:0.957606" />
    <path
       d="m 58,88 h 10 c 5.523438,0 10,-4.476562 10,-10 V 42"
       fill="none"
       stroke="#9a9996"
       stroke-linecap="round"
       stroke-width="4"
       id="path130651" />
    <path
       d="m 8.496094,61 c -1.171875,2.886719 -0.585938,6.308594 1.761718,8.65625 l 48.085938,48.08203 c 3.132812,3.13672 8.179688,3.13672 11.3125,0 l 48.08203,-48.08203 c 2.35156,-2.347656 2.9375,-5.769531 1.76953,-8.65625 -0.39453,0.964844 -0.98047,1.871094 -1.76953,2.65625 l -48.08203,48.08203 c -3.132812,3.13672 -8.179688,3.13672 -11.3125,0 L 10.257812,63.65625 C 9.472656,62.871094 8.886719,61.964844 8.496094,61 Z m 0,0"
       fill="url(#a)"
       id="path130661" />
    <path
       d="m 64,86 c 0,3.3125 -2.6875,6 -6,6 -3.3125,0 -6,-2.6875 -6,-6 0,-3.3125 2.6875,-6 6,-6 3.3125,0 6,2.6875 6,6 z m 0,0"
       fill="#c061cb"
       id="path130663" />
    <path
       d="m 66,32 c 0,4.417969 -3.582031,8 -8,8 -4.417969,0 -8,-3.582031 -8,-8 0,-4.417969 3.582031,-8 8,-8 4.417969,0 8,3.582031 8,8 z m 0,0"
       fill="#ed333b"
       id="path130665"
       style="fill:#c25e62;fill-opacity:1" />
    <path
       d="m 84,44 c 0,3.3125 -2.6875,6 -6,6 -3.3125,0 -6,-2.6875 -6,-6 0,-3.3125 2.6875,-6 6,-6 3.3125,0 6,2.6875 6,6 z m 0,0"
       fill="#57e389"
       id="path130667"
       style="fill:#6bb184;fill-opacity:1" />
    <path
       d="m 64,59 c 0,3.3125 -2.6875,6 -6,6 -3.3125,0 -6,-2.6875 -6,-6 0,-3.3125 2.6875,-6 6,-6 3.3125,0 6,2.6875 6,6 z m 0,0"
       fill="#62a0ea"
       id="path130669" />
    <path
       d="m 104.80078,30.296875 2.82813,-2.828125 c 1.5625,-1.5625 4.09765,-1.5625 5.66015,0 l 4.24219,4.242188 c 1.5625,1.5625 1.5625,4.097656 0,5.660156 l -2.82812,2.828125 c -1.5625,1.5625 -4.09766,1.5625 -5.66016,0 l -4.24219,-4.242188 c -1.5625,-1.5625 -1.5625,-4.097656 0,-5.660156 z m 0,0"
       fill="url(#b)"
       id="path130671" />
    <path
       d="m 69.050781,80.898438 -4.949219,-4.949219 1.101563,-6.050781 9.898437,9.898437 z m 0,0"
       fill="url(#c)"
       id="path130673" />
    <path
       d="m 101.97266,33.125 2.82812,-2.828125 9.90235,9.902344 -2.83204,2.828125 z m 0,0"
       fill="url(#d)"
       id="path130683" />
  </g>
</svg>
