<?xml version="1.0" encoding="UTF-8" standalone="no"?>
<svg
   height="48"
   width="48"
   version="1.1"
   id="svg6"
   sodipodi:docname="trinity-desktop.svg"
   inkscape:version="1.1.2 (0a00cf5339, 2022-02-04)"
   xmlns:inkscape="http://www.inkscape.org/namespaces/inkscape"
   xmlns:sodipodi="http://sodipodi.sourceforge.net/DTD/sodipodi-0.dtd"
   xmlns="http://www.w3.org/2000/svg"
   xmlns:svg="http://www.w3.org/2000/svg"
   xmlns:rdf="http://www.w3.org/1999/02/22-rdf-syntax-ns#"
   xmlns:cc="http://creativecommons.org/ns#"
   xmlns:dc="http://purl.org/dc/elements/1.1/">
  <metadata
     id="metadata12">
    <rdf:RDF>
      <cc:Work
         rdf:about="">
        <dc:format>image/svg+xml</dc:format>
        <dc:type
           rdf:resource="http://purl.org/dc/dcmitype/StillImage" />
      </cc:Work>
    </rdf:RDF>
  </metadata>
  <defs
     id="defs10" />
  <sodipodi:namedview
     pagecolor="#ffffff"
     bordercolor="#666666"
     borderopacity="1"
     objecttolerance="10"
     gridtolerance="10"
     guidetolerance="10"
     inkscape:pageopacity="0"
     inkscape:pageshadow="2"
     inkscape:window-width="1920"
     inkscape:window-height="1028"
     id="namedview8"
     showgrid="false"
     inkscape:zoom="4.7291666"
     inkscape:cx="47.048459"
     inkscape:cy="18.079295"
     inkscape:window-x="0"
     inkscape:window-y="24"
     inkscape:window-maximized="1"
     inkscape:current-layer="svg6"
     inkscape:document-rotation="0"
     inkscape:pagecheckerboard="0" />
  <circle
     cx="23.940615"
     cy="31.534513"
     fill="#5e81ac"
     opacity=".99"
     r="13.232998"
     transform="matrix(1.75830584759 0 0 1.75830608345 -18.15909274367 -30.97874795549)"
     id="circle2"
     style="fill:#8191ac;fill-opacity:1" />
  <ellipse
     cx="23.935829"
     cy="24.468578"
     fill="#5e81ac"
     opacity="0.99"
     id="circle1050"
     style="fill:#ffffff;fill-opacity:0.15316169;stroke-width:1.59129"
     rx="21.057631"
     ry="21.057634" />
  <path
     d="m 30.259851,9.2046131 c -0.670681,0.03149 -1.28039,0.403421 -1.615727,0.9846779 -0.173757,0.300803 -0.265238,0.64121 -0.265238,0.987729 0,0.704212 0.377002,1.356602 0.98671,1.708198 0.299767,0.173757 0.640197,0.265238 0.98773,0.265238 0.704213,0 1.356602,-0.377002 1.708202,-0.986714 0.173756,-0.299766 0.265238,-0.640193 0.265238,-0.986711 0,-0.704213 -0.377002,-1.3566029 -0.986711,-1.7092159 -0.328225,-0.190037 -0.703198,-0.280447 -1.080204,-0.263202 z M 17.56165,12.289739 h -9.99e-4 c -0.682874,0 -1.243806,0.561946 -1.243806,1.24482 v 10e-4 c 0,0.681856 0.562964,1.242788 1.24482,1.242788 0.68186,-10e-4 1.242791,-0.561946 1.242791,-1.242788 9.99e-4,-0.682874 -0.559917,-1.244823 -1.242791,-1.245838 z m 3.133902,0.317048 h -10e-4 c -0.595483,0 -1.0863,0.489799 -1.0863,1.086297 0.001,0.596499 0.49183,1.08528 1.087313,1.08528 0.594465,-10e-4 1.084268,-0.489797 1.084268,-1.08528 9.99e-4,-0.595483 -0.488785,-1.086297 -1.084268,-1.086297 z m -6.77488,0.12497 c -0.804816,0 -1.46635,0.661535 -1.46635,1.466352 v 10e-4 c 0,0.803798 0.661534,1.466348 1.46635,1.466348 0.804816,0 1.46635,-0.66255 1.46635,-1.466348 v -10e-4 c 0,-0.804817 -0.661534,-1.466352 -1.46635,-1.466352 z m 9.353951,0.762139 c -0.517236,-10e-4 -0.944032,0.423745 -0.945051,0.942001 v 10e-4 c 0,0.518254 0.426797,0.944034 0.944033,0.944034 h 9.99e-4 c 0.518251,0 0.944032,-0.426796 0.944032,-0.945047 -9.99e-4,-0.517237 -0.426796,-0.942001 -0.944032,-0.942001 z m 7.528888,1.02431 c -0.573126,0.0265 -1.094429,0.344471 -1.38201,0.841399 -0.46236,0.802784 -0.18293,1.843352 0.618855,2.305713 0.801769,0.462365 1.842337,0.183931 2.305716,-0.616822 0.148373,-0.257096 0.225602,-0.548738 0.225602,-0.845463 0,-0.602594 -0.322117,-1.160478 -0.843433,-1.462282 -0.280448,-0.161578 -0.601578,-0.238814 -0.924723,-0.222528 z m -5.565626,0.176833 h -0.002 c -0.448135,0 -0.81701,0.368858 -0.818025,0.817009 v 0.002 c 0,0.448135 0.369897,0.817011 0.818025,0.817011 h 0.002 c 0.448136,0 0.817011,-0.36886 0.817011,-0.817011 v -0.002 c 0,-0.448134 -0.36886,-0.817009 -0.817011,-0.817009 z m 9.856957,0.427814 c -0.573126,0.02727 -1.093411,0.346507 -1.379973,0.84343 -0.463379,0.800753 -0.184928,1.841321 0.615805,2.3047 0.257095,0.148373 0.548737,0.226599 0.846479,0.226599 0.601581,0 1.159464,-0.322118 1.46127,-0.844446 0.46236,-0.801768 0.18293,-1.842336 -0.618855,-2.3047 -0.280485,-0.162567 -0.601581,-0.24085 -0.924726,-0.225603 z m -16.964129,0.775345 c -0.682875,10e-4 -1.243806,0.562964 -1.243806,1.244825 10e-4,0.682874 0.560931,1.242787 1.243806,1.243806 0.681855,0 1.243805,-0.560932 1.244819,-1.243806 0,-0.682874 -0.561946,-1.244825 -1.244819,-1.244825 z m 8.562344,0.220494 h -0.001 c -0.379036,0 -0.689986,0.312979 -0.689986,0.692019 0,0.380035 0.310941,0.692018 0.689986,0.692018 h 0.001 c 0.379036,0 0.691003,-0.311979 0.691003,-0.692018 0,-0.379037 -0.311978,-0.692019 -0.691003,-0.692019 z m -5.429459,0.09655 c -0.595483,0.001 -1.085282,0.491832 -1.084264,1.0863 0,0.59548 0.489799,1.084264 1.084264,1.085282 0.595483,0 1.086298,-0.488784 1.087313,-1.085282 v -0.001 c 0,-0.595483 -0.490813,-1.085282 -1.086295,-1.085282 z m -6.772849,0.126013 c -0.804816,0 -1.466348,0.661536 -1.466348,1.466352 0,0.803802 0.661532,1.465332 1.466348,1.465332 0.804815,0 1.467368,-0.66153 1.467368,-1.465332 0,-0.805829 -0.662553,-1.467364 -1.467368,-1.467364 z m 9.352932,0.761121 c -0.51825,0.001 -0.941997,0.425782 -0.943015,0.94302 -9.99e-4,0.51825 0.424765,0.945046 0.943015,0.945046 0.518255,0 0.945051,-0.425778 0.945051,-0.944034 v -0.001 c -0.001,-0.51827 -0.427815,-0.943035 -0.945051,-0.943035 z m -13.340428,0.6971 c -0.9267574,0 -1.6878784,0.762137 -1.6878784,1.686864 0,0.925738 0.761121,1.687878 1.6878784,1.687878 0.925743,0 1.687878,-0.76214 1.687878,-1.687878 0,-0.924727 -0.762135,-1.686864 -1.687878,-1.686864 z m 15.302678,0.505043 c -0.44814,0 -0.817011,0.368859 -0.817011,0.81701 0,0.448138 0.36886,0.817009 0.817011,0.817009 0.448135,0 0.81701,-0.368859 0.81701,-0.817009 0,-0.448135 -0.368861,-0.81701 -0.81701,-0.81701 z m 4.467131,0.728604 c -0.49793,0.02227 -0.951144,0.298768 -1.201124,0.730633 -0.128047,0.223567 -0.196144,0.476592 -0.196144,0.733682 0,0.524349 0.280485,1.009068 0.733682,1.271244 0.6971,0.40139 1.600487,0.157513 2.001877,-0.538576 0.402409,-0.696085 0.161578,-1.598455 -0.534512,-2.001876 -0.243883,-0.140224 -0.522315,-0.209317 -0.803798,-0.195107 z m 4.291333,0.604629 c -0.497926,0.02342 -0.950128,0.299764 -1.199093,0.731649 -0.129054,0.22253 -0.197142,0.476588 -0.197142,0.734697 0,0.523336 0.279447,1.008053 0.732667,1.269211 0.22253,0.129054 0.475574,0.197143 0.733682,0.197143 0.523333,0 1.009068,-0.280485 1.270228,-0.734699 0.40139,-0.6971 0.158502,-1.600484 -0.537562,-2.001877 -0.243883,-0.141268 -0.522318,-0.209317 -0.802783,-0.196107 z m -14.811857,0.282479 c -0.682874,-0.001 -1.243807,0.559913 -1.245838,1.242787 v 10e-4 c 0,0.682874 0.562964,1.24482 1.245838,1.24482 h 10e-4 c 0.682874,0 1.244823,-0.561946 1.244823,-1.24482 v -10e-4 c -9.99e-4,-0.682874 -0.562962,-1.243805 -1.245836,-1.242787 z m 3.133902,0.314014 c -0.597514,0 -1.087313,0.490817 -1.087313,1.0863 v 9.99e-4 c 0,0.596501 0.489799,1.087315 1.087313,1.087315 0.595483,-0.001 1.085283,-0.491832 1.085283,-1.087315 0,-0.595483 -0.4898,-1.086295 -1.085283,-1.087313 z m -6.77488,0.128045 c -0.804816,0 -1.46635,0.662551 -1.46635,1.466349 v 9.99e-4 c 0,0.803797 0.661534,1.465332 1.46635,1.465332 h 10e-4 c 0.8038,0 1.466349,-0.661535 1.466349,-1.465332 v -9.99e-4 c 0,-0.803798 -0.662549,-1.466349 -1.466349,-1.466349 z m 21.863141,0.586336 c -0.49793,0.02342 -0.952159,0.298766 -1.201124,0.731649 -0.129054,0.222531 -0.196144,0.475574 -0.196144,0.733683 0,0.523336 0.280485,1.009071 0.733682,1.270231 0.6971,0.40139 1.600485,0.158502 2.001876,-0.537561 0.402408,-0.696088 0.160534,-1.59947 -0.534508,-2.002896 -0.243883,-0.140225 -0.522318,-0.208319 -0.803802,-0.195106 z m -12.509193,0.172749 c -0.518251,0 -0.945047,0.425781 -0.945047,0.944032 v 0.001 c 9.99e-4,0.51825 0.426796,0.943013 0.945047,0.943013 0.517236,-9.99e-4 0.942001,-0.426795 0.943019,-0.943013 9.99e-4,-0.517238 -0.424765,-0.94505 -0.943019,-0.94505 z m -13.342462,0.695067 c -0.924724,0 -1.68686,0.762139 -1.68686,1.688896 0,0.925739 0.762136,1.68686 1.68686,1.687877 0.925745,-10e-4 1.687878,-0.762138 1.687878,-1.687877 0,-0.926757 -0.762133,-1.688896 -1.687878,-1.688896 z m 16.916373,0.922695 c -0.422732,0.01921 -0.807866,0.254062 -1.01923,0.620884 -0.341436,0.591421 -0.135152,1.358635 0.456266,1.700073 0.591415,0.340437 1.357617,0.134108 1.699054,-0.456266 0.341436,-0.590398 0.13616,-1.3566 -0.454234,-1.699055 -0.206283,-0.119897 -0.443053,-0.176832 -0.681856,-0.165643 z m 4.291333,0.604627 c -0.422729,0.02151 -0.806848,0.256096 -1.018212,0.621904 -0.341438,0.591419 -0.136159,1.357616 0.454233,1.700071 0.189001,0.108726 0.404439,0.16665 0.622918,0.16665 0.445089,0 0.856641,-0.238813 1.079186,-0.62292 0.340437,-0.591415 0.134126,-1.358634 -0.456266,-1.700072 -0.207282,-0.118908 -0.444071,-0.176833 -0.681859,-0.164618 z m -13.41969,0.986715 c -0.158538,0.0041 -0.314014,0.04774 -0.451184,0.128046 -0.448135,0.259131 -0.603614,0.841399 -0.344471,1.289533 0.259131,0.448139 0.841397,0.603615 1.289532,0.344471 0.44814,-0.259131 0.603614,-0.841398 0.344472,-1.289533 -0.171759,-0.298766 -0.493862,-0.479641 -0.838349,-0.472523 z M 8.0349478,24.504235 c -1.0812148,9.99e-4 -1.9713893,0.891193 -1.9713893,1.973424 v 0.002 c 0.00101,1.081216 0.8901745,1.971393 1.9713893,1.971393 h 0.00198 c 1.0822312,0 1.9724062,-0.890177 1.9724062,-1.971393 v -0.002 c 0,-1.082231 -0.890175,-1.973424 -1.9724062,-1.973424 z m 28.7061092,0.150407 c -0.422734,0.01921 -0.807865,0.254021 -1.020247,0.620885 -0.340438,0.59142 -0.134127,1.358633 0.457284,1.699053 0.591415,0.340439 1.357616,0.135152 1.699052,-0.455247 0.34044,-0.590402 0.13616,-1.357617 -0.454232,-1.700072 -0.206285,-0.118907 -0.443055,-0.176832 -0.681857,-0.164618 z m -9.39866,0.87493 c -0.36886,0.01844 -0.705231,0.22253 -0.889162,0.542639 -0.09552,0.164617 -0.146323,0.352614 -0.146323,0.543656 0,0.388182 0.207283,0.747914 0.544675,0.940988 0.164618,0.09655 0.352614,0.146324 0.543656,0.146324 0.387165,0 0.746896,-0.207283 0.940985,-0.543663 0.09552,-0.165643 0.146323,-0.352612 0.146323,-0.544669 0,-0.387164 -0.208319,-0.746895 -0.544671,-0.940982 -0.179855,-0.104661 -0.387168,-0.154473 -0.595483,-0.144291 z M 17.19481,25.634233 c -0.138192,0.003 -0.272342,0.04064 -0.392248,0.108726 -0.252027,0.146322 -0.407491,0.416637 -0.407491,0.708279 0,0.144291 0.03763,0.285555 0.10977,0.41054 0.146323,0.252025 0.415619,0.407484 0.70828,0.407484 0.143301,0 0.284517,-0.03861 0.409521,-0.109769 0.386149,-0.224566 0.5213,-0.727584 0.29773,-1.115766 -0.149363,-0.259131 -0.427814,-0.416634 -0.725551,-0.409521 z m 14.440951,0.50301 c -0.368861,0.01619 -0.704213,0.220494 -0.890175,0.539589 -0.09552,0.165644 -0.146323,0.353613 -0.146323,0.544675 0,0.388182 0.207281,0.746895 0.542642,0.940985 0.164618,0.09552 0.352615,0.146322 0.543657,0.146322 0.388182,0 0.747908,-0.208318 0.940984,-0.544669 0.29773,-0.515205 0.117865,-1.184871 -0.397328,-1.482612 -0.179854,-0.103653 -0.386149,-0.154472 -0.59345,-0.14429 z m -16.883854,0.01115 c -0.114842,0.003 -0.227637,0.03571 -0.328225,0.09349 -0.328225,0.189 -0.44204,0.61479 -0.253023,0.943015 0.121948,0.213389 0.350576,0.346506 0.598529,0.346506 0.12094,0 0.240848,-0.03265 0.346505,-0.09349 0.21239,-0.122938 0.344473,-0.351615 0.344473,-0.597514 0,-0.121948 -0.03265,-0.241849 -0.09349,-0.347544 -0.126014,-0.217459 -0.362791,-0.350576 -0.614789,-0.344469 z m 5.802397,0.64731 c -0.182893,0.0041 -0.361755,0.05285 -0.520287,0.144291 -0.336367,0.194107 -0.543657,0.553818 -0.543657,0.942001 0,0.190036 0.05082,0.378 0.146323,0.542641 0.19411,0.335331 0.552806,0.542641 0.939971,0.542641 0.191034,0 0.380035,-0.04978 0.544674,-0.145298 0.515201,-0.298766 0.695067,-0.967407 0.398341,-1.483625 -0.198142,-0.343472 -0.569059,-0.551787 -0.965372,-0.54264 z m 14.48973,0.651372 c -0.368859,0.01727 -0.704212,0.221532 -0.890175,0.540607 -0.09451,0.165644 -0.145333,0.352613 -0.145333,0.543657 0,0.388182 0.207283,0.747908 0.544674,0.942001 0.164619,0.09451 0.352615,0.146323 0.542644,0.146323 0.388178,0 0.747908,-0.208319 0.941998,-0.544675 0.296731,-0.516218 0.117864,-1.184866 -0.398341,-1.482608 -0.180896,-0.104661 -0.388182,-0.154472 -0.595483,-0.145334 z m -9.629334,0.08638 c -0.32112,0.01619 -0.612759,0.194108 -0.772298,0.473541 -0.08334,0.143301 -0.127003,0.304873 -0.127003,0.470491 0,0.337365 0.180896,0.650355 0.473541,0.819042 0.143301,0.0823 0.305871,0.12497 0.470491,0.12497 0.338403,0 0.650355,-0.179854 0.819043,-0.472524 0.08334,-0.143301 0.126013,-0.305871 0.126013,-0.471508 0,-0.337367 -0.180896,-0.650355 -0.472523,-0.818027 -0.157512,-0.09045 -0.336366,-0.134127 -0.517237,-0.126013 z m -8.174162,0.211352 c -0.158538,0.0041 -0.314016,0.04778 -0.451185,0.126013 -0.448135,0.260129 -0.603613,0.842412 -0.344471,1.290552 0.25913,0.448135 0.841399,0.603609 1.289533,0.344471 0.448138,-0.259133 0.603614,-0.841399 0.344471,-1.289534 C 17.906137,27.91858 17.585023,27.737687 17.240538,27.7448 Z m -2.886972,0.186966 c -0.137184,0.003 -0.270307,0.04166 -0.38818,0.108725 -0.254062,0.146324 -0.410539,0.417651 -0.410539,0.709293 0,0.144291 0.03763,0.284519 0.109769,0.409522 0.146323,0.252026 0.416634,0.407489 0.707261,0.407489 0.144291,0 0.286554,-0.03861 0.41054,-0.109769 0.252025,-0.146323 0.407488,-0.416634 0.407488,-0.708276 0,-0.14429 -0.03763,-0.284517 -0.109769,-0.409521 -0.149363,-0.258092 -0.427813,-0.4146 -0.72657,-0.407487 z m 15.354501,0.20732 c -0.322118,0.01529 -0.612758,0.19407 -0.773314,0.472523 -0.259131,0.448134 -0.103653,1.03041 0.344471,1.289533 0.143301,0.08334 0.305872,0.127021 0.471506,0.127021 0.337365,0 0.650358,-0.180896 0.818027,-0.473543 0.259131,-0.448134 0.103653,-1.030404 -0.34447,-1.289531 -0.156505,-0.09045 -0.335331,-0.134127 -0.51622,-0.126014 z m -7.730094,1.289532 c -0.208319,0.005 -0.412571,0.06298 -0.593447,0.167694 -0.589388,0.342474 -0.794658,1.108655 -0.454235,1.700071 0.341438,0.590403 1.108652,0.796689 1.700072,0.456266 0.385133,-0.222529 0.622917,-0.634097 0.622917,-1.079183 0,-0.218496 -0.05692,-0.433908 -0.16665,-0.622921 -0.227637,-0.394272 -0.653404,-0.633074 -1.108657,-0.621898 z m 5.822721,0 c -0.277413,0.01313 -0.530447,0.16665 -0.67068,0.40749 -0.07113,0.12497 -0.109769,0.265238 -0.109769,0.408503 0,0.29266 0.157512,0.563981 0.410536,0.709298 0.388182,0.222528 0.891193,0.08737 1.114752,-0.300802 0.07217,-0.12497 0.110758,-0.265238 0.110758,-0.409522 0,-0.291662 -0.156505,-0.561949 -0.408506,-0.707263 -0.136159,-0.07823 -0.290624,-0.114842 -0.447116,-0.107736 z m 5.317675,0.02151 c -0.321119,0.01421 -0.61479,0.193071 -0.775346,0.472528 -0.0823,0.143301 -0.126014,0.305872 -0.126014,0.471506 0,0.337365 0.180896,0.64934 0.473543,0.818027 0.1433,0.0823 0.304835,0.126014 0.470491,0.126014 0.337365,0 0.650355,-0.180898 0.819042,-0.472524 0.0823,-0.143301 0.126014,-0.30687 0.126014,-0.47151 0,-0.337365 -0.180857,-0.650355 -0.473537,-0.819042 -0.15548,-0.0894 -0.334333,-0.133119 -0.514191,-0.12497 z m -18.71806,0.593455 c -0.157512,0.003 -0.311979,0.04673 -0.449149,0.12497 -0.292661,0.168684 -0.472528,0.481668 -0.472528,0.819043 0,0.165643 0.04267,0.328224 0.12497,0.471509 0.259131,0.448135 0.841399,0.603609 1.290552,0.344471 0.291623,-0.168683 0.472522,-0.480655 0.472522,-0.818024 0,-0.165644 -0.04371,-0.328225 -0.126013,-0.47151 -0.172749,-0.298765 -0.495899,-0.479637 -0.840384,-0.470491 z m 3.48042,0.164618 c -0.181895,0.005 -0.359718,0.05488 -0.516217,0.145334 -0.337368,0.193071 -0.544675,0.552802 -0.544675,0.940983 0,0.191036 0.05082,0.379038 0.146323,0.544674 0.193071,0.335331 0.552804,0.54264 0.940982,0.54264 0.191035,0 0.379037,-0.04977 0.543661,-0.145333 0.336368,-0.193071 0.544671,-0.552806 0.544671,-0.940983 0,-0.191036 -0.05082,-0.379038 -0.146323,-0.544675 -0.198141,-0.343465 -0.571095,-0.55178 -0.968422,-0.542636 z m 13.328236,0.531467 c -0.277413,0.01313 -0.529431,0.166651 -0.66763,0.407485 -0.07214,0.12497 -0.109769,0.265238 -0.109769,0.409525 0,0.291662 0.155479,0.561946 0.407488,0.708276 0.123981,0.07113 0.265238,0.108726 0.409521,0.108726 0.291624,0 0.56195,-0.156505 0.707264,-0.409525 0.07316,-0.12497 0.110758,-0.265238 0.110758,-0.409519 0,-0.291662 -0.155461,-0.561946 -0.408506,-0.708277 -0.135152,-0.07723 -0.291662,-0.114842 -0.449153,-0.106692 z m -1.845385,0.737753 c -0.234743,0.01115 -0.449153,0.141268 -0.566013,0.344471 -0.189001,0.328225 -0.0742,0.754008 0.253025,0.943016 0.106693,0.06199 0.225601,0.09349 0.347543,0.09349 0.246918,0 0.475574,-0.132112 0.597514,-0.344471 0.06095,-0.10466 0.09349,-0.224565 0.09349,-0.346507 0,-0.246918 -0.132076,-0.475574 -0.346506,-0.599547 -0.115832,-0.06503 -0.246918,-0.09755 -0.379037,-0.09045 z m -4.994531,0.549755 c -0.24492,0.0061 -0.485736,0.07417 -0.698118,0.198142 -0.696081,0.401394 -0.93895,1.305794 -0.537557,2.00188 0.261166,0.453216 0.74689,0.734696 1.270226,0.734696 0.258095,0 0.511138,-0.06809 0.733683,-0.197142 0.454233,-0.261167 0.733682,-0.745877 0.733682,-1.270226 0,-0.257096 -0.0691,-0.511137 -0.197142,-0.7347 -0.268273,-0.463379 -0.769252,-0.744859 -1.304778,-0.732664 z m -9.326512,0.479637 c -0.181895,0.003 -0.360757,0.05285 -0.518251,0.144291 -0.336368,0.194069 -0.544675,0.55382 -0.544675,0.940984 0,0.192071 0.05082,0.379037 0.145298,0.544673 0.195108,0.336369 0.554837,0.543657 0.942001,0.543657 0.191037,0 0.378039,-0.05082 0.543657,-0.146323 0.336368,-0.193072 0.544675,-0.552806 0.544675,-0.940985 0,-0.191035 -0.05082,-0.379037 -0.146324,-0.54366 -0.19814,-0.343473 -0.570075,-0.551784 -0.966388,-0.542639 z m 4.264912,0.337365 c -0.207283,0.0041 -0.411554,0.06199 -0.593448,0.165643 -0.384119,0.222531 -0.621904,0.634099 -0.621904,1.077152 0,0.219495 0.05792,0.434927 0.168684,0.623934 0.341438,0.59142 1.107639,0.795671 1.699058,0.454235 0.591415,-0.341438 0.796685,-1.107639 0.456265,-1.699055 -0.227637,-0.39428 -0.653404,-0.633082 -1.108655,-0.621901 z m 8.50239,1.576096 c -0.281484,0.0074 -0.557882,0.08433 -0.802783,0.226599 -0.522318,0.299767 -0.845463,0.859693 -0.845463,1.462288 0,0.296732 0.07823,0.587352 0.226601,0.844446 0.300802,0.521302 0.858674,0.84343 1.46127,0.84343 0.296731,0 0.58837,-0.07823 0.845461,-0.226599 0.800752,-0.463378 1.079187,-1.502934 0.616821,-2.3047 -0.307908,-0.534512 -0.885092,-0.859692 -1.501914,-0.845464 z m -11.341602,0.719455 c -0.209317,0.005 -0.413585,0.063 -0.593447,0.167694 -0.591419,0.342436 -0.795671,1.108652 -0.454235,1.699055 0.341438,0.591415 1.107639,0.797701 1.699055,0.457278 0.590401,-0.341436 0.797702,-1.108652 0.456266,-1.700067 -0.226601,-0.394281 -0.652386,-0.635115 -1.107639,-0.623939 z m 5.230288,0.302838 c -0.244921,0.0061 -0.485735,0.07316 -0.698117,0.195108 -0.696082,0.402406 -0.938952,1.305794 -0.537559,2.002894 0.261167,0.454234 0.74689,0.7347 1.271241,0.7347 0.257096,0 0.510123,-0.06809 0.732667,-0.197142 0.453217,-0.262166 0.733683,-0.746895 0.733683,-1.269213 0,-0.259131 -0.06809,-0.512154 -0.198141,-0.734699 -0.268271,-0.46338 -0.768234,-0.743846 -1.303759,-0.731651 z m 10.723763,0.746896 c -0.330261,0.0092 -0.652391,0.100577 -0.938952,0.265236 -0.935903,0.541625 -1.2621,1.756979 -0.721489,2.6939 0.541625,0.936916 1.756976,1.262095 2.693895,0.721487 0.935902,-0.54061 1.2621,-1.756979 0.722507,-2.69288 -0.360756,-0.624952 -1.035492,-1.003986 -1.755961,-0.987729 z m -13.562975,1.550691 c -0.245918,0.0061 -0.486748,0.07316 -0.699131,0.196105 -0.6971,0.40139 -0.938952,1.304777 -0.537562,2.001877 0.261167,0.454235 0.746894,0.7347 1.270226,0.7347 0.258095,0 0.511141,-0.06809 0.734701,-0.197142 0.452202,-0.262166 0.731649,-0.746892 0.731649,-1.269208 0,-0.258095 -0.06706,-0.512156 -0.197142,-0.7347 -0.267273,-0.463379 -0.76925,-0.743846 -1.302745,-0.731652 z m 6.280001,0.09552 c -0.281485,0.0074 -0.557883,0.08534 -0.802784,0.225601 -0.801766,0.463379 -1.081215,1.502932 -0.618853,2.3047 0.300802,0.523336 0.859687,0.846479 1.462283,0.846479 0.296732,0 0.587356,-0.07823 0.844449,-0.226601 0.521299,-0.301801 0.843429,-0.859687 0.843429,-1.461268 0,-0.297732 -0.07723,-0.588367 -0.225602,-0.846476 -0.308907,-0.533498 -0.886111,-0.857661 -1.502933,-0.842417 z"
     fill="#ffffff"
     fill-rule="nonzero"
     id="path9"
     style="stroke-width:1.01618" />
</svg>
