<?xml version="1.0" encoding="UTF-8" standalone="no"?>
<svg
   xmlns:dc="http://purl.org/dc/elements/1.1/"
   xmlns:cc="http://creativecommons.org/ns#"
   xmlns:rdf="http://www.w3.org/1999/02/22-rdf-syntax-ns#"
   xmlns:svg="http://www.w3.org/2000/svg"
   xmlns="http://www.w3.org/2000/svg"
   xmlns:sodipodi="http://sodipodi.sourceforge.net/DTD/sodipodi-0.dtd"
   xmlns:inkscape="http://www.inkscape.org/namespaces/inkscape"
   height="48"
   width="48"
   version="1.1"
   id="svg6"
   sodipodi:docname="tromvideo.svg"
   inkscape:version="1.0.2 (e86c870879, 2021-01-15)">
  <metadata
     id="metadata12">
    <rdf:RDF>
      <cc:Work
         rdf:about="">
        <dc:format>image/svg+xml</dc:format>
        <dc:type
           rdf:resource="http://purl.org/dc/dcmitype/StillImage" />
        <dc:title></dc:title>
      </cc:Work>
    </rdf:RDF>
  </metadata>
  <defs
     id="defs10">
    <marker
       style="overflow:visible"
       id="DotL"
       refX="0.0"
       refY="0.0"
       orient="auto"
       inkscape:stockid="DotL"
       inkscape:isstock="true">
      <path
         transform="scale(0.8) translate(7.4, 1)"
         style="fill-rule:evenodd;stroke:#000000;stroke-width:1pt;stroke-opacity:1;fill:#000000;fill-opacity:1"
         d="M -2.5,-1.0 C -2.5,1.7600000 -4.7400000,4.0 -7.5,4.0 C -10.260000,4.0 -12.5,1.7600000 -12.5,-1.0 C -12.5,-3.7600000 -10.260000,-6.0 -7.5,-6.0 C -4.7400000,-6.0 -2.5,-3.7600000 -2.5,-1.0 z "
         id="path898" />
    </marker>
  </defs>
  <sodipodi:namedview
     pagecolor="#ffffff"
     bordercolor="#666666"
     borderopacity="1"
     objecttolerance="10"
     gridtolerance="10"
     guidetolerance="10"
     inkscape:pageopacity="0"
     inkscape:pageshadow="2"
     inkscape:window-width="1920"
     inkscape:window-height="1024"
     id="namedview8"
     showgrid="false"
     inkscape:zoom="11.313708"
     inkscape:cx="24.110674"
     inkscape:cy="26.62155"
     inkscape:window-x="0"
     inkscape:window-y="24"
     inkscape:window-maximized="1"
     inkscape:current-layer="svg6"
     inkscape:document-rotation="0" />
  <circle
     cx="23.940615"
     cy="31.534513"
     fill="#5e81ac"
     opacity=".99"
     id="circle2"
     style="fill:#ea9d85;fill-opacity:1"
     transform="matrix(1.75830584759 0 0 1.75830608345 -18.15909274367 -30.97874795549)"
     r="13.232998" />
  <ellipse
     cx="23.935829"
     cy="24.468578"
     fill="#5e81ac"
     opacity="0.99"
     id="circle841"
     style="fill:#efb7a5;fill-opacity:0.99607843;stroke-width:1.53081"
     rx="20.257135"
     ry="20.257137" />
  <circle
     style="opacity:1;fill:#fb7247;fill-opacity:1;stroke-width:0.473797;stroke-linecap:round;stroke-linejoin:round"
     id="circle886"
     cx="23.935831"
     cy="24.468578"
     r="10.189386" />
  <path
     id="path893"
     style="opacity:1;fill:#ffffff;fill-opacity:1;stroke-width:0.104461;stroke-linecap:round;stroke-linejoin:round"
     d="M 23.93583,6.9562801 C 14.264071,6.9560044 6.4233158,14.796246 6.4229573,24.468005 6.4226823,34.140211 14.263624,41.981152 23.93583,41.980878 33.608037,41.981153 41.448978,34.140212 41.448703,24.468005 41.448345,14.796246 33.607588,6.9560044 23.93583,6.9562801 Z M 23.9496,9.60978 c 0.0081,-2.2e-5 0.01607,-2.2e-5 0.02411,0 2.43631,-4.7e-4 4.411625,1.974331 4.411789,4.41064 -1.015843,6.493733 -8.679067,4.746512 -8.82243,0 1.27e-4,-2.42648 1.960096,-4.397218 4.386539,-4.41064 z m -8.721431,15.721301 c 0.0081,-2.2e-5 0.01607,-2.2e-5 0.02411,0 2.435862,1.64e-4 4.410477,1.974779 4.41064,4.410641 -1.63e-4,2.435862 -1.974778,4.410478 -4.41064,4.410642 -2.435862,-1.64e-4 -4.410477,-1.974779 -4.410641,-4.410642 1.26e-4,-2.426481 1.960094,-4.397219 4.386538,-4.410641 z m 17.372852,0 c 0.0081,-2.2e-5 0.01607,-2.2e-5 0.02411,0 2.435862,1.64e-4 4.410477,1.974779 4.410641,4.410641 -1.64e-4,2.435862 -1.974779,4.410478 -4.410641,4.410642 -2.435862,-1.64e-4 -4.410477,-1.974779 -4.410642,-4.410642 1.27e-4,-2.426481 1.960096,-4.397219 4.38654,-4.410641 z"
     sodipodi:nodetypes="cccccccccccccccccccccc" />
  <circle
     style="opacity:1;fill:#ea9d85;fill-opacity:0.99215686;stroke-width:0.208633;stroke-linecap:round;stroke-linejoin:round"
     id="path884"
     cx="23.935831"
     cy="24.468578"
     r="4.4868202" />
  <circle
     style="opacity:1;fill:#fb7247;fill-opacity:0.16272731;stroke-width:0.473797;stroke-linecap:round;stroke-linejoin:round"
     id="circle888"
     cx="23.935831"
     cy="24.468578"
     r="10.189386" />
</svg>
